<svg width="33" height="33" viewBox="0 0 33 33" fill="none" xmlns="http://www.w3.org/2000/svg">
<g filter="url(#filter0_d_648_2462)">
<path fill-rule="evenodd" clip-rule="evenodd" d="M13.7292 2.82563e-07C13.2702 -0.000217074 12.8206 0.124968 12.4326 0.361C12.0446 0.597032 11.7342 0.934212 11.5375 1.33333C10.5899 1.34133 9.8529 1.38267 9.19346 1.63067C8.40624 1.92703 7.72161 2.43068 7.2179 3.084C6.70946 3.74133 6.46979 4.58667 6.14283 5.748L6.07772 5.97467L5.36702 9.92667C5.11072 10.0973 4.88767 10.3 4.69372 10.5387C3.44548 12.076 4.03981 14.3653 5.22848 18.94C5.98351 21.8507 6.36172 23.3053 7.48943 24.1533C8.61714 25 10.1757 25 13.2928 25H19.7072C22.8243 25 24.3829 25 25.5106 24.1533C26.6383 23.3053 27.0151 21.8507 27.7715 18.94C28.9602 14.364 29.5545 12.0773 28.3063 10.5387C28.1155 10.3021 27.8879 10.0952 27.6316 9.92533L26.9209 5.976L26.8572 5.74933C26.5288 4.58667 26.2892 3.74133 25.7821 3.08267C25.2782 2.42984 24.5936 1.92666 23.8065 1.63067C23.1471 1.38267 22.4087 1.34133 21.4625 1.33467C21.266 0.935296 20.9556 0.59784 20.5676 0.361563C20.1797 0.125286 19.7299 -9.74876e-05 19.2708 2.82563e-07H13.7292ZM25.3914 9.19467L24.8899 6.41067C24.4979 5.024 24.3552 4.588 24.1141 4.276C23.8428 3.92415 23.4741 3.65291 23.0501 3.49333C22.7453 3.37867 22.3768 3.34533 21.4597 3.336C21.2628 3.73421 20.9527 4.07057 20.5652 4.30608C20.1778 4.54159 19.729 4.66662 19.2708 4.66667H13.7292C13.271 4.66662 12.8222 4.54159 12.4348 4.30608C12.0473 4.07057 11.7372 3.73421 11.5403 3.336C10.6218 3.34533 10.2547 3.37867 9.94988 3.49333C9.52591 3.65291 9.15718 3.92415 8.8859 4.276C8.64485 4.588 8.50215 5.02267 8.11009 6.40933L7.60857 9.19467C8.99119 9 10.8338 9 13.2928 9H19.7072C22.1662 9 24.0088 9 25.3914 9.19467ZM10.9584 13.3333C11.234 13.3333 11.4983 13.4387 11.6932 13.6262C11.888 13.8138 11.9975 14.0681 11.9975 14.3333V19.6667C11.9975 19.9319 11.888 20.1862 11.6932 20.3738C11.4983 20.5613 11.234 20.6667 10.9584 20.6667C10.6829 20.6667 10.4186 20.5613 10.2237 20.3738C10.0289 20.1862 9.9194 19.9319 9.9194 19.6667V14.3333C9.9194 14.0681 10.0289 13.8138 10.2237 13.6262C10.4186 13.4387 10.6829 13.3333 10.9584 13.3333ZM23.0806 14.3333C23.0806 14.0681 22.9711 13.8138 22.7763 13.6262C22.5814 13.4387 22.3171 13.3333 22.0416 13.3333C21.766 13.3333 21.5017 13.4387 21.3068 13.6262C21.112 13.8138 21.0025 14.0681 21.0025 14.3333V19.6667C21.0025 19.9319 21.112 20.1862 21.3068 20.3738C21.5017 20.5613 21.766 20.6667 22.0416 20.6667C22.3171 20.6667 22.5814 20.5613 22.7763 20.3738C22.9711 20.1862 23.0806 19.9319 23.0806 19.6667V14.3333ZM16.5 13.3333C16.7756 13.3333 17.0399 13.4387 17.2347 13.6262C17.4296 13.8138 17.539 14.0681 17.539 14.3333V19.6667C17.539 19.9319 17.4296 20.1862 17.2347 20.3738C17.0399 20.5613 16.7756 20.6667 16.5 20.6667C16.2244 20.6667 15.9601 20.5613 15.7653 20.3738C15.5704 20.1862 15.461 19.9319 15.461 19.6667V14.3333C15.461 14.0681 15.5704 13.8138 15.7653 13.6262C15.9601 13.4387 16.2244 13.3333 16.5 13.3333Z" fill="#22BB9B"/>
</g>
<defs>
<filter id="filter0_d_648_2462" x="0" y="0" width="33" height="33" filterUnits="userSpaceOnUse" color-interpolation-filters="sRGB">
<feFlood flood-opacity="0" result="BackgroundImageFix"/>
<feColorMatrix in="SourceAlpha" type="matrix" values="0 0 0 0 0 0 0 0 0 0 0 0 0 0 0 0 0 0 127 0" result="hardAlpha"/>
<feOffset dy="4"/>
<feGaussianBlur stdDeviation="2"/>
<feComposite in2="hardAlpha" operator="out"/>
<feColorMatrix type="matrix" values="0 0 0 0 0 0 0 0 0 0 0 0 0 0 0 0 0 0 0.25 0"/>
<feBlend mode="normal" in2="BackgroundImageFix" result="effect1_dropShadow_648_2462"/>
<feBlend mode="normal" in="SourceGraphic" in2="effect1_dropShadow_648_2462" result="shape"/>
</filter>
</defs>
</svg>
