<svg width="25" height="25" viewBox="0 0 25 25" fill="none" xmlns="http://www.w3.org/2000/svg">
<path opacity="0.2" fill-rule="evenodd" clip-rule="evenodd" d="M9.72922 2.82563e-07C9.27023 -0.000217074 8.8206 0.124968 8.43262 0.361C8.04464 0.597032 7.73425 0.934212 7.53754 1.33333C6.58993 1.34133 5.8529 1.38267 5.19346 1.63067C4.40624 1.92703 3.72161 2.43068 3.2179 3.084C2.70946 3.74133 2.46979 4.58667 2.14283 5.748L2.07772 5.97467L1.36702 9.92667C1.11072 10.0973 0.887671 10.3 0.693716 10.5387C-0.554519 12.076 0.0398131 14.3653 1.22848 18.94C1.98351 21.8507 2.36172 23.3053 3.48943 24.1533C4.61714 25 6.1757 25 9.29283 25H15.7072C18.8243 25 20.3829 25 21.5106 24.1533C22.6383 23.3053 23.0151 21.8507 23.7715 18.94C24.9602 14.364 25.5545 12.0773 24.3063 10.5387C24.1155 10.3021 23.8879 10.0952 23.6316 9.92533L22.9209 5.976L22.8572 5.74933C22.5288 4.58667 22.2892 3.74133 21.7821 3.08267C21.2782 2.42984 20.5936 1.92666 19.8065 1.63067C19.1471 1.38267 18.4087 1.34133 17.4625 1.33467C17.2659 0.935296 16.9556 0.59784 16.5676 0.361563C16.1797 0.125286 15.7299 -9.74876e-05 15.2708 2.82563e-07H9.72922ZM21.3914 9.19467L20.8899 6.41067C20.4978 5.024 20.3552 4.588 20.1141 4.276C19.8428 3.92415 19.4741 3.65291 19.0501 3.49333C18.7453 3.37867 18.3768 3.34533 17.4597 3.336C17.2628 3.73421 16.9527 4.07057 16.5652 4.30608C16.1778 4.54159 15.729 4.66662 15.2708 4.66667H9.72922C9.271 4.66662 8.82217 4.54159 8.43476 4.30608C8.04735 4.07057 7.73721 3.73421 7.54031 3.336C6.6218 3.34533 6.25467 3.37867 5.94988 3.49333C5.52591 3.65291 5.15718 3.92415 4.8859 4.276C4.64485 4.588 4.50215 5.02267 4.11009 6.40933L3.60857 9.19467C4.99119 9 6.83376 9 9.29283 9H15.7072C18.1662 9 20.0088 9 21.3914 9.19467ZM6.95845 13.3333C7.23402 13.3333 7.4983 13.4387 7.69316 13.6262C7.88802 13.8138 7.99749 14.0681 7.99749 14.3333V19.6667C7.99749 19.9319 7.88802 20.1862 7.69316 20.3738C7.4983 20.5613 7.23402 20.6667 6.95845 20.6667C6.68287 20.6667 6.41859 20.5613 6.22373 20.3738C6.02887 20.1862 5.9194 19.9319 5.9194 19.6667V14.3333C5.9194 14.0681 6.02887 13.8138 6.22373 13.6262C6.41859 13.4387 6.68287 13.3333 6.95845 13.3333ZM19.0806 14.3333C19.0806 14.0681 18.9711 13.8138 18.7763 13.6262C18.5814 13.4387 18.3171 13.3333 18.0416 13.3333C17.766 13.3333 17.5017 13.4387 17.3068 13.6262C17.112 13.8138 17.0025 14.0681 17.0025 14.3333V19.6667C17.0025 19.9319 17.112 20.1862 17.3068 20.3738C17.5017 20.5613 17.766 20.6667 18.0416 20.6667C18.3171 20.6667 18.5814 20.5613 18.7763 20.3738C18.9711 20.1862 19.0806 19.9319 19.0806 19.6667V14.3333ZM12.5 13.3333C12.7756 13.3333 13.0399 13.4387 13.2347 13.6262C13.4296 13.8138 13.539 14.0681 13.539 14.3333V19.6667C13.539 19.9319 13.4296 20.1862 13.2347 20.3738C13.0399 20.5613 12.7756 20.6667 12.5 20.6667C12.2244 20.6667 11.9601 20.5613 11.7653 20.3738C11.5704 20.1862 11.461 19.9319 11.461 19.6667V14.3333C11.461 14.0681 11.5704 13.8138 11.7653 13.6262C11.9601 13.4387 12.2244 13.3333 12.5 13.3333Z" fill="#181818"/>
</svg>
