<svg width="34" height="36" viewBox="0 0 34 36" fill="none" xmlns="http://www.w3.org/2000/svg">
<g clip-path="url(#clip0_670_2542)">
<path d="M32.1145 19.3675C32.527 18.8501 32.8805 18.2587 32.9984 17.3716C33.6466 11.6797 29.6986 5.98766 26.0452 3.47432C21.5669 0.369595 16.7939 -0.813156 11.7263 0.739205C8.66217 1.62627 6.423 3.84393 4.47846 6.87473C2.88747 9.31415 1.06078 12.5667 1.00186 15.8932C1.00186 16.9281 1.17863 18.9979 1.76789 19.7372C1.82681 19.8111 1.88574 19.885 1.94467 19.885C0.884007 20.7721 -0.530204 22.3983 0.176901 23.9507C0.471529 24.5421 1.17863 24.6899 1.76789 24.6899C2.00359 24.6899 2.23929 24.5421 2.47499 24.3942C2.41607 25.577 2.41607 27.2033 3.00532 28.2382C2.18037 28.386 1.35541 28.8296 1.06078 29.7905C0.707231 31.0472 1.00186 34.0041 1.88574 34.8912C2.35714 35.2608 3.00532 35.2608 3.53565 35.3347C4.89094 35.5565 6.1873 35.7782 7.48366 35.7782C10.5478 35.8521 13.6119 36 16.676 36C19.7402 36 22.8632 35.9261 25.9273 35.7782C27.6951 35.7043 30.2878 35.7782 31.8788 34.4476C32.9984 33.4866 33.1162 31.4168 32.8216 29.8645C32.4681 28.386 31.6431 27.8686 30.6414 27.7207C31.4663 26.7597 31.8199 25.5031 31.4074 24.0246C31.5253 24.0985 31.6431 24.1725 31.8199 24.1725C32.4091 24.1725 33.1752 23.5811 33.5287 22.9897C34.6483 21.4374 33.293 20.1068 32.1145 19.3675ZM2.35714 13.232C3.47673 9.16631 6.24623 4.73099 9.36928 2.80902C12.1977 1.03489 16.0868 0.591361 19.1509 1.18274C23.4525 2.0698 28.2844 5.32237 30.6414 10.2012C31.4663 11.9014 32.1145 14.0452 32.1734 16.0411C32.3502 19.3675 29.5807 19.6632 27.5183 19.885C24.1596 20.1807 20.7419 20.1068 17.3831 20.1068C14.2601 20.1068 11.137 20.0328 8.01399 20.0328C6.48193 20.0328 3.29995 20.4024 2.23929 18.6283C1.41434 17.1499 1.94467 14.5626 2.35714 13.232ZM32.0556 30.1601C32.3502 31.1211 32.1734 32.8953 31.5253 33.5606C30.6414 34.5215 28.6968 34.5955 27.6362 34.6694C24.0417 34.9651 20.3883 35.039 16.7939 34.9651C13.4351 34.9651 10.0764 34.9651 6.77656 34.6694C5.36234 34.5955 2.65177 34.7433 2.06252 32.8213C1.41434 30.6037 2.41607 29.2731 4.12491 29.0513C4.77309 29.2731 5.48019 29.1992 6.12837 29.1992C10.2532 29.347 14.3779 29.7166 18.5027 29.4209C20.624 29.2731 22.7454 28.9774 24.8667 28.9774C26.4577 28.9774 27.9897 29.2731 29.5218 28.5339C30.4646 28.6817 31.5842 28.6078 32.0556 30.1601ZM24.3953 28.0903C21.8026 28.1643 19.2098 28.5339 16.6171 28.6078C14.2012 28.6817 11.7263 28.5339 9.31035 28.4599C8.13184 28.386 6.89441 28.386 5.7159 28.3121C3.6535 28.2382 3.12318 26.538 3.29995 24.2464C4.06598 24.3942 4.00706 25.1335 4.41954 25.7988C5.7159 27.6468 7.66044 26.2423 8.83895 25.1335C9.6639 24.3203 10.1353 23.8029 11.196 24.4682C11.6084 24.6899 11.9031 25.1335 12.3155 25.3552C13.2584 25.7988 13.8476 25.2813 14.7315 24.9856C16.9117 24.1725 16.8528 24.6899 18.5027 25.7248C18.9152 25.9466 19.3277 26.1684 19.7991 26.3162C20.9187 26.6119 21.9793 26.3162 22.9221 25.6509C24.1596 24.7638 24.4542 23.9507 26.2809 24.6899C26.6344 24.8378 26.8701 25.1335 27.2237 25.2813C27.9897 25.577 28.5201 25.4291 29.1682 24.8378C29.6986 24.3203 29.9343 23.8768 30.5235 23.8029C32.527 28.4599 26.3398 28.0164 24.3953 28.0903ZM31.3485 22.8419C30.8182 22.694 30.5235 22.1766 29.9343 22.3244C29.5218 22.4723 29.2861 22.9897 28.9915 23.2854C28.3433 23.8768 27.9308 24.1725 27.0469 23.8768C26.6934 23.7289 26.3987 23.4332 26.0452 23.2854C24.5131 22.694 23.6882 23.7289 22.3918 24.616C20.8008 25.7248 19.3277 24.9856 17.8545 23.9507C17.2064 23.5072 16.6171 23.1376 15.8511 23.2115C14.9083 23.2854 14.1422 23.9507 13.1405 24.0246C11.8441 24.0985 11.7852 23.3593 10.7246 22.9897C9.6639 22.6201 8.89787 23.5072 8.13184 24.3203C7.24796 25.1335 7.18903 25.2813 5.9516 24.9856C4.36061 24.616 5.06772 24.7638 4.36061 23.655C4.18383 23.3593 3.88921 23.0636 3.59458 22.9897C3.00532 22.8419 2.53392 23.4332 2.00359 23.4332C-0.412353 23.5072 1.70896 20.9938 2.7107 20.3285C3.71243 20.6981 4.94987 20.6981 5.7159 20.7721C9.54605 21.1417 13.3762 20.9199 17.2064 20.9938C20.683 21.0677 24.2185 21.0677 27.6951 20.7721C28.8147 20.6981 30.17 20.5503 31.1717 19.885C31.5842 20.1068 32.7038 20.846 32.8216 21.3634C33.293 22.694 31.9967 23.0636 31.3485 22.8419Z" fill="white"/>
<path d="M6.48187 18.5544C7.0122 18.5544 7.0122 17.5195 6.48187 17.5195C5.53906 17.5934 3.83023 17.7413 4.007 16.0411C4.12485 14.8583 4.77303 13.7495 5.42121 12.9363C5.77477 12.4189 5.18551 11.7536 4.83196 12.1971C4.007 13.3059 2.82849 15.4497 3.12312 17.076C3.35882 18.7022 5.53906 18.6283 6.48187 18.5544Z" fill="white"/>
<path d="M8.42656 18.5544C8.95689 18.5544 8.95689 17.5195 8.42656 17.5195C7.89623 17.5195 7.89623 18.5544 8.42656 18.5544Z" fill="white"/>
<path d="M10.1942 5.24844C10.4299 5.24844 10.6067 5.02668 10.6067 4.73099C10.6067 4.50923 10.6656 4.36138 10.6656 4.13962C10.6656 3.84393 10.4299 3.62216 10.2531 3.62216C10.0174 3.62216 9.84066 3.84393 9.84066 4.13962C9.84066 4.36138 9.78174 4.50923 9.78174 4.73099C9.78174 5.02668 10.0174 5.24844 10.1942 5.24844Z" fill="white"/>
<path d="M14.6725 4.21355C14.7904 4.0657 14.9672 3.99178 15.085 3.91786C15.5564 3.62217 15.144 2.73511 14.6725 3.03079C14.4368 3.17864 14.2601 3.32648 14.0833 3.47433C13.6708 3.84394 14.2601 4.58316 14.6725 4.21355Z" fill="white"/>
<path d="M19.092 3.99177C19.5634 4.28746 19.9759 3.40039 19.5045 3.1047C19.2688 2.95686 19.092 2.80902 18.8563 2.66117C18.4438 2.29156 18.0313 3.17863 18.4438 3.54824C18.6795 3.69608 18.9152 3.84392 19.092 3.99177Z" fill="white"/>
<path d="M22.0972 5.32236C22.1561 5.17452 22.274 5.1006 22.3918 5.02668C22.9221 4.87883 22.6864 3.84392 22.1561 3.99177C21.8615 4.06569 21.6258 4.21353 21.449 4.50922C21.0954 5.02668 21.6847 5.7659 22.0972 5.32236Z" fill="white"/>
<path d="M16.9118 8.20533C17.2653 8.72279 17.8546 7.98357 17.501 7.46611C17.4421 7.31827 17.3242 7.24435 17.2653 7.17042C16.8528 6.72689 16.2636 7.46611 16.6761 7.90964C16.735 7.98357 16.7939 8.05749 16.9118 8.20533Z" fill="white"/>
<path d="M12.021 8.05749C12.1389 7.90964 12.2567 7.7618 12.3746 7.68788C12.846 7.39219 12.4335 6.50513 11.9621 6.80081C11.7853 6.94866 11.5496 7.0965 11.4318 7.31827C11.0782 7.83572 11.6675 8.50102 12.021 8.05749Z" fill="white"/>
<path d="M20.683 8.35318C21.1544 8.64887 21.5669 7.76181 21.0955 7.46612C20.9187 7.3922 20.8009 7.24436 20.683 7.02259C20.3884 6.43121 19.6813 6.94867 19.9759 7.54004C20.1527 7.83573 20.3884 8.13142 20.683 8.35318Z" fill="white"/>
<path d="M7.89608 7.83571C7.89608 7.68787 7.95501 7.61395 8.01393 7.54003C8.42641 7.17042 8.01393 6.28335 7.60145 6.65296C7.36575 6.87473 7.13005 7.17042 7.07113 7.54003C7.0122 8.20532 7.83716 8.50101 7.89608 7.83571Z" fill="white"/>
<path d="M24.3363 7.24434C24.7487 7.68787 25.338 6.94865 24.9255 6.50512C24.8077 6.35728 24.6898 6.28336 24.572 6.13551C24.1595 5.69198 23.5702 6.4312 23.9827 6.87473C24.1006 6.94865 24.2184 7.0965 24.3363 7.24434Z" fill="white"/>
</g>
<defs>
<clipPath id="clip0_670_2542">
<rect width="34" height="36" fill="white"/>
</clipPath>
</defs>
</svg>
