<svg width="41" height="29" viewBox="0 0 41 29" fill="none" xmlns="http://www.w3.org/2000/svg">
<g clip-path="url(#clip0_670_2559)">
<path d="M38.1453 12.1122C38.4933 11.2124 38.7022 10.4511 38.6325 9.68974C38.5629 8.09785 37.31 6.85203 36.6139 6.22912C35.6393 5.39857 34.456 4.84487 33.2726 4.29117C33.0638 4.15274 32.7854 4.08353 32.5069 3.94511C31.8108 3.59905 30.9755 3.18377 30.2098 3.18377C30.0706 3.18377 29.9314 3.18377 29.7921 3.25298C29.7225 2.69928 29.5137 2.28401 29.3049 2.00716C28.6784 1.24582 27.495 0.899761 26.6597 0.622912C25.3371 0.207637 24.0146 0 22.6224 0C21.5086 0 20.2556 0.138425 19.0027 0.346062C17.1928 0.692124 14.7565 1.45346 13.7123 3.18377C13.2251 3.04535 12.7378 2.97613 12.1809 2.97613C9.95343 2.97613 7.58671 4.15274 6.12491 5.19093C5.08077 5.95227 4.10623 6.78282 3.68858 7.821C3.47975 8.44391 3.47975 9.20525 3.75819 10.0358C2.43561 11.2816 1.39146 13.1504 0.48654 15.8496C-0.348774 18.4797 -0.139946 21.1098 1.11303 24.3628C1.87873 26.3699 2.85326 27.3389 3.89741 27.3389C4.24545 27.3389 4.66311 27.2005 5.01116 26.9928C5.77686 26.5776 6.19452 25.8854 6.61218 25.1933C6.7514 24.9857 6.89062 24.7088 7.02983 24.5012C7.86515 23.3246 8.90929 22.4248 10.1623 21.7327L10.2319 21.8019C10.7887 22.494 11.6241 22.8401 12.529 22.8401C13.5731 22.8401 14.8261 22.3556 15.8006 21.4558C16.9144 22.2172 18.585 22.2864 19.838 22.3556H19.9772C20.3252 22.3556 20.6733 22.3556 21.091 22.3556C22.2743 22.3556 24.0146 22.2864 25.1979 21.5943C25.7548 22.148 26.4509 22.4248 27.147 22.7709C27.3558 22.8401 27.5646 22.9093 27.7735 23.0477C28.5392 23.3938 29.096 23.5322 29.6529 23.5322C30.1402 23.5322 30.5578 23.3938 30.9755 23.1169C31.1147 22.9785 31.3236 22.8401 31.4628 22.7017C32.5765 23.3938 33.4814 24.0167 33.6903 25.5394C33.7599 25.8162 33.7599 26.0931 33.7599 26.3699C33.8295 26.9928 33.8295 27.685 34.1775 28.2387C34.5256 28.8616 35.0129 29.1384 35.5001 29.1384C36.3354 29.1384 37.3796 28.3079 38.5629 26.716C40.2336 24.432 41.0689 21.5943 40.9993 18.7566C40.9297 16.4033 39.9551 13.4272 38.1453 12.1122ZM34.8736 26.6468V26.4391C34.8736 26.2315 34.8736 26.0931 34.804 25.8854C34.7344 25.3317 34.7344 24.778 34.5256 24.2243C34.1079 23.0477 33.203 22.3556 32.1589 21.7327C32.5069 21.2482 32.7853 20.7637 33.1334 20.2792C33.2726 20.0716 33.3422 19.9332 33.4814 19.7255C33.6207 19.5179 33.7599 19.3103 33.8295 19.1718C34.8736 17.7184 36.057 16.0573 37.0315 14.1885L37.1708 13.9809C37.3796 13.6348 37.5188 13.2888 37.7276 12.9427C39.4679 14.3962 40.0247 17.58 39.9551 19.3795C39.8159 21.9403 39.0502 24.2243 37.5884 26.1623C37.5188 26.2315 37.4492 26.3007 37.3796 26.4391C37.1011 26.8544 36.7531 27.4081 36.3354 27.5465C36.057 27.685 35.7786 27.7542 35.6393 27.7542C35.5697 27.7542 35.5001 27.7542 35.5001 27.7542C35.0129 27.685 34.9432 27.1313 34.8736 26.6468ZM16.2879 20.4177C15.8006 19.6563 15.6614 18.4797 15.5222 17.4415C15.5222 17.2339 15.4526 17.0263 15.4526 16.7494V16.611C15.1741 14.7422 14.8957 12.8043 14.6869 10.3126C14.6173 9.34368 14.4781 8.44391 14.4084 7.47494C14.4084 7.2673 14.3388 6.99045 14.3388 6.78282C14.1996 5.74463 14.13 4.63723 14.5477 3.80668C15.4526 2.00716 18.0977 1.03819 22.2743 0.968974C22.4135 0.968974 22.5528 0.968974 22.692 0.968974C24.2234 0.968974 25.6156 1.17661 26.8685 1.59189C27.7039 1.86874 28.4 2.14558 28.748 3.04535C28.8176 3.25298 28.8872 3.46062 28.8872 3.66826C28.8176 3.80668 28.8872 3.94511 28.8872 4.01432C28.8872 4.42959 28.8872 4.84487 28.8872 5.26014V5.53699C28.748 8.30549 28.1215 11.1432 27.495 13.9117L27.4254 14.2578C27.2166 15.2267 27.0078 16.0573 26.7989 16.8186C26.5901 17.5107 26.3813 18.1337 26.1724 18.6181C25.6156 20.1408 24.5714 20.8329 22.5528 21.0406C21.9263 21.1098 21.0213 21.179 20.0468 21.179C18.0977 21.3866 16.9144 21.0406 16.2879 20.4177ZM12.529 21.8019C11.4152 21.8019 10.7191 20.6253 10.0927 19.7255C9.95343 19.5179 9.88382 19.3795 9.7446 19.1718L9.46617 18.6874C8.14359 16.7494 6.96022 14.673 5.98569 12.5967C5.91608 12.389 5.77686 12.1814 5.63764 11.9045C5.15038 10.9356 4.5935 9.82816 4.5935 8.85919C4.5935 7.75179 5.56803 6.85203 6.68179 6.09069C8.14359 5.05251 10.3711 4.01432 12.2505 4.01432C12.6682 4.01432 13.0163 4.08353 13.3643 4.15274C13.0163 5.39857 13.2251 6.99045 13.4339 8.44391C13.5035 8.85919 13.5731 9.27446 13.5731 9.68974C13.782 12.3198 14.0604 14.6038 14.4084 16.6802C14.4084 16.8186 14.4781 17.0263 14.4781 17.1647L14.5477 17.5107C14.6869 18.5489 14.8261 19.7947 15.3134 20.6945C14.5477 21.3866 13.5731 21.8019 12.7378 21.8019H12.529ZM1.73951 22.9785C1.6699 22.7709 1.60029 22.6325 1.60029 22.494C0.834587 20.0716 0.834588 17.926 1.6699 15.7112C2.29639 14.0501 2.99248 12.3198 4.17584 11.074L4.38467 11.5585C5.63764 14.5346 6.96022 17.0263 8.42202 19.1718C8.83968 19.7948 9.25734 20.3484 9.67499 20.9021C8.2828 21.6635 7.23866 22.5632 6.40335 23.7399C6.33374 23.8783 6.19452 24.0859 6.0553 24.2936C5.56803 25.1241 4.94155 26.2315 4.03662 26.2315C3.75819 26.2315 3.54936 26.0931 3.27092 25.9547C2.43561 25.3317 2.01795 23.9475 1.73951 22.9785ZM27.3558 18.2721L27.4254 17.9952C27.495 17.7876 27.5646 17.5107 27.6342 17.3031V17.2339C27.9823 16.1265 28.2607 14.9499 28.5392 13.5656L28.748 12.5274C29.3049 10.0358 29.8618 7.40573 29.7921 4.84487C29.7921 4.70644 29.7921 4.49881 29.7921 4.29117C29.9314 4.22196 30.0706 4.22196 30.2098 4.22196C30.9755 4.22196 31.8804 4.70644 32.5765 5.12172C32.7854 5.26014 32.9942 5.39857 33.203 5.46778L33.5511 5.60621C34.456 6.09069 35.4305 6.57518 36.1962 7.2673C37.3796 8.3747 37.7972 9.62053 37.3796 11.074C37.1011 12.1814 36.405 13.358 35.7786 14.3962L35.5697 14.7422C34.5952 16.4033 33.4814 17.926 32.5765 19.2411C32.2981 19.6563 31.95 20.0716 31.6716 20.5561C31.5324 20.6945 31.4628 20.9021 31.3236 21.0406C31.1147 21.3866 30.9059 21.7327 30.6275 21.9403C30.2794 22.2864 29.9314 22.4248 29.5137 22.4248C29.0264 22.4248 28.5392 22.2172 28.1215 22.0095C27.9823 21.9403 27.7735 21.8711 27.5646 21.8019C27.0078 21.5943 26.4509 21.3174 26.0332 20.9714C26.7293 20.21 27.0774 19.1718 27.3558 18.2721Z" fill="white"/>
</g>
<defs>
<clipPath id="clip0_670_2559">
<rect width="41" height="29" fill="white"/>
</clipPath>
</defs>
</svg>
