<svg width="14" height="14" viewBox="0 0 14 14" fill="none" xmlns="http://www.w3.org/2000/svg">
<path fill-rule="evenodd" clip-rule="evenodd" d="M3.77992 1.58718L1.73326 3.29384C1.45326 3.52718 1.03326 3.49384 0.799922 3.20718C0.559923 2.92718 0.599923 2.50718 0.879922 2.26718L2.93326 0.56051C3.21326 0.327177 3.63326 0.36051 3.86659 0.647177C4.10659 0.927177 4.06659 1.34718 3.77992 1.58718ZM13.1199 2.26718L11.0666 0.56051C10.7866 0.327177 10.3666 0.36051 10.1266 0.647177C9.89325 0.927177 9.93325 1.34718 10.2133 1.58718L12.2599 3.29384C12.5399 3.52718 12.9599 3.49384 13.1999 3.20718C13.4399 2.92718 13.3999 2.50718 13.1199 2.26718ZM9.57992 9.09384L7.33325 7.76051V4.74051C7.33325 4.47384 7.11992 4.26051 6.85325 4.26051H6.81325C6.54659 4.26051 6.33326 4.47384 6.33326 4.74051V7.88717C6.33326 8.12051 6.45326 8.34051 6.65992 8.46051L9.09325 9.92051C9.31992 10.0538 9.61325 9.98717 9.74659 9.76051C9.88659 9.52717 9.81325 9.22717 9.57992 9.09384ZM6.99993 1.59385C3.6866 1.59385 0.999929 4.28052 0.999929 7.59385C0.999929 10.9072 3.6866 13.5939 6.99993 13.5939C10.3133 13.5939 12.9999 10.9072 12.9999 7.59385C12.9999 4.28052 10.3133 1.59385 6.99993 1.59385ZM2.33325 7.59383C2.33325 10.1672 4.42659 12.2605 6.99992 12.2605C9.57325 12.2605 11.6666 10.1672 11.6666 7.59383C11.6666 5.02049 9.57325 2.92716 6.99992 2.92716C4.42659 2.92716 2.33325 5.02049 2.33325 7.59383Z" fill="#22BB9B"/>
</svg>
