<svg width="37" height="37" viewBox="0 0 37 37" fill="none" xmlns="http://www.w3.org/2000/svg">
<path d="M8.07043 11.101C3.76542 12.0758 1.61291 12.5623 1.10016 14.209C0.58916 15.854 2.05566 17.5708 4.99042 21.0026L5.74993 21.8898C6.58293 22.8646 7.00118 23.3528 7.18843 23.9548C7.37568 24.5586 7.31268 25.2096 7.18668 26.5098L7.07118 27.6946C6.62843 32.2743 6.40618 34.5634 7.74668 35.5801C9.08719 36.5986 11.1032 35.6694 15.1317 33.8143L16.1765 33.3348C17.321 32.8063 17.8932 32.5438 18.5005 32.5438C19.1077 32.5438 19.68 32.8063 20.8262 33.3348L21.8675 33.8143C25.8977 35.6694 27.9137 36.5969 29.2525 35.5819C30.5947 34.5634 30.3725 32.2743 29.9297 27.6946M32.0105 21.0026C34.9453 17.5726 36.4118 15.8558 35.9008 14.209C35.388 12.5623 33.2355 12.074 28.9305 11.101L27.8175 10.849C26.5942 10.5725 25.9835 10.4343 25.4917 10.0615C25.0017 9.68878 24.6867 9.12352 24.0567 7.99302L23.4827 6.96402C21.2655 2.98801 20.1577 1 18.5005 1C16.8432 1 15.7355 2.98801 13.5182 6.96402" stroke="white" stroke-width="1.7" stroke-linecap="round"/>
</svg>
