<svg width="34" height="36" viewBox="0 0 34 36" fill="none" xmlns="http://www.w3.org/2000/svg">
<path d="M32.1145 19.3676C32.527 18.8501 32.8805 18.2588 32.9984 17.3717C33.6466 11.6797 29.6986 5.98773 26.0452 3.47438C21.5669 0.369656 16.7939 -0.813095 11.7263 0.739266C8.66217 1.62633 6.423 3.84399 4.47846 6.87479C2.88747 9.31421 1.06078 12.5668 1.00186 15.8933C1.00186 16.9282 1.17863 18.998 1.76789 19.7372C1.82681 19.8111 1.88574 19.8851 1.94467 19.8851C0.884007 20.7721 -0.530204 22.3984 0.176901 23.9508C0.471529 24.5421 1.17863 24.69 1.76789 24.69C2.00359 24.69 2.23929 24.5421 2.47499 24.3943C2.41607 25.577 2.41607 27.2033 3.00532 28.2382C2.18037 28.3861 1.35541 28.8296 1.06078 29.7906C0.707231 31.0473 1.00186 34.0042 1.88574 34.8912C2.35714 35.2608 3.00532 35.2608 3.53565 35.3347C4.89094 35.5565 6.1873 35.7783 7.48366 35.7783C10.5478 35.8522 13.6119 36 16.676 36C19.7402 36 22.8632 35.9261 25.9273 35.7783C27.6951 35.7044 30.2878 35.7783 31.8788 34.4477C32.9984 33.4867 33.1162 31.4169 32.8216 29.8645C32.4681 28.3861 31.6431 27.8686 30.6414 27.7208C31.4663 26.7598 31.8199 25.5031 31.4074 24.0247C31.5253 24.0986 31.6431 24.1725 31.8199 24.1725C32.4091 24.1725 33.1752 23.5812 33.5287 22.9898C34.6483 21.4374 33.293 20.1068 32.1145 19.3676ZM2.35714 13.2321C3.47673 9.16637 6.24623 4.73105 9.36928 2.80908C12.1977 1.03495 16.0868 0.591422 19.1509 1.1828C23.4525 2.06986 28.2844 5.32243 30.6414 10.2013C31.4663 11.9015 32.1145 14.0452 32.1734 16.0411C32.3502 19.3676 29.5807 19.6633 27.5183 19.8851C24.1596 20.1807 20.7419 20.1068 17.3831 20.1068C14.2601 20.1068 11.137 20.0329 8.01399 20.0329C6.48193 20.0329 3.29995 20.4025 2.23929 18.6284C1.41434 17.1499 1.94467 14.5627 2.35714 13.2321ZM32.0556 30.1602C32.3502 31.1212 32.1734 32.8953 31.5253 33.5606C30.6414 34.5216 28.6968 34.5955 27.6362 34.6695C24.0417 34.9651 20.3883 35.0391 16.7939 34.9651C13.4351 34.9651 10.0764 34.9651 6.77656 34.6695C5.36234 34.5955 2.65177 34.7434 2.06252 32.8214C1.41434 30.6037 2.41607 29.2731 4.12491 29.0514C4.77309 29.2731 5.48019 29.1992 6.12837 29.1992C10.2532 29.3471 14.3779 29.7167 18.5027 29.421C20.624 29.2731 22.7454 28.9775 24.8667 28.9775C26.4577 28.9775 27.9897 29.2731 29.5218 28.5339C30.4646 28.6818 31.5842 28.6078 32.0556 30.1602ZM24.3953 28.0904C21.8026 28.1643 19.2098 28.5339 16.6171 28.6078C14.2012 28.6818 11.7263 28.5339 9.31035 28.46C8.13184 28.3861 6.89441 28.3861 5.7159 28.3122C3.6535 28.2382 3.12318 26.538 3.29995 24.2465C4.06598 24.3943 4.00706 25.1335 4.41954 25.7988C5.7159 27.6469 7.66044 26.2423 8.83895 25.1335C9.6639 24.3204 10.1353 23.8029 11.196 24.4682C11.6084 24.69 11.9031 25.1335 12.3155 25.3553C13.2584 25.7988 13.8476 25.2814 14.7315 24.9857C16.9117 24.1725 16.8528 24.69 18.5027 25.7249C18.9152 25.9467 19.3277 26.1684 19.7991 26.3163C20.9187 26.612 21.9793 26.3163 22.9221 25.651C24.1596 24.7639 24.4542 23.9508 26.2809 24.69C26.6344 24.8378 26.8701 25.1335 27.2237 25.2814C27.9897 25.577 28.5201 25.4292 29.1682 24.8378C29.6986 24.3204 29.9343 23.8768 30.5235 23.8029C32.527 28.46 26.3398 28.0165 24.3953 28.0904ZM31.3485 22.8419C30.8182 22.6941 30.5235 22.1766 29.9343 22.3245C29.5218 22.4723 29.2861 22.9898 28.9915 23.2855C28.3433 23.8768 27.9308 24.1725 27.0469 23.8768C26.6934 23.729 26.3987 23.4333 26.0452 23.2855C24.5131 22.6941 23.6882 23.729 22.3918 24.6161C20.8008 25.7249 19.3277 24.9857 17.8545 23.9508C17.2064 23.5072 16.6171 23.1376 15.8511 23.2115C14.9083 23.2855 14.1422 23.9508 13.1405 24.0247C11.8441 24.0986 11.7852 23.3594 10.7246 22.9898C9.6639 22.6202 8.89787 23.5072 8.13184 24.3204C7.24796 25.1335 7.18903 25.2814 5.9516 24.9857C4.36061 24.6161 5.06772 24.7639 4.36061 23.6551C4.18383 23.3594 3.88921 23.0637 3.59458 22.9898C3.00532 22.8419 2.53392 23.4333 2.00359 23.4333C-0.412353 23.5072 1.70896 20.9939 2.7107 20.3286C3.71243 20.6982 4.94987 20.6982 5.7159 20.7721C9.54605 21.1417 13.3762 20.92 17.2064 20.9939C20.683 21.0678 24.2185 21.0678 27.6951 20.7721C28.8147 20.6982 30.17 20.5504 31.1717 19.8851C31.5842 20.1068 32.7038 20.846 32.8216 21.3635C33.293 22.6941 31.9967 23.0637 31.3485 22.8419Z" fill="#181818"/>
<path d="M6.48187 18.5545C7.0122 18.5545 7.0122 17.5196 6.48187 17.5196C5.53906 17.5935 3.83023 17.7414 4.007 16.0412C4.12485 14.8584 4.77303 13.7496 5.42121 12.9365C5.77477 12.419 5.18551 11.7537 4.83196 12.1972C4.007 13.3061 2.82849 15.4498 3.12312 17.0761C3.35882 18.7024 5.53906 18.6284 6.48187 18.5545Z" fill="#181818"/>
<path d="M8.42656 18.5544C8.95689 18.5544 8.95689 17.5195 8.42656 17.5195C7.89623 17.5195 7.89623 18.5544 8.42656 18.5544Z" fill="#181818"/>
<path d="M10.1942 5.24848C10.4299 5.24848 10.6067 5.02671 10.6067 4.73102C10.6067 4.50926 10.6656 4.36141 10.6656 4.13965C10.6656 3.84396 10.4299 3.62219 10.2531 3.62219C10.0174 3.62219 9.84066 3.84396 9.84066 4.13965C9.84066 4.36141 9.78174 4.50926 9.78174 4.73102C9.78174 5.02671 10.0174 5.24848 10.1942 5.24848Z" fill="#181818"/>
<path d="M14.6725 4.21358C14.7904 4.06573 14.9672 3.99181 15.085 3.91789C15.5564 3.6222 15.144 2.73514 14.6725 3.03083C14.4368 3.17867 14.2601 3.32651 14.0833 3.47436C13.6708 3.84397 14.2601 4.58319 14.6725 4.21358Z" fill="#181818"/>
<path d="M19.092 3.99189C19.5634 4.28758 19.9759 3.40051 19.5045 3.10483C19.2688 2.95698 19.092 2.80914 18.8563 2.66129C18.4438 2.29168 18.0313 3.17875 18.4438 3.54836C18.6795 3.6962 18.9152 3.84405 19.092 3.99189Z" fill="#181818"/>
<path d="M22.0972 5.32242C22.1561 5.17458 22.274 5.10066 22.3918 5.02674C22.9221 4.87889 22.6864 3.84399 22.1561 3.99183C21.8615 4.06575 21.6258 4.2136 21.449 4.50928C21.0954 5.02674 21.6847 5.76596 22.0972 5.32242Z" fill="#181818"/>
<path d="M16.9118 8.20536C17.2653 8.72282 17.8546 7.9836 17.501 7.46614C17.4421 7.3183 17.3242 7.24438 17.2653 7.17045C16.8528 6.72692 16.2636 7.46614 16.6761 7.90967C16.735 7.9836 16.7939 8.05752 16.9118 8.20536Z" fill="#181818"/>
<path d="M12.021 8.05752C12.1389 7.90967 12.2567 7.76183 12.3746 7.68791C12.846 7.39222 12.4335 6.50516 11.9621 6.80084C11.7853 6.94869 11.5496 7.09653 11.4318 7.3183C11.0782 7.83575 11.6675 8.50105 12.021 8.05752Z" fill="#181818"/>
<path d="M20.683 8.35322C21.1544 8.6489 21.5669 7.76184 21.0955 7.46615C20.9187 7.39223 20.8009 7.24439 20.683 7.02262C20.3884 6.43124 19.6813 6.9487 19.9759 7.54007C20.1527 7.83576 20.3884 8.13145 20.683 8.35322Z" fill="#181818"/>
<path d="M7.89608 7.83574C7.89608 7.6879 7.95501 7.61398 8.01393 7.54006C8.42641 7.17045 8.01393 6.28338 7.60145 6.65299C7.36575 6.87476 7.13005 7.17045 7.07113 7.54006C7.0122 8.20535 7.83716 8.50104 7.89608 7.83574Z" fill="#181818"/>
<path d="M24.3363 7.24437C24.7487 7.6879 25.338 6.94868 24.9255 6.50515C24.8077 6.35731 24.6898 6.28339 24.572 6.13554C24.1595 5.69201 23.5702 6.43123 23.9827 6.87476C24.1006 6.94868 24.2184 7.09653 24.3363 7.24437Z" fill="#181818"/>
</svg>
