<svg width="28" height="28" viewBox="0 0 28 28" fill="none" xmlns="http://www.w3.org/2000/svg">
<path fill-rule="evenodd" clip-rule="evenodd" d="M10.8967 3.16471e-07C10.3827 -0.000243123 9.87907 0.139964 9.44454 0.40432C9.01 0.668676 8.66236 1.04632 8.44204 1.49333C7.38072 1.50229 6.55525 1.54859 5.81667 1.82635C4.93499 2.15827 4.1682 2.72236 3.60404 3.45408C3.03459 4.19029 2.76616 5.13707 2.39997 6.43776L2.32705 6.69163L1.53106 11.1179C1.244 11.309 0.994191 11.536 0.776962 11.8033C-0.621061 13.5251 0.0445907 16.0892 1.37589 21.2128C2.22154 24.4727 2.64513 26.102 3.90816 27.0517C5.17119 28 6.91679 28 10.408 28H17.592C21.0832 28 22.8288 28 24.0918 27.0517C25.3549 26.102 25.7769 24.4727 26.6241 21.2128C27.9554 16.0877 28.6211 13.5266 27.223 11.8033C27.0093 11.5383 26.7544 11.3066 26.4674 11.1164L25.6714 6.69312L25.6 6.43925C25.2323 5.13707 24.9639 4.19029 24.396 3.45259C23.8316 2.72142 23.0648 2.15786 22.1833 1.82635C21.4447 1.54859 20.6177 1.50229 19.558 1.49483C19.3379 1.04753 18.9903 0.669581 18.5558 0.404951C18.1212 0.140321 17.6175 -0.000109186 17.1033 3.16471e-07H10.8967ZM23.9584 10.298L23.3967 7.17995C22.9576 5.62688 22.7978 5.13856 22.5278 4.78912C22.224 4.39504 21.811 4.09126 21.3361 3.91253C20.9948 3.78411 20.582 3.74677 19.5549 3.73632C19.3343 4.18232 18.987 4.55904 18.5531 4.82281C18.1192 5.08659 17.6165 5.22661 17.1033 5.22667H10.8967C10.3835 5.22661 9.88083 5.08659 9.44693 4.82281C9.01303 4.55904 8.66568 4.18232 8.44515 3.73632C7.41641 3.74677 7.00523 3.78411 6.66387 3.91253C6.18901 4.09126 5.77604 4.39504 5.47221 4.78912C5.20223 5.13856 5.04241 5.62539 4.6033 7.17845L4.0416 10.298C5.59014 10.08 7.65381 10.08 10.408 10.08H17.592C20.3462 10.08 22.4099 10.08 23.9584 10.298ZM7.79346 14.9333C8.1021 14.9333 8.3981 15.0513 8.61634 15.2614C8.83458 15.4714 8.95719 15.7563 8.95719 16.0533V22.0267C8.95719 22.3237 8.83458 22.6086 8.61634 22.8186C8.3981 23.0287 8.1021 23.1467 7.79346 23.1467C7.48482 23.1467 7.18882 23.0287 6.97058 22.8186C6.75234 22.6086 6.62973 22.3237 6.62973 22.0267V16.0533C6.62973 15.7563 6.75234 15.4714 6.97058 15.2614C7.18882 15.0513 7.48482 14.9333 7.79346 14.9333ZM21.3703 16.0533C21.3703 15.7563 21.2477 15.4714 21.0294 15.2614C20.8112 15.0513 20.5152 14.9333 20.2065 14.9333C19.8979 14.9333 19.6019 15.0513 19.3837 15.2614C19.1654 15.4714 19.0428 15.7563 19.0428 16.0533V22.0267C19.0428 22.3237 19.1654 22.6086 19.3837 22.8186C19.6019 23.0287 19.8979 23.1467 20.2065 23.1467C20.5152 23.1467 20.8112 23.0287 21.0294 22.8186C21.2477 22.6086 21.3703 22.3237 21.3703 22.0267V16.0533ZM14 14.9333C14.3086 14.9333 14.6046 15.0513 14.8229 15.2614C15.0411 15.4714 15.1637 15.7563 15.1637 16.0533V22.0267C15.1637 22.3237 15.0411 22.6086 14.8229 22.8186C14.6046 23.0287 14.3086 23.1467 14 23.1467C13.6914 23.1467 13.3954 23.0287 13.1771 22.8186C12.9589 22.6086 12.8363 22.3237 12.8363 22.0267V16.0533C12.8363 15.7563 12.9589 15.4714 13.1771 15.2614C13.3954 15.0513 13.6914 14.9333 14 14.9333Z" fill="#22BB9B"/>
</svg>
