<svg width="23" height="25" viewBox="0 0 23 25" fill="none" xmlns="http://www.w3.org/2000/svg">
<path opacity="0.2" d="M8.03158 23.4666V19.6445C8.03158 18.6689 8.80315 17.8779 9.75495 17.8779H13.2342C13.6913 17.8779 14.1296 18.064 14.4528 18.3954C14.776 18.7266 14.9576 19.176 14.9576 19.6445V23.4666C14.9547 23.8722 15.1099 24.2624 15.3887 24.5502C15.6675 24.8381 16.0469 25 16.4425 25H18.8162C19.9248 25.0029 20.9891 24.5535 21.774 23.751C22.5589 22.9485 23 21.8587 23 20.7222V9.83357C23 8.91557 22.6031 8.0448 21.9161 7.45583L13.8412 0.844836C12.4366 -0.314297 10.424 -0.276872 9.06126 0.933723L1.17059 7.45583C0.451213 8.02743 0.0212472 8.9008 0 9.83357V20.7111C0 23.0799 1.87314 25 4.18378 25H6.5033C7.32517 25 7.99311 24.3202 7.99906 23.4777L8.03158 23.4666Z" fill="#181818"/>
</svg>
