<svg width="33" height="33" viewBox="0 0 33 33" fill="none" xmlns="http://www.w3.org/2000/svg">
<g filter="url(#filter0_d_648_2464)">
<path d="M15.2119 3.12287C15.4159 3.09375 15.6122 3.02472 15.7896 2.91974C15.9669 2.81476 16.1218 2.67588 16.2455 2.51102C16.3692 2.34616 16.4592 2.15856 16.5103 1.95893C16.5615 1.7593 16.5728 1.55154 16.5437 1.34753C16.5146 1.14351 16.4456 0.947226 16.3406 0.769886C16.2356 0.592545 16.0967 0.437618 15.9318 0.313952C15.767 0.190285 15.5794 0.1003 15.3797 0.0491347C15.1801 -0.00203049 14.9723 -0.0133741 14.7683 0.0157515C12.4615 0.347658 10.2926 1.31496 8.50441 2.80941C6.71616 4.30385 5.37913 6.26645 4.64294 8.47756C3.90676 10.6887 3.80048 13.061 4.336 15.3291C4.87152 17.5971 6.0277 19.6714 7.67515 21.3198C9.32259 22.9681 11.3963 24.1255 13.6641 24.6623C15.932 25.1991 18.3045 25.0943 20.5161 24.3594C22.7278 23.6246 24.6912 22.2887 26.1868 20.5015C27.6823 18.7142 28.651 16.5459 28.9842 14.2395C29.0431 13.8274 28.9358 13.4089 28.686 13.076C28.4363 12.743 28.0645 12.5229 27.6524 12.4641C27.2404 12.4053 26.8218 12.5126 26.4889 12.7623C26.1559 13.0121 25.9358 13.3839 25.877 13.7959C25.6265 15.5255 24.8996 17.1513 23.7778 18.4914C22.6559 19.8315 21.1832 20.833 19.5246 21.3838C17.8659 21.9346 16.0867 22.013 14.386 21.6103C12.6853 21.2076 11.1302 20.3396 9.89471 19.1035C8.65924 17.8673 7.79212 16.3118 7.39038 14.6109C6.98864 12.91 7.06813 11.1309 7.61996 9.47267C8.17178 7.8144 9.17417 6.34239 10.515 5.22134C11.8558 4.10029 13.4821 3.37233 15.2119 3.12287ZM20.7422 0.603699C20.3496 0.464968 19.9179 0.487882 19.5422 0.6674C19.1664 0.846919 18.8774 1.16834 18.7387 1.56094C18.5999 1.95355 18.6229 2.38519 18.8024 2.7609C18.9819 3.13662 19.3033 3.42563 19.696 3.56436C20.3258 3.78615 20.9263 4.0728 21.4871 4.41803C21.6626 4.53236 21.8592 4.61039 22.0654 4.64753C22.2715 4.68466 22.483 4.68016 22.6874 4.63427C22.8918 4.58839 23.0849 4.50205 23.2554 4.38036C23.4259 4.25866 23.5703 4.10407 23.6801 3.92569C23.7899 3.74732 23.8628 3.54876 23.8947 3.34174C23.9265 3.13472 23.9166 2.92341 23.8655 2.72028C23.8144 2.51715 23.7232 2.32631 23.5971 2.159C23.4711 1.99169 23.3129 1.85131 23.1317 1.74612C22.3779 1.28179 21.5769 0.898839 20.7422 0.603699ZM27.2601 5.87639C27.1549 5.69526 27.0145 5.53702 26.8472 5.411C26.6799 5.28498 26.489 5.19373 26.2859 5.14263C26.0827 5.09153 25.8714 5.08161 25.6644 5.11346C25.4574 5.1453 25.2588 5.21828 25.0804 5.32807C24.902 5.43786 24.7474 5.58225 24.6257 5.75273C24.504 5.92321 24.4177 6.11633 24.3718 6.3207C24.3259 6.52507 24.3214 6.73656 24.3586 6.9427C24.3957 7.14884 24.4737 7.34546 24.5881 7.52097C24.9312 8.07753 25.2158 8.67385 25.4376 9.29946C25.5812 9.68534 25.8707 9.99933 26.2437 10.1737C26.6167 10.3481 27.0433 10.3689 27.4315 10.2316C27.8197 10.0944 28.1384 9.81002 28.3189 9.43994C28.4994 9.06985 28.5272 8.64367 28.3963 8.25329C28.1024 7.42316 27.7215 6.62643 27.2601 5.87639ZM16.5573 7.73648C16.5573 7.32029 16.392 6.92114 16.0977 6.62685C15.8034 6.33256 15.4042 6.16723 14.988 6.16723C14.5718 6.16723 14.1726 6.33256 13.8783 6.62685C13.584 6.92114 13.4187 7.32029 13.4187 7.73648V14.0135C13.4187 14.8797 14.1217 15.5828 14.988 15.5828H19.1729C19.5891 15.5828 19.9882 15.4174 20.2825 15.1231C20.5768 14.8288 20.7422 14.4297 20.7422 14.0135C20.7422 13.5973 20.5768 13.1982 20.2825 12.9039C19.9882 12.6096 19.5891 12.4442 19.1729 12.4442H16.5573V7.73648Z" fill="#22BB9B"/>
</g>
<defs>
<filter id="filter0_d_648_2464" x="0" y="0" width="33" height="33" filterUnits="userSpaceOnUse" color-interpolation-filters="sRGB">
<feFlood flood-opacity="0" result="BackgroundImageFix"/>
<feColorMatrix in="SourceAlpha" type="matrix" values="0 0 0 0 0 0 0 0 0 0 0 0 0 0 0 0 0 0 127 0" result="hardAlpha"/>
<feOffset dy="4"/>
<feGaussianBlur stdDeviation="2"/>
<feComposite in2="hardAlpha" operator="out"/>
<feColorMatrix type="matrix" values="0 0 0 0 0 0 0 0 0 0 0 0 0 0 0 0 0 0 0.25 0"/>
<feBlend mode="normal" in2="BackgroundImageFix" result="effect1_dropShadow_648_2464"/>
<feBlend mode="normal" in="SourceGraphic" in2="effect1_dropShadow_648_2464" result="shape"/>
</filter>
</defs>
</svg>
