<svg width="25" height="25" viewBox="0 0 25 25" fill="none" xmlns="http://www.w3.org/2000/svg">
<path opacity="0.2" d="M11.2119 3.12287C11.4159 3.09375 11.6122 3.02472 11.7896 2.91974C11.9669 2.81476 12.1218 2.67588 12.2455 2.51102C12.3692 2.34616 12.4592 2.15856 12.5103 1.95893C12.5615 1.7593 12.5728 1.55154 12.5437 1.34753C12.5146 1.14351 12.4456 0.947226 12.3406 0.769886C12.2356 0.592545 12.0967 0.437618 11.9318 0.313952C11.767 0.190285 11.5794 0.1003 11.3797 0.0491347C11.1801 -0.00203049 10.9723 -0.0133741 10.7683 0.0157515C8.46153 0.347658 6.29265 1.31496 4.50441 2.80941C2.71616 4.30385 1.37913 6.26645 0.642943 8.47756C-0.0932408 10.6887 -0.199521 13.061 0.335997 15.3291C0.871515 17.5971 2.0277 19.6714 3.67515 21.3198C5.32259 22.9681 7.39629 24.1255 9.66414 24.6623C11.932 25.1991 14.3045 25.0943 16.5161 24.3594C18.7278 23.6246 20.6912 22.2887 22.1868 20.5015C23.6823 18.7142 24.651 16.5459 24.9842 14.2395C25.0431 13.8274 24.9358 13.4089 24.686 13.076C24.4363 12.743 24.0645 12.5229 23.6524 12.4641C23.2404 12.4053 22.8218 12.5126 22.4889 12.7623C22.1559 13.0121 21.9358 13.3839 21.877 13.7959C21.6265 15.5255 20.8996 17.1513 19.7778 18.4914C18.6559 19.8315 17.1832 20.833 15.5246 21.3838C13.8659 21.9346 12.0867 22.013 10.386 21.6103C8.68527 21.2076 7.13018 20.3396 5.89471 19.1035C4.65924 17.8673 3.79212 16.3118 3.39038 14.6109C2.98864 12.91 3.06813 11.1309 3.61996 9.47267C4.17178 7.8144 5.17417 6.34239 6.51496 5.22134C7.85575 4.10029 9.48205 3.37233 11.2119 3.12287ZM16.7422 0.603699C16.3496 0.464968 15.9179 0.487882 15.5422 0.6674C15.1664 0.846919 14.8774 1.16834 14.7387 1.56094C14.5999 1.95355 14.6229 2.38519 14.8024 2.7609C14.9819 3.13662 15.3033 3.42563 15.696 3.56436C16.3258 3.78615 16.9263 4.0728 17.4871 4.41803C17.6626 4.53236 17.8592 4.61039 18.0654 4.64753C18.2715 4.68466 18.483 4.68016 18.6874 4.63427C18.8918 4.58839 19.0849 4.50205 19.2554 4.38036C19.4259 4.25866 19.5703 4.10407 19.6801 3.92569C19.7899 3.74732 19.8628 3.54876 19.8947 3.34174C19.9265 3.13472 19.9166 2.92341 19.8655 2.72028C19.8144 2.51715 19.7232 2.32631 19.5971 2.159C19.4711 1.99169 19.3129 1.85131 19.1317 1.74612C18.3779 1.28179 17.5769 0.898839 16.7422 0.603699ZM23.2601 5.87639C23.1549 5.69526 23.0145 5.53702 22.8472 5.411C22.6799 5.28498 22.489 5.19373 22.2859 5.14263C22.0827 5.09153 21.8714 5.08161 21.6644 5.11346C21.4574 5.1453 21.2588 5.21828 21.0804 5.32807C20.902 5.43786 20.7474 5.58225 20.6257 5.75273C20.504 5.92321 20.4177 6.11633 20.3718 6.3207C20.3259 6.52507 20.3214 6.73656 20.3586 6.9427C20.3957 7.14884 20.4737 7.34546 20.5881 7.52097C20.9312 8.07753 21.2158 8.67385 21.4376 9.29946C21.5812 9.68534 21.8707 9.99933 22.2437 10.1737C22.6167 10.3481 23.0433 10.3689 23.4315 10.2316C23.8197 10.0944 24.1384 9.81002 24.3189 9.43994C24.4994 9.06985 24.5272 8.64367 24.3963 8.25329C24.1024 7.42316 23.7215 6.62643 23.2601 5.87639ZM12.5573 7.73648C12.5573 7.32029 12.392 6.92114 12.0977 6.62685C11.8034 6.33256 11.4042 6.16723 10.988 6.16723C10.5718 6.16723 10.1726 6.33256 9.87833 6.62685C9.58402 6.92114 9.41868 7.32029 9.41868 7.73648V14.0135C9.41868 14.8797 10.1217 15.5828 10.988 15.5828H15.1729C15.5891 15.5828 15.9882 15.4174 16.2825 15.1231C16.5768 14.8288 16.7422 14.4297 16.7422 14.0135C16.7422 13.5973 16.5768 13.1982 16.2825 12.9039C15.9882 12.6096 15.5891 12.4442 15.1729 12.4442H12.5573V7.73648Z" fill="#181818"/>
</svg>
