<svg width="34" height="36" viewBox="0 0 34 36" fill="none" xmlns="http://www.w3.org/2000/svg">
<path d="M16.3053 13.7341C17.2716 12.1387 16.6677 9.64162 15.2183 8.67052C13.5274 7.49133 11.776 9.01734 11.1117 10.8208C10.6286 12.0694 10.689 14.0809 11.8364 14.7746C13.1046 15.5376 15.5203 15.1214 16.3053 13.7341ZM15.4599 13.4566C14.856 14.1503 13.2858 14.3584 12.5007 14.0809C11.5949 13.7341 11.5345 12.2081 11.8968 11.3757C12.3195 10.2659 13.2858 8.87861 14.554 9.43352C15.7618 9.84971 16.4865 12.2775 15.4599 13.4566Z" fill="#181818"/>
<path d="M9.3002 20.8786C7.91122 21.0867 7.18653 22.1965 7.00536 23.7226C7.00536 23.7919 6.94497 23.8613 7.00536 23.9306C7.00536 24 7.00536 24.0694 7.00536 24.1387C7.18653 25.6647 8.15278 27.1908 9.72294 26.9133C11.1119 26.6358 12.199 24.763 12.0178 23.1676C11.897 21.6416 10.6288 20.7399 9.3002 20.8786ZM10.0853 25.7341C8.87747 26.4971 7.97161 25.2486 7.85083 23.9306C7.91122 22.9595 8.27356 22.1965 9.05864 21.9191C9.78333 21.6416 10.81 21.9191 11.1119 22.8208C11.4139 23.8613 10.8704 25.2486 10.0853 25.7341Z" fill="#181818"/>
<path d="M23.2505 19.9769C23.8544 18.3121 23.2505 16.6474 21.7407 16.0925C20.1705 15.4682 18.8419 16.5087 18.1173 18.1041V18.1734C18.1173 18.1734 18.1173 18.1734 18.1173 18.2428C16.9698 21.8497 22.103 23.1676 23.2505 19.9769ZM20.9556 16.8555C22.103 16.9942 22.8881 18.1041 22.5258 19.422C21.8615 21.7804 18.1776 21.0867 18.9023 18.5202C19.3251 17.6185 19.929 16.7861 20.9556 16.8555Z" fill="#181818"/>
<path d="M19.627 11.8613C20.1101 11.792 20.8952 12.4163 20.7744 13.0405C20.6536 13.6648 21.4991 13.9423 21.6199 13.318C21.8614 12.1388 20.714 10.7515 19.6874 10.8902C19.4458 10.8902 19.2646 11.0983 19.2646 11.3758C19.2042 11.6532 19.3854 11.9307 19.627 11.8613Z" fill="#181818"/>
<path d="M14.9165 20.0463C15.3996 20.3238 15.8223 19.4914 15.3392 19.2139C15.1581 19.0752 14.9769 19.0058 14.8561 18.7284C14.7957 18.5203 14.7957 18.2428 14.9769 18.0347C15.3996 17.6186 14.7957 16.9249 14.373 17.3411C14.0106 17.6879 13.8898 18.3122 14.0106 18.8671C14.1314 19.422 14.4938 19.7688 14.9165 20.0463Z" fill="#181818"/>
<path d="M25.6056 18.7284C26.0887 19.0058 26.5114 18.1735 26.0283 17.896C25.364 17.5492 25.364 16.7168 25.7263 16.0926C26.0283 15.607 25.3036 15.1215 25.0016 15.607C24.3373 16.6475 24.5185 18.1735 25.6056 18.7284Z" fill="#181818"/>
<path d="M6.34088 27.815C5.91815 27.9538 5.25385 27.7457 5.37463 27.1214C5.49541 26.4971 4.71033 26.289 4.58955 26.8439C4.2876 28.1619 5.49541 29.0636 6.58245 28.7168C7.06557 28.578 6.82401 27.6069 6.34088 27.815Z" fill="#181818"/>
<path d="M8.81704 16.1619C9.11899 16.2313 9.30017 16.37 9.36056 16.7168C9.42095 17.0636 9.30017 17.4798 8.99821 17.5492C8.51509 17.7573 8.69626 18.659 9.23978 18.5203C9.90407 18.2428 10.2664 17.5492 10.206 16.7168C10.1456 15.8844 9.7229 15.3295 9.0586 15.1908C8.4547 15.1214 8.27352 16.0925 8.81704 16.1619Z" fill="#181818"/>
<path d="M15.2183 22.8208C14.6144 23.0983 14.2521 23.6532 14.3124 24.4162C14.3728 25.0405 15.2183 25.0405 15.1579 24.4162C15.1579 24.0694 15.2787 23.8613 15.5807 23.7225C15.8826 23.5838 16.1242 23.6532 16.3657 23.9306C16.7281 24.3468 17.332 23.7225 16.9696 23.237C16.4261 22.6127 15.8222 22.474 15.2183 22.8208Z" fill="#181818"/>
<path d="M33.8791 15.815C33.396 12.4162 31.4031 10.1965 29.2291 8.04626C26.8134 5.68788 24.5186 3.67632 21.5594 2.28903C19.1438 1.17921 15.46 -0.554897 12.8028 0.138745C11.1118 0.55493 10.4475 2.77458 10.991 4.57805C9.90401 8.53181 7.91111 12.0694 6.46173 15.8844C4.83118 20.3237 3.14024 24.6937 1.32852 28.9942C0.905783 29.9653 -0.302033 31.8382 0.0603119 33.0867V33.1561C0.543438 34.7515 1.87203 35.7919 3.32141 35.4451C6.22017 34.7515 9.23971 32.8786 11.8969 31.422C11.9573 32.0463 11.7761 32.7399 12.3196 33.2948C13.3463 34.3353 14.0106 33.0867 14.1314 31.9769C14.1918 31.5607 14.1314 31.0752 14.071 30.5202H14.1314C14.6749 30.2428 15.2788 30.0347 15.8223 29.7572C15.8223 30.1041 15.7619 30.4509 15.7619 30.7283C15.7619 31.5607 15.7619 32.3931 15.8827 33.1561C16.0639 34.474 16.6678 36.763 18.2379 35.7226C20.0497 34.474 19.1438 30.659 19.1438 28.2312C22.7672 26.0116 26.5719 24.0694 30.1953 21.8497C32.6713 20.3931 34.5434 19.1445 33.8791 15.815ZM17.7548 1.87285C20.0497 2.56649 22.3445 3.60695 24.3978 4.99424C27.2965 6.93643 31.0408 10.1965 32.5505 14.0116C32.1882 13.8729 31.7655 13.8728 31.3427 14.0809C30.4369 14.4278 29.9537 15.2601 29.7122 16.2312C28.2024 13.3179 25.4244 11.237 23.0088 9.43354C19.5061 6.72834 15.8223 4.78614 11.7157 4.16187C10.3267 0.138744 16.0035 1.31794 17.7548 1.87285ZM1.69086 33.9885C2.29477 33.8497 2.89868 33.5029 3.3818 33.2948C5.07275 32.6705 6.76369 32.0463 8.39424 31.2833C9.23971 30.8671 10.8703 29.5492 11.6553 30.5202C9.78322 31.5607 3.92532 35.3064 1.69086 33.9885ZM14.1314 29.5491C14.1314 29.133 14.1314 28.7861 14.3125 28.5087C14.7353 27.607 15.46 28.1619 15.8223 28.8555C15.2184 29.0636 14.6749 29.2717 14.1314 29.5491ZM18.1172 34.5434C17.5736 34.7515 17.0301 33.7804 16.9093 33.4335C16.7886 33.0174 16.7886 32.4624 16.7886 32.0463C16.7282 31.1445 16.7886 30.2428 16.7282 29.3411C16.6678 27.815 16.0035 26.0116 14.3729 26.8439C12.9839 27.5376 13.4067 29.4104 13.4067 30.7977C13.4067 31.4913 13.2859 33.0174 12.682 31.5607C12.5612 31.2833 12.7424 30.8671 12.682 30.5202C12.5612 29.896 12.38 29.4798 11.8969 29.2023C10.4475 28.4393 8.03189 30.3815 6.76369 30.8671C5.49548 31.422 2.7779 33.0867 1.50969 32.4624C0.66422 32.0463 1.02656 31.9769 1.38891 31.0752C1.69086 30.3815 1.99282 29.6879 2.23438 28.9942C3.92532 24.9711 5.49548 20.948 7.00525 16.8555C8.45463 12.8324 10.5683 9.15609 11.7157 5.0636C15.3996 5.61851 18.7814 7.35262 21.9218 9.711C24.6997 11.7919 28.3232 14.289 29.4706 18.0347C26.753 20.0463 23.9147 21.7804 21.0763 23.5838C18.7814 25.0405 18.3587 26.7746 18.4795 29.6879C18.5399 30.3815 18.9022 34.2659 18.1172 34.5434ZM26.8134 22.7515C24.3374 24.1387 21.8614 25.5954 19.3854 27.052C19.3854 26.9827 19.3854 26.9827 19.3854 26.9133C19.9893 24.6937 22.4653 23.9307 24.0958 22.8902C26.1491 21.5723 28.2024 20.1156 30.1349 18.659C30.3161 18.5896 30.4973 18.3815 30.4369 18.1041C30.1349 16.9249 30.4369 15.607 31.4031 15.052C32.309 14.5665 32.7921 15.1908 33.0337 16.0925C33.7584 19.6994 29.0479 21.5029 26.8134 22.7515Z" fill="#181818"/>
<path d="M15.7015 3.12138C17.8151 3.60693 19.6873 4.50867 21.5594 5.75722C22.0425 6.10404 22.4652 5.20231 21.9821 4.92485C20.0496 3.60693 18.1171 2.63583 15.8826 2.15028C15.3391 2.08092 15.1579 2.98265 15.7015 3.12138Z" fill="#181818"/>
<path d="M23.2504 6.86709C23.7939 6.86709 23.7939 5.896 23.2504 5.896C22.7069 5.896 22.7069 6.86709 23.2504 6.86709Z" fill="#181818"/>
</svg>
