<svg width="44" height="39" viewBox="0 0 44 39" fill="none" xmlns="http://www.w3.org/2000/svg">
<path opacity="0.2" d="M9.1 39L12.325 29.8594C12.6475 28.925 13.1671 28.1832 13.8838 27.6339C14.6004 27.0847 15.4067 26.8109 16.3025 26.8125H19.85V17.0016C14.3675 16.7984 9.77152 15.8844 6.06205 14.2594C2.35258 12.6344 0.498567 10.725 0.500001 8.53125C0.500001 6.175 2.59625 4.16406 6.78875 2.49844C10.9813 0.832813 16.0517 0 22 0C27.9842 0 33.0639 0.832813 37.2392 2.49844C41.4145 4.16406 43.5014 6.175 43.5 8.53125C43.5 10.725 41.6453 12.6344 37.9358 14.2594C34.2263 15.8844 29.6311 16.7984 24.15 17.0016V26.8125H27.6975C28.5575 26.8125 29.3551 27.0871 30.0904 27.6364C30.8257 28.1856 31.3539 28.9266 31.675 29.8594L34.9 39H30.6L28.02 31.6875H15.98L13.4 39H9.1ZM22 12.1875C25.4758 12.1875 28.7546 11.8422 31.8363 11.1516C34.9179 10.4609 37.1754 9.5875 38.6088 8.53125C37.1754 7.475 34.9179 6.60156 31.8363 5.91094C28.7546 5.22031 25.4758 4.875 22 4.875C18.5242 4.875 15.2454 5.22031 12.1638 5.91094C9.08208 6.60156 6.82458 7.475 5.39125 8.53125C6.82458 9.5875 9.08208 10.4609 12.1638 11.1516C15.2454 11.8422 18.5242 12.1875 22 12.1875Z" fill="#181818"/>
</svg>
