<svg width="46" height="50" viewBox="0 0 46 50" fill="none" xmlns="http://www.w3.org/2000/svg">
<path opacity="0.2" d="M16.0632 46.9332V39.289C16.0632 37.3377 17.6063 35.7557 19.5099 35.7557H26.4684C27.3826 35.7557 28.2593 36.128 28.9057 36.7907C29.5521 37.4532 29.9153 38.352 29.9153 39.289V46.9332C29.9094 47.7445 30.2198 48.5247 30.7774 49.1005C31.335 49.6762 32.0937 50 32.8849 50H37.6324C39.8496 50.0057 41.9781 49.107 43.548 47.502C45.1178 45.897 46 43.7175 46 41.4445V19.6671C46 17.8311 45.2061 16.0896 43.8322 14.9117L27.6823 1.68967C24.8732 -0.628595 20.848 -0.553745 18.1225 1.86745L2.34118 14.9117C0.902426 16.0549 0.0424943 17.8016 0 19.6671V41.4222C0 46.1597 3.74629 50 8.36757 50H13.0066C14.6503 50 15.9862 48.6405 15.9981 46.9555L16.0632 46.9332Z" fill="#181818"/>
</svg>
