<svg width="50" height="44" viewBox="0 0 50 44" fill="none" xmlns="http://www.w3.org/2000/svg">
<path opacity="0.2" d="M28.5714 0C22.8882 0 17.4378 2.31785 13.4191 6.44365C9.4005 10.5694 7.14286 16.1652 7.14286 22H0L9.2619 31.5089L9.42857 31.8511L19.0476 22H11.9048C11.9048 12.54 19.3571 4.88889 28.5714 4.88889C37.7857 4.88889 45.2381 12.54 45.2381 22C45.2381 31.46 37.7857 39.1111 28.5714 39.1111C23.9762 39.1111 19.8095 37.18 16.8095 34.0755L13.4286 37.5467C15.4129 39.5951 17.7726 41.22 20.3716 42.3276C22.9706 43.4352 25.7574 44.0036 28.5714 44C34.2546 44 39.7051 41.6821 43.7237 37.5563C47.7423 33.4305 50 27.8348 50 22C50 16.1652 47.7423 10.5694 43.7237 6.44365C39.7051 2.31785 34.2546 8.69447e-08 28.5714 0ZM26.1905 12.2222V24.4444L36.381 30.6533L38.0952 27.6955L29.7619 22.6111V12.2222H26.1905Z" fill="#181818"/>
</svg>
