<svg width="52" height="47" viewBox="0 0 52 47" fill="none" xmlns="http://www.w3.org/2000/svg">
<g filter="url(#filter0_d_871_11249)">
<path d="M13.1 39L16.325 29.8594C16.6475 28.925 17.1671 28.1832 17.8838 27.6339C18.6004 27.0847 19.4067 26.8109 20.3025 26.8125H23.85V17.0016C18.3675 16.7984 13.7715 15.8844 10.0621 14.2594C6.35258 12.6344 4.49857 10.725 4.5 8.53125C4.5 6.175 6.59625 4.16406 10.7888 2.49844C14.9813 0.832813 20.0517 0 26 0C31.9842 0 37.0639 0.832813 41.2392 2.49844C45.4145 4.16406 47.5014 6.175 47.5 8.53125C47.5 10.725 45.6453 12.6344 41.9358 14.2594C38.2263 15.8844 33.6311 16.7984 28.15 17.0016V26.8125H31.6975C32.5575 26.8125 33.3551 27.0871 34.0904 27.6364C34.8257 28.1856 35.3539 28.9266 35.675 29.8594L38.9 39H34.6L32.02 31.6875H19.98L17.4 39H13.1ZM26 12.1875C29.4758 12.1875 32.7546 11.8422 35.8363 11.1516C38.9179 10.4609 41.1754 9.5875 42.6088 8.53125C41.1754 7.475 38.9179 6.60156 35.8363 5.91094C32.7546 5.22031 29.4758 4.875 26 4.875C22.5242 4.875 19.2454 5.22031 16.1638 5.91094C13.0821 6.60156 10.8246 7.475 9.39125 8.53125C10.8246 9.5875 13.0821 10.4609 16.1638 11.1516C19.2454 11.8422 22.5242 12.1875 26 12.1875Z" fill="#22BB9B"/>
</g>
<defs>
<filter id="filter0_d_871_11249" x="0.5" y="0" width="51" height="47" filterUnits="userSpaceOnUse" color-interpolation-filters="sRGB">
<feFlood flood-opacity="0" result="BackgroundImageFix"/>
<feColorMatrix in="SourceAlpha" type="matrix" values="0 0 0 0 0 0 0 0 0 0 0 0 0 0 0 0 0 0 127 0" result="hardAlpha"/>
<feOffset dy="4"/>
<feGaussianBlur stdDeviation="2"/>
<feComposite in2="hardAlpha" operator="out"/>
<feColorMatrix type="matrix" values="0 0 0 0 0 0 0 0 0 0 0 0 0 0 0 0 0 0 0.25 0"/>
<feBlend mode="normal" in2="BackgroundImageFix" result="effect1_dropShadow_871_11249"/>
<feBlend mode="normal" in="SourceGraphic" in2="effect1_dropShadow_871_11249" result="shape"/>
</filter>
</defs>
</svg>
