<svg width="58" height="44" viewBox="0 0 58 44" fill="none" xmlns="http://www.w3.org/2000/svg">
<g filter="url(#filter0_d_871_11250)">
<path d="M33.5454 11.1082C33.5454 10.7593 33.6689 10.4003 33.9159 10.0311C34.1629 9.66203 34.4364 9.42009 34.7364 9.30532C35.8348 8.9176 36.9333 8.62681 38.0318 8.43295C39.1303 8.23909 40.2864 8.14216 41.5 8.14216C42.2576 8.14216 43.006 8.19101 43.7454 8.28872C44.4848 8.38642 45.2136 8.51204 45.9318 8.66558C46.2727 8.74313 46.5667 8.93699 46.8136 9.24717C47.0606 9.55734 47.1833 9.90629 47.1818 10.294C47.1818 10.9531 46.9735 11.4378 46.5568 11.748C46.1401 12.0581 45.6098 12.1357 44.9659 11.9806C44.4356 11.8643 43.8773 11.7767 43.2909 11.7177C42.7045 11.6588 42.1076 11.6301 41.5 11.6317C40.5151 11.6317 39.5492 11.7286 38.6023 11.9224C37.6553 12.1163 36.7462 12.3683 35.875 12.6785C35.1932 12.9499 34.6348 12.9305 34.2 12.6203C33.7651 12.3102 33.547 11.8061 33.5454 11.1082ZM33.5454 23.903C33.5454 23.5541 33.6689 23.1951 33.9159 22.826C34.1629 22.4568 34.4371 22.2149 34.7386 22.1001C35.8371 21.7124 36.9356 21.4216 38.0341 21.2278C39.1326 21.0339 40.2879 20.937 41.5 20.937C42.2576 20.937 43.006 20.9858 43.7454 21.0835C44.4848 21.1812 45.2136 21.3069 45.9318 21.4604C46.2727 21.5379 46.5667 21.7318 46.8136 22.042C47.0606 22.3522 47.1833 22.7011 47.1818 23.0888C47.1818 23.748 46.9735 24.2326 46.5568 24.5428C46.1401 24.853 45.6098 24.9305 44.9659 24.7754C44.4356 24.6591 43.8773 24.5715 43.2909 24.5125C42.7045 24.4536 42.1076 24.4249 41.5 24.4265C40.5151 24.4265 39.5492 24.5141 38.6023 24.6893C37.6553 24.8646 36.7462 25.1065 35.875 25.4152C35.1932 25.6866 34.6341 25.6765 34.1977 25.3849C33.7614 25.0934 33.5439 24.6002 33.5454 23.9054V23.903ZM33.5454 17.5056C33.5454 17.1567 33.6689 16.7977 33.9159 16.4285C34.1629 16.0594 34.4371 15.8175 34.7386 15.7027C35.8371 15.315 36.9356 15.0242 38.0341 14.8304C39.1326 14.6365 40.2879 14.5396 41.5 14.5396C42.2576 14.5396 43.006 14.5884 43.7454 14.6861C44.4848 14.7838 45.2136 14.9095 45.9318 15.063C46.2727 15.1405 46.5667 15.3344 46.8136 15.6446C47.0606 15.9548 47.1833 16.3037 47.1818 16.6914C47.1818 17.3506 46.9735 17.8352 46.5568 18.1454C46.1401 18.4556 45.6098 18.5331 44.9659 18.378C44.4356 18.2617 43.8773 18.1741 43.2909 18.1151C42.7045 18.0562 42.1076 18.0275 41.5 18.0291C40.5151 18.0291 39.5492 18.126 38.6023 18.3199C37.6553 18.5137 36.7462 18.7657 35.875 19.0759C35.1932 19.3473 34.6348 19.3279 34.2 19.0178C33.7651 18.7076 33.547 18.2035 33.5454 17.5056ZM16.5 27.916C18.2803 27.916 20.0136 28.1199 21.7 28.5278C23.3864 28.9357 25.0621 29.546 26.7273 30.3586V7.44426C25.1742 6.51373 23.5265 5.81583 21.7841 5.35056C20.0417 4.8853 18.2803 4.65266 16.5 4.65266C15.1364 4.65266 13.7818 4.78836 12.4364 5.05977C11.0909 5.33118 9.79394 5.73828 8.54545 6.28109V29.3118C9.87121 28.8465 11.1879 28.4976 12.4955 28.2649C13.803 28.0323 15.1379 27.916 16.5 27.916ZM31.2727 30.3586C32.9394 29.5444 34.6151 28.9334 36.3 28.5255C37.9848 28.1176 39.7182 27.9144 41.5 27.916C42.8636 27.916 44.1992 28.0323 45.5068 28.2649C46.8144 28.4976 48.1303 28.8465 49.4545 29.3118V6.28109C48.2045 5.73828 46.9068 5.33118 45.5614 5.05977C44.2159 4.78836 42.8621 4.65266 41.5 4.65266C39.7197 4.65266 37.9583 4.8853 36.2159 5.35056C34.4735 5.81583 32.8257 6.51373 31.2727 7.44426V30.3586ZM29 36C28.4697 36 27.9674 35.9317 27.4932 35.7953C27.0189 35.6588 26.5742 35.475 26.1591 35.2439C24.6818 34.3522 23.1288 33.6837 21.5 33.2386C19.8712 32.7935 18.2045 32.5702 16.5 32.5686C14.9091 32.5686 13.3462 32.7819 11.8114 33.2084C10.2765 33.6349 8.80909 34.2358 7.40909 35.0113C6.61364 35.4378 5.84697 35.4184 5.10909 34.9531C4.37121 34.4879 4.00152 33.8093 4 32.9176V4.88529C4 4.4588 4.10455 4.05169 4.31364 3.66397C4.52273 3.27625 4.83485 2.98546 5.25 2.7916C6.99242 1.86106 8.8106 1.16317 10.7045 0.6979C12.5985 0.232634 14.5303 0 16.5 0C18.697 0 20.847 0.290791 22.95 0.872374C25.053 1.45396 27.0697 2.32633 29 3.4895C30.9318 2.32633 32.9492 1.45396 35.0523 0.872374C37.1553 0.290791 39.3045 0 41.5 0C43.4697 0 45.4015 0.232634 47.2954 0.6979C49.1894 1.16317 51.0076 1.86106 52.75 2.7916C53.1667 2.98546 53.4795 3.27625 53.6886 3.66397C53.8977 4.05169 54.0015 4.4588 54 4.88529V32.9176C54 33.8093 53.631 34.4879 52.8932 34.9531C52.1553 35.4184 51.3879 35.4378 50.5909 35.0113C49.1894 34.2358 47.722 33.6349 46.1886 33.2084C44.6553 32.7819 43.0924 32.5686 41.5 32.5686C39.7954 32.5686 38.1288 32.792 36.5 33.2386C34.8712 33.6853 33.3182 34.3537 31.8409 35.2439C31.4242 35.4765 30.9788 35.6611 30.5045 35.7976C30.0303 35.9341 29.5288 36.0015 29 36Z" fill="#22BB9B"/>
</g>
<defs>
<filter id="filter0_d_871_11250" x="0" y="0" width="58" height="44" filterUnits="userSpaceOnUse" color-interpolation-filters="sRGB">
<feFlood flood-opacity="0" result="BackgroundImageFix"/>
<feColorMatrix in="SourceAlpha" type="matrix" values="0 0 0 0 0 0 0 0 0 0 0 0 0 0 0 0 0 0 127 0" result="hardAlpha"/>
<feOffset dy="4"/>
<feGaussianBlur stdDeviation="2"/>
<feComposite in2="hardAlpha" operator="out"/>
<feColorMatrix type="matrix" values="0 0 0 0 0 0 0 0 0 0 0 0 0 0 0 0 0 0 0.25 0"/>
<feBlend mode="normal" in2="BackgroundImageFix" result="effect1_dropShadow_871_11250"/>
<feBlend mode="normal" in="SourceGraphic" in2="effect1_dropShadow_871_11250" result="shape"/>
</filter>
</defs>
</svg>
