<svg width="58" height="52" viewBox="0 0 58 52" fill="none" xmlns="http://www.w3.org/2000/svg">
<g filter="url(#filter0_d_871_11255)">
<path d="M32.5714 0C26.8882 0 21.4378 2.31785 17.4191 6.44365C13.4005 10.5694 11.1429 16.1652 11.1429 22H4L13.2619 31.5089L13.4286 31.8511L23.0476 22H15.9048C15.9048 12.54 23.3571 4.88889 32.5714 4.88889C41.7857 4.88889 49.2381 12.54 49.2381 22C49.2381 31.46 41.7857 39.1111 32.5714 39.1111C27.9762 39.1111 23.8095 37.18 20.8095 34.0755L17.4286 37.5467C19.4129 39.5951 21.7726 41.22 24.3716 42.3276C26.9706 43.4352 29.7574 44.0036 32.5714 44C38.2546 44 43.7051 41.6821 47.7237 37.5563C51.7423 33.4305 54 27.8348 54 22C54 16.1652 51.7423 10.5694 47.7237 6.44365C43.7051 2.31785 38.2546 8.69447e-08 32.5714 0ZM30.1905 12.2222V24.4444L40.381 30.6533L42.0952 27.6955L33.7619 22.6111V12.2222H30.1905Z" fill="#22BB9B"/>
</g>
<defs>
<filter id="filter0_d_871_11255" x="0" y="0" width="58" height="52" filterUnits="userSpaceOnUse" color-interpolation-filters="sRGB">
<feFlood flood-opacity="0" result="BackgroundImageFix"/>
<feColorMatrix in="SourceAlpha" type="matrix" values="0 0 0 0 0 0 0 0 0 0 0 0 0 0 0 0 0 0 127 0" result="hardAlpha"/>
<feOffset dy="4"/>
<feGaussianBlur stdDeviation="2"/>
<feComposite in2="hardAlpha" operator="out"/>
<feColorMatrix type="matrix" values="0 0 0 0 0 0 0 0 0 0 0 0 0 0 0 0 0 0 0.25 0"/>
<feBlend mode="normal" in2="BackgroundImageFix" result="effect1_dropShadow_871_11255"/>
<feBlend mode="normal" in="SourceGraphic" in2="effect1_dropShadow_871_11255" result="shape"/>
</filter>
</defs>
</svg>
