<svg width="32" height="32" viewBox="0 0 32 32" fill="none" xmlns="http://www.w3.org/2000/svg">
<g clip-path="url(#clip0_1_414)">
<path d="M15 27H3C2.73478 27 2.48043 26.8946 2.29289 26.7071C2.10536 26.5196 2 26.2652 2 26C2 25.7348 2.10536 25.4804 2.29289 25.2929C2.48043 25.1054 2.73478 25 3 25H15C15.2652 25 15.5196 25.1054 15.7071 25.2929C15.8946 25.4804 16 25.7348 16 26C16 26.2652 15.8946 26.5196 15.7071 26.7071C15.5196 26.8946 15.2652 27 15 27Z" fill="#22BB9B"/>
<path d="M15 20H11C10.7348 20 10.4804 19.8946 10.2929 19.7071C10.1054 19.5196 10 19.2652 10 19C10 18.7348 9.89464 18.4804 9.70711 18.2929C9.51957 18.1054 9.26522 18 9 18C8.73478 18 8.48043 18.1054 8.29289 18.2929C8.10536 18.4804 8 18.7348 8 19C8 19.2652 7.89464 19.5196 7.70711 19.7071C7.51957 19.8946 7.26522 20 7 20H3C2.73478 20 2.48043 19.8946 2.29289 19.7071C2.10536 19.5196 2 19.2652 2 19C2 18.7348 2.10536 18.4804 2.29289 18.2929C2.48043 18.1054 2.73478 18 3 18H6.17C6.37614 17.414 6.7591 16.9065 7.26602 16.5474C7.77294 16.1884 8.37881 15.9955 9 15.9955C9.62119 15.9955 10.2271 16.1884 10.734 16.5474C11.2409 16.9065 11.6239 17.414 11.83 18H15C15.2652 18 15.5196 18.1054 15.7071 18.2929C15.8946 18.4804 16 18.7348 16 19C16 19.2652 15.8946 19.5196 15.7071 19.7071C15.5196 19.8946 15.2652 20 15 20Z" fill="#22BB9B"/>
<path d="M28.67 24H19.33C19.0648 24 18.8104 23.8946 18.6229 23.7071C18.4354 23.5196 18.33 23.2652 18.33 23C18.33 22.7348 18.4354 22.4804 18.6229 22.2929C18.8104 22.1054 19.0648 22 19.33 22H28.67C28.9352 22 29.1896 22.1054 29.3771 22.2929C29.5646 22.4804 29.67 22.7348 29.67 23C29.67 23.2652 29.5646 23.5196 29.3771 23.7071C29.1896 23.8946 28.9352 24 28.67 24Z" fill="#22BB9B"/>
<path d="M15 22C15.2652 22 15.5196 21.8946 15.7071 21.7071C15.8946 21.5196 16 21.2652 16 21C16 17.53 16.24 15.13 14.36 12C13.4677 10.5142 12.9975 8.81316 13 7.08V1C13 0.734784 12.8946 0.48043 12.7071 0.292893C12.5196 0.105357 12.2652 0 12 0L6 0C5.73478 0 5.48043 0.105357 5.29289 0.292893C5.10536 0.48043 5 0.734784 5 1C5 7.39 5.3 9.22 3.64 12C2.56943 13.7893 2.00275 15.8349 2 17.92V29C2 29.7956 2.31607 30.5587 2.87868 31.1213C3.44129 31.6839 4.20435 32 5 32H13C13.7956 32 14.5587 31.6839 15.1213 31.1213C15.6839 30.5587 16 29.7956 16 29V25C16 24.7348 15.8946 24.4804 15.7071 24.2929C15.5196 24.1054 15.2652 24 15 24C14.7348 24 14.4804 24.1054 14.2929 24.2929C14.1054 24.4804 14 24.7348 14 25V29C14 29.2652 13.8946 29.5196 13.7071 29.7071C13.5196 29.8946 13.2652 30 13 30H5C4.73478 30 4.48043 29.8946 4.29289 29.7071C4.10536 29.5196 4 29.2652 4 29V17.92C3.99752 16.1868 4.46772 14.4858 5.36 13C6.43057 11.2107 6.99725 9.16513 7 7.08V6H11V7.08C11.0028 9.16513 11.5694 11.2107 12.64 13C14.25 15.7 14 17.81 14 21C14 21.2652 14.1054 21.5196 14.2929 21.7071C14.4804 21.8946 14.7348 22 15 22ZM7 4V2H11V4H7Z" fill="#08221D"/>
<path d="M28 32H20C19.7481 32.0008 19.5051 31.9065 19.3197 31.7359C19.1343 31.5654 19.0202 31.3311 19 31.08L18 19.08C17.9889 18.9421 18.0066 18.8034 18.0519 18.6727C18.0971 18.542 18.169 18.4221 18.263 18.3206C18.357 18.2191 18.471 18.1382 18.5979 18.083C18.7247 18.0278 18.8617 17.9996 19 18H29C29.1383 17.9996 29.2753 18.0278 29.4021 18.083C29.529 18.1382 29.643 18.2191 29.737 18.3206C29.831 18.4221 29.9029 18.542 29.9481 18.6727C29.9934 18.8034 30.0111 18.9421 30 19.08L29 31.08C28.9798 31.3311 28.8657 31.5654 28.6803 31.7359C28.4949 31.9065 28.2519 32.0008 28 32ZM20.92 30H27.08L27.91 20H20.09L20.92 30Z" fill="#08221D"/>
</g>
<defs>
<clipPath id="clip0_1_414">
<rect width="32" height="32" fill="white"/>
</clipPath>
</defs>
</svg>
