<svg width="32" height="32" viewBox="0 0 32 32" fill="none" xmlns="http://www.w3.org/2000/svg">
<g clip-path="url(#clip0_2_364)">
<path d="M5.06 26.31C5.11329 26.4713 5.2068 26.6164 5.33171 26.7316C5.45663 26.8467 5.60882 26.9281 5.77393 26.9682C5.93904 27.0082 6.11162 27.0055 6.2754 26.9603C6.43918 26.9152 6.58875 26.829 6.71 26.71L11.21 22.21C11.3983 22.0217 11.5041 21.7663 11.5041 21.5C11.5041 21.2337 11.3983 20.9783 11.21 20.79C11.0217 20.6017 10.7663 20.4959 10.5 20.4959C10.2337 20.4959 9.9783 20.6017 9.79 20.79L6 24.57C5.23533 24.1386 4.35238 23.9641 3.48109 24.0721C2.6098 24.1801 1.79619 24.565 1.16 25.17C0.409436 25.9206 -0.0122261 26.9385 -0.0122261 28C-0.0122261 29.0615 0.409436 30.0794 1.16 30.83C1.91056 31.5806 2.92854 32.0022 3.99 32.0022C5.05145 32.0022 6.06944 31.5806 6.82 30.83C6.91324 30.7368 6.9872 30.6261 7.03766 30.5043C7.08812 30.3824 7.11409 30.2519 7.11409 30.12C7.11409 29.9881 7.08812 29.8576 7.03766 29.7358C6.9872 29.6139 6.91324 29.5032 6.82 29.41C6.72676 29.3168 6.61607 29.2428 6.49425 29.1923C6.37243 29.1419 6.24186 29.1159 6.11 29.1159C5.97814 29.1159 5.84757 29.1419 5.72575 29.1923C5.60393 29.2428 5.49324 29.3168 5.4 29.41C5.1343 29.6774 4.79843 29.8644 4.4311 29.9492C4.06378 30.034 3.67996 30.0132 3.32391 29.8894C2.96785 29.7655 2.65407 29.5435 2.41873 29.249C2.18338 28.9545 2.03607 28.5994 1.99378 28.2248C1.95148 27.8502 2.01593 27.4713 2.17968 27.1317C2.34343 26.7921 2.59982 26.5058 2.91929 26.3056C3.23876 26.1055 3.60829 25.9997 3.98528 26.0004C4.36227 26.0012 4.73136 26.1085 5.05 26.31H5.06Z" fill="white"/>
<path d="M12.59 25L7 19.41C6.62749 19.0353 6.41841 18.5284 6.41841 18C6.41841 17.4716 6.62749 16.9647 7 16.59L8.59 15C8.96472 14.6275 9.47163 14.4184 10 14.4184C10.5284 14.4184 11.0353 14.6275 11.41 15L17 20.59C17.3725 20.9647 17.5816 21.4716 17.5816 22C17.5816 22.5284 17.3725 23.0353 17 23.41L15.41 25C15.0353 25.3725 14.5284 25.5816 14 25.5816C13.4716 25.5816 12.9647 25.3725 12.59 25ZM10 16.41L8.41 18L14 23.59L15.59 22L10 16.41Z" fill="white"/>
<path d="M26.59 11L21 5.41001C20.6275 5.03529 20.4184 4.52838 20.4184 4.00001C20.4184 3.47164 20.6275 2.96474 21 2.59001L22.59 1.00001C22.9647 0.62751 23.4716 0.418427 24 0.418427C24.5284 0.418427 25.0353 0.62751 25.41 1.00001L31 6.59001C31.3725 6.96474 31.5816 7.47164 31.5816 8.00001C31.5816 8.52838 31.3725 9.03529 31 9.41001L29.41 11C29.0353 11.3725 28.5284 11.5816 28 11.5816C27.4716 11.5816 26.9647 11.3725 26.59 11ZM24 2.41001L22.41 4.00001L28 9.59001L29.59 8.00001L24 2.41001Z" fill="white"/>
<path d="M31.71 0.29C31.617 0.196272 31.5064 0.121877 31.3846 0.0711086C31.2627 0.0203399 31.132 -0.00579834 31 -0.00579834C30.868 -0.00579834 30.7373 0.0203399 30.6154 0.0711086C30.4936 0.121877 30.383 0.196272 30.29 0.29L26.79 3.79C26.649 3.92987 26.5528 4.10857 26.5137 4.30332C26.4746 4.49807 26.4945 4.70004 26.5706 4.88348C26.6468 5.06693 26.7759 5.22353 26.9414 5.33333C27.1069 5.44313 27.3014 5.50115 27.5 5.5C27.6316 5.50076 27.7621 5.47554 27.8839 5.42577C28.0057 5.37601 28.1166 5.30268 28.21 5.21L31.71 1.71C31.8037 1.61704 31.8781 1.50644 31.9289 1.38458C31.9797 1.26272 32.0058 1.13201 32.0058 1C32.0058 0.867988 31.9797 0.737283 31.9289 0.615423C31.8781 0.493564 31.8037 0.382963 31.71 0.29Z" fill="white"/>
<path d="M23.79 6.79L22.47 8.12C21.3147 7.31836 19.9145 6.94798 18.5139 7.07353C17.1133 7.19909 15.8013 7.81259 14.8069 8.80693C13.8126 9.80127 13.1991 11.1133 13.0735 12.5139C12.948 13.9145 13.3184 15.3147 14.12 16.47L12.79 17.79C12.6017 17.9783 12.4959 18.2337 12.4959 18.5C12.4959 18.7663 12.6017 19.0217 12.79 19.21C12.9783 19.3983 13.2337 19.5041 13.5 19.5041C13.7663 19.5041 14.0217 19.3983 14.21 19.21L15.53 17.88C16.2193 18.3678 17.0038 18.7046 17.8322 18.8684C18.6606 19.0322 19.5143 19.0193 20.3374 18.8306C21.1605 18.6418 21.9344 18.2814 22.6086 17.7729C23.2829 17.2645 23.8422 16.6195 24.25 15.88C24.3826 15.6479 24.4176 15.3727 24.3473 15.1148C24.2769 14.857 24.1071 14.6376 23.875 14.505C23.6429 14.3724 23.3677 14.3374 23.1098 14.4077C22.852 14.4781 22.6326 14.6479 22.5 14.88C22.0639 15.6688 21.3743 16.2872 20.5428 16.635C19.7113 16.9828 18.7867 17.0395 17.9189 16.7961C17.0511 16.5527 16.291 16.0233 15.7617 15.2938C15.2324 14.5642 14.965 13.6773 15.0028 12.7768C15.0407 11.8763 15.3815 11.015 15.9701 10.3325C16.5587 9.64992 17.3606 9.18617 18.2458 9.01638C19.1309 8.84659 20.0475 8.98072 20.8469 9.39703C21.6463 9.81333 22.2817 10.4874 22.65 11.31C22.6983 11.4377 22.7722 11.5541 22.8672 11.6522C22.9622 11.7502 23.0763 11.8277 23.2024 11.88C23.3285 11.9323 23.464 11.9582 23.6005 11.9561C23.737 11.954 23.8716 11.924 23.9961 11.8679C24.1206 11.8119 24.2322 11.7309 24.3242 11.63C24.4162 11.5292 24.4866 11.4105 24.531 11.2814C24.5754 11.1523 24.5929 11.0155 24.5824 10.8794C24.5719 10.7433 24.5336 10.6108 24.47 10.49C24.3073 10.1398 24.1132 9.80513 23.89 9.49L25.21 8.18C25.3983 7.9917 25.5041 7.7363 25.5041 7.47C25.5041 7.2037 25.3983 6.94831 25.21 6.76C25.0217 6.5717 24.7663 6.46591 24.5 6.46591C24.2337 6.46591 23.9783 6.5717 23.79 6.76V6.79Z" fill="white"/>
</g>
<defs>
<clipPath id="clip0_2_364">
<rect width="32" height="32" fill="white"/>
</clipPath>
</defs>
</svg>
