<svg width="32" height="32" viewBox="0 0 32 32" fill="none" xmlns="http://www.w3.org/2000/svg">
<path d="M13 27C12.7348 27 12.4804 26.8946 12.2929 26.7071C12.1054 26.5196 12 26.2652 12 26V15C12 14.7348 12.1054 14.4804 12.2929 14.2929C12.4804 14.1054 12.7348 14 13 14C13.2652 14 13.5196 14.1054 13.7071 14.2929C13.8946 14.4804 14 14.7348 14 15V26C14 26.2652 13.8946 26.5196 13.7071 26.7071C13.5196 26.8946 13.2652 27 13 27Z" fill="white"/>
<path d="M18 27C17.7348 27 17.4804 26.8946 17.2929 26.7071C17.1054 26.5196 17 26.2652 17 26V15C17 14.7348 17.1054 14.4804 17.2929 14.2929C17.4804 14.1054 17.7348 14 18 14C18.2652 14 18.5196 14.1054 18.7071 14.2929C18.8946 14.4804 19 14.7348 19 15V26C19 26.2652 18.8946 26.5196 18.7071 26.7071C18.5196 26.8946 18.2652 27 18 27Z" fill="white"/>
<path d="M8 27C7.73478 27 7.48043 26.8946 7.29289 26.7071C7.10536 26.5196 7 26.2652 7 26V15C7 14.7348 7.10536 14.4804 7.29289 14.2929C7.48043 14.1054 7.73478 14 8 14C8.26522 14 8.51957 14.1054 8.70711 14.2929C8.89464 14.4804 9 14.7348 9 15V26C9 26.2652 8.89464 26.5196 8.70711 26.7071C8.51957 26.8946 8.26522 27 8 27Z" fill="white"/>
<path d="M23 11.09C23.0658 10.061 23.0658 9.02894 23 7.99999C22.9923 7.30534 22.8039 6.62466 22.4532 6.02498C22.1025 5.4253 21.6016 4.9273 21 4.57999C20.9321 3.9971 20.7367 3.4363 20.4278 2.93735C20.1189 2.43841 19.704 2.01354 19.2125 1.69289C18.7211 1.37223 18.1651 1.16365 17.5839 1.08192C17.0028 1.0002 16.4109 1.04733 15.85 1.21999C15.4785 0.848085 15.0374 0.553049 14.5518 0.351752C14.0662 0.150455 13.5457 0.0468445 13.02 0.0468445C12.4943 0.0468445 11.9738 0.150455 11.4882 0.351752C11.0026 0.553049 10.5615 0.848085 10.19 1.21999C9.67414 1.05551 9.13027 0.997467 8.59132 1.04938C8.05238 1.1013 7.52958 1.26209 7.05461 1.52201C6.57964 1.78194 6.16238 2.13559 5.82812 2.56153C5.49386 2.98747 5.24955 3.47684 5.11 3.99999C4.56556 4.00127 4.02678 4.11045 3.52479 4.32121C3.0228 4.53197 2.56756 4.84013 2.18538 5.22789C1.8032 5.61564 1.50167 6.0753 1.29821 6.58029C1.09475 7.08528 0.99339 7.62559 0.999998 8.16999V14C1.00421 14.698 1.19103 15.3828 1.5419 15.9863C1.89276 16.5898 2.39545 17.091 3 17.44V30C2.73478 30 2.48043 30.1053 2.29289 30.2929C2.10536 30.4804 2 30.7348 2 31C2 31.2652 2.10536 31.5196 2.29289 31.7071C2.48043 31.8946 2.73478 32 3 32H23C23.2652 32 23.5196 31.8946 23.7071 31.7071C23.8946 31.5196 24 31.2652 24 31C24 30.7348 23.8946 30.4804 23.7071 30.2929C23.5196 30.1053 23.2652 30 23 30V28.91C23.9919 29.0532 25.0031 28.9817 25.965 28.7003C26.9269 28.419 27.8172 27.9344 28.5757 27.2793C29.3342 26.6241 29.9431 25.8138 30.3614 24.903C30.7796 23.9922 30.9974 23.0022 31 22V18C30.9974 16.9978 30.7796 16.0078 30.3614 15.097C29.9431 14.1862 29.3342 13.3759 28.5757 12.7207C27.8172 12.0656 26.9269 11.581 25.965 11.2996C25.0031 11.0183 23.9919 10.9468 23 11.09ZM3 8.16999C2.98615 7.84181 3.05098 7.51508 3.18908 7.21705C3.32718 6.91903 3.53454 6.65834 3.79387 6.45675C4.0532 6.25516 4.35698 6.1185 4.67987 6.05818C5.00275 5.99786 5.33538 6.01562 5.65 6.10999C5.81585 6.17527 5.99613 6.19503 6.17219 6.16723C6.34824 6.13944 6.51367 6.06509 6.65134 5.9519C6.78902 5.8387 6.89393 5.69076 6.95523 5.5234C7.01653 5.35604 7.03199 5.17533 7 4.99999C6.97495 4.6381 7.05626 4.27678 7.23394 3.96052C7.41162 3.64426 7.6779 3.38685 8 3.21999C8.30893 3.05958 8.65191 2.97584 9 2.97584C9.34809 2.97584 9.69107 3.05958 10 3.21999C10.2209 3.34559 10.4812 3.38242 10.7283 3.32298C10.9753 3.26355 11.1904 3.11231 11.33 2.89999C11.5104 2.61497 11.7599 2.3802 12.0554 2.21752C12.3509 2.05483 12.6827 1.96952 13.02 1.96952C13.3573 1.96952 13.6891 2.05483 13.9846 2.21752C14.2801 2.3802 14.5296 2.61497 14.71 2.89999C14.844 3.1072 15.0498 3.25757 15.2879 3.32218C15.5261 3.38679 15.7797 3.36108 16 3.24999C16.3054 3.07367 16.6519 2.98122 17.0045 2.982C17.3571 2.98278 17.7032 3.07677 18.0078 3.25444C18.3124 3.43211 18.5646 3.68714 18.7388 3.99369C18.9131 4.30023 19.0032 4.6474 19 4.99999C18.9616 5.23444 19.008 5.47489 19.1307 5.67828C19.2535 5.88167 19.4447 6.03471 19.67 6.10999C20.0907 6.25746 20.45 6.54124 20.691 6.91627C20.9319 7.2913 21.0407 7.73608 21 8.17999C20.9352 8.69773 20.6782 9.17222 20.28 9.50934C19.8817 9.84646 19.3713 10.0216 18.85 9.99999H10C9.20435 9.99999 8.44129 10.3161 7.87868 10.8787C7.31607 11.4413 7 12.2043 7 13V14C7 14.5304 6.78929 15.0391 6.41421 15.4142C6.03914 15.7893 5.53043 16 5 16C4.46957 16 3.96086 15.7893 3.58578 15.4142C3.21071 15.0391 3 14.5304 3 14V8.16999ZM29 22C28.999 22.7988 28.8066 23.5857 28.439 24.2948C28.0714 25.0039 27.5392 25.6147 26.887 26.0759C26.2349 26.5371 25.4817 26.8353 24.6906 26.9457C23.8995 27.056 23.0935 26.9752 22.34 26.71C22.2835 26.7045 22.2265 26.7045 22.17 26.71C22.1138 26.6997 22.0562 26.6997 22 26.71C21.9303 26.7005 21.8597 26.7005 21.79 26.71C21.56 26.76 21.68 26.71 21.48 26.85C21.28 26.99 21.32 26.96 21.22 27.1C21 27.43 21.03 27.3 21.03 30.01H5V18C6.06086 18 7.07828 17.5786 7.82843 16.8284C8.57857 16.0783 9 15.0609 9 14V13C9 12.7348 9.10536 12.4804 9.29289 12.2929C9.48043 12.1053 9.73478 12 10 12H18.85C19.6064 11.9982 20.3486 11.7945 21 11.41C21 12.72 21 12.27 21 12.52C20.9944 12.5765 20.9944 12.6335 21 12.69C21.0597 12.8062 21.13 12.9167 21.21 13.02C21.3095 13.0986 21.413 13.172 21.52 13.24C21.6451 13.2735 21.772 13.3002 21.9 13.32C22.5855 13.1334 23.2901 13.026 24 13C25.3261 13 26.5979 13.5268 27.5355 14.4645C28.4732 15.4021 29 16.6739 29 18V22Z" fill="white"/>
<path d="M24 15C23.2044 15 22.4413 15.3161 21.8787 15.8787C21.3161 16.4413 21 17.2044 21 18V22C21 22.7956 21.3161 23.5587 21.8787 24.1213C22.4413 24.6839 23.2044 25 24 25C24.7956 25 25.5587 24.6839 26.1213 24.1213C26.6839 23.5587 27 22.7956 27 22V18C27 17.2044 26.6839 16.4413 26.1213 15.8787C25.5587 15.3161 24.7956 15 24 15ZM25 22C25 22.2652 24.8946 22.5196 24.7071 22.7071C24.5196 22.8946 24.2652 23 24 23C23.7348 23 23.4804 22.8946 23.2929 22.7071C23.1054 22.5196 23 22.2652 23 22V18C23 17.7348 23.1054 17.4804 23.2929 17.2929C23.4804 17.1054 23.7348 17 24 17C24.2652 17 24.5196 17.1054 24.7071 17.2929C24.8946 17.4804 25 17.7348 25 18V22Z" fill="white"/>
</svg>
