<svg width="32" height="30" viewBox="0 0 32 30" fill="none" xmlns="http://www.w3.org/2000/svg">
<path d="M30.8253 10.1876L30.8253 10.1876C31.1073 10.5249 31.3175 10.9208 31.4427 11.3491C31.5678 11.7773 31.6052 12.2285 31.5525 12.6729C31.5525 12.6729 31.5525 12.6729 31.5525 12.6729L29.865 26.9229C29.7746 27.6865 29.4229 28.3912 28.8731 28.9034C28.323 29.4158 27.6126 29.7002 26.875 29.7C26.875 29.7 26.875 29.7 26.875 29.7H2.6875C2.18331 29.7 1.7021 29.4885 1.34907 29.1158C0.996377 28.7435 0.8 28.2408 0.8 27.7188V14.6562C0.8 14.1342 0.996377 13.6314 1.34907 13.2592C1.7021 12.8865 2.18331 12.675 2.6875 12.675H8.96358L14.3783 1.24244L14.3783 1.24237C14.4405 1.11135 14.5366 0.999657 14.6574 0.92095C14.7783 0.842192 14.9186 0.799921 15.0625 0.8L30.8253 10.1876ZM30.8253 10.1876C30.5431 9.85042 30.1956 9.57969 29.8054 9.39405M30.8253 10.1876L29.8054 9.39405M29.8054 9.39405C29.4151 9.20839 28.9914 9.11228 28.5624 9.1125M29.8054 9.39405L28.5624 9.1125M28.5624 9.1125H28.5625V9.3125C28.9614 9.31229 29.3558 9.40166 29.7195 9.57466L28.5624 9.1125ZM28.5624 9.1125H20.325M28.5624 9.1125H20.325M20.325 9.1125V6.34375C20.325 4.87684 19.773 3.46798 18.7874 2.4276C17.8015 1.38687 16.4618 0.800021 15.0626 0.8C15.0626 0.8 15.0626 0.8 15.0627 0.8L20.325 9.1125ZM26.875 28.1125H26.875H10.2V13.6533L15.5225 2.41687C16.3989 2.53193 17.212 2.97252 17.8138 3.66541C18.4473 4.39482 18.8002 5.3504 18.8 6.34372V6.34375V9.90625C18.8 10.1134 18.8778 10.3141 19.0196 10.4636C19.1616 10.6136 19.3567 10.7 19.5625 10.7H28.5625H28.5625C28.7718 10.6999 28.9791 10.7469 29.1706 10.8381C29.3623 10.9293 29.5342 11.0629 29.6745 11.2307C29.8149 11.3985 29.9204 11.5966 29.9834 11.812C30.0464 12.0275 30.0653 12.2548 30.0387 12.4789L28.3512 26.7289C28.3056 27.1142 28.1283 27.4665 27.8556 27.7205C27.5832 27.9742 27.2344 28.1126 26.875 28.1125ZM8.675 28.1125H2.6875C2.59495 28.1125 2.50386 28.0738 2.43494 28.001C2.36568 27.9279 2.325 27.8266 2.325 27.7188V14.6562C2.325 14.5484 2.36568 14.4471 2.43494 14.374C2.50386 14.3012 2.59495 14.2625 2.6875 14.2625H8.675V28.1125Z" fill="white" stroke="white" stroke-width="0.4"/>
</svg>
