<svg width="32" height="30" viewBox="0 0 32 30" fill="none" xmlns="http://www.w3.org/2000/svg">
<mask id="path-1-outside-1_1465_1883" maskUnits="userSpaceOnUse" x="0" y="0" width="32" height="30" fill="black">
<rect fill="white" width="32" height="30"/>
<path d="M30.6719 10.3159C30.4078 10.0003 30.0831 9.74766 29.7195 9.57466C29.3558 9.40166 28.9614 9.31229 28.5625 9.3125H20.125V6.34375C20.125 4.9265 19.5916 3.5673 18.6422 2.56515C17.6928 1.563 16.4052 1 15.0625 1C14.958 0.999921 14.8555 1.03057 14.7666 1.08851C14.6777 1.14646 14.6058 1.2294 14.5591 1.32805L9.09016 12.875H2.6875C2.23995 12.875 1.81072 13.0627 1.49426 13.3967C1.17779 13.7308 1 14.1838 1 14.6562V27.7188C1 28.1912 1.17779 28.6442 1.49426 28.9783C1.81072 29.3123 2.23995 29.5 2.6875 29.5H26.875C27.5606 29.5002 28.2227 29.2359 28.7367 28.757C29.2508 28.2781 29.5814 27.6175 29.6664 26.8994L31.3539 12.6494C31.4035 12.2316 31.3683 11.8075 31.2507 11.4052C31.1331 11.0029 30.9358 10.6316 30.6719 10.3159ZM8.875 28.3125H2.6875C2.53832 28.3125 2.39524 28.2499 2.28975 28.1386C2.18426 28.0272 2.125 27.8762 2.125 27.7188V14.6562C2.125 14.4988 2.18426 14.3478 2.28975 14.2364C2.39524 14.1251 2.53832 14.0625 2.6875 14.0625H8.875V28.3125ZM30.2373 12.5024L28.5498 26.7524C28.4988 27.1832 28.3004 27.5795 27.992 27.8668C27.6835 28.1541 27.2863 28.3126 26.875 28.3125H10V13.6083L15.4028 2.20234C16.3846 2.29225 17.2988 2.76751 17.9648 3.53426C18.6308 4.30101 19.0002 5.30351 19 6.34375V9.90625C19 10.0637 19.0593 10.2147 19.1648 10.3261C19.2702 10.4374 19.4133 10.5 19.5625 10.5H28.5625C28.8018 10.4999 29.0384 10.5536 29.2566 10.6575C29.4748 10.7613 29.6695 10.913 29.8279 11.1023C29.9863 11.2917 30.1047 11.5145 30.1753 11.7559C30.2459 11.9973 30.2671 12.2518 30.2373 12.5024Z"/>
</mask>
<path d="M30.6719 10.3159C30.4078 10.0003 30.0831 9.74766 29.7195 9.57466C29.3558 9.40166 28.9614 9.31229 28.5625 9.3125H20.125V6.34375C20.125 4.9265 19.5916 3.5673 18.6422 2.56515C17.6928 1.563 16.4052 1 15.0625 1C14.958 0.999921 14.8555 1.03057 14.7666 1.08851C14.6777 1.14646 14.6058 1.2294 14.5591 1.32805L9.09016 12.875H2.6875C2.23995 12.875 1.81072 13.0627 1.49426 13.3967C1.17779 13.7308 1 14.1838 1 14.6562V27.7188C1 28.1912 1.17779 28.6442 1.49426 28.9783C1.81072 29.3123 2.23995 29.5 2.6875 29.5H26.875C27.5606 29.5002 28.2227 29.2359 28.7367 28.757C29.2508 28.2781 29.5814 27.6175 29.6664 26.8994L31.3539 12.6494C31.4035 12.2316 31.3683 11.8075 31.2507 11.4052C31.1331 11.0029 30.9358 10.6316 30.6719 10.3159ZM8.875 28.3125H2.6875C2.53832 28.3125 2.39524 28.2499 2.28975 28.1386C2.18426 28.0272 2.125 27.8762 2.125 27.7188V14.6562C2.125 14.4988 2.18426 14.3478 2.28975 14.2364C2.39524 14.1251 2.53832 14.0625 2.6875 14.0625H8.875V28.3125ZM30.2373 12.5024L28.5498 26.7524C28.4988 27.1832 28.3004 27.5795 27.992 27.8668C27.6835 28.1541 27.2863 28.3126 26.875 28.3125H10V13.6083L15.4028 2.20234C16.3846 2.29225 17.2988 2.76751 17.9648 3.53426C18.6308 4.30101 19.0002 5.30351 19 6.34375V9.90625C19 10.0637 19.0593 10.2147 19.1648 10.3261C19.2702 10.4374 19.4133 10.5 19.5625 10.5H28.5625C28.8018 10.4999 29.0384 10.5536 29.2566 10.6575C29.4748 10.7613 29.6695 10.913 29.8279 11.1023C29.9863 11.2917 30.1047 11.5145 30.1753 11.7559C30.2459 11.9973 30.2671 12.2518 30.2373 12.5024Z" fill="white"/>
<path d="M30.6719 10.3159C30.4078 10.0003 30.0831 9.74766 29.7195 9.57466C29.3558 9.40166 28.9614 9.31229 28.5625 9.3125H20.125V6.34375C20.125 4.9265 19.5916 3.5673 18.6422 2.56515C17.6928 1.563 16.4052 1 15.0625 1C14.958 0.999921 14.8555 1.03057 14.7666 1.08851C14.6777 1.14646 14.6058 1.2294 14.5591 1.32805L9.09016 12.875H2.6875C2.23995 12.875 1.81072 13.0627 1.49426 13.3967C1.17779 13.7308 1 14.1838 1 14.6562V27.7188C1 28.1912 1.17779 28.6442 1.49426 28.9783C1.81072 29.3123 2.23995 29.5 2.6875 29.5H26.875C27.5606 29.5002 28.2227 29.2359 28.7367 28.757C29.2508 28.2781 29.5814 27.6175 29.6664 26.8994L31.3539 12.6494C31.4035 12.2316 31.3683 11.8075 31.2507 11.4052C31.1331 11.0029 30.9358 10.6316 30.6719 10.3159ZM8.875 28.3125H2.6875C2.53832 28.3125 2.39524 28.2499 2.28975 28.1386C2.18426 28.0272 2.125 27.8762 2.125 27.7188V14.6562C2.125 14.4988 2.18426 14.3478 2.28975 14.2364C2.39524 14.1251 2.53832 14.0625 2.6875 14.0625H8.875V28.3125ZM30.2373 12.5024L28.5498 26.7524C28.4988 27.1832 28.3004 27.5795 27.992 27.8668C27.6835 28.1541 27.2863 28.3126 26.875 28.3125H10V13.6083L15.4028 2.20234C16.3846 2.29225 17.2988 2.76751 17.9648 3.53426C18.6308 4.30101 19.0002 5.30351 19 6.34375V9.90625C19 10.0637 19.0593 10.2147 19.1648 10.3261C19.2702 10.4374 19.4133 10.5 19.5625 10.5H28.5625C28.8018 10.4999 29.0384 10.5536 29.2566 10.6575C29.4748 10.7613 29.6695 10.913 29.8279 11.1023C29.9863 11.2917 30.1047 11.5145 30.1753 11.7559C30.2459 11.9973 30.2671 12.2518 30.2373 12.5024Z" stroke="white" stroke-width="0.8" mask="url(#path-1-outside-1_1465_1883)"/>
</svg>
