<svg width="32" height="32" viewBox="0 0 32 32" fill="none" xmlns="http://www.w3.org/2000/svg">
<g clip-path="url(#clip0_8_1261)">
<path d="M8.42002 14C7.06597 13.8874 5.77395 13.3832 4.70157 12.5488C3.62919 11.7145 2.82282 10.5861 2.38081 9.30126C1.9388 8.01644 1.88027 6.63075 2.21235 5.31323C2.54444 3.99571 3.25278 2.80331 4.25097 1.8815C5.24917 0.959683 6.49406 0.348297 7.8338 0.121921C9.17353 -0.104455 10.5502 0.0639652 11.7958 0.606637C13.0415 1.14931 14.1023 2.04277 14.8488 3.17804C15.5953 4.3133 15.9953 5.64129 16 7.00001C16 7.26522 15.8947 7.51958 15.7071 7.70712C15.5196 7.89465 15.2652 8.00001 15 8.00001C14.7348 8.00001 14.4804 7.89465 14.2929 7.70712C14.1054 7.51958 14 7.26522 14 7.00001C13.9966 6.02976 13.7109 5.08147 13.1779 4.27076C12.6449 3.46004 11.8874 2.82193 10.998 2.43422C10.1086 2.04651 9.12558 1.92596 8.16883 2.08726C7.21208 2.24856 6.32293 2.68474 5.60978 3.34263C4.89663 4.00051 4.3903 4.85168 4.15252 5.79234C3.91474 6.73301 3.95579 7.72254 4.27066 8.64028C4.58552 9.55802 5.16061 10.3643 5.92579 10.9609C6.69097 11.5575 7.6132 11.9185 8.58002 12C8.84524 12.0212 9.09116 12.1469 9.2637 12.3495C9.43623 12.552 9.52124 12.8148 9.50002 13.08C9.4788 13.3452 9.3531 13.5912 9.15056 13.7637C8.94802 13.9362 8.68524 14.0212 8.42002 14Z" fill="white"/>
<path d="M29 5.77363e-06H23.53C22.871 -0.0012867 22.2299 0.214451 21.7058 0.613894C21.1816 1.01334 20.8036 1.57426 20.63 2.21001L19.6 6.00001H8.00003C7.8617 5.99956 7.72478 6.02782 7.59793 6.08301C7.47107 6.13819 7.35705 6.21909 7.26307 6.32059C7.16908 6.4221 7.09718 6.542 7.0519 6.67271C7.00663 6.80343 6.98896 6.94211 7.00003 7.08001L8.25003 22.08C8.26013 22.2115 8.29612 22.3397 8.35595 22.4572C8.41578 22.5747 8.49825 22.6792 8.59863 22.7647C8.69901 22.8502 8.81531 22.915 8.94083 22.9554C9.06635 22.9958 9.19863 23.0109 9.33003 23C9.46151 22.9899 9.58968 22.9539 9.70719 22.8941C9.8247 22.8343 9.92921 22.7518 10.0147 22.6514C10.1002 22.551 10.165 22.4347 10.2054 22.3092C10.2458 22.1837 10.261 22.0514 10.25 21.92L9.59003 14C13.46 14 15.05 13.79 17.21 14.75L15.04 22.75C14.9896 22.8807 14.9671 23.0205 14.9741 23.1604C14.9811 23.3003 15.0175 23.4372 15.0808 23.5622C15.1441 23.6871 15.2329 23.7974 15.3416 23.8859C15.4502 23.9743 15.5762 24.0389 15.7114 24.0755C15.8467 24.1122 15.9881 24.12 16.1265 24.0984C16.2649 24.0769 16.3973 24.0266 16.515 23.9506C16.6327 23.8747 16.7332 23.7748 16.8098 23.6576C16.8865 23.5403 16.9377 23.4083 16.96 23.27L19.08 15.51C21.14 16.16 22.27 16.01 26.25 16.01L25.16 29.08C25.1399 29.3311 25.0257 29.5654 24.8403 29.7359C24.6549 29.9065 24.412 30.0008 24.16 30H11.84C11.5881 30.0008 11.3452 29.9065 11.1598 29.7359C10.9744 29.5654 10.8602 29.3311 10.84 29.08L10.58 25.92C10.5588 25.6548 10.4331 25.4089 10.2306 25.2363C10.028 25.0638 9.76525 24.9788 9.50003 25C9.23482 25.0212 8.98889 25.1469 8.81636 25.3495C8.64382 25.552 8.55881 25.8148 8.58003 26.08L8.84003 29.25C8.90288 30.0016 9.24648 30.7019 9.80242 31.2115C10.3584 31.7211 11.0859 32.0026 11.84 32H24.16C24.9142 32.0026 25.6417 31.7211 26.1976 31.2115C26.7536 30.7019 27.0972 30.0016 27.16 29.25L29 7.08001C29.0111 6.94211 28.9934 6.80343 28.9482 6.67271C28.9029 6.542 28.831 6.4221 28.737 6.32059C28.643 6.21909 28.529 6.13819 28.4021 6.08301C28.2753 6.02782 28.1384 5.99956 28 6.00001H21.67L22.56 2.74001C22.6186 2.52184 22.7494 2.32995 22.931 2.19558C23.1125 2.06121 23.3343 1.99227 23.56 2.00001H29C29.2652 2.00001 29.5196 1.89465 29.7071 1.70711C29.8947 1.51958 30 1.26522 30 1.00001C30 0.734789 29.8947 0.480435 29.7071 0.292899C29.5196 0.105363 29.2652 5.77363e-06 29 5.77363e-06ZM9.42003 12L9.09003 8.00001H19.09L17.78 12.8C15.27 11.79 13.74 12 9.42003 12ZM26.91 8.00001L26.41 14C22.22 14 21.33 14.13 19.61 13.57L21.13 8.00001H26.91Z" fill="white"/>
<path d="M22 26C21.8022 26 21.6089 25.9414 21.4444 25.8315C21.28 25.7216 21.1518 25.5654 21.0761 25.3827C21.0004 25.2 20.9806 24.9989 21.0192 24.8049C21.0578 24.6109 21.153 24.4327 21.2929 24.2929C21.4327 24.153 21.6109 24.0578 21.8049 24.0192C21.9989 23.9806 22.2 24.0004 22.3827 24.0761C22.5654 24.1518 22.7216 24.28 22.8315 24.4444C22.9414 24.6089 23 24.8022 23 25C23 25.2652 22.8946 25.5196 22.7071 25.7071C22.5196 25.8946 22.2652 26 22 26Z" fill="white"/>
<path d="M18 28C17.8022 28 17.6089 27.9414 17.4444 27.8315C17.28 27.7216 17.1518 27.5654 17.0761 27.3827C17.0004 27.2 16.9806 26.9989 17.0192 26.8049C17.0578 26.6109 17.153 26.4327 17.2929 26.2929C17.4327 26.153 17.6109 26.0578 17.8049 26.0192C17.9989 25.9806 18.2 26.0004 18.3827 26.0761C18.5654 26.1518 18.7216 26.28 18.8315 26.4444C18.9414 26.6089 19 26.8022 19 27C19 27.2652 18.8946 27.5196 18.7071 27.7071C18.5196 27.8946 18.2652 28 18 28Z" fill="white"/>
<path d="M22 21C21.8022 21 21.6089 20.9414 21.4444 20.8315C21.28 20.7216 21.1518 20.5654 21.0761 20.3827C21.0004 20.2 20.9806 19.9989 21.0192 19.8049C21.0578 19.6109 21.153 19.4327 21.2929 19.2929C21.4327 19.153 21.6109 19.0578 21.8049 19.0192C21.9989 18.9806 22.2 19.0004 22.3827 19.0761C22.5654 19.1518 22.7216 19.28 22.8315 19.4444C22.9414 19.6089 23 19.8022 23 20C23 20.2652 22.8946 20.5196 22.7071 20.7071C22.5196 20.8946 22.2652 21 22 21Z" fill="white"/>
</g>
<defs>
<clipPath id="clip0_8_1261">
<rect width="32" height="32" fill="white"/>
</clipPath>
</defs>
</svg>
