<svg width="32" height="32" viewBox="0 0 32 32" fill="none" xmlns="http://www.w3.org/2000/svg">
<g clip-path="url(#clip0_1_405)">
<path d="M24.9 12.58C24.74 12.23 25.64 14.05 21.57 5.91C21.9819 5.78752 22.3434 5.53562 22.601 5.1916C22.8586 4.84758 22.9985 4.42975 23 4V2C23 1.46957 22.7893 0.960859 22.4142 0.585786C22.0391 0.210714 21.5304 0 21 0L11 0C10.4696 0 9.96086 0.210714 9.58578 0.585786C9.21071 0.960859 9 1.46957 9 2V4C9.00151 4.42975 9.14142 4.84758 9.39898 5.1916C9.65654 5.53562 10.0181 5.78752 10.43 5.91C6.85 13.06 7 12.69 7 13V18C7 18.2652 7.10535 18.5196 7.29289 18.7071C7.48043 18.8946 7.73478 19 8 19C8.26521 19 8.51957 18.8946 8.7071 18.7071C8.89464 18.5196 9 18.2652 9 18V14H23V26H9V22C9 21.7348 8.89464 21.4804 8.7071 21.2929C8.51957 21.1054 8.26521 21 8 21C7.73478 21 7.48043 21.1054 7.29289 21.2929C7.10535 21.4804 7 21.7348 7 22V29C7 29.7956 7.31607 30.5587 7.87868 31.1213C8.44129 31.6839 9.20435 32 10 32H22C22.7956 32 23.5587 31.6839 24.1213 31.1213C24.6839 30.5587 25 29.7956 25 29C25 11.69 25.05 12.9 24.9 12.58ZM22.38 12H9.62L12.62 6H19.38L22.38 12ZM11 2H21V4H11V2ZM22 30H10C9.73478 30 9.48043 29.8946 9.29289 29.7071C9.10535 29.5196 9 29.2652 9 29V28H23V29C23 29.2652 22.8946 29.5196 22.7071 29.7071C22.5196 29.8946 22.2652 30 22 30Z" fill="#08221D"/>
<path d="M17 17.12C17 16.8548 16.8946 16.6004 16.7071 16.4129C16.5196 16.2254 16.2652 16.12 16 16.12C15.7348 16.12 15.4804 16.2254 15.2929 16.4129C15.1054 16.6004 15 16.8548 15 17.12C14.1915 17.2613 13.4547 17.6723 12.9098 18.2862C12.365 18.9 12.0443 19.6804 12 20.5C12.0719 21.4924 12.5321 22.4165 13.281 23.0717C14.0298 23.727 15.0068 24.0605 16 24C16.9932 24.0605 17.9702 23.727 18.719 23.0717C19.4679 22.4165 19.9281 21.4924 20 20.5C19.9557 19.6804 19.635 18.9 19.0902 18.2862C18.5453 17.6723 17.8085 17.2613 17 17.12ZM16 22C14.92 22 14 21.31 14 20.5C14 19.69 14.92 19 16 19C17.08 19 18 19.69 18 20.5C18 21.31 17.08 22 16 22Z" fill="#22BB9B"/>
</g>
<defs>
<clipPath id="clip0_1_405">
<rect width="32" height="32" fill="white"/>
</clipPath>
</defs>
</svg>
