<svg width="32" height="32" viewBox="0 0 32 32" fill="none" xmlns="http://www.w3.org/2000/svg">
<g clip-path="url(#clip0_1_407)">
<path d="M31 22H30V10.44C31.33 9.78 32 9 32 8C32 5.44 27.05 4.18 22.09 4C21.8 4 19.63 4 11 4C5.7 4 0 5.25 0 8C0 9 0.67 9.78 2 10.44V22H1C0.734784 22 0.48043 22.1054 0.292893 22.2929C0.105357 22.4804 0 22.7348 0 23C0 23.2652 0.105357 23.5196 0.292893 23.7071C0.48043 23.8946 0.734784 24 1 24H1.25L1.79 25.84C1.97175 26.4631 2.35071 27.0105 2.87 27.4C3.38929 27.7895 4.02089 28 4.67 28H8C8.26522 28 8.51957 27.8946 8.70711 27.7071C8.89464 27.5196 9 27.2652 9 27C9 26.7348 8.89464 26.4804 8.70711 26.2929C8.51957 26.1054 8.26522 26 8 26H4.67C4.44686 26.0089 4.22716 25.9428 4.04593 25.8123C3.86469 25.6818 3.73235 25.4944 3.67 25.28L3.33 24H28.67L28.29 25.28C28.2276 25.4944 28.0953 25.6818 27.9141 25.8123C27.7328 25.9428 27.5131 26.0089 27.29 26H12C11.7348 26 11.4804 26.1054 11.2929 26.2929C11.1054 26.4804 11 26.7348 11 27C11 27.2652 11.1054 27.5196 11.2929 27.7071C11.4804 27.8946 11.7348 28 12 28H27.33C27.9791 28 28.6107 27.7895 29.13 27.4C29.6493 27.0105 30.0282 26.4631 30.21 25.84L30.75 24H31C31.2652 24 31.5196 23.8946 31.7071 23.7071C31.8946 23.5196 32 23.2652 32 23C32 22.7348 31.8946 22.4804 31.7071 22.2929C31.5196 22.1054 31.2652 22 31 22ZM3.37 8.86C2.34 8.45 2 8.08 2 8C2.15 7.45 5.14 6 11 6C13.2944 5.96849 15.5823 6.25111 17.8 6.84C18.31 6.99 19.8 7.51 19.99 8C19.85 8.32 18.99 8.73 18.63 8.86C18.4439 8.9341 18.2844 9.06237 18.1721 9.22818C18.0598 9.394 17.9998 9.58972 18 9.79V22H4V9.79C4.00019 9.58972 3.94025 9.394 3.82792 9.22818C3.71559 9.06237 3.55607 8.9341 3.37 8.86ZM20 22V10.44C22.61 9.15 22.45 7.17 20.78 6H21C26.86 6 29.85 7.46 30 8C30 8.1 29.66 8.47 28.63 8.88C28.4439 8.9541 28.2844 9.08237 28.1721 9.24818C28.0598 9.414 27.9998 9.60972 28 9.81V22H20Z" fill="#08221D"/>
<path d="M9 19C8.80222 19 8.60888 18.9414 8.44443 18.8315C8.27998 18.7216 8.15181 18.5654 8.07612 18.3827C8.00043 18.2 7.98063 17.9989 8.01922 17.8049C8.0578 17.6109 8.15304 17.4327 8.29289 17.2929C8.43275 17.153 8.61093 17.0578 8.80491 17.0192C8.99889 16.9806 9.19996 17.0004 9.38268 17.0761C9.56541 17.1518 9.72159 17.28 9.83147 17.4444C9.94135 17.6089 10 17.8022 10 18C10 18.2652 9.89464 18.5196 9.70711 18.7071C9.51957 18.8946 9.26522 19 9 19Z" fill="#22BB9B"/>
<path d="M15 16C14.8022 16 14.6089 15.9414 14.4444 15.8315C14.28 15.7216 14.1518 15.5654 14.0761 15.3827C14.0004 15.2 13.9806 14.9989 14.0192 14.8049C14.0578 14.6109 14.153 14.4327 14.2929 14.2929C14.4327 14.153 14.6109 14.0578 14.8049 14.0192C14.9989 13.9806 15.2 14.0004 15.3827 14.0761C15.5654 14.1518 15.7216 14.28 15.8315 14.4444C15.9414 14.6089 16 14.8022 16 15C16 15.2652 15.8946 15.5196 15.7071 15.7071C15.5196 15.8946 15.2652 16 15 16Z" fill="#22BB9B"/>
<path d="M7 13C6.80222 13 6.60888 12.9414 6.44443 12.8315C6.27998 12.7216 6.15181 12.5654 6.07612 12.3827C6.00043 12.2 5.98063 11.9989 6.01922 11.8049C6.0578 11.6109 6.15304 11.4327 6.29289 11.2929C6.43275 11.153 6.61093 11.0578 6.80491 11.0192C6.99889 10.9806 7.19996 11.0004 7.38268 11.0761C7.56541 11.1518 7.72159 11.28 7.83147 11.4444C7.94135 11.6089 8 11.8022 8 12C8 12.2652 7.89464 12.5196 7.70711 12.7071C7.51957 12.8946 7.26522 13 7 13Z" fill="#22BB9B"/>
</g>
<defs>
<clipPath id="clip0_1_407">
<rect width="32" height="32" fill="white"/>
</clipPath>
</defs>
</svg>
