<svg width="32" height="32" viewBox="0 0 32 32" fill="none" xmlns="http://www.w3.org/2000/svg">
<g clip-path="url(#clip0_1_409)">
<path d="M20 32H12C11.7348 32 11.4804 31.8946 11.2929 31.7071C11.1054 31.5196 11 31.2652 11 31V27.3L7.17 21.55C7.07095 21.3996 7.01436 21.2252 7.00619 21.0453C6.99802 20.8654 7.03858 20.6867 7.12359 20.5279C7.2086 20.3692 7.33491 20.2363 7.48917 20.1434C7.64343 20.0505 7.81992 20.0009 8 20H24C24.1801 20.0009 24.3566 20.0505 24.5108 20.1434C24.6651 20.2363 24.7914 20.3692 24.8764 20.5279C24.9614 20.6867 25.002 20.8654 24.9938 21.0453C24.9856 21.2252 24.9291 21.3996 24.83 21.55L21 27.3V31C21 31.2652 20.8946 31.5196 20.7071 31.7071C20.5196 31.8946 20.2652 32 20 32ZM13 30H19V27C19 26.58 18.94 26.78 22.13 22H9.87L12.87 26.45C13.08 26.81 13 26.85 13 30Z" fill="#22BB9B"/>
<path d="M15.2 25.6L12.2 21.6C12.1212 21.4949 12.0639 21.3754 12.0313 21.2482C11.9987 21.121 11.9915 20.9886 12.0101 20.8586C12.0286 20.7286 12.0726 20.6035 12.1395 20.4905C12.2064 20.3775 12.2949 20.2788 12.4 20.2C12.5051 20.1212 12.6246 20.0639 12.7518 20.0313C12.879 19.9987 13.0114 19.9915 13.1414 20.0101C13.2714 20.0286 13.3965 20.0726 13.5095 20.1395C13.6225 20.2064 13.7212 20.2949 13.8 20.4L16 23.33L18.2 20.4C18.2788 20.2949 18.3775 20.2064 18.4905 20.1395C18.6035 20.0726 18.7286 20.0286 18.8586 20.0101C18.9886 19.9915 19.121 19.9987 19.2482 20.0313C19.3754 20.0639 19.4949 20.1212 19.6 20.2C19.7051 20.2788 19.7936 20.3775 19.8605 20.4905C19.9274 20.6035 19.9714 20.7286 19.99 20.8586C20.0085 20.9886 20.0013 21.121 19.9687 21.2482C19.9361 21.3754 19.8788 21.4949 19.8 21.6L16.8 25.6C16.7069 25.7242 16.5861 25.825 16.4472 25.8944C16.3084 25.9639 16.1552 26 16 26C15.8448 26 15.6916 25.9639 15.5528 25.8944C15.4139 25.825 15.2931 25.7242 15.2 25.6Z" fill="#22BB9B"/>
<path d="M24 22H8.00001C6.50827 22.0017 5.05501 21.5267 3.85213 20.6445C2.64926 19.7622 1.7597 18.5187 1.31316 17.0954C0.866624 15.672 0.886464 14.1433 1.36979 12.732C1.85312 11.3207 2.77465 10.1008 4.00001 9.25C3.96573 8.56673 4.07203 7.88369 4.31233 7.24315C4.55263 6.60261 4.92183 6.0182 5.39708 5.52608C5.87232 5.03396 6.4435 4.64461 7.07527 4.38211C7.70704 4.11962 8.38596 3.98956 9.07001 4C9.77192 2.783 10.7819 1.77231 11.9985 1.06958C13.215 0.366857 14.5951 -0.00311371 16 -0.00311371C17.4049 -0.00311371 18.785 0.366857 20.0016 1.06958C21.2181 1.77231 22.2281 2.783 22.93 4C23.6141 3.98956 24.293 4.11962 24.9248 4.38211C25.5565 4.64461 26.1277 5.03396 26.6029 5.52608C27.0782 6.0182 27.4474 6.60261 27.6877 7.24315C27.928 7.88369 28.0343 8.56673 28 9.25C28.4508 9.56066 28.8637 9.92314 29.23 10.33C29.3187 10.4281 29.387 10.5429 29.4311 10.6677C29.4751 10.7924 29.4939 10.9246 29.4865 11.0567C29.479 11.1888 29.4455 11.3181 29.3877 11.4371C29.33 11.5561 29.2492 11.6624 29.15 11.75C28.9523 11.926 28.6928 12.0164 28.4285 12.0015C28.1642 11.9865 27.9166 11.8673 27.74 11.67C27.3677 11.2683 26.9319 10.9304 26.45 10.67C26.2766 10.5721 26.1363 10.4246 26.0472 10.2464C25.9581 10.0682 25.9243 9.86753 25.95 9.67C26.0677 9.18761 26.0639 8.68354 25.9388 8.20301C25.8137 7.72248 25.5713 7.28051 25.2333 6.91675C24.8953 6.55299 24.4723 6.27881 24.0022 6.11881C23.5322 5.95881 23.0297 5.91798 22.54 6C22.3204 6.0432 22.0927 6.0115 21.8933 5.90997C21.6939 5.80845 21.5343 5.64296 21.44 5.44C20.9578 4.40368 20.1897 3.52665 19.226 2.91211C18.2622 2.29757 17.143 1.97109 16 1.97109C14.857 1.97109 13.7378 2.29757 12.7741 2.91211C11.8103 3.52665 11.0422 4.40368 10.56 5.44C10.4658 5.64296 10.3062 5.80845 10.1067 5.90997C9.9073 6.0115 9.67959 6.0432 9.46001 6C8.97824 5.92385 8.48516 5.96632 8.0235 6.12373C7.56184 6.28114 7.14552 6.54874 6.81061 6.90334C6.47571 7.25795 6.23231 7.68887 6.10152 8.15876C5.97073 8.62866 5.95648 9.12336 6.06001 9.6C6.08575 9.79753 6.0519 9.99824 5.96282 10.1764C5.87374 10.3546 5.73348 10.5021 5.56001 10.6C4.57549 11.1312 3.79752 11.9771 3.35054 13.0026C2.90357 14.0281 2.8134 15.1739 3.09446 16.2567C3.37553 17.3395 4.01158 18.2967 4.90091 18.9753C5.79023 19.654 6.88144 20.0148 8.00001 20H24C25.3261 20 26.5979 19.4732 27.5355 18.5355C28.4732 17.5979 29 16.3261 29 15C29 14.7348 29.1054 14.4804 29.2929 14.2929C29.4804 14.1054 29.7348 14 30 14C30.2652 14 30.5196 14.1054 30.7071 14.2929C30.8947 14.4804 31 14.7348 31 15C31 16.8565 30.2625 18.637 28.9498 19.9497C27.637 21.2625 25.8565 22 24 22Z" fill="#08221D"/>
</g>
<defs>
<clipPath id="clip0_1_409">
<rect width="32" height="32" fill="white"/>
</clipPath>
</defs>
</svg>
