<svg width="32" height="32" viewBox="0 0 32 32" fill="none" xmlns="http://www.w3.org/2000/svg">
<path d="M24.5 25H7.50001C3.27001 25 1.59001 21.27 4.34001 19.33C4.44966 19.2538 4.57324 19.2 4.7037 19.1716C4.83415 19.1432 4.96893 19.1408 5.10032 19.1644C5.23172 19.1881 5.35716 19.2374 5.46949 19.3096C5.58182 19.3818 5.67884 19.4753 5.75501 19.585C5.83118 19.6946 5.885 19.8182 5.9134 19.9487C5.94181 20.0791 5.94424 20.2139 5.92056 20.3453C5.89689 20.4767 5.84756 20.6021 5.7754 20.7145C5.70324 20.8268 5.60966 20.9238 5.50001 21C4.14001 22 5.86001 23 7.50001 23H24.5C26.15 23 27.86 21.92 26.5 21C26.3923 20.9238 26.3007 20.8272 26.2304 20.7156C26.16 20.604 26.1123 20.4797 26.0901 20.3497C26.0678 20.2197 26.0713 20.0866 26.1005 19.9579C26.1296 19.8293 26.1838 19.7077 26.26 19.6C26.4138 19.3825 26.6478 19.235 26.9103 19.19C27.0403 19.1678 27.1734 19.1713 27.3021 19.2005C27.4307 19.2296 27.5523 19.2838 27.66 19.36C30.44 21.29 28.69 25 24.5 25Z" fill="white"/>
<path d="M3 17.47V16C3 15.7348 3.10536 15.4804 3.29289 15.2929C3.48043 15.1054 3.73478 15 4 15H28C28.2652 15 28.5196 15.1054 28.7071 15.2929C28.8946 15.4804 29 15.7348 29 16V17.47C29 20.32 25.42 21.94 22.76 20.47C22.5494 20.3468 22.3122 20.2762 22.0686 20.264C21.8249 20.2518 21.5818 20.2985 21.36 20.4C20.6435 20.8172 19.8291 21.037 19 21.037C18.1709 21.037 17.3565 20.8172 16.64 20.4C16.4442 20.2914 16.2239 20.2345 16 20.2345C15.7761 20.2345 15.5558 20.2914 15.36 20.4C14.6435 20.8172 13.8291 21.037 13 21.037C12.1709 21.037 11.3565 20.8172 10.64 20.4C10.4182 20.2985 10.1751 20.2518 9.93145 20.264C9.68777 20.2762 9.45061 20.3468 9.24 20.47C6.6 21.93 3 20.34 3 17.47ZM5 17V17.47C5 18.71 6.88 19.47 8.25 18.69C8.77295 18.3881 9.36615 18.2291 9.97 18.2291C10.5738 18.2291 11.1671 18.3881 11.69 18.69C12.0911 18.9115 12.5418 19.0277 13 19.0277C13.4582 19.0277 13.9089 18.9115 14.31 18.69C14.8211 18.3853 15.405 18.2244 16 18.2244C16.595 18.2244 17.1789 18.3853 17.69 18.69C18.0911 18.9115 18.5418 19.0277 19 19.0277C19.4582 19.0277 19.9089 18.9115 20.31 18.69C20.8329 18.3881 21.4262 18.2291 22.03 18.2291C22.6338 18.2291 23.2271 18.3881 23.75 18.69C25.09 19.45 27 18.69 27 17.47V17H5Z" fill="white"/>
<path d="M26 31H13C12.7348 31 12.4804 30.8946 12.2929 30.7071C12.1054 30.5196 12 30.2652 12 30C12 29.7348 12.1054 29.4804 12.2929 29.2929C12.4804 29.1054 12.7348 29 13 29H26C29 29 29.92 25 28 25H4C2.11 25 3 29 6 29H9C9.26522 29 9.51957 29.1054 9.70711 29.2929C9.89464 29.4804 10 29.7348 10 30C10 30.2652 9.89464 30.5196 9.70711 30.7071C9.51957 30.8946 9.26522 31 9 31H6C5.34339 31 4.69321 30.8707 4.08658 30.6194C3.47995 30.3681 2.92876 29.9998 2.46447 29.5355C1.52678 28.5979 1 27.3261 1 26C1 25.2044 1.31607 24.4413 1.87868 23.8787C2.44129 23.3161 3.20435 23 4 23H28C28.7956 23 29.5587 23.3161 30.1213 23.8787C30.6839 24.4413 31 25.2044 31 26C31 27.3261 30.4732 28.5979 29.5355 29.5355C28.5979 30.4732 27.3261 31 26 31Z" fill="white"/>
<path d="M28 17H4C3.20435 17 2.44129 16.6839 1.87868 16.1213C1.31607 15.5587 1 14.7956 1 14C1 10.5522 2.36964 7.24558 4.80761 4.80761C7.24558 2.36964 10.5522 1 14 1H18C19.7072 1 21.3977 1.33625 22.9749 1.98957C24.5521 2.64288 25.9852 3.60045 27.1924 4.80761C28.3995 6.01477 29.3571 7.44788 30.0104 9.02512C30.6637 10.6023 31 12.2928 31 14C31 14.7956 30.6839 15.5587 30.1213 16.1213C29.5587 16.6839 28.7956 17 28 17ZM14 3C11.0826 3 8.28473 4.15893 6.22183 6.22183C4.15893 8.28473 3 11.0826 3 14C3 14.2652 3.10536 14.5196 3.29289 14.7071C3.48043 14.8946 3.73478 15 4 15H28C28.2652 15 28.5196 14.8946 28.7071 14.7071C28.8946 14.5196 29 14.2652 29 14C29 11.0826 27.8411 8.28473 25.7782 6.22183C23.7153 4.15893 20.9174 3 18 3H14Z" fill="white"/>
<path d="M7 12C6.80222 12 6.60888 11.9414 6.44443 11.8315C6.27998 11.7216 6.15181 11.5654 6.07612 11.3827C6.00043 11.2 5.98063 10.9989 6.01922 10.8049C6.0578 10.6109 6.15304 10.4327 6.29289 10.2929C6.43275 10.153 6.61093 10.0578 6.80491 10.0192C6.99889 9.98063 7.19996 10.0004 7.38268 10.0761C7.56541 10.1518 7.72159 10.28 7.83147 10.4444C7.94135 10.6089 8 10.8022 8 11C8 11.2652 7.89464 11.5196 7.70711 11.7071C7.51957 11.8946 7.26522 12 7 12Z" fill="white"/>
<path d="M13 12C12.8022 12 12.6089 11.9414 12.4444 11.8315C12.28 11.7216 12.1518 11.5654 12.0761 11.3827C12.0004 11.2 11.9806 10.9989 12.0192 10.8049C12.0578 10.6109 12.153 10.4327 12.2929 10.2929C12.4327 10.153 12.6109 10.0578 12.8049 10.0192C12.9989 9.98063 13.2 10.0004 13.3827 10.0761C13.5654 10.1518 13.7216 10.28 13.8315 10.4444C13.9414 10.6089 14 10.8022 14 11C14 11.2652 13.8946 11.5196 13.7071 11.7071C13.5196 11.8946 13.2652 12 13 12Z" fill="white"/>
<path d="M19 12C18.8022 12 18.6089 11.9414 18.4444 11.8315C18.28 11.7216 18.1518 11.5654 18.0761 11.3827C18.0004 11.2 17.9806 10.9989 18.0192 10.8049C18.0578 10.6109 18.153 10.4327 18.2929 10.2929C18.4327 10.153 18.6109 10.0578 18.8049 10.0192C18.9989 9.98063 19.2 10.0004 19.3827 10.0761C19.5654 10.1518 19.7216 10.28 19.8315 10.4444C19.9414 10.6089 20 10.8022 20 11C20 11.2652 19.8946 11.5196 19.7071 11.7071C19.5196 11.8946 19.2652 12 19 12Z" fill="white"/>
<path d="M25 12C24.8022 12 24.6089 11.9414 24.4444 11.8315C24.28 11.7216 24.1518 11.5654 24.0761 11.3827C24.0004 11.2 23.9806 10.9989 24.0192 10.8049C24.0578 10.6109 24.153 10.4327 24.2929 10.2929C24.4327 10.153 24.6109 10.0578 24.8049 10.0192C24.9989 9.98063 25.2 10.0004 25.3827 10.0761C25.5654 10.1518 25.7216 10.28 25.8315 10.4444C25.9414 10.6089 26 10.8022 26 11C26 11.2652 25.8946 11.5196 25.7071 11.7071C25.5196 11.8946 25.2652 12 25 12Z" fill="white"/>
<path d="M16 8C15.8022 8 15.6089 7.94135 15.4444 7.83147C15.28 7.72159 15.1518 7.56541 15.0761 7.38268C15.0004 7.19996 14.9806 6.99889 15.0192 6.80491C15.0578 6.61093 15.153 6.43275 15.2929 6.29289C15.4327 6.15304 15.6109 6.0578 15.8049 6.01922C15.9989 5.98063 16.2 6.00043 16.3827 6.07612C16.5654 6.15181 16.7216 6.27998 16.8315 6.44443C16.9414 6.60888 17 6.80222 17 7C17 7.26522 16.8946 7.51957 16.7071 7.70711C16.5196 7.89464 16.2652 8 16 8Z" fill="white"/>
<path d="M10 8C9.80222 8 9.60888 7.94135 9.44443 7.83147C9.27998 7.72159 9.15181 7.56541 9.07612 7.38268C9.00043 7.19996 8.98063 6.99889 9.01922 6.80491C9.0578 6.61093 9.15304 6.43275 9.29289 6.29289C9.43275 6.15304 9.61093 6.0578 9.80491 6.01922C9.99889 5.98063 10.2 6.00043 10.3827 6.07612C10.5654 6.15181 10.7216 6.27998 10.8315 6.44443C10.9414 6.60888 11 6.80222 11 7C11 7.26522 10.8946 7.51957 10.7071 7.70711C10.5196 7.89464 10.2652 8 10 8Z" fill="white"/>
<path d="M22 8C21.8022 8 21.6089 7.94135 21.4444 7.83147C21.28 7.72159 21.1518 7.56541 21.0761 7.38268C21.0004 7.19996 20.9806 6.99889 21.0192 6.80491C21.0578 6.61093 21.153 6.43275 21.2929 6.29289C21.4327 6.15304 21.6109 6.0578 21.8049 6.01922C21.9989 5.98063 22.2 6.00043 22.3827 6.07612C22.5654 6.15181 22.7216 6.27998 22.8315 6.44443C22.9414 6.60888 23 6.80222 23 7C23 7.26522 22.8946 7.51957 22.7071 7.70711C22.5196 7.89464 22.2652 8 22 8Z" fill="white"/>
</svg>
