<svg width="32" height="32" viewBox="0 0 32 32" fill="none" xmlns="http://www.w3.org/2000/svg">
<g clip-path="url(#clip0_2_358)">
<path d="M26 24H2C1.73478 24 1.48043 23.8946 1.29289 23.7071C1.10536 23.5196 1 23.2652 1 23V19C1 18.7348 1.10536 18.4804 1.29289 18.2929C1.48043 18.1054 1.73478 18 2 18H26C26.2652 18 26.5196 18.1054 26.7071 18.2929C26.8946 18.4804 27 18.7348 27 19V23C27 23.2652 26.8946 23.5196 26.7071 23.7071C26.5196 23.8946 26.2652 24 26 24ZM3 22H25V20H3V22Z" fill="white"/>
<path d="M31 26V11C31 9.67393 30.4732 8.40216 29.5355 7.46448C28.5979 6.5268 27.3261 6.00001 26 6.00001H23.46C24.4483 4.90176 24.9967 3.47748 25 2.00001V1.00001C25 0.734795 24.8946 0.480441 24.7071 0.292905C24.5196 0.105368 24.2652 1.14311e-05 24 1.14311e-05C21.23 1.14311e-05 19.9 -0.189989 18.23 0.680011C17.5706 0.237194 16.7943 0.000719188 16 0.000719188C15.2057 0.000719188 14.4294 0.237194 13.77 0.680011C12.11 -0.179989 10.94 1.14311e-05 8 1.14311e-05C7.73478 1.14311e-05 7.48043 0.105368 7.29289 0.292905C7.10536 0.480441 7 0.734795 7 1.00001V2.00001C7.00333 3.47748 7.55169 4.90176 8.54 6.00001H4C3.20435 6.00001 2.44129 6.31608 1.87868 6.87869C1.31607 7.4413 1 8.20436 1 9.00001V11C1 11.2652 1.10536 11.5196 1.29289 11.7071C1.48043 11.8947 1.73478 12 2 12H9V13C9 13.7957 9.31607 14.5587 9.87868 15.1213C10.4413 15.6839 11.2044 16 12 16C12.7956 16 13.5587 15.6839 14.1213 15.1213C14.6839 14.5587 15 13.7957 15 13V12H25V26H3V15C3 14.7348 2.89464 14.4804 2.70711 14.2929C2.51957 14.1054 2.26522 14 2 14C1.73478 14 1.48043 14.1054 1.29289 14.2929C1.10536 14.4804 1 14.7348 1 15V26C0.734784 26 0.48043 26.1054 0.292893 26.2929C0.105357 26.4804 0 26.7348 0 27C0 27.2652 0.105357 27.5196 0.292893 27.7071C0.48043 27.8947 0.734784 28 1 28H1.25L1.79 29.84C1.97175 30.4632 2.35071 31.0105 2.87 31.4C3.38929 31.7895 4.02089 32 4.67 32H8C8.26522 32 8.51957 31.8947 8.70711 31.7071C8.89464 31.5196 9 31.2652 9 31C9 30.7348 8.89464 30.4804 8.70711 30.2929C8.51957 30.1054 8.26522 30 8 30H4.67C4.44686 30.0089 4.22716 29.9428 4.04593 29.8123C3.86469 29.6818 3.73235 29.4945 3.67 29.28L3.33 28H28.67L28.29 29.28C28.2276 29.4945 28.0953 29.6818 27.9141 29.8123C27.7328 29.9428 27.5131 30.0089 27.29 30H12C11.7348 30 11.4804 30.1054 11.2929 30.2929C11.1054 30.4804 11 30.7348 11 31C11 31.2652 11.1054 31.5196 11.2929 31.7071C11.4804 31.8947 11.7348 32 12 32H27.33C27.9791 32 28.6107 31.7895 29.13 31.4C29.6493 31.0105 30.0282 30.4632 30.21 29.84L30.75 28H31C31.2652 28 31.5196 27.8947 31.7071 27.7071C31.8946 27.5196 32 27.2652 32 27C32 26.7348 31.8946 26.4804 31.7071 26.2929C31.5196 26.1054 31.2652 26 31 26ZM23 2.00001C23.0068 2.98425 22.6505 3.93646 21.9992 4.67444C21.348 5.41243 20.4475 5.88438 19.47 6.00001C19.7958 5.44546 19.9775 4.81812 19.9984 4.17529C20.0194 3.53245 19.879 2.89461 19.59 2.32001C20.45 1.94001 20.79 2.00001 23 2.00001ZM18 4.00001C18 4.39557 17.8827 4.78225 17.6629 5.11115C17.4432 5.44005 17.1308 5.6964 16.7654 5.84777C16.3999 5.99915 15.9978 6.03875 15.6098 5.96158C15.2219 5.88441 14.8655 5.69393 14.5858 5.41423C14.3061 5.13452 14.1156 4.77815 14.0384 4.39019C13.9613 4.00223 14.0009 3.6001 14.1522 3.23464C14.3036 2.86919 14.56 2.55683 14.8889 2.33707C15.2178 2.11731 15.6044 2.00001 16 2.00001C16.5304 2.00001 17.0391 2.21073 17.4142 2.5858C17.7893 2.96087 18 3.46958 18 4.00001ZM12.41 2.27001C12.1121 2.85092 11.9669 3.49803 11.9878 4.15052C12.0088 4.80301 12.1954 5.43945 12.53 6.00001C11.5525 5.88438 10.652 5.41243 10.0008 4.67444C9.3495 3.93646 8.99319 2.98425 9 2.00001C10.87 2.00001 11.49 1.92001 12.41 2.27001ZM27 26V11C27 10.7348 26.8946 10.4804 26.7071 10.2929C26.5196 10.1054 26.2652 10 26 10H14C13.7348 10 13.4804 10.1054 13.2929 10.2929C13.1054 10.4804 13 10.7348 13 11V13C13 13.2652 12.8946 13.5196 12.7071 13.7071C12.5196 13.8947 12.2652 14 12 14C11.7348 14 11.4804 13.8947 11.2929 13.7071C11.1054 13.5196 11 13.2652 11 13V11C11 10.7348 10.8946 10.4804 10.7071 10.2929C10.5196 10.1054 10.2652 10 10 10H3V9.00001C3 8.73479 3.10536 8.48044 3.29289 8.2929C3.48043 8.10537 3.73478 8.00001 4 8.00001H26C26.7956 8.00001 27.5587 8.31608 28.1213 8.87869C28.6839 9.4413 29 10.2044 29 11V26H27Z" fill="white"/>
</g>
<defs>
<clipPath id="clip0_2_358">
<rect width="32" height="32" fill="white"/>
</clipPath>
</defs>
</svg>
