<svg width="32" height="32" viewBox="0 0 32 32" fill="none" xmlns="http://www.w3.org/2000/svg">
<g clip-path="url(#clip0_1_403)">
<path d="M29 32H21C20.7481 32.0008 20.5052 31.9065 20.3198 31.7359C20.1344 31.5654 20.0202 31.3311 20 31.08L19 19.08C18.989 18.9421 19.0066 18.8034 19.0519 18.6727C19.0972 18.542 19.1691 18.4221 19.2631 18.3206C19.3571 18.2191 19.4711 18.1382 19.5979 18.083C19.7248 18.0278 19.8617 17.9996 20 18H30C30.1384 17.9996 30.2753 18.0278 30.4021 18.083C30.529 18.1382 30.643 18.2191 30.737 18.3206C30.831 18.4221 30.9029 18.542 30.9482 18.6727C30.9934 18.8034 31.0111 18.9421 31 19.08L30 31.08C29.9799 31.3311 29.8657 31.5654 29.6803 31.7359C29.4949 31.9065 29.252 32.0008 29 32ZM21.92 30H28.08L28.91 20H21.09L21.92 30Z" fill="#08221D"/>
<path d="M15.81 14.66C12.53 8.91 13 10.67 13 2C13 1.46957 12.7893 0.960859 12.4142 0.585786C12.0392 0.210714 11.5304 0 11 0L7.00001 0C6.46958 0 5.96087 0.210714 5.5858 0.585786C5.21072 0.960859 5.00001 1.46957 5.00001 2C5.00001 7.6 5.29001 9.22 4.08001 11.35C0.670011 17.31 1.00001 16.38 1.00001 23C1.00001 23.2652 1.10537 23.5196 1.2929 23.7071C1.48044 23.8946 1.73479 24 2.00001 24C2.26523 24 2.51958 23.8946 2.70712 23.7071C2.89465 23.5196 3.00001 23.2652 3.00001 23C2.90778 21.3332 2.94121 19.6618 3.10001 18H7.00001C7.26523 18 7.51958 17.8946 7.70712 17.7071C7.89465 17.5196 8.00001 17.2652 8.00001 17C8.00001 16.7348 8.10537 16.4804 8.2929 16.2929C8.48044 16.1054 8.73479 16 9.00001 16C9.26523 16 9.51958 16.1054 9.70712 16.2929C9.89465 16.4804 10 16.7348 10 17C10 17.2652 10.1054 17.5196 10.2929 17.7071C10.4804 17.8946 10.7348 18 11 18H14.9C15.04 18.87 15 18.26 15 28C15 28.5304 14.7893 29.0391 14.4142 29.4142C14.0392 29.7893 13.5304 30 13 30H5.00001C4.46958 30 3.96087 29.7893 3.5858 29.4142C3.21072 29.0391 3.00001 28.5304 3.00001 28V27C3.00001 26.7348 2.89465 26.4804 2.70712 26.2929C2.51958 26.1054 2.26523 26 2.00001 26C1.73479 26 1.48044 26.1054 1.2929 26.2929C1.10537 26.4804 1.00001 26.7348 1.00001 27V28C1.00001 29.0609 1.42144 30.0783 2.17158 30.8284C2.92173 31.5786 3.93915 32 5.00001 32H13C14.0609 32 15.0783 31.5786 15.8284 30.8284C16.5786 30.0783 17 29.0609 17 28V19.12C16.9978 17.5552 16.5877 16.0179 15.81 14.66ZM7.00001 2H11V4H7.00001V2ZM11.82 16C11.6098 15.4208 11.2264 14.9205 10.7218 14.5668C10.2173 14.2132 9.61613 14.0235 9.00001 14.0235C8.38389 14.0235 7.78271 14.2132 7.27818 14.5668C6.77364 14.9205 6.39021 15.4208 6.18001 16H3.75001C5.11001 13.29 7.00001 11.33 7.00001 7.88V6H11C11 8.15 10.85 10 12.19 12.34C12.9373 13.5249 13.6248 14.7464 14.25 16H11.82Z" fill="#08221D"/>
<path d="M9 27C8.40666 27 7.82664 26.8241 7.33329 26.4944C6.83994 26.1648 6.45543 25.6962 6.22836 25.148C6.0013 24.5999 5.94189 23.9967 6.05765 23.4147C6.1734 22.8328 6.45912 22.2982 6.87868 21.8787C7.29824 21.4591 7.83279 21.1734 8.41473 21.0576C8.99667 20.9419 9.59987 21.0013 10.1481 21.2284C10.6962 21.4554 11.1648 21.8399 11.4944 22.3333C11.8241 22.8266 12 23.4067 12 24C12 24.7956 11.6839 25.5587 11.1213 26.1213C10.5587 26.6839 9.79565 27 9 27ZM9 23C8.80222 23 8.60888 23.0586 8.44443 23.1685C8.27998 23.2784 8.15181 23.4346 8.07612 23.6173C8.00043 23.8 7.98063 24.0011 8.01922 24.1951C8.0578 24.3891 8.15304 24.5673 8.29289 24.7071C8.43275 24.847 8.61093 24.9422 8.80491 24.9808C8.99889 25.0194 9.19996 24.9996 9.38268 24.9239C9.56541 24.8482 9.72159 24.72 9.83147 24.5556C9.94135 24.3911 10 24.1978 10 24C10 23.7348 9.89464 23.4804 9.70711 23.2929C9.51957 23.1054 9.26522 23 9 23Z" fill="#22BB9B"/>
</g>
<defs>
<clipPath id="clip0_1_403">
<rect width="32" height="32" fill="white"/>
</clipPath>
</defs>
</svg>
