<svg width="32" height="32" viewBox="0 0 32 32" fill="none" xmlns="http://www.w3.org/2000/svg">
<path d="M19 32H14C13.8235 32 13.6502 31.9532 13.4976 31.8645C13.345 31.7758 13.2186 31.6483 13.1312 31.4949C13.0439 31.3415 12.9987 31.1678 13.0002 30.9913C13.0018 30.8148 13.05 30.6418 13.14 30.49L19.14 20.49C19.2285 20.3407 19.3543 20.217 19.5051 20.1311C19.6559 20.0452 19.8265 20 20 20H25C25.1765 20 25.3499 20.0468 25.5025 20.1355C25.655 20.2242 25.7814 20.3517 25.8688 20.5051C25.9561 20.6585 26.0013 20.8322 25.9998 21.0087C25.9983 21.1852 25.95 21.3582 25.86 21.51L19.86 31.51C19.7715 31.6593 19.6457 31.783 19.4949 31.8689C19.3441 31.9548 19.1736 32 19 32ZM15.77 30H18.43L23.23 22H20.57L15.77 30Z" fill="white"/>
<path d="M27.89 20.55L26 16.76V3C26 2.20435 25.684 1.44129 25.1213 0.87868C24.5587 0.31607 23.7957 0 23 0L9.00003 0C8.20438 0 7.44131 0.31607 6.87871 0.87868C6.3161 1.44129 6.00003 2.20435 6.00003 3V16.76L4.11003 20.55C4.03332 20.7022 3.99679 20.8715 4.00393 21.0419C4.01106 21.2122 4.06162 21.3778 4.15079 21.5231C4.23996 21.6684 4.36479 21.7885 4.51343 21.8719C4.66206 21.9554 4.82956 21.9995 5.00003 22H24V29C24 29.2652 23.8947 29.5196 23.7071 29.7071C23.5196 29.8946 23.2652 30 23 30H9.00003C8.73481 30 8.48046 29.8946 8.29292 29.7071C8.10538 29.5196 8.00003 29.2652 8.00003 29V25C8.00003 24.7348 7.89467 24.4804 7.70713 24.2929C7.5196 24.1054 7.26524 24 7.00003 24C6.73481 24 6.48046 24.1054 6.29292 24.2929C6.10538 24.4804 6.00003 24.7348 6.00003 25V29C6.00003 29.7956 6.3161 30.5587 6.87871 31.1213C7.44131 31.6839 8.20438 32 9.00003 32H23C23.7957 32 24.5587 31.6839 25.1213 31.1213C25.684 30.5587 26 29.7956 26 29V22H27C27.1705 21.9995 27.338 21.9554 27.4866 21.8719C27.6353 21.7885 27.7601 21.6684 27.8493 21.5231C27.9384 21.3778 27.989 21.2122 27.9961 21.0419C28.0033 20.8715 27.9667 20.7022 27.89 20.55ZM8.00003 16V10H15V16H8.00003ZM17 10H24V16H17V10ZM24 3V8H17V2H23C23.2652 2 23.5196 2.10536 23.7071 2.29289C23.8947 2.48043 24 2.73478 24 3ZM9.00003 2H15V8H8.00003V3C8.00003 2.73478 8.10538 2.48043 8.29292 2.29289C8.48046 2.10536 8.73481 2 9.00003 2ZM6.62003 20L7.62003 18H24.38L25.38 20H6.62003Z" fill="white"/>
</svg>
