<svg width="32" height="32" viewBox="0 0 32 32" fill="none" xmlns="http://www.w3.org/2000/svg">
<g clip-path="url(#clip0_2_356)">
<path d="M19 16C18.8469 16.0041 18.6949 15.973 18.5557 15.9091C18.4165 15.8451 18.2938 15.75 18.1972 15.6312C18.1006 15.5123 18.0325 15.3729 17.9983 15.2236C17.9641 15.0742 17.9647 14.9191 18 14.77L20.67 3.33C20.8215 2.66866 21.1928 2.07822 21.7231 1.65504C22.2534 1.23187 22.9115 1.00096 23.59 1H29C29.2652 1 29.5196 1.10536 29.7071 1.29289C29.8946 1.48043 30 1.73478 30 2C30 2.26522 29.8946 2.51957 29.7071 2.70711C29.5196 2.89464 29.2652 3 29 3H23.59C23.3602 2.99386 23.1353 3.06707 22.9532 3.20731C22.771 3.34756 22.6428 3.54627 22.59 3.77L20 15.23C19.9472 15.4537 19.819 15.6524 19.6368 15.7927C19.4547 15.9329 19.2298 16.0061 19 16Z" fill="white"/>
<path d="M18 28C17.7348 28 17.4804 27.8946 17.2929 27.7071C17.1054 27.5196 17 27.2652 17 27V21C17 20.7348 17.1054 20.4804 17.2929 20.2929C17.4804 20.1054 17.7348 20 18 20C18.2652 20 18.5196 20.1054 18.7071 20.2929C18.8946 20.4804 19 20.7348 19 21V27C19 27.2652 18.8946 27.5196 18.7071 27.7071C18.5196 27.8946 18.2652 28 18 28Z" fill="white"/>
<path d="M28 6H15.92C15.7138 4.56578 15.0677 3.23089 14.0707 2.17947C13.0737 1.12806 11.775 0.411939 10.3537 0.129914C8.93245 -0.152112 7.45871 0.0138544 6.13578 0.604915C4.81286 1.19598 3.70595 2.183 2.96776 3.42983C2.22957 4.67665 1.89649 6.12182 2.01447 7.56597C2.13244 9.01012 2.69565 10.3821 3.62641 11.4926C4.55717 12.6031 5.80959 13.3973 7.21091 13.7659C8.61222 14.1344 10.0934 14.059 11.45 13.55L17.19 21.55C17.2827 21.6781 17.4045 21.7823 17.5453 21.8542C17.6861 21.9261 17.8419 21.9636 18 21.9636C18.1581 21.9636 18.3139 21.9261 18.4547 21.8542C18.5955 21.7823 18.7173 21.6781 18.81 21.55L20.24 19.55C20.3675 19.3347 20.4097 19.0794 20.3582 18.8346C20.3067 18.5897 20.1652 18.373 19.9618 18.2274C19.7583 18.0817 19.5077 18.0176 19.2592 18.0477C19.0108 18.0778 18.7827 18.1999 18.62 18.39L18 19.25L12.8 12C14.35 12 15.5 11.87 16.95 12.83C18.3812 13.7466 20.0778 14.1584 21.77 14L21.19 14.82C21.1125 14.9264 21.0568 15.047 21.0259 15.1749C20.995 15.3028 20.9896 15.4356 21.01 15.5656C21.0305 15.6956 21.0763 15.8203 21.1449 15.9326C21.2136 16.0448 21.3036 16.1425 21.41 16.22C21.6248 16.3765 21.893 16.4412 22.1556 16.4C22.4181 16.3587 22.6535 16.2148 22.81 16L28.81 7.6C28.922 7.45075 28.9899 7.27316 29.0062 7.0873C29.0225 6.90145 28.9865 6.71474 28.9022 6.54828C28.818 6.38183 28.6888 6.24226 28.5294 6.14537C28.3699 6.04848 28.1866 5.99813 28 6ZM4 7C3.99875 5.76005 4.45828 4.56387 5.28937 3.64367C6.12047 2.72347 7.26383 2.1449 8.4975 2.02029C9.73118 1.89568 10.9671 2.2339 11.9655 2.96931C12.9638 3.70472 13.6533 4.78485 13.9 6H8C7.81678 6.00084 7.63732 6.05201 7.4812 6.14791C7.32509 6.2438 7.19832 6.38075 7.11473 6.54379C7.03115 6.70683 6.99396 6.8897 7.00724 7.07244C7.02051 7.25517 7.08373 7.43075 7.19 7.58L10.19 11.84C9.45525 12.02 8.68922 12.031 7.94961 11.8721C7.21 11.7132 6.51609 11.3885 5.92015 10.9225C5.3242 10.4566 4.84176 9.86145 4.50916 9.182C4.17656 8.50255 4.00247 7.75649 4 7ZM23.2 12C20.84 12 19.59 12.19 18.05 11.17C15.94 9.76 14.16 10 11.37 10L9.94 8H26.06L23.2 12Z" fill="white"/>
<path d="M18.62 26.22C18.4435 26.0805 18.225 26.0046 18 26.0046C17.775 26.0046 17.5565 26.0805 17.38 26.22L12.38 30.22C12.2188 30.3493 12.1017 30.5253 12.0446 30.7239C11.9876 30.9225 11.9934 31.1338 12.0614 31.329C12.1294 31.5241 12.2561 31.6933 12.4242 31.8135C12.5922 31.9337 12.7934 31.9988 13 32H23C23.2066 31.9988 23.4078 31.9337 23.5758 31.8135C23.7439 31.6933 23.8706 31.5241 23.9386 31.329C24.0066 31.1338 24.0124 30.9225 23.9554 30.7239C23.8983 30.5253 23.7812 30.3493 23.62 30.22L18.62 26.22ZM15.85 30L18 28.28L20.15 30H15.85Z" fill="white"/>
</g>
<defs>
<clipPath id="clip0_2_356">
<rect width="32" height="32" fill="white"/>
</clipPath>
</defs>
</svg>
