<svg width="32" height="32" viewBox="0 0 32 32" fill="none" xmlns="http://www.w3.org/2000/svg">
<g clip-path="url(#clip0_2_353)">
<path d="M27 6V5C27 4.20435 26.6839 3.44129 26.1213 2.87868C25.5587 2.31607 24.7956 2 24 2H9.99999V1C9.99999 0.734784 9.89464 0.48043 9.7071 0.292893C9.51956 0.105357 9.26521 0 8.99999 0C8.73478 0 8.48042 0.105357 8.29289 0.292893C8.10535 0.48043 7.99999 0.734784 7.99999 1V2C7.20434 2 6.44128 2.31607 5.87867 2.87868C5.31606 3.44129 4.99999 4.20435 4.99999 5V6C4.73478 6 4.48042 6.10536 4.29289 6.29289C4.10535 6.48043 3.99999 6.73478 3.99999 7V11C3.99943 11.1393 4.02795 11.2771 4.08374 11.4047C4.13952 11.5323 4.22134 11.6468 4.32395 11.7409C4.42657 11.8351 4.54771 11.9067 4.67962 11.9514C4.81153 11.996 4.95131 12.0125 5.08999 12C5.35999 14.63 5.35999 14.22 5.25999 14.32C5.16647 14.4218 5.09508 14.5419 5.05033 14.6727C5.00558 14.8036 4.98844 14.9422 4.99999 15.08L5.99999 27.08C6.01805 27.2752 6.09308 27.4608 6.21576 27.6137C6.33844 27.7666 6.50335 27.8801 6.68999 27.94L6.81999 29.3C6.89461 30.0426 7.24334 30.7307 7.79806 31.2299C8.35279 31.7292 9.07369 32.0037 9.81999 32H22.19C22.9363 32.0037 23.6572 31.7292 24.2119 31.2299C24.7666 30.7307 25.1154 30.0426 25.19 29.3L25.32 27.94C25.5066 27.8801 25.6716 27.7666 25.7942 27.6137C25.9169 27.4608 25.9919 27.2752 26.01 27.08L26.42 22.08C26.4412 21.8148 26.3562 21.552 26.1837 21.3495C26.0111 21.1469 25.7652 21.0212 25.5 21C25.2348 20.9788 24.972 21.0638 24.7695 21.2363C24.5669 21.4089 24.4412 21.6548 24.42 21.92L24.08 26H7.91999L7.08999 16H24.91L24.75 17.92C24.7288 18.1852 24.8138 18.448 24.9863 18.6505C25.1588 18.8531 25.4048 18.9788 25.67 19C25.9352 19.0212 26.198 18.9362 26.4005 18.7637C26.6031 18.5911 26.7288 18.3452 26.75 18.08L27 15.08C27.0115 14.9422 26.9944 14.8036 26.9497 14.6727C26.9049 14.5419 26.8335 14.4218 26.74 14.32C26.64 14.22 26.64 14.64 26.91 12H27C27.2652 12 27.5196 11.8946 27.7071 11.7071C27.8946 11.5196 28 11.2652 28 11V7C28 6.73478 27.8946 6.48043 27.7071 6.29289C27.5196 6.10536 27.2652 6 27 6ZM5.99999 8H26V10H5.99999V8ZM6.99999 5C6.99999 4.73478 7.10535 4.48043 7.29289 4.29289C7.48042 4.10536 7.73478 4 7.99999 4H24C24.2652 4 24.5196 4.10536 24.7071 4.29289C24.8946 4.48043 25 4.73478 25 5V6H6.99999V5ZM22.19 30H9.80999C9.56123 30.0012 9.32093 29.9097 9.13602 29.7433C8.95111 29.5769 8.83487 29.3475 8.80999 29.1L8.70999 28H23.29L23.19 29.1C23.1651 29.3475 23.0489 29.5769 22.864 29.7433C22.6791 29.9097 22.4388 30.0012 22.19 30ZM24.7 14H7.29999L7.09999 12H24.9L24.7 14Z" fill="white"/>
<path d="M15 24.35C14.5435 24.389 14.085 24.3047 13.6722 24.1061C13.2593 23.9074 12.9074 23.6016 12.653 23.2206C12.3987 22.8396 12.2512 22.3973 12.2261 21.9399C12.2009 21.4824 12.299 21.0266 12.51 20.62C13.65 17.87 17.81 16.53 19.31 18.78C20.81 21.03 18 24.35 15 24.35ZM14.35 21.35C13.64 23.08 16.87 22.35 17.61 20.59C18.35 18.83 15.11 19.61 14.37 21.38L14.35 21.35Z" fill="white"/>
</g>
<defs>
<clipPath id="clip0_2_353">
<rect width="32" height="32" fill="white"/>
</clipPath>
</defs>
</svg>
