<svg width="32" height="32" viewBox="0 0 32 32" fill="none" xmlns="http://www.w3.org/2000/svg">
<g clip-path="url(#clip0_1_391)">
<path d="M14 21C13.2044 21 12.4413 20.6839 11.8787 20.1213C11.3161 19.5587 11 18.7956 11 18C11 16.41 12.2 14 14 14C15.8 14 17 16.41 17 18C17 18.7956 16.6839 19.5587 16.1213 20.1213C15.5587 20.6839 14.7956 21 14 21ZM14 16C13.68 16 13 17.18 13 18C13 18.2652 13.1054 18.5196 13.2929 18.7071C13.4804 18.8946 13.7348 19 14 19C14.2652 19 14.5196 18.8946 14.7071 18.7071C14.8946 18.5196 15 18.2652 15 18C15 17.18 14.32 16 14 16Z" fill="#22BB9B"/>
<path d="M23 25H5.05C4.78478 25 4.53042 24.8946 4.34289 24.7071C4.15535 24.5196 4.05 24.2652 4.05 24C4.05 23.7348 4.15535 23.4804 4.34289 23.2929C4.53042 23.1054 4.78478 23 5.05 23H23C23.2652 23 23.5196 23.1054 23.7071 23.2929C23.8946 23.4804 24 23.7348 24 24C24 24.2652 23.8946 24.5196 23.7071 24.7071C23.5196 24.8946 23.2652 25 23 25Z" fill="#22BB9B"/>
<path d="M23 7H21.85L22 6.16C22.0234 6.01593 22.0149 5.86849 21.9752 5.72804C21.9355 5.58759 21.8656 5.45752 21.7703 5.34698C21.675 5.23643 21.5567 5.14809 21.4236 5.08815C21.2905 5.0282 21.1459 4.99812 21 5H20.08L22.78 1.62C22.8962 1.47291 22.9688 1.29612 22.9894 1.10978C23.0099 0.92345 22.9777 0.735082 22.8964 0.566174C22.8151 0.397265 22.6879 0.254619 22.5294 0.15451C22.3709 0.0544006 22.1875 0.000861127 22 0L6 0C5.81253 0.000861127 5.62908 0.0544006 5.47058 0.15451C5.31208 0.254619 5.18492 0.397265 5.10359 0.566174C5.02226 0.735082 4.99005 0.92345 5.01064 1.10978C5.03122 1.29612 5.10376 1.47291 5.22 1.62L7.92 5H5C4.82953 5.00052 4.66203 5.0446 4.5134 5.12806C4.36476 5.21153 4.23993 5.3316 4.15076 5.47688C4.06159 5.62216 4.01103 5.78783 4.0039 5.95814C3.99676 6.12846 4.03329 6.29777 4.11 6.45L5.78 9.8C6.52771 11.2951 6.71571 13.0084 6.31 14.63L4.22 23C3.95291 24.0657 3.93187 25.1782 4.15847 26.2533C4.38508 27.3283 4.85338 28.3377 5.5279 29.205C6.20242 30.0722 7.06547 30.7746 8.05166 31.2588C9.03786 31.7431 10.1213 31.9965 11.22 32H16.76C17.7103 32.0013 18.6515 31.8153 19.5299 31.4525C20.4082 31.0898 21.2064 30.5574 21.8788 29.8859C22.5513 29.2144 23.0847 28.4169 23.4487 27.5391C23.8127 26.6613 24 25.7203 24 24.77C24 23.5 23.72 22.77 23 19.77C22.9728 19.6382 22.9192 19.5133 22.8425 19.4027C22.7658 19.2921 22.6676 19.1981 22.5538 19.1263C22.4399 19.0546 22.3127 19.0066 22.1798 18.9851C22.047 18.9637 21.9112 18.9694 21.7805 19.0017C21.6499 19.034 21.5271 19.0924 21.4195 19.1733C21.312 19.2542 21.2219 19.3559 21.1546 19.4725C21.0873 19.5891 21.0443 19.718 21.028 19.8516C21.0118 19.9852 21.0226 20.1207 21.06 20.25C21.92 23.69 22.06 23.93 22.06 24.78C22.0574 25.4707 21.9183 26.154 21.6506 26.7907C21.383 27.4274 20.9921 28.005 20.5005 28.4901C20.0089 28.9752 19.4262 29.3583 18.786 29.6175C18.1458 29.8766 17.4606 30.0066 16.77 30H11.23C10.4354 29.9995 9.6513 29.8179 8.93734 29.469C8.22339 29.1202 7.59831 28.6132 7.10959 27.9866C6.62087 27.36 6.28134 26.6304 6.1168 25.8529C5.95226 25.0755 5.96704 24.2708 6.16 23.5L8.25 15.11C9.15 11.51 7.7 9.17 6.62 7H9.52L13.22 11.62C13.3137 11.7368 13.4324 11.8311 13.5674 11.8958C13.7024 11.9606 13.8503 11.9942 14 11.9942C14.1497 11.9942 14.2976 11.9606 14.4326 11.8958C14.5676 11.8311 14.6863 11.7368 14.78 11.62L18.48 7H19.82C18.94 12.28 18.82 11.58 20.03 16.24C20.0936 16.5012 20.2585 16.7265 20.4882 16.8662C20.7179 17.0059 20.9938 17.0487 21.255 16.985C21.5162 16.9213 21.7415 16.7565 21.8812 16.5268C22.0209 16.2971 22.0636 16.0212 22 15.76C21 12 21 12.31 21.51 9H23C23.7956 9 24.5587 9.31607 25.1213 9.87868C25.6839 10.4413 26 11.2044 26 12V20C26 20.2652 26.1054 20.5196 26.2929 20.7071C26.4804 20.8946 26.7348 21 27 21C27.2652 21 27.5196 20.8946 27.7071 20.7071C27.8946 20.5196 28 20.2652 28 20V12C28 10.6739 27.4732 9.40215 26.5355 8.46447C25.5978 7.52678 24.3261 7 23 7ZM8.08 2H19.92L17.52 5H10.52L8.08 2ZM14 9.4L12.08 7H15.92L14 9.4Z" fill="#08221D"/>
</g>
<defs>
<clipPath id="clip0_1_391">
<rect width="32" height="32" fill="white"/>
</clipPath>
</defs>
</svg>
