<svg width="32" height="32" viewBox="0 0 32 32" fill="none" xmlns="http://www.w3.org/2000/svg">
<g clip-path="url(#clip0_1_412)">
<path d="M10.24 30.93C9.99334 30.8292 9.79683 30.6346 9.69369 30.3889C9.59054 30.1432 9.58921 29.8667 9.69 29.62C9.79078 29.3733 9.98541 29.1768 10.2311 29.0737C10.4768 28.9705 10.7533 28.9692 11 29.07C13.1195 29.8804 15.4043 30.1635 17.6575 29.8948C19.9108 29.6262 22.0649 28.8138 23.9345 27.5278C25.8041 26.2417 27.333 24.5205 28.3896 22.5123C29.4463 20.5041 29.9989 18.2692 30 16C30 15.7348 30.1054 15.4804 30.2929 15.2929C30.4804 15.1054 30.7348 15 31 15C31.2652 15 31.5196 15.1054 31.7071 15.2929C31.8946 15.4804 32 15.7348 32 16C32.0004 18.5984 31.3681 21.1578 30.1575 23.457C28.947 25.7561 27.1947 27.7259 25.0521 29.1959C22.9095 30.666 20.4412 31.5921 17.8604 31.8942C15.2797 32.1964 12.6642 31.8654 10.24 30.93Z" fill="#08221D"/>
<path d="M7 29C6.78363 29 6.5731 28.9298 6.4 28.8C4.40474 27.3173 2.78595 25.3863 1.67423 23.1629C0.562519 20.9395 -0.0109815 18.4858 2.25856e-06 16C2.25856e-06 15.7348 0.105359 15.4804 0.292895 15.2929C0.480432 15.1054 0.734786 15 1 15C1.26522 15 1.51957 15.1054 1.70711 15.2929C1.89465 15.4804 2 15.7348 2 16C1.99138 18.1749 2.49363 20.3215 3.4663 22.2669C4.43897 24.2122 5.85488 25.9019 7.6 27.2C7.76791 27.3259 7.89194 27.5015 7.95452 27.7018C8.0171 27.9022 8.01506 28.1171 7.94869 28.3162C7.88232 28.5153 7.75498 28.6885 7.58471 28.8112C7.41445 28.934 7.20988 29 7 29Z" fill="#08221D"/>
<path d="M16 7C15.8022 7 15.6089 6.94135 15.4444 6.83147C15.28 6.72159 15.1518 6.56541 15.0761 6.38268C15.0004 6.19996 14.9806 5.99889 15.0192 5.80491C15.0578 5.61093 15.153 5.43275 15.2929 5.29289C15.4327 5.15304 15.6109 5.0578 15.8049 5.01922C15.9989 4.98063 16.2 5.00043 16.3827 5.07612C16.5654 5.15181 16.7216 5.27998 16.8315 5.44443C16.9414 5.60888 17 5.80222 17 6C17 6.26522 16.8946 6.51957 16.7071 6.70711C16.5196 6.89464 16.2652 7 16 7Z" fill="#22BB9B"/>
<path d="M25 14C24.8022 14 24.6089 13.9414 24.4444 13.8315C24.28 13.7216 24.1518 13.5654 24.0761 13.3827C24.0004 13.2 23.9806 12.9989 24.0192 12.8049C24.0578 12.6109 24.153 12.4327 24.2929 12.2929C24.4327 12.153 24.6109 12.0578 24.8049 12.0192C24.9989 11.9806 25.2 12.0004 25.3827 12.0761C25.5654 12.1518 25.7216 12.28 25.8315 12.4444C25.9414 12.6089 26 12.8022 26 13C26 13.2652 25.8946 13.5196 25.7071 13.7071C25.5196 13.8946 25.2652 14 25 14Z" fill="#22BB9B"/>
<path d="M22 10C21.8022 10 21.6089 9.94135 21.4444 9.83147C21.28 9.72159 21.1518 9.56541 21.0761 9.38268C21.0004 9.19996 20.9806 8.99889 21.0192 8.80491C21.0578 8.61093 21.153 8.43275 21.2929 8.29289C21.4327 8.15304 21.6109 8.0578 21.8049 8.01922C21.9989 7.98063 22.2 8.00043 22.3827 8.07612C22.5654 8.15181 22.7216 8.27998 22.8315 8.44443C22.9414 8.60888 23 8.80222 23 9C23 9.26522 22.8946 9.51957 22.7071 9.70711C22.5196 9.89464 22.2652 10 22 10Z" fill="#22BB9B"/>
<path d="M6 14C5.80222 14 5.60888 13.9414 5.44443 13.8315C5.27998 13.7216 5.15181 13.5654 5.07612 13.3827C5.00043 13.2 4.98063 12.9989 5.01922 12.8049C5.0578 12.6109 5.15304 12.4327 5.29289 12.2929C5.43275 12.153 5.61093 12.0578 5.80491 12.0192C5.99889 11.9806 6.19996 12.0004 6.38268 12.0761C6.56541 12.1518 6.72159 12.28 6.83147 12.4444C6.94135 12.6089 7 12.8022 7 13C7 13.2652 6.89464 13.5196 6.70711 13.7071C6.51957 13.8946 6.26522 14 6 14Z" fill="#22BB9B"/>
<path d="M10 10C9.80222 10 9.60888 9.94135 9.44443 9.83147C9.27998 9.72159 9.15181 9.56541 9.07612 9.38268C9.00043 9.19996 8.98063 8.99889 9.01922 8.80491C9.0578 8.61093 9.15304 8.43275 9.29289 8.29289C9.43275 8.15304 9.61093 8.0578 9.80491 8.01922C9.99889 7.98063 10.2 8.00043 10.3827 8.07612C10.5654 8.15181 10.7216 8.27998 10.8315 8.44443C10.9414 8.60888 11 8.80222 11 9C11 9.26522 10.8946 9.51957 10.7071 9.70711C10.5196 9.89464 10.2652 10 10 10Z" fill="#22BB9B"/>
<path d="M16 21C14.6739 21 13.4021 20.4732 12.4645 19.5355C11.5268 18.5979 11 17.3261 11 16C11 15.7348 11.1054 15.4804 11.2929 15.2929C11.4804 15.1054 11.7348 15 12 15C12.2652 15 12.5196 15.1054 12.7071 15.2929C12.8946 15.4804 13 15.7348 13 16C13 16.7956 13.3161 17.5587 13.8787 18.1213C14.4413 18.6839 15.2044 19 16 19C16.7956 19 17.5587 18.6839 18.1213 18.1213C18.6839 17.5587 19 16.7956 19 16C19 15.7348 19.1054 15.4804 19.2929 15.2929C19.4804 15.1054 19.7348 15 20 15C20.2652 15 20.5196 15.1054 20.7071 15.2929C20.8946 15.4804 21 15.7348 21 16C21 17.3261 20.4732 18.5979 19.5355 19.5355C18.5979 20.4732 17.3261 21 16 21Z" fill="#08221D"/>
<path d="M25 22C24.2044 22 23.4413 21.6839 22.8787 21.1213C22.3161 20.5587 22 19.7956 22 19V18C22 17.7348 21.8946 17.4804 21.7071 17.2929C21.5196 17.1054 21.2652 17 21 17H20C19.7348 17 19.4804 16.8946 19.2929 16.7071C19.1054 16.5196 19 16.2652 19 16C19 15.7348 19.1054 15.4804 19.2929 15.2929C19.4804 15.1054 19.7348 15 20 15H21C21.7956 15 22.5587 15.3161 23.1213 15.8787C23.6839 16.4413 24 17.2044 24 18V19C24 19.2652 24.1054 19.5196 24.2929 19.7071C24.4804 19.8946 24.7348 20 25 20C25.2652 20 25.5196 19.8946 25.7071 19.7071C25.8946 19.5196 26 19.2652 26 19V18C26 17.2044 26.3161 16.4413 26.8787 15.8787C27.4413 15.3161 28.2044 15 29 15H31C31.2652 15 31.5196 15.1054 31.7071 15.2929C31.8946 15.4804 32 15.7348 32 16C32 16.2652 31.8946 16.5196 31.7071 16.7071C31.5196 16.8946 31.2652 17 31 17H29C28.7348 17 28.4804 17.1054 28.2929 17.2929C28.1054 17.4804 28 17.7348 28 18V19C28 19.7956 27.6839 20.5587 27.1213 21.1213C26.5587 21.6839 25.7956 22 25 22Z" fill="#22BB9B"/>
<path d="M7 22C6.20435 22 5.44129 21.6839 4.87868 21.1213C4.31607 20.5587 4 19.7956 4 19V18C4 17.7348 3.89464 17.4804 3.70711 17.2929C3.51957 17.1054 3.26522 17 3 17H1C0.734784 17 0.48043 16.8946 0.292893 16.7071C0.105357 16.5196 0 16.2652 0 16C0 15.7348 0.105357 15.4804 0.292893 15.2929C0.48043 15.1054 0.734784 15 1 15H3C3.79565 15 4.55871 15.3161 5.12132 15.8787C5.68393 16.4413 6 17.2044 6 18V19C6 19.2652 6.10536 19.5196 6.29289 19.7071C6.48043 19.8946 6.73478 20 7 20C7.26522 20 7.51957 19.8946 7.70711 19.7071C7.89464 19.5196 8 19.2652 8 19V18C8 17.2044 8.31607 16.4413 8.87868 15.8787C9.44129 15.3161 10.2044 15 11 15H12C12.2652 15 12.5196 15.1054 12.7071 15.2929C12.8946 15.4804 13 15.7348 13 16C13 16.2652 12.8946 16.5196 12.7071 16.7071C12.5196 16.8946 12.2652 17 12 17H11C10.7348 17 10.4804 17.1054 10.2929 17.2929C10.1054 17.4804 10 17.7348 10 18V19C10 19.7956 9.68393 20.5587 9.12132 21.1213C8.55871 21.6839 7.79565 22 7 22Z" fill="#22BB9B"/>
<path d="M31 17C30.7348 17 30.4804 16.8946 30.2929 16.7071C30.1054 16.5196 30 16.2652 30 16C30 12.287 28.525 8.72601 25.8995 6.1005C23.274 3.475 19.713 2 16 2C12.287 2 8.72601 3.475 6.1005 6.1005C3.475 8.72601 2 12.287 2 16C2 16.2652 1.89464 16.5196 1.70711 16.7071C1.51957 16.8946 1.26522 17 1 17C0.734784 17 0.48043 16.8946 0.292893 16.7071C0.105357 16.5196 0 16.2652 0 16C0 11.7565 1.68571 7.68687 4.68629 4.68629C7.68687 1.68571 11.7565 0 16 0C20.2435 0 24.3131 1.68571 27.3137 4.68629C30.3143 7.68687 32 11.7565 32 16C32 16.2652 31.8946 16.5196 31.7071 16.7071C31.5196 16.8946 31.2652 17 31 17Z" fill="#22BB9B"/>
<path d="M20 17C19.7348 17 19.4804 16.8946 19.2929 16.7071C19.1054 16.5196 19 16.2652 19 16C19 15.2044 18.6839 14.4413 18.1213 13.8787C17.5587 13.3161 16.7956 13 16 13C15.2044 13 14.4413 13.3161 13.8787 13.8787C13.3161 14.4413 13 15.2044 13 16C13 16.2652 12.8946 16.5196 12.7071 16.7071C12.5196 16.8946 12.2652 17 12 17C11.7348 17 11.4804 16.8946 11.2929 16.7071C11.1054 16.5196 11 16.2652 11 16C11 14.6739 11.5268 13.4021 12.4645 12.4645C13.4021 11.5268 14.6739 11 16 11C17.3261 11 18.5979 11.5268 19.5355 12.4645C20.4732 13.4021 21 14.6739 21 16C21 16.2652 20.8946 16.5196 20.7071 16.7071C20.5196 16.8946 20.2652 17 20 17Z" fill="#22BB9B"/>
</g>
<defs>
<clipPath id="clip0_1_412">
<rect width="32" height="32" fill="white"/>
</clipPath>
</defs>
</svg>
