<svg width="32" height="32" viewBox="0 0 32 32" fill="none" xmlns="http://www.w3.org/2000/svg">
<g clip-path="url(#clip0_2_352)">
<path d="M16 14C15.7348 14 15.4804 13.8946 15.2929 13.7071C15.1054 13.5196 15 13.2652 15 13V3C15 2.20435 15.3161 1.44129 15.8787 0.87868C16.4413 0.31607 17.2044 0 18 0L22 0C22.2652 0 22.5196 0.105357 22.7071 0.292893C22.8946 0.48043 23 0.734784 23 1C23 1.26522 22.8946 1.51957 22.7071 1.70711C22.5196 1.89464 22.2652 2 22 2H18C17.7348 2 17.4804 2.10536 17.2929 2.29289C17.1054 2.48043 17 2.73478 17 3V13C17 13.2652 16.8946 13.5196 16.7071 13.7071C16.5196 13.8946 16.2652 14 16 14Z" fill="white"/>
<path d="M16 27C15.7348 27 15.4804 26.8946 15.2929 26.7071C15.1054 26.5196 15 26.2652 15 26V17C15 16.7348 15.1054 16.4804 15.2929 16.2929C15.4804 16.1054 15.7348 16 16 16C16.2652 16 16.5196 16.1054 16.7071 16.2929C16.8946 16.4804 17 16.7348 17 17V26C17 26.2652 16.8946 26.5196 16.7071 26.7071C16.5196 26.8946 16.2652 27 16 27Z" fill="white"/>
<path d="M26 12H24.94C24.6855 9.80743 23.6342 7.78481 21.9859 6.31674C20.3376 4.84866 18.2073 4.03751 16 4.03751C13.7927 4.03751 11.6624 4.84866 10.0141 6.31674C8.36578 7.78481 7.31445 9.80743 7.06 12H6C5.73478 12 5.48043 12.1054 5.29289 12.2929C5.10536 12.4804 5 12.7348 5 13C5 13.2652 5.10536 13.5196 5.29289 13.7071C5.48043 13.8947 5.73478 14 6 14V17C6 17.2652 6.10536 17.5196 6.29289 17.7071C6.48043 17.8947 6.73478 18 7 18H7.13L7.87 23.14C7.88721 23.2709 7.93017 23.3971 7.99639 23.5113C8.06261 23.6255 8.1508 23.7255 8.25585 23.8054C8.3609 23.8854 8.48074 23.9437 8.60847 23.9771C8.73619 24.0105 8.86926 24.0183 9 24C9.26255 23.9628 9.49958 23.8229 9.65898 23.611C9.81838 23.3991 9.88709 23.1326 9.85 22.87L9.72 22H11.72C15.3 22 16.07 24 20.2 24H22L21.27 29.14C21.236 29.3803 21.1159 29.6 20.9319 29.7582C20.7479 29.9165 20.5127 30.0024 20.27 30H11.73C11.4873 30.0024 11.2521 29.9165 11.0681 29.7582C10.8841 29.6 10.764 29.3803 10.73 29.14L10.41 26.86C10.3916 26.7287 10.3475 26.6023 10.2803 26.488C10.2131 26.3737 10.124 26.2738 10.0181 26.1939C9.91225 26.114 9.7917 26.0558 9.66334 26.0226C9.53498 25.9893 9.40132 25.9816 9.27 26C9.13868 26.0184 9.01226 26.0625 8.89797 26.1297C8.78368 26.1969 8.68376 26.286 8.6039 26.3919C8.52404 26.4978 8.46581 26.6183 8.43254 26.7467C8.39928 26.875 8.39161 27.0087 8.41 27.14L8.74 29.42C8.84188 30.1408 9.2024 30.8 9.75436 31.2747C10.3063 31.7494 11.012 32.0072 11.74 32H20.28C21.008 32.0072 21.7137 31.7494 22.2656 31.2747C22.8176 30.8 23.1781 30.1408 23.28 29.42C25.05 16.73 24.81 18 25 18C25.2652 18 25.5196 17.8947 25.7071 17.7071C25.8946 17.5196 26 17.2652 26 17V14C26.2652 14 26.5196 13.8947 26.7071 13.7071C26.8946 13.5196 27 13.2652 27 13C27 12.7348 26.8946 12.4804 26.7071 12.2929C26.5196 12.1054 26.2652 12 26 12ZM16 6.00001C17.6836 5.99958 19.3109 6.60593 20.5837 7.70792C21.8565 8.80991 22.6895 10.3337 22.93 12H9.07C9.31051 10.3337 10.1435 8.80991 11.4163 7.70792C12.6891 6.60593 14.3164 5.99958 16 6.00001ZM22.28 22C20.02 22 18.51 22.14 16.45 21.11C13.91 19.83 12 20 9.44 20L9.15 18H22.85L22.28 22ZM24 16H8V14H24V16Z" fill="white"/>
</g>
<defs>
<clipPath id="clip0_2_352">
<rect width="32" height="32" fill="white"/>
</clipPath>
</defs>
</svg>
