<svg width="32" height="32" viewBox="0 0 32 32" fill="none" xmlns="http://www.w3.org/2000/svg">
<g clip-path="url(#clip0_1_382)">
<path d="M30 20H2C1.73478 20 1.48043 19.8946 1.29289 19.7071C1.10536 19.5196 1 19.2652 1 19V5C1 4.20435 1.31607 3.44129 1.87868 2.87868C2.44129 2.31607 3.20435 2 4 2H7C7.26522 2 7.51957 2.10536 7.70711 2.29289C7.89464 2.48043 8 2.73478 8 3C8 3.26522 7.89464 3.51957 7.70711 3.70711C7.51957 3.89464 7.26522 4 7 4H4C3.73478 4 3.48043 4.10536 3.29289 4.29289C3.10536 4.48043 3 4.73478 3 5V18H29V5C29 4.73478 28.8946 4.48043 28.7071 4.29289C28.5196 4.10536 28.2652 4 28 4H11C10.7348 4 10.4804 3.89464 10.2929 3.70711C10.1054 3.51957 10 3.26522 10 3C10 2.73478 10.1054 2.48043 10.2929 2.29289C10.4804 2.10536 10.7348 2 11 2H28C28.7956 2 29.5587 2.31607 30.1213 2.87868C30.6839 3.44129 31 4.20435 31 5V19C31 19.2652 30.8946 19.5196 30.7071 19.7071C30.5196 19.8946 30.2652 20 30 20Z" fill="#08221D"/>
<path d="M13.92 20C13.6758 20.0021 13.4394 19.9147 13.2552 19.7545C13.0709 19.5942 12.9517 19.3721 12.92 19.13C12.5 15.9 10.21 12 8 12C5.79 12 3.5 15.9 3.07 19.13C3.05293 19.2613 3.01016 19.388 2.94413 19.5028C2.8781 19.6176 2.79011 19.7182 2.68518 19.799C2.58025 19.8798 2.46044 19.9391 2.33258 19.9736C2.20472 20.0081 2.07132 20.0171 1.94 20C1.80868 19.9829 1.682 19.9402 1.56721 19.8741C1.45242 19.8081 1.35176 19.7201 1.27097 19.6152C1.19018 19.5103 1.13085 19.3904 1.09637 19.2626C1.06189 19.1347 1.05293 19.0013 1.07 18.87C1.57 15.24 4.3 10 8 10C11.7 10 14.43 15.24 14.91 18.87C14.9285 19.011 14.9167 19.1543 14.8754 19.2903C14.8341 19.4264 14.7643 19.552 14.6706 19.659C14.577 19.7659 14.4615 19.8516 14.3321 19.9104C14.2027 19.9693 14.0622 19.9998 13.92 20Z" fill="#22BB9B"/>
<path d="M29.92 20C29.6758 20.0021 29.4394 19.9147 29.2552 19.7545C29.0709 19.5942 28.9517 19.3721 28.92 19.13C28.5 15.9 26.21 12 24 12C21.79 12 19.5 15.9 19.07 19.13C19.0355 19.3952 18.8971 19.6359 18.6852 19.799C18.4733 19.9622 18.2052 20.0345 17.94 20C17.6748 19.9655 17.4341 19.8271 17.271 19.6152C17.1078 19.4033 17.0355 19.1352 17.07 18.87C17.57 15.24 20.3 10 24 10C27.7 10 30.43 15.24 30.91 18.87C30.9285 19.011 30.9167 19.1543 30.8754 19.2903C30.8342 19.4264 30.7643 19.552 30.6707 19.659C30.577 19.7659 30.4615 19.8516 30.3321 19.9104C30.2027 19.9693 30.0622 19.9998 29.92 20Z" fill="#22BB9B"/>
<path d="M31 18H1C0.734787 18 0.480433 18.1054 0.292896 18.2929C0.10536 18.4804 3.08782e-06 18.7348 3.08782e-06 19V23C-0.00163844 23.145 0.0282549 23.2885 0.0876118 23.4208C0.146969 23.553 0.23437 23.6708 0.34376 23.7659C0.45315 23.8611 0.581914 23.9313 0.721129 23.9717C0.860343 24.0121 1.00668 24.0218 1.15 24L1.74 27.49C1.85716 28.198 2.22426 28.8406 2.77468 29.3012C3.32511 29.7617 4.0224 30.0096 4.74 30H11.36C12.069 29.9977 12.7543 29.7443 13.2944 29.2849C13.8344 28.8254 14.1942 28.1895 14.31 27.49L14.85 24H17.15L17.74 27.49C17.8572 28.198 18.2243 28.8406 18.7747 29.3012C19.3251 29.7617 20.0224 30.0096 20.74 30H27.36C28.0776 30.0096 28.7749 29.7617 29.3253 29.3012C29.8757 28.8406 30.2428 28.198 30.36 27.49L30.85 24C30.9933 24.0218 31.1397 24.0121 31.2789 23.9717C31.4181 23.9313 31.5469 23.8611 31.6562 23.7659C31.7656 23.6708 31.853 23.553 31.9124 23.4208C31.9718 23.2885 32.0016 23.145 32 23V19C32 18.7348 31.8946 18.4804 31.7071 18.2929C31.5196 18.1054 31.2652 18 31 18ZM2 20H30V22H2V20ZM12.29 27.16C12.2517 27.3966 12.1296 27.6116 11.9461 27.7658C11.7625 27.92 11.5297 28.0031 11.29 28H4.69C4.45031 28.0031 4.21749 27.92 4.03394 27.7658C3.85039 27.6116 3.72834 27.3966 3.69 27.16L3.18 24H12.82L12.29 27.16ZM28.29 27.16C28.2517 27.3966 28.1296 27.6116 27.9461 27.7658C27.7625 27.92 27.5297 28.0031 27.29 28H20.69C20.4503 28.0031 20.2175 27.92 20.0339 27.7658C19.8504 27.6116 19.7283 27.3966 19.69 27.16L19.18 24H28.82L28.29 27.16Z" fill="#08221D"/>
</g>
<defs>
<clipPath id="clip0_1_382">
<rect width="32" height="32" fill="white"/>
</clipPath>
</defs>
</svg>
