<svg width="32" height="32" viewBox="0 0 32 32" fill="none" xmlns="http://www.w3.org/2000/svg">
<g clip-path="url(#clip0_1_402)">
<path d="M31.9 22.58C31.75 22.26 32.37 23.5 29.45 17.66C29.2006 17.1604 28.8166 16.7402 28.3414 16.447C27.8661 16.1537 27.3184 15.9989 26.76 16H22V14C22 13.2044 21.6839 12.4413 21.1213 11.8787C20.5587 11.3161 19.7956 11 19 11H17V8C17 7.73478 16.8946 7.48043 16.7071 7.29289C16.5196 7.10536 16.2652 7 16 7C15.7348 7 15.4804 7.10536 15.2929 7.29289C15.1054 7.48043 15 7.73478 15 8V11H7V8C7 7.73478 6.89464 7.48043 6.70711 7.29289C6.51957 7.10536 6.26522 7 6 7C5.73478 7 5.48043 7.10536 5.29289 7.29289C5.10536 7.48043 5 7.73478 5 8V11H3C2.20435 11 1.44129 11.3161 0.87868 11.8787C0.31607 12.4413 0 13.2044 0 14L0 27C0 27.7956 0.31607 28.5587 0.87868 29.1213C1.44129 29.6839 2.20435 30 3 30H4.18C4.4159 30.6672 4.88007 31.2296 5.49048 31.5876C6.10089 31.9457 6.81824 32.0765 7.51573 31.9568C8.21323 31.8371 8.84596 31.4747 9.3021 30.9337C9.75825 30.3926 10.0084 29.7077 10.0084 29C10.0084 28.2923 9.75825 27.6074 9.3021 27.0663C8.84596 26.5253 8.21323 26.1629 7.51573 26.0432C6.81824 25.9235 6.10089 26.0543 5.49048 26.4124C4.88007 26.7704 4.4159 27.3328 4.18 28H3C2.73478 28 2.48043 27.8946 2.29289 27.7071C2.10536 27.5196 2 27.2652 2 27V24H20V28H13C12.7348 28 12.4804 28.1054 12.2929 28.2929C12.1054 28.4804 12 28.7348 12 29C12 29.2652 12.1054 29.5196 12.2929 29.7071C12.4804 29.8946 12.7348 30 13 30H23.18C23.3902 30.5792 23.7736 31.0795 24.2782 31.4332C24.7827 31.7868 25.3839 31.9765 26 31.9765C26.6161 31.9765 27.2173 31.7868 27.7218 31.4332C28.2264 31.0795 28.6098 30.5792 28.82 30C29.2288 30.0246 29.6384 29.9652 30.0234 29.8255C30.4084 29.6857 30.7607 29.4686 31.0587 29.1876C31.3566 28.9065 31.5938 28.5674 31.7557 28.1912C31.9176 27.815 32.0007 27.4096 32 27C32 22.66 32 22.87 31.9 22.58ZM7 28C7.19778 28 7.39112 28.0586 7.55557 28.1685C7.72002 28.2784 7.84819 28.4346 7.92388 28.6173C7.99957 28.8 8.01937 29.0011 7.98079 29.1951C7.9422 29.3891 7.84696 29.5673 7.70711 29.7071C7.56725 29.847 7.38907 29.9422 7.19509 29.9808C7.00111 30.0194 6.80004 29.9996 6.61732 29.9239C6.43459 29.8482 6.27841 29.72 6.16853 29.5556C6.05865 29.3911 6 29.1978 6 29C6 28.7348 6.10536 28.4804 6.29289 28.2929C6.48043 28.1054 6.73478 28 7 28ZM3 13H19C19.2652 13 19.5196 13.1054 19.7071 13.2929C19.8946 13.4804 20 13.7348 20 14V15H2V14C2 13.7348 2.10536 13.4804 2.29289 13.2929C2.48043 13.1054 2.73478 13 3 13ZM2 22V17H20V22H2ZM26 30C25.8022 30 25.6089 29.9414 25.4444 29.8315C25.28 29.7216 25.1518 29.5654 25.0761 29.3827C25.0004 29.2 24.9806 28.9989 25.0192 28.8049C25.0578 28.6109 25.153 28.4327 25.2929 28.2929C25.4327 28.153 25.6109 28.0578 25.8049 28.0192C25.9989 27.9806 26.2 28.0004 26.3827 28.0761C26.5654 28.1518 26.7216 28.28 26.8315 28.4444C26.9414 28.6089 27 28.8022 27 29C27 29.2652 26.8946 29.5196 26.7071 29.7071C26.5196 29.8946 26.2652 30 26 30ZM29 28H28.82C28.6098 27.4208 28.2264 26.9205 27.7218 26.5668C27.2173 26.2132 26.6161 26.0235 26 26.0235C25.3839 26.0235 24.7827 26.2132 24.2782 26.5668C23.7736 26.9205 23.3902 27.4208 23.18 28H22V18H26.76C26.9464 17.9987 27.1294 18.0495 27.2884 18.1467C27.4474 18.2439 27.5761 18.3836 27.66 18.55L29.38 22H25C24.7348 22 24.4804 22.1054 24.2929 22.2929C24.1054 22.4804 24 22.7348 24 23C24 23.2652 24.1054 23.5196 24.2929 23.7071C24.4804 23.8946 24.7348 24 25 24H30V27C30 27.2652 29.8946 27.5196 29.7071 27.7071C29.5196 27.8946 29.2652 28 29 28Z" fill="#08221D"/>
<path d="M3.19 6.56C2.50728 6.10329 2.00182 5.42628 1.75796 4.64192C1.5141 3.85756 1.54659 3.0133 1.85 2.25C2.0532 1.74713 2.3677 1.29683 2.76989 0.932933C3.17207 0.569036 3.65148 0.300997 4.1721 0.148947C4.69273 -0.00310338 5.24104 -0.0352118 5.77586 0.0550331C6.31068 0.145278 6.81809 0.35553 7.26 0.669999C8.35104 1.45014 9.65873 1.86958 11 1.86958C12.3413 1.86958 13.649 1.45014 14.74 0.669999C15.1265 0.395489 15.5636 0.200465 16.026 0.0962408C16.4885 -0.00798287 16.967 -0.0193299 17.4338 0.0628582C17.9007 0.145046 18.3466 0.319133 18.7456 0.575016C19.1447 0.830899 19.4889 1.16348 19.7584 1.55347C20.0279 1.94345 20.2172 2.38307 20.3154 2.84682C20.4137 3.31057 20.4188 3.7892 20.3306 4.25495C20.2424 4.72071 20.0625 5.1643 19.8015 5.55999C19.5405 5.95568 19.2034 6.29559 18.81 6.56C16.5011 8.112 13.7821 8.94088 11 8.94088C8.21793 8.94088 5.49894 8.112 3.19 6.56ZM3.71 3C3.57568 3.33635 3.561 3.70864 3.6684 4.05452C3.77581 4.40041 3.99879 4.69889 4.3 4.9C6.28322 6.22509 8.61483 6.93236 11 6.93236C13.3852 6.93236 15.7168 6.22509 17.7 4.9C17.8707 4.78181 18.0165 4.63115 18.129 4.45663C18.2415 4.2821 18.3185 4.08713 18.3556 3.88284C18.3928 3.67855 18.3893 3.46895 18.3455 3.266C18.3016 3.06304 18.2182 2.87072 18.1 2.7C17.9818 2.52928 17.8312 2.38351 17.6566 2.27102C17.4821 2.15852 17.2871 2.08151 17.0828 2.04436C16.6703 1.96935 16.2448 2.0613 15.9 2.3C14.4697 3.31989 12.7567 3.86806 11 3.86806C9.24328 3.86806 7.53034 3.31989 6.1 2.3C5.90501 2.15997 5.68067 2.06621 5.44403 2.02584C5.20738 1.98548 4.96465 1.99957 4.73426 2.06705C4.50388 2.13453 4.2919 2.25361 4.11442 2.41527C3.93694 2.57692 3.79863 2.7769 3.71 3Z" fill="#22BB9B"/>
</g>
<defs>
<clipPath id="clip0_1_402">
<rect width="32" height="32" fill="white"/>
</clipPath>
</defs>
</svg>
