<svg width="32" height="32" viewBox="0 0 32 32" fill="none" xmlns="http://www.w3.org/2000/svg">
<g clip-path="url(#clip0_1_410)">
<path d="M27 12V9C27 7.93913 26.5786 6.92172 25.8285 6.17157C25.0783 5.42143 24.0609 5 23 5V4C23 2.93913 22.5786 1.92172 21.8285 1.17157C21.0783 0.421427 20.0609 0 19 0C18.4696 0 17.9609 0.210714 17.5858 0.585786C17.2107 0.960859 17 1.46957 17 2C16.2938 2.01337 15.6038 2.21348 15 2.58C14.32 -0.38 9.00003 1.05 9.00003 5V5.56C8.39604 5.19645 7.70499 5.00295 7.00003 5C6.4696 5 5.96089 5.21071 5.58581 5.58579C5.21074 5.96086 5.00003 6.46957 5.00003 7V12C4.85891 11.9991 4.71922 12.0282 4.59012 12.0852C4.46102 12.1421 4.34545 12.2258 4.251 12.3306C4.15654 12.4355 4.08535 12.5591 4.04209 12.6935C3.99884 12.8278 3.9845 12.9697 4.00003 13.11L5.80003 29.33C5.8816 30.0672 6.23333 30.748 6.78735 31.241C7.34136 31.7341 8.05838 32.0045 8.80003 32H23.21C23.9517 32.0045 24.6687 31.7341 25.2227 31.241C25.7767 30.748 26.1285 30.0672 26.21 29.33L27.01 22.11C27.0392 21.8448 26.9618 21.5788 26.7949 21.3707C26.628 21.1625 26.3852 21.0292 26.12 21C25.8548 20.9708 25.5889 21.0482 25.3807 21.2151C25.1725 21.382 25.0392 21.6248 25.01 21.89L24.2 29.11C24.1728 29.3557 24.0556 29.5827 23.8709 29.747C23.6863 29.9114 23.4472 30.0015 23.2 30H8.79003C8.54281 30.0015 8.30381 29.9114 8.11913 29.747C7.93446 29.5827 7.81722 29.3557 7.79003 29.11L6.12003 14H9.22003L9.46003 15C9.68202 15.8598 10.1838 16.6213 10.8863 17.1644C11.5888 17.7076 12.452 18.0016 13.34 18H18.66C19.548 18.0016 20.4113 17.7076 21.1138 17.1644C21.8163 16.6213 22.318 15.8598 22.54 15L22.78 14H25.88L25.45 17.89C25.4209 18.1552 25.4982 18.4212 25.6651 18.6293C25.832 18.8375 26.0748 18.9708 26.34 19C26.6052 19.0292 26.8712 18.9518 27.0794 18.7849C27.2875 18.618 27.4209 18.3752 27.45 18.11L28 13.11C28.0156 12.9697 28.0012 12.8278 27.958 12.6935C27.9147 12.5591 27.8435 12.4355 27.7491 12.3306C27.6546 12.2258 27.539 12.1421 27.4099 12.0852C27.2808 12.0282 27.1411 11.9991 27 12ZM25 9V12H23V7C23.5305 7 24.0392 7.21071 24.4142 7.58579C24.7893 7.96086 25 8.46957 25 9ZM7.00003 7C7.53046 7 8.03917 7.21071 8.41424 7.58579C8.78931 7.96086 9.00003 8.46957 9.00003 9V12H7.00003V7ZM11.4 14.49C10.9 12.49 11 14.36 11 5C11 4.46957 11.2107 3.96086 11.5858 3.58579C11.9609 3.21071 12.4696 3 13 3V16C12.6149 15.9323 12.2581 15.7531 11.9738 15.4848C11.6894 15.2164 11.4899 14.8705 11.4 14.49ZM15 6C15 5.46957 15.2107 4.96086 15.5858 4.58579C15.9609 4.21071 16.4696 4 17 4V16H15V6ZM19 16V2C19.5305 2 20.0392 2.21071 20.4142 2.58579C20.7893 2.96086 21 3.46957 21 4V12.88L20.6 14.49C20.5101 14.8705 20.3107 15.2164 20.0263 15.4848C19.7419 15.7531 19.3851 15.9323 19 16Z" fill="#08221D"/>
<path d="M16 28C13.24 28 11 26.21 11 24C11 21.79 13.24 20 16 20C18.76 20 21 21.79 21 24C21 26.21 18.76 28 16 28ZM16 22C14.37 22 13 22.92 13 24C13 25.08 14.37 26 16 26C17.63 26 19 25.08 19 24C19 22.92 17.63 22 16 22Z" fill="#22BB9B"/>
</g>
<defs>
<clipPath id="clip0_1_410">
<rect width="32" height="32" fill="white"/>
</clipPath>
</defs>
</svg>
