<svg width="32" height="32" viewBox="0 0 32 32" fill="none" xmlns="http://www.w3.org/2000/svg">
<g clip-path="url(#clip0_2_346)">
<path d="M16 10C15.7348 10 15.4804 9.89464 15.2929 9.70711C15.1054 9.51957 15 9.26522 15 9V7.61C14.996 5.06075 15.7514 2.56808 17.17 0.45C17.3263 0.255959 17.5494 0.127257 17.7956 0.0890997C18.0419 0.0509427 18.2935 0.10608 18.5012 0.243712C18.7089 0.381344 18.8577 0.591557 18.9185 0.83318C18.9794 1.0748 18.9478 1.33043 18.83 1.55C17 4.38 17 6.78 17 9C17 9.26522 16.8947 9.51957 16.7071 9.70711C16.5196 9.89464 16.2652 10 16 10Z" fill="white"/>
<path d="M16 6H13C11.9391 6 10.9217 5.57857 10.1716 4.82843C9.42143 4.07828 9 3.06087 9 2V1C9 0.734784 9.10536 0.48043 9.29289 0.292893C9.48043 0.105357 9.73478 0 10 0L13 0C14.0609 0 15.0783 0.421427 15.8284 1.17157C16.5786 1.92172 17 2.93913 17 4V5C17 5.26522 16.8946 5.51957 16.7071 5.70711C16.5196 5.89464 16.2652 6 16 6ZM11 2C11 2.53043 11.2107 3.03914 11.5858 3.41421C11.9609 3.78929 12.4696 4 13 4H15C15 3.46957 14.7893 2.96086 14.4142 2.58579C14.0391 2.21071 13.5304 2 13 2H11Z" fill="white"/>
<path d="M29 16C28.9971 15.1154 28.7011 14.2568 28.1583 13.5584C27.6155 12.8599 26.8565 12.3611 26 12.14C26.0239 11.3177 25.7937 10.5081 25.3408 9.82141C24.8878 9.13472 24.2342 8.60438 23.4689 8.30264C22.7036 8.0009 21.8639 7.94245 21.0642 8.13524C20.2645 8.32803 19.5437 8.76269 19 9.38C18.6246 8.95437 18.163 8.61349 17.6458 8.38C17.1285 8.14651 16.5675 8.02575 16 8.02575C15.4325 8.02575 14.8715 8.14651 14.3543 8.38C13.837 8.61349 13.3754 8.95437 13 9.38C12.4563 8.76269 11.7355 8.32803 10.9358 8.13524C10.1361 7.94245 9.29639 8.0009 8.53111 8.30264C7.76584 8.60438 7.1122 9.13472 6.65926 9.82141C6.20633 10.5081 5.97612 11.3177 6.00001 12.14C5.15264 12.3703 4.40459 12.873 3.87128 13.5706C3.33796 14.2682 3.04901 15.1219 3.04901 16C3.04901 16.8781 3.33796 17.7318 3.87128 18.4294C4.40459 19.127 5.15264 19.6297 6.00001 19.86C5.97127 20.7684 6.25272 21.6594 6.79801 22.3865C7.3433 23.1136 8.11993 23.6332 9.00001 23.86C8.97127 24.7684 9.25272 25.6594 9.79801 26.3865C10.3433 27.1136 11.1199 27.6332 12 27.86C12 27.91 12 27.95 12 28C12 28.2652 12.1054 28.5196 12.2929 28.7071C12.4804 28.8946 12.7348 29 13 29C13.2652 29 13.5196 28.8946 13.7071 28.7071C13.8947 28.5196 14 28.2652 14 28C14 27.6044 14.1173 27.2178 14.3371 26.8889C14.5568 26.56 14.8692 26.3036 15.2346 26.1522C15.6001 26.0009 16.0022 25.9613 16.3902 26.0384C16.7782 26.1156 17.1345 26.3061 17.4142 26.5858C17.6939 26.8655 17.8844 27.2219 17.9616 27.6098C18.0388 27.9978 17.9991 28.3999 17.8478 28.7654C17.6964 29.1308 17.4401 29.4432 17.1112 29.6629C16.7823 29.8827 16.3956 30 16 30C15.7348 30 15.4804 30.1054 15.2929 30.2929C15.1054 30.4804 15 30.7348 15 31C15 33.13 20.12 31.78 20 27.86C20.8801 27.6332 21.6567 27.1136 22.202 26.3865C22.7473 25.6594 23.0288 24.7684 23 23.86C23.8801 23.6332 24.6567 23.1136 25.202 22.3865C25.7473 21.6594 26.0288 20.7684 26 19.86C26.8565 19.6389 27.6155 19.1401 28.1583 18.4416C28.7011 17.7432 28.9971 16.8846 29 16ZM22 10C22.2749 9.99932 22.5469 10.0553 22.7992 10.1645C23.0514 10.2736 23.2785 10.4336 23.4661 10.6344C23.6538 10.8352 23.7981 11.0725 23.8899 11.3316C23.9818 11.5906 24.0193 11.8658 24 12.14C23.2231 12.3354 22.5249 12.7648 22 13.37C21.4751 12.7648 20.7769 12.3354 20 12.14C19.9808 11.8658 20.0182 11.5906 20.1101 11.3316C20.202 11.0725 20.3462 10.8352 20.5339 10.6344C20.7216 10.4336 20.9486 10.2736 21.2009 10.1645C21.4531 10.0553 21.7252 9.99932 22 10ZM16 21.37C15.4751 20.7648 14.7769 20.3354 14 20.14C13.981 19.8756 14.0148 19.6101 14.0993 19.3589C14.1838 19.1077 14.3174 18.8758 14.4923 18.6767C14.6673 18.4776 14.88 18.3152 15.1182 18.1991C15.3565 18.0829 15.6154 18.0152 15.88 18H16.12C16.3846 18.0152 16.6436 18.0829 16.8818 18.1991C17.12 18.3152 17.3328 18.4776 17.5077 18.6767C17.6826 18.8758 17.8162 19.1077 17.9007 19.3589C17.9853 19.6101 18.019 19.8756 18 20.14C17.2231 20.3354 16.5249 20.7648 16 21.37ZM11 16.14C10.981 15.8756 11.0148 15.6101 11.0993 15.3589C11.1838 15.1077 11.3174 14.8758 11.4923 14.6767C11.6673 14.4776 11.88 14.3152 12.1182 14.1991C12.3565 14.0829 12.6154 14.0152 12.88 14H13.12C13.3846 14.0152 13.6436 14.0829 13.8818 14.1991C14.12 14.3152 14.3328 14.4776 14.5077 14.6767C14.6826 14.8758 14.8162 15.1077 14.9007 15.3589C14.9853 15.6101 15.019 15.8756 15 16.14C14.2231 16.3354 13.5249 16.7648 13 17.37C12.4751 16.7648 11.7769 16.3354 11 16.14ZM19 17.37C18.4751 16.7648 17.7769 16.3354 17 16.14C16.981 15.8756 17.0148 15.6101 17.0993 15.3589C17.1838 15.1077 17.3174 14.8758 17.4923 14.6767C17.6673 14.4776 17.88 14.3152 18.1182 14.1991C18.3565 14.0829 18.6154 14.0152 18.88 14H19.12C19.3846 14.0152 19.6436 14.0829 19.8818 14.1991C20.12 14.3152 20.3328 14.4776 20.5077 14.6767C20.6826 14.8758 20.8162 15.1077 20.9007 15.3589C20.9853 15.6101 21.019 15.8756 21 16.14C20.2231 16.3354 19.5249 16.7648 19 17.37ZM16 10C16.2749 9.99932 16.5469 10.0553 16.7992 10.1645C17.0514 10.2736 17.2784 10.4336 17.4661 10.6344C17.6538 10.8352 17.7981 11.0725 17.8899 11.3316C17.9818 11.5906 18.0193 11.8658 18 12.14C17.2231 12.3354 16.5249 12.7648 16 13.37C15.4751 12.7648 14.7769 12.3354 14 12.14C13.9808 11.8658 14.0182 11.5906 14.1101 11.3316C14.202 11.0725 14.3462 10.8352 14.5339 10.6344C14.7216 10.4336 14.9486 10.2736 15.2009 10.1645C15.4531 10.0553 15.7252 9.99932 16 10ZM10 10C10.2749 9.99932 10.5469 10.0553 10.7992 10.1645C11.0514 10.2736 11.2784 10.4336 11.4661 10.6344C11.6538 10.8352 11.7981 11.0725 11.8899 11.3316C11.9818 11.5906 12.0193 11.8658 12 12.14C11.2231 12.3354 10.5249 12.7648 10 13.37C9.4751 12.7648 8.77694 12.3354 8.00001 12.14C7.98077 11.8658 8.01825 11.5906 8.11011 11.3316C8.20197 11.0725 8.34623 10.8352 8.5339 10.6344C8.72157 10.4336 8.94862 10.2736 9.20087 10.1645C9.45312 10.0553 9.72516 9.99932 10 10ZM5.00001 16C5.0092 15.7374 5.07004 15.4791 5.17904 15.24C5.28804 15.0008 5.44308 14.7855 5.6353 14.6063C5.82751 14.4271 6.05315 14.2875 6.29932 14.1955C6.54549 14.1034 6.80737 14.0608 7.07001 14.07C7.33266 14.0792 7.59092 14.14 7.83005 14.249C8.06918 14.358 8.28451 14.5131 8.46372 14.7053C8.64294 14.8975 8.78254 15.1231 8.87456 15.3693C8.96658 15.6155 9.0092 15.8774 9.00001 16.14C7.97549 16.4134 7.10146 17.0824 6.57001 18C6.117 17.9004 5.71269 17.6464 5.42629 17.2816C5.13988 16.9168 4.98919 16.4637 5.00001 16ZM8.00001 20C7.99909 19.4897 8.19326 18.9984 8.54275 18.6266C8.89225 18.2548 9.37065 18.0306 9.88001 18H10.12C10.3846 18.0152 10.6436 18.0829 10.8818 18.1991C11.12 18.3152 11.3328 18.4776 11.5077 18.6767C11.6826 18.8758 11.8162 19.1077 11.9007 19.3589C11.9853 19.6101 12.019 19.8756 12 20.14C10.9755 20.4134 10.1015 21.0824 9.57001 22C9.117 21.9004 8.71269 21.6464 8.42628 21.2816C8.13988 20.9168 7.98919 20.4637 8.00001 20ZM12.58 26C12.1162 25.8904 11.7068 25.6188 11.4255 25.2341C11.1442 24.8494 11.0095 24.3769 11.0457 23.9018C11.0819 23.4266 11.2865 22.9799 11.6228 22.6422C11.9592 22.3046 12.405 22.0981 12.88 22.06H13.12C13.6453 22.091 14.1372 22.3278 14.4891 22.719C14.8411 23.1102 15.0246 23.6244 15 24.15C13.9809 24.4234 13.1111 25.0883 12.58 26ZM19.42 26C18.8889 25.0883 18.0191 24.4234 17 24.15C16.9796 23.8848 17.0123 23.6183 17.0962 23.3659C17.1801 23.1135 17.3135 22.8804 17.4885 22.6802C17.6636 22.48 17.8768 22.3167 18.1158 22.1999C18.3547 22.0831 18.6145 22.0152 18.88 22H19.12C19.5951 22.0381 20.0409 22.2446 20.3772 22.5822C20.7135 22.9199 20.9181 23.3666 20.9543 23.8418C20.9905 24.3169 20.8558 24.7894 20.5745 25.1741C20.2932 25.5588 19.8838 25.8304 19.42 25.94V26ZM22.42 22C22.162 21.5435 21.8147 21.1436 21.399 20.8241C20.9833 20.5046 20.5075 20.2719 20 20.14C19.981 19.8756 20.0148 19.6101 20.0993 19.3589C20.1838 19.1077 20.3174 18.8758 20.4923 18.6767C20.6673 18.4776 20.88 18.3152 21.1182 18.1991C21.3565 18.0829 21.6154 18.0152 21.88 18H22.12C22.5951 18.0381 23.0409 18.2446 23.3772 18.5822C23.7135 18.9199 23.9181 19.3666 23.9543 19.8418C23.9905 20.3169 23.8558 20.7894 23.5745 21.1741C23.2932 21.5588 22.8838 21.8304 22.42 21.94V22ZM25.42 18C25.162 17.5435 24.8147 17.1436 24.399 16.8241C23.9833 16.5046 23.5075 16.2719 23 16.14C22.9908 15.8774 23.0334 15.6155 23.1255 15.3693C23.2175 15.1231 23.3571 14.8975 23.5363 14.7053C23.7155 14.5131 23.9308 14.358 24.17 14.249C24.4091 14.14 24.6674 14.0792 24.93 14.07C25.1927 14.0608 25.4545 14.1034 25.7007 14.1955C25.9469 14.2875 26.1725 14.4271 26.3647 14.6063C26.5569 14.7855 26.712 15.0008 26.821 15.24C26.93 15.4791 26.9908 15.7374 27 16C27.0104 16.4651 26.8583 16.9192 26.5699 17.2843C26.2815 17.6493 25.8749 17.9024 25.42 18Z" fill="white"/>
</g>
<defs>
<clipPath id="clip0_2_346">
<rect width="32" height="32" fill="white"/>
</clipPath>
</defs>
</svg>
