<svg width="32" height="32" viewBox="0 0 32 32" fill="none" xmlns="http://www.w3.org/2000/svg">
<g clip-path="url(#clip0_8_1262)">
<path d="M9 7C9 5.14348 9.7375 3.36301 11.0503 2.05025C12.363 0.737498 14.1435 0 16 0C17.8565 0 19.637 0.737498 20.9497 2.05025C22.2625 3.36301 23 5.14348 23 7C23 7.26522 22.8946 7.51957 22.7071 7.70711C22.5196 7.89464 22.2652 8 22 8C21.7348 8 21.4804 7.89464 21.2929 7.70711C21.1054 7.51957 21 7.26522 21 7C21 5.67392 20.4732 4.40215 19.5355 3.46447C18.5979 2.52678 17.3261 2 16 2C14.6739 2 13.4021 2.52678 12.4645 3.46447C11.5268 4.40215 11 5.67392 11 7C11 7.26522 10.8946 7.51957 10.7071 7.70711C10.5196 7.89464 10.2652 8 10 8C9.73478 8 9.48043 7.89464 9.29289 7.70711C9.10536 7.51957 9 7.26522 9 7Z" fill="white"/>
<path d="M7.94002 8.83999C7.67909 8.84156 7.42789 8.74108 7.24002 8.55999L3.30002 4.71999C3.20477 4.62686 3.1291 4.51564 3.07743 4.39286C3.02576 4.27007 2.99915 4.13821 2.99915 4.00499C2.99915 3.87178 3.02576 3.73991 3.07743 3.61713C3.1291 3.49435 3.20477 3.38313 3.30002 3.28999L6.30002 0.289994C6.39364 0.196918 6.50477 0.123299 6.62698 0.0733871C6.7492 0.0234747 6.88009 -0.0017441 7.0121 -0.000814436C7.14412 0.000115232 7.27464 0.027175 7.39614 0.0788037C7.51764 0.130432 7.62772 0.205608 7.72002 0.299994L11.22 3.88999C11.3119 3.98455 11.3843 4.09628 11.4331 4.21881C11.4818 4.34134 11.506 4.47228 11.5041 4.60414C11.5023 4.736 11.4744 4.8662 11.4223 4.98731C11.3701 5.10842 11.2946 5.21807 11.2 5.30999C11.1055 5.40192 10.9937 5.47432 10.8712 5.52307C10.7487 5.57181 10.6177 5.59594 10.4859 5.59409C10.354 5.59223 10.2238 5.56442 10.1027 5.51224C9.98159 5.46007 9.87195 5.38455 9.78002 5.28999L7.00002 2.41999L5.42002 3.99999L8.64002 7.11999C8.78393 7.25869 8.88297 7.43733 8.92437 7.63286C8.96578 7.82839 8.94764 8.03185 8.8723 8.21697C8.79696 8.40209 8.66787 8.56039 8.5017 8.67144C8.33552 8.78249 8.13988 8.8412 7.94002 8.83999Z" fill="white"/>
<path d="M29 14H27.91C27.9547 13.7621 27.9848 13.5216 28 13.28C28.0538 11.8672 27.6784 10.4712 26.9234 9.27576C26.1684 8.08037 25.0691 7.14163 23.7703 6.58311C22.4714 6.0246 21.0338 5.8725 19.6468 6.14683C18.2599 6.42116 16.9885 7.10907 16 8.11999C14.9664 7.07553 13.6304 6.38281 12.1812 6.13997C10.732 5.89714 9.24312 6.11651 7.92554 6.767C6.60796 7.4175 5.52849 8.46612 4.84009 9.7643C4.15169 11.0625 3.88927 12.5444 4.09 14H3C2.73478 14 2.48043 14.1053 2.29289 14.2929C2.10536 14.4804 2 14.7348 2 15V19C2 19.2652 2.10536 19.5196 2.29289 19.7071C2.48043 19.8946 2.73478 20 3 20H4.08L4.85 29.25C4.91284 30.0015 5.25645 30.7019 5.81239 31.2115C6.36834 31.7211 7.09583 32.0026 7.85 32H10C10.2652 32 10.5196 31.8946 10.7071 31.7071C10.8946 31.5196 11 31.2652 11 31C11 30.7348 10.8946 30.4804 10.7071 30.2929C10.5196 30.1053 10.2652 30 10 30H7.84C7.58808 30.0008 7.34514 29.9065 7.15974 29.7359C6.97434 29.5654 6.86015 29.3311 6.84 29.08L6.09 20H17V21C17 21.7956 17.3161 22.5587 17.8787 23.1213C18.4413 23.6839 19.2044 24 20 24C20.7956 24 21.5587 23.6839 22.1213 23.1213C22.6839 22.5587 23 21.7956 23 21V20H25.91L25.16 29.08C25.1398 29.3311 25.0257 29.5654 24.8403 29.7359C24.6549 29.9065 24.4119 30.0008 24.16 30H14C13.7348 30 13.4804 30.1053 13.2929 30.2929C13.1054 30.4804 13 30.7348 13 31C13 31.2652 13.1054 31.5196 13.2929 31.7071C13.4804 31.8946 13.7348 32 14 32H24.16C24.9142 32.0026 25.6417 31.7211 26.1976 31.2115C26.7536 30.7019 27.0972 30.0015 27.16 29.25L27.92 20H29C29.2652 20 29.5196 19.8946 29.7071 19.7071C29.8946 19.5196 30 19.2652 30 19V15C30 14.7348 29.8946 14.4804 29.7071 14.2929C29.5196 14.1053 29.2652 14 29 14ZM14.81 9.76999C14.1163 11.0641 13.8635 12.5492 14.09 14H6.09C5.86615 12.9111 6.0116 11.7786 6.50335 10.7815C6.9951 9.7845 7.8051 8.97978 8.80534 8.49458C9.80557 8.00937 10.939 7.87135 12.0264 8.10233C13.1139 8.33331 14.0933 8.92011 14.81 9.76999ZM4 18V16H17V18H4ZM21 21C21 21.2652 20.8946 21.5196 20.7071 21.7071C20.5196 21.8946 20.2652 22 20 22C19.7348 22 19.4804 21.8946 19.2929 21.7071C19.1054 21.5196 19 21.2652 19 21V15C19 14.7348 18.8946 14.4804 18.7071 14.2929C18.5196 14.1053 18.2652 14 18 14H16.1C15.9344 13.2202 15.9577 12.4122 16.1679 11.6432C16.3781 10.8743 16.7691 10.1667 17.3083 9.57957C17.8474 8.99243 18.5192 8.54272 19.2675 8.26794C20.0158 7.99317 20.819 7.9013 21.61 7.99999C22.2937 8.09469 22.951 8.32772 23.5416 8.68488C24.1323 9.04204 24.644 9.51583 25.0455 10.0773C25.4469 10.6388 25.7297 11.2762 25.8767 11.9507C26.0236 12.6251 26.0315 13.3224 25.9 14H22C21.7348 14 21.4804 14.1053 21.2929 14.2929C21.1054 14.4804 21 14.7348 21 15V21ZM28 18H23V16H28V18Z" fill="white"/>
</g>
<defs>
<clipPath id="clip0_8_1262">
<rect width="32" height="32" fill="white"/>
</clipPath>
</defs>
</svg>
