<svg width="32" height="32" viewBox="0 0 32 32" fill="none" xmlns="http://www.w3.org/2000/svg">
<g clip-path="url(#clip0_1_378)">
<path d="M22 12H21C20.7348 12 20.4804 12.1054 20.2929 12.2929C20.1054 12.4804 20 12.7348 20 13C20 13.2652 20.1054 13.5196 20.2929 13.7071C20.4804 13.8946 20.7348 14 21 14H22V16H18C17.7348 16 17.4804 16.1054 17.2929 16.2929C17.1054 16.4804 17 16.7348 17 17C17 17.2652 17.1054 17.5196 17.2929 17.7071C17.4804 17.8946 17.7348 18 18 18H22C22.5304 18 23.0391 17.7893 23.4142 17.4142C23.7893 17.0391 24 16.5304 24 16V14C24 13.4696 23.7893 12.9609 23.4142 12.5858C23.0391 12.2107 22.5304 12 22 12Z" fill="#08221D"/>
<path d="M21.35 20C21.0915 19.9466 20.8224 19.9976 20.6014 20.1419C20.3803 20.2861 20.2253 20.5119 20.17 20.77L18.36 29.19C18.3112 29.4174 18.1847 29.6207 18.0021 29.7649C17.8196 29.9091 17.5925 29.9852 17.36 29.98H14.62C14.3875 29.9852 14.1604 29.9091 13.9779 29.7649C13.7953 29.6207 13.6688 29.4174 13.62 29.19L11.24 18H14C14.2652 18 14.5196 17.8946 14.7071 17.7071C14.8946 17.5196 15 17.2652 15 17C15 16.7348 14.8946 16.4804 14.7071 16.2929C14.5196 16.1054 14.2652 16 14 16H10V14H11C11.2652 14 11.5196 13.8946 11.7071 13.7071C11.8946 13.5196 12 13.2652 12 13C12 12.7348 11.8946 12.4804 11.7071 12.2929C11.5196 12.1054 11.2652 12 11 12H10C9.46957 12 8.96086 12.2107 8.58579 12.5858C8.21071 12.9609 8 13.4696 8 14V16C8.00197 16.378 8.11104 16.7478 8.31458 17.0664C8.51812 17.385 8.80779 17.6393 9.15 17.8L11.68 29.63C11.8244 30.3021 12.1951 30.9042 12.7303 31.3356C13.2655 31.767 13.9326 32.0016 14.62 32H17.38C18.0674 32.0016 18.7345 31.767 19.2697 31.3356C19.8049 30.9042 20.1756 30.3021 20.32 29.63L22.12 21.21C22.1509 21.0799 22.1553 20.9449 22.1331 20.813C22.1109 20.6812 22.0625 20.5551 21.9907 20.4423C21.9189 20.3295 21.8252 20.2322 21.7151 20.1562C21.6051 20.0803 21.4809 20.0271 21.35 20Z" fill="#08221D"/>
<path d="M16 20C15.2044 20 14.4413 19.6839 13.8787 19.1213C13.3161 18.5587 13 17.7957 13 17V15C13 14.7348 12.8946 14.4804 12.7071 14.2929C12.5196 14.1054 12.2652 14 12 14C11.23 14 10.79 14.08 10.42 13.72C9.28099 12.6094 8.49896 11.1844 8.17384 9.62713C7.84873 8.06985 7.99528 6.451 8.59479 4.97744C9.19429 3.50387 10.2195 2.2425 11.5395 1.3545C12.8594 0.466497 14.4141 -0.00780487 16.005 -0.00780487C17.5959 -0.00780487 19.1506 0.466497 20.4705 1.3545C21.7905 2.2425 22.8157 3.50387 23.4152 4.97744C24.0147 6.451 24.1613 8.06985 23.8362 9.62713C23.511 11.1844 22.729 12.6094 21.59 13.72C21.24 14.06 20.95 14 20 14C19.7348 14 19.4804 14.1054 19.2929 14.2929C19.1054 14.4804 19 14.7348 19 15V17C19 17.7957 18.6839 18.5587 18.1213 19.1213C17.5587 19.6839 16.7956 20 16 20ZM11.53 12H12C12.7956 12 13.5587 12.3161 14.1213 12.8787C14.6839 13.4413 15 14.2044 15 15V17C15 17.2652 15.1054 17.5196 15.2929 17.7071C15.4804 17.8946 15.7348 18 16 18C16.2652 18 16.5196 17.8946 16.7071 17.7071C16.8946 17.5196 17 17.2652 17 17V15C17 14.2044 17.3161 13.4413 17.8787 12.8787C18.4413 12.3161 19.2044 12 20 12H20.47C21.1 11.2968 21.5551 10.4548 21.7983 9.54256C22.0416 8.63031 22.0662 7.67353 21.87 6.75C21.6786 5.85071 21.283 5.00744 20.7139 4.28531C20.1447 3.56318 19.4172 2.98151 18.5876 2.58522C17.7579 2.18892 16.8483 1.98861 15.9289 1.99973C15.0095 2.01086 14.105 2.23313 13.2852 2.64939C12.4653 3.06565 11.7521 3.66475 11.2006 4.40044C10.6491 5.13613 10.2741 5.98873 10.1045 6.89239C9.93486 7.79606 9.97519 8.72662 10.2224 9.61223C10.4695 10.4978 10.9169 11.3148 11.53 12Z" fill="#22BB9B"/>
</g>
<defs>
<clipPath id="clip0_1_378">
<rect width="32" height="32" fill="white"/>
</clipPath>
</defs>
</svg>
