<svg width="32" height="32" viewBox="0 0 32 32" fill="none" xmlns="http://www.w3.org/2000/svg">
<g clip-path="url(#clip0_1_406)">
<path d="M9 7C9 5.14348 9.7375 3.36301 11.0503 2.05025C12.363 0.737498 14.1435 0 16 0C17.8565 0 19.637 0.737498 20.9497 2.05025C22.2625 3.36301 23 5.14348 23 7C23 7.26522 22.8946 7.51957 22.7071 7.70711C22.5196 7.89464 22.2652 8 22 8C21.7348 8 21.4804 7.89464 21.2929 7.70711C21.1054 7.51957 21 7.26522 21 7C21 5.67392 20.4732 4.40215 19.5355 3.46447C18.5979 2.52678 17.3261 2 16 2C14.6739 2 13.4021 2.52678 12.4645 3.46447C11.5268 4.40215 11 5.67392 11 7C11 7.26522 10.8946 7.51957 10.7071 7.70711C10.5196 7.89464 10.2652 8 10 8C9.73478 8 9.48043 7.89464 9.29289 7.70711C9.10536 7.51957 9 7.26522 9 7Z" fill="#22BB9B"/>
<path d="M7.94 8.84C7.67907 8.84157 7.42786 8.74109 7.24 8.56L3.3 4.72C3.20475 4.62687 3.12907 4.51565 3.07741 4.39287C3.02574 4.27008 2.99912 4.13821 2.99912 4.005C2.99912 3.87179 3.02574 3.73992 3.07741 3.61714C3.12907 3.49436 3.20475 3.38313 3.3 3.29L6.3 0.290002C6.39362 0.196925 6.50474 0.123307 6.62696 0.0733947C6.74918 0.0234823 6.88007 -0.00173647 7.01208 -0.000806806C7.14409 0.000122862 7.27462 0.0271826 7.39612 0.0788113C7.51762 0.13044 7.6277 0.205616 7.72 0.300002L11.22 3.89C11.3119 3.98455 11.3843 4.09629 11.4331 4.21882C11.4818 4.34135 11.5059 4.47228 11.5041 4.60414C11.5022 4.736 11.4744 4.86621 11.4222 4.98732C11.3701 5.10843 11.2945 5.21808 11.2 5.31C11.1054 5.40193 10.9937 5.47433 10.8712 5.52307C10.7486 5.57182 10.6177 5.59595 10.4859 5.59409C10.354 5.59224 10.2238 5.56443 10.1027 5.51225C9.98157 5.46007 9.87192 5.38455 9.78 5.29L7 2.42L5.42 4L8.64 7.12C8.78391 7.2587 8.88295 7.43734 8.92435 7.63287C8.96575 7.8284 8.94762 8.03185 8.87227 8.21698C8.79693 8.4021 8.66785 8.5604 8.50167 8.67145C8.3355 8.7825 8.13986 8.84121 7.94 8.84Z" fill="#22BB9B"/>
<path d="M29 14H27.91C27.9547 13.7621 27.9848 13.5216 28 13.28C28.0538 11.8672 27.6784 10.4712 26.9234 9.27578C26.1684 8.08039 25.0691 7.14164 23.7703 6.58313C22.4714 6.02461 21.0338 5.87251 19.6468 6.14685C18.2599 6.42118 16.9885 7.10908 16 8.12001C14.9664 7.07555 13.6304 6.38282 12.1812 6.13999C10.732 5.89716 9.24312 6.11653 7.92554 6.76702C6.60796 7.41751 5.52849 8.46614 4.84009 9.76431C4.15169 11.0625 3.88927 12.5444 4.09 14H3C2.73478 14 2.48043 14.1054 2.29289 14.2929C2.10536 14.4804 2 14.7348 2 15V19C2 19.2652 2.10536 19.5196 2.29289 19.7071C2.48043 19.8947 2.73478 20 3 20H4.08L4.85 29.25C4.91284 30.0016 5.25645 30.7019 5.81239 31.2115C6.36834 31.7211 7.09583 32.0026 7.85 32H10C10.2652 32 10.5196 31.8946 10.7071 31.7071C10.8946 31.5196 11 31.2652 11 31C11 30.7348 10.8946 30.4804 10.7071 30.2929C10.5196 30.1054 10.2652 30 10 30H7.84C7.58808 30.0008 7.34514 29.9065 7.15974 29.7359C6.97434 29.5654 6.86015 29.3311 6.84 29.08L6.09 20H17V21C17 21.7957 17.3161 22.5587 17.8787 23.1213C18.4413 23.6839 19.2044 24 20 24C20.7956 24 21.5587 23.6839 22.1213 23.1213C22.6839 22.5587 23 21.7957 23 21V20H25.91L25.16 29.08C25.1398 29.3311 25.0257 29.5654 24.8403 29.7359C24.6549 29.9065 24.4119 30.0008 24.16 30H14C13.7348 30 13.4804 30.1054 13.2929 30.2929C13.1054 30.4804 13 30.7348 13 31C13 31.2652 13.1054 31.5196 13.2929 31.7071C13.4804 31.8946 13.7348 32 14 32H24.16C24.9142 32.0026 25.6417 31.7211 26.1976 31.2115C26.7536 30.7019 27.0972 30.0016 27.16 29.25L27.92 20H29C29.2652 20 29.5196 19.8947 29.7071 19.7071C29.8946 19.5196 30 19.2652 30 19V15C30 14.7348 29.8946 14.4804 29.7071 14.2929C29.5196 14.1054 29.2652 14 29 14ZM14.81 9.77001C14.1163 11.0642 13.8635 12.5492 14.09 14H6.09C5.86615 12.9111 6.0116 11.7786 6.50335 10.7815C6.9951 9.78452 7.8051 8.9798 8.80534 8.49459C9.80557 8.00939 10.939 7.87137 12.0264 8.10234C13.1139 8.33332 14.0933 8.92013 14.81 9.77001ZM4 18V16H17V18H4ZM21 21C21 21.2652 20.8946 21.5196 20.7071 21.7071C20.5196 21.8947 20.2652 22 20 22C19.7348 22 19.4804 21.8947 19.2929 21.7071C19.1054 21.5196 19 21.2652 19 21V15C19 14.7348 18.8946 14.4804 18.7071 14.2929C18.5196 14.1054 18.2652 14 18 14H16.1C15.9344 13.2202 15.9577 12.4122 16.1679 11.6432C16.3781 10.8743 16.7691 10.1667 17.3083 9.57958C17.8474 8.99244 18.5192 8.54273 19.2675 8.26796C20.0158 7.99319 20.819 7.90131 21.61 8.00001C22.2937 8.0947 22.951 8.32774 23.5416 8.6849C24.1323 9.04206 24.644 9.51584 25.0455 10.0773C25.4469 10.6388 25.7297 11.2762 25.8767 11.9507C26.0236 12.6251 26.0315 13.3224 25.9 14H22C21.7348 14 21.4804 14.1054 21.2929 14.2929C21.1054 14.4804 21 14.7348 21 15V21ZM28 18H23V16H28V18Z" fill="#08221D"/>
</g>
<defs>
<clipPath id="clip0_1_406">
<rect width="32" height="32" fill="white"/>
</clipPath>
</defs>
</svg>
