<svg width="32" height="32" viewBox="0 0 32 32" fill="none" xmlns="http://www.w3.org/2000/svg">
<g clip-path="url(#clip0_2_344)">
<path d="M9 7C9 5.14348 9.7375 3.36301 11.0503 2.05025C12.363 0.737498 14.1435 0 16 0C17.8565 0 19.637 0.737498 20.9497 2.05025C22.2625 3.36301 23 5.14348 23 7C23 7.26522 22.8946 7.51957 22.7071 7.70711C22.5196 7.89464 22.2652 8 22 8C21.7348 8 21.4804 7.89464 21.2929 7.70711C21.1054 7.51957 21 7.26522 21 7C21 5.67392 20.4732 4.40215 19.5355 3.46447C18.5979 2.52678 17.3261 2 16 2C14.6739 2 13.4021 2.52678 12.4645 3.46447C11.5268 4.40215 11 5.67392 11 7C11 7.26522 10.8946 7.51957 10.7071 7.70711C10.5196 7.89464 10.2652 8 10 8C9.73478 8 9.48043 7.89464 9.29289 7.70711C9.10536 7.51957 9 7.26522 9 7Z" fill="white"/>
<path d="M7.94 8.84001C7.67907 8.84158 7.42786 8.7411 7.24 8.56001L3.3 4.72001C3.20475 4.62688 3.12907 4.51566 3.07741 4.39287C3.02574 4.27009 2.99912 4.13822 2.99912 4.00501C2.99912 3.8718 3.02574 3.73993 3.07741 3.61715C3.12907 3.49436 3.20475 3.38314 3.3 3.29001L6.3 0.29001C6.39362 0.196933 6.50474 0.123315 6.62696 0.0734023C6.74918 0.0234899 6.88007 -0.00172884 7.01208 -0.000799177C7.14409 0.000130491 7.27462 0.0271902 7.39612 0.0788189C7.51762 0.130448 7.6277 0.205624 7.72 0.30001L11.22 3.89001C11.3119 3.98456 11.3843 4.09629 11.4331 4.21883C11.4818 4.34136 11.5059 4.47229 11.5041 4.60415C11.5022 4.73601 11.4744 4.86621 11.4222 4.98732C11.3701 5.10844 11.2945 5.21808 11.2 5.31001C11.1054 5.40193 10.9937 5.47434 10.8712 5.52308C10.7486 5.57183 10.6177 5.59596 10.4859 5.5941C10.354 5.59224 10.2238 5.56443 10.1027 5.51226C9.98157 5.46008 9.87192 5.38456 9.78 5.29001L7 2.42001L5.42 4.00001L8.64 7.12001C8.78391 7.25871 8.88295 7.43735 8.92435 7.63288C8.96575 7.82841 8.94762 8.03186 8.87227 8.21698C8.79693 8.40211 8.66785 8.5604 8.50167 8.67146C8.3355 8.78251 8.13986 8.84122 7.94 8.84001Z" fill="white"/>
<path d="M29 14H27.91C27.9547 13.7621 27.9848 13.5216 28 13.28C28.0538 11.8672 27.6784 10.4712 26.9234 9.27579C26.1684 8.0804 25.0691 7.14166 23.7703 6.58314C22.4714 6.02463 21.0338 5.87253 19.6468 6.14686C18.2599 6.42119 16.9885 7.1091 16 8.12002C14.9664 7.07556 13.6304 6.38284 12.1812 6.14C10.732 5.89717 9.24312 6.11654 7.92554 6.76703C6.60796 7.41753 5.52849 8.46615 4.84009 9.76433C4.15169 11.0625 3.88927 12.5444 4.09 14H3C2.73478 14 2.48043 14.1054 2.29289 14.2929C2.10536 14.4805 2 14.7348 2 15V19C2 19.2652 2.10536 19.5196 2.29289 19.7071C2.48043 19.8947 2.73478 20 3 20H4.08L4.85 29.25C4.91284 30.0016 5.25645 30.7019 5.81239 31.2115C6.36834 31.7211 7.09583 32.0026 7.85 32H10C10.2652 32 10.5196 31.8947 10.7071 31.7071C10.8946 31.5196 11 31.2652 11 31C11 30.7348 10.8946 30.4804 10.7071 30.2929C10.5196 30.1054 10.2652 30 10 30H7.84C7.58808 30.0008 7.34514 29.9065 7.15974 29.736C6.97434 29.5654 6.86015 29.3311 6.84 29.08L6.09 20H17V21C17 21.7957 17.3161 22.5587 17.8787 23.1213C18.4413 23.684 19.2044 24 20 24C20.7956 24 21.5587 23.684 22.1213 23.1213C22.6839 22.5587 23 21.7957 23 21V20H25.91L25.16 29.08C25.1398 29.3311 25.0257 29.5654 24.8403 29.736C24.6549 29.9065 24.4119 30.0008 24.16 30H14C13.7348 30 13.4804 30.1054 13.2929 30.2929C13.1054 30.4804 13 30.7348 13 31C13 31.2652 13.1054 31.5196 13.2929 31.7071C13.4804 31.8947 13.7348 32 14 32H24.16C24.9142 32.0026 25.6417 31.7211 26.1976 31.2115C26.7536 30.7019 27.0972 30.0016 27.16 29.25L27.92 20H29C29.2652 20 29.5196 19.8947 29.7071 19.7071C29.8946 19.5196 30 19.2652 30 19V15C30 14.7348 29.8946 14.4805 29.7071 14.2929C29.5196 14.1054 29.2652 14 29 14ZM14.81 9.77002C14.1163 11.0642 13.8635 12.5492 14.09 14H6.09C5.86615 12.9111 6.0116 11.7786 6.50335 10.7816C6.9951 9.78453 7.8051 8.97981 8.80534 8.49461C9.80557 8.0094 10.939 7.87138 12.0264 8.10236C13.1139 8.33334 14.0933 8.92014 14.81 9.77002ZM4 18V16H17V18H4ZM21 21C21 21.2652 20.8946 21.5196 20.7071 21.7071C20.5196 21.8947 20.2652 22 20 22C19.7348 22 19.4804 21.8947 19.2929 21.7071C19.1054 21.5196 19 21.2652 19 21V15C19 14.7348 18.8946 14.4805 18.7071 14.2929C18.5196 14.1054 18.2652 14 18 14H16.1C15.9344 13.2202 15.9577 12.4122 16.1679 11.6432C16.3781 10.8743 16.7691 10.1667 17.3083 9.5796C17.8474 8.99246 18.5192 8.54275 19.2675 8.26797C20.0158 7.9932 20.819 7.90133 21.61 8.00002C22.2937 8.09472 22.951 8.32775 23.5416 8.68491C24.1323 9.04207 24.644 9.51586 25.0455 10.0773C25.4469 10.6388 25.7297 11.2763 25.8767 11.9507C26.0236 12.6251 26.0315 13.3224 25.9 14H22C21.7348 14 21.4804 14.1054 21.2929 14.2929C21.1054 14.4805 21 14.7348 21 15V21ZM28 18H23V16H28V18Z" fill="white"/>
</g>
<defs>
<clipPath id="clip0_2_344">
<rect width="32" height="32" fill="white"/>
</clipPath>
</defs>
</svg>
