<svg width="32" height="32" viewBox="0 0 32 32" fill="none" xmlns="http://www.w3.org/2000/svg">
<g clip-path="url(#clip0_2_343)">
<path d="M23.94 9.09C23.8165 7.87483 23.2464 6.74876 22.34 5.93C22.5317 5.86071 22.6976 5.73451 22.8156 5.5683C22.9335 5.40209 22.9979 5.2038 23 5V1C23 0.734784 22.8946 0.48043 22.7071 0.292893C22.5196 0.105357 22.2652 0 22 0L2 0C1.73478 0 1.48043 0.105357 1.29289 0.292893C1.10536 0.48043 1 0.734784 1 1V5C1.00213 5.2038 1.06648 5.40209 1.18444 5.5683C1.3024 5.73451 1.46832 5.86071 1.66 5.93C1.13646 6.39995 0.717994 6.9751 0.431945 7.61785C0.145897 8.2606 -0.00129172 8.95648 8.09982e-07 9.66V22C8.09982e-07 22.2652 0.105358 22.5196 0.292894 22.7071C0.48043 22.8946 0.734784 23 1 23C1.26522 23 1.51957 22.8946 1.70711 22.7071C1.89464 22.5196 2 22.2652 2 22V11H6.76C10.39 11 11.07 13 15.24 13H22V27C22 27.7956 21.6839 28.5587 21.1213 29.1213C20.5587 29.6839 19.7956 30 19 30H5C4.20435 30 3.44129 29.6839 2.87868 29.1213C2.31607 28.5587 2 27.7956 2 27V26C2 25.7348 1.89464 25.4804 1.70711 25.2929C1.51957 25.1054 1.26522 25 1 25C0.734784 25 0.48043 25.1054 0.292894 25.2929C0.105358 25.4804 8.09982e-07 25.7348 8.09982e-07 26V27C8.09982e-07 28.3261 0.526785 29.5979 1.46447 30.5355C2.40215 31.4732 3.67392 32 5 32H19C19.9997 31.999 20.9761 31.6983 21.8032 31.1368C22.6303 30.5753 23.2701 29.7787 23.64 28.85C24.6535 29.0507 25.6988 29.0246 26.701 28.7736C27.7032 28.5225 28.6374 28.0527 29.4366 27.3979C30.2357 26.7431 30.88 25.9195 31.3232 24.9862C31.7664 24.053 31.9975 23.0332 32 22V16C31.9987 14.9919 31.7796 13.996 31.3578 13.0804C30.936 12.1648 30.3214 11.3511 29.5561 10.6949C28.7908 10.0388 27.8927 9.55572 26.9234 9.27872C25.9542 9.00172 24.9365 8.93735 23.94 9.09ZM24 16C24 15.7348 24.1054 15.4804 24.2929 15.2929C24.4804 15.1054 24.7348 15 25 15C25.2652 15 25.5196 15.1054 25.7071 15.2929C25.8946 15.4804 26 15.7348 26 16V22C26 22.2652 25.8946 22.5196 25.7071 22.7071C25.5196 22.8946 25.2652 23 25 23C24.7348 23 24.4804 22.8946 24.2929 22.7071C24.1054 22.5196 24 22.2652 24 22V16ZM3 2H21V4H3V2ZM15.24 11C11.61 11 10.93 9 6.76 9H2.08C2.33 7.87 3 7.42 4.41 6H19.59C22 8.37 22 8.06 22 11H15.24ZM30 22C29.9987 22.7407 29.8328 23.4718 29.5144 24.1405C29.196 24.8093 28.7329 25.3989 28.1588 25.8668C27.5847 26.3348 26.9137 26.6693 26.1945 26.8462C25.4753 27.0232 24.7257 27.0381 24 26.89V24.82C24.4518 24.9797 24.9353 25.0289 25.4101 24.9634C25.8848 24.8979 26.3369 24.7196 26.7286 24.4435C27.1203 24.1674 27.4401 23.8014 27.6613 23.3763C27.8825 22.9512 27.9987 22.4792 28 22V16C27.9987 15.5208 27.8825 15.0488 27.6613 14.6237C27.4401 14.1986 27.1203 13.8326 26.7286 13.5565C26.3369 13.2804 25.8848 13.1021 25.4101 13.0366C24.9353 12.9711 24.4518 13.0203 24 13.18V11.11C24.7257 10.9619 25.4753 10.9768 26.1945 11.1538C26.9137 11.3307 27.5847 11.6652 28.1588 12.1332C28.7329 12.6011 29.196 13.1907 29.5144 13.8595C29.8328 14.5282 29.9987 15.2593 30 16V22Z" fill="white"/>
<path d="M7.99999 23C6.67647 22.9997 5.40705 22.4747 4.46999 21.54C4.37626 21.4471 4.30187 21.3364 4.2511 21.2146C4.20033 21.0927 4.17419 20.962 4.17419 20.83C4.17419 20.698 4.20033 20.5673 4.2511 20.4454C4.30187 20.3236 4.37626 20.213 4.46999 20.12L10.13 14.46C10.223 14.3663 10.3336 14.2919 10.4554 14.2411C10.5773 14.1904 10.708 14.1642 10.84 14.1642C10.972 14.1642 11.1027 14.1904 11.2246 14.2411C11.3464 14.2919 11.457 14.3663 11.55 14.46C12.2517 15.1599 12.7295 16.0525 12.9229 17.0246C13.1162 17.9966 13.0164 19.0041 12.636 19.9193C12.2555 20.8344 11.6117 21.6159 10.7863 22.1644C9.96087 22.7129 8.99105 23.0038 7.99999 23ZM6.70999 20.71C7.26981 20.9774 7.89874 21.0646 8.51019 20.9597C9.12164 20.8548 9.68553 20.5629 10.1242 20.1242C10.5629 19.6856 10.8548 19.1217 10.9597 18.5102C11.0646 17.8988 10.9774 17.2698 10.71 16.71L6.70999 20.71Z" fill="white"/>
<path d="M5.17 21.83C4.97138 21.8311 4.77691 21.7731 4.61139 21.6633C4.44587 21.5535 4.3168 21.3969 4.24063 21.2135C4.16446 21.03 4.14465 20.8281 4.18372 20.6333C4.22279 20.4386 4.31897 20.2599 4.46 20.12L10.12 14.46C10.3083 14.2717 10.5637 14.1659 10.83 14.1659C11.0963 14.1659 11.3517 14.2717 11.54 14.46C11.7283 14.6483 11.8341 14.9037 11.8341 15.17C11.8341 15.4363 11.7283 15.6917 11.54 15.88L5.88 21.54C5.78656 21.6327 5.67574 21.706 5.55391 21.7558C5.43207 21.8055 5.30161 21.8307 5.17 21.83Z" fill="white"/>
<path d="M17 28H13C12.7348 28 12.4804 27.8946 12.2929 27.7071C12.1054 27.5196 12 27.2652 12 27V23C12 22.7348 12.1054 22.4804 12.2929 22.2929C12.4804 22.1054 12.7348 22 13 22H17C17.2652 22 17.5196 22.1054 17.7071 22.2929C17.8946 22.4804 18 22.7348 18 23V27C18 27.2652 17.8946 27.5196 17.7071 27.7071C17.5196 27.8946 17.2652 28 17 28ZM14 26H16V24H14V26Z" fill="white"/>
<path d="M16 19C15.8022 19 15.6089 18.9414 15.4444 18.8315C15.28 18.7216 15.1518 18.5654 15.0761 18.3827C15.0004 18.2 14.9806 17.9989 15.0192 17.8049C15.0578 17.6109 15.153 17.4327 15.2929 17.2929C15.4327 17.153 15.6109 17.0578 15.8049 17.0192C15.9989 16.9806 16.2 17.0004 16.3827 17.0761C16.5654 17.1518 16.7216 17.28 16.8315 17.4444C16.9414 17.6089 17 17.8022 17 18C17 18.2652 16.8946 18.5196 16.7071 18.7071C16.5196 18.8946 16.2652 19 16 19Z" fill="white"/>
<path d="M5 15C4.80222 15 4.60888 14.9414 4.44443 14.8315C4.27998 14.7216 4.15181 14.5654 4.07612 14.3827C4.00043 14.2 3.98063 13.9989 4.01922 13.8049C4.0578 13.6109 4.15304 13.4327 4.29289 13.2929C4.43275 13.153 4.61093 13.0578 4.80491 13.0192C4.99889 12.9806 5.19996 13.0004 5.38268 13.0761C5.56541 13.1518 5.72159 13.28 5.83147 13.4444C5.94135 13.6089 6 13.8022 6 14C6 14.2652 5.89464 14.5196 5.70711 14.7071C5.51957 14.8946 5.26522 15 5 15Z" fill="white"/>
<path d="M5 28C4.80222 28 4.60888 27.9414 4.44443 27.8315C4.27998 27.7216 4.15181 27.5654 4.07612 27.3827C4.00043 27.2 3.98063 26.9989 4.01922 26.8049C4.0578 26.6109 4.15304 26.4327 4.29289 26.2929C4.43275 26.153 4.61093 26.0578 4.80491 26.0192C4.99889 25.9806 5.19996 26.0004 5.38268 26.0761C5.56541 26.1518 5.72159 26.28 5.83147 26.4444C5.94135 26.6089 6 26.8022 6 27C6 27.2652 5.89464 27.5196 5.70711 27.7071C5.51957 27.8946 5.26522 28 5 28Z" fill="white"/>
</g>
<defs>
<clipPath id="clip0_2_343">
<rect width="32" height="32" fill="white"/>
</clipPath>
</defs>
</svg>
