<svg width="32" height="32" viewBox="0 0 32 32" fill="none" xmlns="http://www.w3.org/2000/svg">
<g clip-path="url(#clip0_1_388)">
<path d="M16 24C15.2089 24 14.4355 23.7654 13.7777 23.3259C13.1199 22.8864 12.6072 22.2616 12.3045 21.5307C12.0017 20.7998 11.9225 19.9956 12.0769 19.2196C12.2312 18.4437 12.6122 17.731 13.1716 17.1716C13.731 16.6122 14.4437 16.2312 15.2196 16.0769C15.9956 15.9225 16.7998 16.0017 17.5307 16.3045C18.2616 16.6072 18.8864 17.1199 19.3259 17.7777C19.7654 18.4355 20 19.2089 20 20C20 21.0609 19.5786 22.0783 18.8284 22.8284C18.0783 23.5786 17.0609 24 16 24ZM16 18C15.6044 18 15.2178 18.1173 14.8889 18.3371C14.56 18.5568 14.3036 18.8692 14.1522 19.2346C14.0009 19.6001 13.9613 20.0022 14.0384 20.3902C14.1156 20.7781 14.3061 21.1345 14.5858 21.4142C14.8655 21.6939 15.2219 21.8844 15.6098 21.9616C15.9978 22.0387 16.3999 21.9991 16.7654 21.8478C17.1308 21.6964 17.4432 21.44 17.6629 21.1111C17.8827 20.7822 18 20.3956 18 20C18 19.4696 17.7893 18.9609 17.4142 18.5858C17.0391 18.2107 16.5304 18 16 18Z" fill="#22BB9B"/>
<path d="M16 17C15.7348 17 15.4804 16.8946 15.2929 16.7071C15.1054 16.5196 15 16.2652 15 16V15.41C15.0002 14.2403 15.4641 13.1183 16.29 12.29C16.4783 12.1017 16.7337 11.9959 17 11.9959C17.2663 11.9959 17.5217 12.1017 17.71 12.29C17.8983 12.4783 18.0041 12.7337 18.0041 13C18.0041 13.2663 17.8983 13.5217 17.71 13.71C17.4842 13.9316 17.305 14.1962 17.1831 14.4882C17.0611 14.7802 16.9989 15.0936 17 15.41V16C17 16.2652 16.8946 16.5196 16.7071 16.7071C16.5196 16.8946 16.2652 17 16 17Z" fill="#22BB9B"/>
<path d="M16 18H14C12.9391 18 11.9217 17.5786 11.1716 16.8284C10.4214 16.0783 10 15.0609 10 14V13C10 12.7348 10.1054 12.4804 10.2929 12.2929C10.4804 12.1054 10.7348 12 11 12H13C14.0609 12 15.0783 12.4214 15.8284 13.1716C16.5786 13.9217 17 14.9391 17 16V17C17 17.2652 16.8946 17.5196 16.7071 17.7071C16.5196 17.8946 16.2652 18 16 18ZM12 14C12 14.5304 12.2107 15.0391 12.5858 15.4142C12.9609 15.7893 13.4696 16 14 16H15C15 15.4696 14.7893 14.9609 14.4142 14.5858C14.0391 14.2107 13.5304 14 13 14H12Z" fill="#22BB9B"/>
<path d="M23 18C22.8022 18 22.6089 17.9414 22.4444 17.8315C22.28 17.7216 22.1518 17.5654 22.0761 17.3827C22.0004 17.2 21.9806 16.9989 22.0192 16.8049C22.0578 16.6109 22.153 16.4327 22.2929 16.2929C22.4327 16.153 22.6109 16.0578 22.8049 16.0192C22.9989 15.9806 23.2 16.0004 23.3827 16.0761C23.5654 16.1518 23.7216 16.28 23.8315 16.4444C23.9414 16.6089 24 16.8022 24 17C24 17.2652 23.8946 17.5196 23.7071 17.7071C23.5196 17.8946 23.2652 18 23 18Z" fill="#22BB9B"/>
<path d="M23 14C22.8022 14 22.6089 13.9414 22.4444 13.8315C22.28 13.7216 22.1518 13.5654 22.0761 13.3827C22.0004 13.2 21.9806 12.9989 22.0192 12.8049C22.0578 12.6109 22.153 12.4327 22.2929 12.2929C22.4327 12.153 22.6109 12.0578 22.8049 12.0192C22.9989 11.9806 23.2 12.0004 23.3827 12.0761C23.5654 12.1518 23.7216 12.28 23.8315 12.4444C23.9414 12.6089 24 12.8022 24 13C24 13.2652 23.8946 13.5196 23.7071 13.7071C23.5196 13.8946 23.2652 14 23 14Z" fill="#22BB9B"/>
<path d="M9 24C8.80222 24 8.60888 23.9414 8.44443 23.8315C8.27998 23.7216 8.15181 23.5654 8.07612 23.3827C8.00043 23.2 7.98063 22.9989 8.01922 22.8049C8.0578 22.6109 8.15304 22.4327 8.29289 22.2929C8.43275 22.153 8.61093 22.0578 8.80491 22.0192C8.99889 21.9806 9.19996 22.0004 9.38268 22.0761C9.56541 22.1518 9.72159 22.28 9.83147 22.4444C9.94135 22.6089 10 22.8022 10 23C10 23.2652 9.89464 23.5196 9.70711 23.7071C9.51957 23.8946 9.26522 24 9 24Z" fill="#22BB9B"/>
<path d="M29 4.92428e-09H25.56C24.8913 -3.82922e-05 24.2418 0.223307 23.7146 0.634572C23.1874 1.04584 22.8127 1.62145 22.65 2.27L22.22 4H7C6.20435 4 5.44129 4.31607 4.87868 4.87868C4.31607 5.44129 4 6.20435 4 7V29C4 29.7956 4.31607 30.5587 4.87868 31.1213C5.44129 31.6839 6.20435 32 7 32H25C25.7956 32 26.5587 31.6839 27.1213 31.1213C27.6839 30.5587 28 29.7956 28 29V27C28 26.7348 27.8946 26.4804 27.7071 26.2929C27.5196 26.1054 27.2652 26 27 26H6V10H26V23C26 23.2652 26.1054 23.5196 26.2929 23.7071C26.4804 23.8946 26.7348 24 27 24C27.2652 24 27.5196 23.8946 27.7071 23.7071C27.8946 23.5196 28 23.2652 28 23V7C28 6.20435 27.6839 5.44129 27.1213 4.87868C26.5587 4.31607 25.7956 4 25 4H24.28L24.59 2.76C24.6448 2.53812 24.7738 2.34169 24.9558 2.20341C25.1377 2.06513 25.3616 1.99334 25.59 2H29C29.2652 2 29.5196 1.89464 29.7071 1.70711C29.8946 1.51957 30 1.26522 30 1C30 0.734784 29.8946 0.48043 29.7071 0.292893C29.5196 0.105357 29.2652 4.92428e-09 29 4.92428e-09ZM26 28V29C26 29.2652 25.8946 29.5196 25.7071 29.7071C25.5196 29.8946 25.2652 30 25 30H7C6.73478 30 6.48043 29.8946 6.29289 29.7071C6.10536 29.5196 6 29.2652 6 29V28H26ZM26 7V8H6V7C6 6.73478 6.10536 6.48043 6.29289 6.29289C6.48043 6.10536 6.73478 6 7 6H25C25.2652 6 25.5196 6.10536 25.7071 6.29289C25.8946 6.48043 26 6.73478 26 7Z" fill="#08221D"/>
</g>
<defs>
<clipPath id="clip0_1_388">
<rect width="32" height="32" fill="white"/>
</clipPath>
</defs>
</svg>
