<svg width="32" height="32" viewBox="0 0 32 32" fill="none" xmlns="http://www.w3.org/2000/svg">
<g clip-path="url(#clip0_1_411)">
<path d="M14.8 6C14.6403 6.00691 14.4812 5.97543 14.3362 5.9082C14.1912 5.84097 14.0643 5.73995 13.9664 5.6136C13.8685 5.48725 13.8022 5.33926 13.7733 5.18204C13.7443 5.02482 13.7535 4.86295 13.8 4.71L15 0.709997C15.0642 0.49742 15.1973 0.312256 15.3784 0.183702C15.5594 0.0551475 15.7781 -0.00948446 16 -3.13023e-06H24C24.2652 -3.13023e-06 24.5196 0.105354 24.7071 0.29289C24.8946 0.480426 25 0.73478 25 0.999997C25 1.26521 24.8946 1.51957 24.7071 1.7071C24.5196 1.89464 24.2652 2 24 2H16.74L15.74 5.29C15.6786 5.4926 15.5546 5.67051 15.3856 5.7981C15.2167 5.92569 15.0117 5.99638 14.8 6Z" fill="#22BB9B"/>
<path d="M10 22C9.8403 22.0069 9.68125 21.9754 9.53621 21.9082C9.39117 21.841 9.26436 21.7399 9.16642 21.6136C9.06847 21.4872 9.00225 21.3393 8.97329 21.182C8.94434 21.0248 8.9535 20.8629 9.00001 20.71L12.6 8.70999C12.6769 8.45539 12.8518 8.24176 13.0863 8.11611C13.2023 8.05389 13.3295 8.01515 13.4606 8.00209C13.5916 7.98903 13.7239 8.00191 13.85 8.03999C13.9761 8.07808 14.0934 8.14062 14.1953 8.22405C14.2972 8.30748 14.3817 8.41016 14.4439 8.52623C14.5061 8.6423 14.5449 8.7695 14.5579 8.90054C14.571 9.03159 14.5581 9.16392 14.52 9.28999L10.92 21.29C10.8597 21.4894 10.7387 21.6651 10.5737 21.7923C10.4088 21.9196 10.2082 21.9922 10 22Z" fill="#22BB9B"/>
<path d="M23.84 11.65C23.5691 11.003 23.209 10.3971 22.77 9.85C23.1349 9.69777 23.4466 9.44077 23.6655 9.11149C23.8844 8.78221 24.0008 8.39542 24 8V6C24 5.46957 23.7893 4.96086 23.4142 4.58579C23.0391 4.21071 22.5304 4 22 4H4C3.46957 4 2.96086 4.21071 2.58579 4.58579C2.21072 4.96086 2 5.46957 2 6V8C1.99918 8.39542 2.11559 8.78221 2.33452 9.11149C2.55344 9.44077 2.86507 9.69777 3.23 9.85C2.54 10.88 2 11.49 2 12.61V22C2 22.2652 2.10536 22.5196 2.2929 22.7071C2.48043 22.8946 2.73479 23 3 23C3.26522 23 3.51957 22.8946 3.70711 22.7071C3.89465 22.5196 4 22.2652 4 22V15C8.71 15 10.29 14.76 12.55 15.89C14.0057 16.6197 15.6116 16.9997 17.24 17H22V29C22 29.2652 21.8946 29.5196 21.7071 29.7071C21.5196 29.8946 21.2652 30 21 30H5C4.73479 30 4.48043 29.8946 4.2929 29.7071C4.10536 29.5196 4 29.2652 4 29V26C4 25.7348 3.89465 25.4804 3.70711 25.2929C3.51957 25.1054 3.26522 25 3 25C2.73479 25 2.48043 25.1054 2.2929 25.2929C2.10536 25.4804 2 25.7348 2 26V29C2 29.7956 2.31607 30.5587 2.87868 31.1213C3.44129 31.6839 4.20435 32 5 32H21C21.7957 32 22.5587 31.6839 23.1213 31.1213C23.6839 30.5587 24 29.7956 24 29V26.44C24.6063 26.7901 25.2939 26.9749 25.994 26.9759C26.6941 26.977 27.3822 26.7943 27.9896 26.4461C28.597 26.0978 29.1023 25.5963 29.4551 24.9916C29.8079 24.3868 29.9958 23.7001 30 23V15C29.997 14.2834 29.8016 13.5807 29.4341 12.9655C29.0666 12.3502 28.5406 11.845 27.911 11.5027C27.2815 11.1603 26.5715 10.9933 25.8554 11.0193C25.1392 11.0452 24.4432 11.263 23.84 11.65ZM4 6H22V8H4V6ZM17.24 15C13.62 15 12.92 13 8.76 13H4C4 12.12 3.82 12.57 5.54 10H20.46L21.83 12.05C22.06 12.39 22 12.42 22 15H17.24ZM28 23C28 23.5304 27.7893 24.0391 27.4142 24.4142C27.0391 24.7893 26.5304 25 26 25C25.4696 25 24.9609 24.7893 24.5858 24.4142C24.2107 24.0391 24 23.5304 24 23V15C24 14.4696 24.2107 13.9609 24.5858 13.5858C24.9609 13.2107 25.4696 13 26 13C26.5304 13 27.0391 13.2107 27.4142 13.5858C27.7893 13.9609 28 14.4696 28 15V23Z" fill="#08221D"/>
<path d="M20 25C20 24.8022 19.9414 24.6089 19.8315 24.4444C19.7216 24.28 19.5654 24.1518 19.3827 24.0761C19.2 24.0004 18.9989 23.9806 18.8049 24.0192C18.6109 24.0578 18.4327 24.153 18.2929 24.2929C18.153 24.4327 18.0578 24.6109 18.0192 24.8049C17.9806 24.9989 18.0004 25.2 18.0761 25.3827C18.1518 25.5654 18.28 25.7216 18.4444 25.8315C18.6089 25.9414 18.8022 26 19 26C19.2652 26 19.5196 25.8946 19.7071 25.7071C19.8946 25.5196 20 25.2652 20 25Z" fill="#08221D"/>
<path d="M16 21C16 20.8022 15.9414 20.6089 15.8315 20.4444C15.7216 20.28 15.5654 20.1518 15.3827 20.0761C15.2 20.0004 14.9989 19.9806 14.8049 20.0192C14.6109 20.0578 14.4327 20.153 14.2929 20.2929C14.153 20.4327 14.0578 20.6109 14.0192 20.8049C13.9806 20.9989 14.0004 21.2 14.0761 21.3827C14.1518 21.5654 14.28 21.7216 14.4444 21.8315C14.6089 21.9414 14.8022 22 15 22C15.2652 22 15.5196 21.8946 15.7071 21.7071C15.8946 21.5196 16 21.2652 16 21Z" fill="#08221D"/>
<path d="M12 27C12 26.8022 11.9414 26.6089 11.8315 26.4444C11.7216 26.28 11.5654 26.1518 11.3827 26.0761C11.2 26.0004 10.9989 25.9806 10.8049 26.0192C10.6109 26.0578 10.4327 26.153 10.2929 26.2929C10.153 26.4327 10.0578 26.6109 10.0192 26.8049C9.98063 26.9989 10.0004 27.2 10.0761 27.3827C10.1518 27.5654 10.28 27.7216 10.4444 27.8315C10.6089 27.9414 10.8022 28 11 28C11.2652 28 11.5196 27.8946 11.7071 27.7071C11.8946 27.5196 12 27.2652 12 27Z" fill="#08221D"/>
</g>
<defs>
<clipPath id="clip0_1_411">
<rect width="32" height="32" fill="white"/>
</clipPath>
</defs>
</svg>
