<svg width="32" height="32" viewBox="0 0 32 32" fill="none" xmlns="http://www.w3.org/2000/svg">
<g clip-path="url(#clip0_1_377)">
<path d="M25.52 3C23.38 3 22.24 3.89 20.29 5.06L21.91 1.41C21.9784 1.25787 22.0076 1.09105 21.9951 0.924735C21.9825 0.758415 21.9286 0.597877 21.8381 0.457736C21.7477 0.317596 21.6236 0.202304 21.4772 0.122357C21.3309 0.0424107 21.1668 0.000348824 21 1.13765e-06H2.00001C1.81834 -0.000272849 1.64003 0.0489475 1.48423 0.142376C1.32842 0.235805 1.20101 0.369911 1.11568 0.530293C1.03035 0.690675 0.990322 0.871273 0.999894 1.05269C1.00947 1.23411 1.06828 1.40949 1.17001 1.56L4.13001 6H3.00001C2.7348 6 2.48044 6.10536 2.29291 6.29289C2.10537 6.48043 2.00001 6.73478 2.00001 7C2.00001 7.26522 2.10537 7.51957 2.29291 7.70711C2.48044 7.89464 2.7348 8 3.00001 8H4.63001C4.54995 8.71502 4.22904 9.38153 3.72001 9.89C2.50729 11.1255 1.55354 12.5907 0.914738 14.1997C0.275934 15.8087 -0.035057 17.5292 1.2832e-05 19.26C0.200013 29.16 11.51 35.6 20.19 29.83C20.4092 29.6834 20.5616 29.4561 20.6141 29.1976C20.6665 28.9392 20.6147 28.6705 20.47 28.45C20.3974 28.3401 20.3037 28.2456 20.1944 28.172C20.0851 28.0984 19.9624 28.0471 19.8332 28.0211C19.7041 27.995 19.571 27.9948 19.4418 28.0204C19.3125 28.0459 19.1896 28.0968 19.08 28.17C11.74 33.05 2.17001 27.59 2.00001 19.17C1.9553 16.5555 2.84939 14.0116 4.52001 12H6.84001C12.15 12 13.43 14 19.16 14H22.79C23.7106 15.7981 24.1182 17.8149 23.9683 19.8293C23.8183 21.8438 23.1166 23.778 21.94 25.42C21.8125 25.6353 21.7703 25.8906 21.8218 26.1354C21.8734 26.3803 22.0148 26.597 22.2182 26.7426C22.4217 26.8883 22.6724 26.9524 22.9208 26.9223C23.1692 26.8922 23.3973 26.7701 23.56 26.58C25.0102 24.5718 25.852 22.1887 25.9849 19.7152C26.1179 17.2417 25.5365 14.7821 24.31 12.63C24.31 12.63 24.31 12.63 24.31 12.56C23.4928 11.1228 22.4103 9.85369 21.12 8.82C20.6849 8.47041 20.3559 8.00635 20.17 7.48C23.28 5.6 24 5 25.52 5C26.7074 5.00264 27.8453 5.47549 28.6849 6.31508C29.5245 7.15467 29.9974 8.29264 30 9.48V19C30 19.2652 30.1054 19.5196 30.2929 19.7071C30.4804 19.8946 30.7348 20 31 20C31.2652 20 31.5196 19.8946 31.7071 19.7071C31.8947 19.5196 32 19.2652 32 19V9.48C31.9974 7.76221 31.3138 6.11553 30.0991 4.90087C28.8845 3.68621 27.2378 3.00265 25.52 3ZM3.87001 2H19.46C18.3 4.62 18.07 5 18 6H6.35001C6.00001 5.14 5.94001 5.11 3.87001 2ZM21.48 12C18.56 12 16.48 12.11 13.32 11.05C10.9835 10.2779 8.52953 9.92253 6.07001 10C6.39687 9.38078 6.58779 8.69892 6.63001 8H18.21C18.88 10.06 20 10.18 21.48 12Z" fill="#08221D"/>
<path d="M8.00002 23C6.6765 22.9997 5.40708 22.4747 4.47002 21.54C4.37629 21.447 4.3019 21.3364 4.25113 21.2146C4.20036 21.0927 4.17422 20.962 4.17422 20.83C4.17422 20.698 4.20036 20.5673 4.25113 20.4454C4.3019 20.3236 4.37629 20.213 4.47002 20.12L10.13 14.46C10.223 14.3663 10.3336 14.2919 10.4554 14.2411C10.5773 14.1903 10.708 14.1642 10.84 14.1642C10.972 14.1642 11.1027 14.1903 11.2246 14.2411C11.3465 14.2919 11.4571 14.3663 11.55 14.46C12.2517 15.1599 12.7296 16.0525 12.9229 17.0245C13.1163 17.9966 13.0164 19.0041 12.636 19.9193C12.2556 20.8344 11.6118 21.6159 10.7863 22.1644C9.9609 22.7129 8.99108 23.0038 8.00002 23ZM6.71002 20.71C7.26984 20.9774 7.89877 21.0646 8.51022 20.9597C9.12167 20.8548 9.68556 20.5629 10.1242 20.1242C10.5629 19.6855 10.8548 19.1216 10.9597 18.5102C11.0646 17.8987 10.9774 17.2698 10.71 16.71L6.71002 20.71Z" fill="#22BB9B"/>
<path d="M19 26H15C14.7348 26 14.4804 25.8946 14.2929 25.7071C14.1054 25.5196 14 25.2652 14 25V21C14 20.7348 14.1054 20.4804 14.2929 20.2929C14.4804 20.1054 14.7348 20 15 20H19C19.2652 20 19.5196 20.1054 19.7071 20.2929C19.8946 20.4804 20 20.7348 20 21V25C20 25.2652 19.8946 25.5196 19.7071 25.7071C19.5196 25.8946 19.2652 26 19 26ZM16 24H18V22H16V24Z" fill="#22BB9B"/>
<path d="M12 28C11.8022 28 11.6089 27.9414 11.4444 27.8315C11.28 27.7216 11.1518 27.5654 11.0761 27.3827C11.0004 27.2 10.9806 26.9989 11.0192 26.8049C11.0578 26.6109 11.153 26.4327 11.2929 26.2929C11.4327 26.153 11.6109 26.0578 11.8049 26.0192C11.9989 25.9806 12.2 26.0004 12.3827 26.0761C12.5654 26.1518 12.7216 26.28 12.8315 26.4444C12.9414 26.6089 13 26.8022 13 27C13 27.2652 12.8946 27.5196 12.7071 27.7071C12.5196 27.8946 12.2652 28 12 28Z" fill="#08221D"/>
<path d="M21 18C20.8022 18 20.6089 17.9414 20.4444 17.8315C20.28 17.7216 20.1518 17.5654 20.0761 17.3827C20.0004 17.2 19.9806 16.9989 20.0192 16.8049C20.0578 16.6109 20.153 16.4327 20.2929 16.2929C20.4327 16.153 20.6109 16.0578 20.8049 16.0192C20.9989 15.9806 21.2 16.0004 21.3827 16.0761C21.5654 16.1518 21.7216 16.28 21.8315 16.4444C21.9414 16.6089 22 16.8022 22 17C22 17.2652 21.8946 17.5196 21.7071 17.7071C21.5196 17.8946 21.2652 18 21 18Z" fill="#08221D"/>
</g>
<defs>
<clipPath id="clip0_1_377">
<rect width="32" height="32" fill="white"/>
</clipPath>
</defs>
</svg>
