<svg width="32" height="32" viewBox="0 0 32 32" fill="none" xmlns="http://www.w3.org/2000/svg">
<g clip-path="url(#clip0_1_376)">
<path d="M20 24C19.7348 24 19.4804 23.8946 19.2929 23.7071C19.1054 23.5196 19 23.2652 19 23C19 22.7348 19.1054 22.4804 19.2929 22.2929C19.4804 22.1054 19.7348 22 20 22C22.1217 22 24.1566 21.1571 25.6569 19.6569C27.1571 18.1566 28 16.1217 28 14C28 11.8783 27.1571 9.84344 25.6569 8.34315C24.1566 6.84285 22.1217 6 20 6C19.7348 6 19.4804 5.89464 19.2929 5.70711C19.1054 5.51957 19 5.26522 19 5C19 4.73478 19.1054 4.48043 19.2929 4.29289C19.4804 4.10536 19.7348 4 20 4C22.6522 4 25.1957 5.05357 27.0711 6.92893C28.9464 8.8043 30 11.3478 30 14C30 16.6522 28.9464 19.1957 27.0711 21.0711C25.1957 22.9464 22.6522 24 20 24Z" fill="#22BB9B"/>
<path d="M20 18C18.1435 18 16.363 17.2625 15.0503 15.9497C13.7375 14.637 13 12.8565 13 11C13 9.14348 13.7375 7.36301 15.0503 6.05025C16.363 4.7375 18.1435 4 20 4C20.2652 4 20.5196 4.10536 20.7071 4.29289C20.8946 4.48043 21 4.73478 21 5C21 5.26522 20.8946 5.51957 20.7071 5.70711C20.5196 5.89464 20.2652 6 20 6C18.6739 6 17.4021 6.52678 16.4645 7.46447C15.5268 8.40215 15 9.67392 15 11C15 12.3261 15.5268 13.5979 16.4645 14.5355C17.4021 15.4732 18.6739 16 20 16C20.2652 16 20.5196 16.1054 20.7071 16.2929C20.8946 16.4804 21 16.7348 21 17C21 17.2652 20.8946 17.5196 20.7071 17.7071C20.5196 17.8946 20.2652 18 20 18Z" fill="#22BB9B"/>
<path d="M20 18C19.7348 18 19.4804 17.8946 19.2929 17.7071C19.1054 17.5196 19 17.2652 19 17C19 16.7348 19.1054 16.4804 19.2929 16.2929C19.4804 16.1054 19.7348 16 20 16C20.7956 16 21.5587 15.6839 22.1213 15.1213C22.6839 14.5587 23 13.7956 23 13C23 12.2044 22.6839 11.4413 22.1213 10.8787C21.5587 10.3161 20.7956 10 20 10C19.7348 10 19.4804 9.89464 19.2929 9.70711C19.1054 9.51957 19 9.26522 19 9C19 8.73478 19.1054 8.48043 19.2929 8.29289C19.4804 8.10536 19.7348 8 20 8C21.3261 8 22.5979 8.52678 23.5355 9.46447C24.4732 10.4021 25 11.6739 25 13C25 14.3261 24.4732 15.5979 23.5355 16.5355C22.5979 17.4732 21.3261 18 20 18Z" fill="#22BB9B"/>
<path d="M20 -3.3313e-06C18.366 0.00263953 16.7496 0.337292 15.2489 0.983641C13.7482 1.62999 12.3945 2.57455 11.27 3.76C11.087 3.9536 10.9884 4.21198 10.9959 4.47828C11.0034 4.74458 11.1164 4.997 11.31 5.18C11.5036 5.363 11.762 5.46159 12.0283 5.45409C12.2946 5.44659 12.547 5.3336 12.73 5.14C14.4409 3.33615 16.7625 2.23432 19.2418 2.04942C21.7211 1.86452 24.1803 2.60981 26.1399 4.13992C28.0995 5.67003 29.4188 7.87522 29.8405 10.3254C30.2623 12.7755 29.7562 15.2949 28.421 17.3922C27.0858 19.4894 25.0173 21.0141 22.6188 21.6688C20.2204 22.3235 17.6641 22.0613 15.4485 20.9333C13.2329 19.8053 11.517 17.8924 10.6353 15.5678C9.7537 13.2432 9.76963 10.6735 10.68 8.36C10.739 8.23574 10.7718 8.10064 10.7763 7.96314C10.7807 7.82564 10.7567 7.6887 10.7058 7.56089C10.6549 7.43308 10.5782 7.31715 10.4805 7.22034C10.3827 7.12353 10.2661 7.04793 10.1378 6.99827C10.0095 6.94861 9.87231 6.92595 9.73486 6.93171C9.59741 6.93748 9.46263 6.97154 9.33895 7.03178C9.21526 7.09201 9.10534 7.17711 9.01604 7.28177C8.92675 7.38642 8.86001 7.50837 8.82 7.64C8.17292 9.31861 7.91155 11.1212 8.05522 12.9145C8.19889 14.7078 8.74393 16.4458 9.65 18C8.98081 18.0628 8.33823 18.2933 7.78163 18.6701C7.22503 19.0468 6.77235 19.5578 6.4654 20.1558C6.15845 20.7537 6.00713 21.4194 6.02541 22.0913C6.04369 22.7632 6.23099 23.4196 6.57 24L0.290002 30.29C0.101699 30.4783 -0.00408936 30.7337 -0.00408936 31C-0.00408936 31.2663 0.101699 31.5217 0.290002 31.71C0.478306 31.8983 0.733701 32.0041 1 32.0041C1.2663 32.0041 1.5217 31.8983 1.71 31.71L8 25.43C8.58038 25.769 9.23683 25.9563 9.90872 25.9746C10.5806 25.9929 11.2463 25.8415 11.8442 25.5346C12.4422 25.2276 12.9532 24.775 13.3299 24.2184C13.7067 23.6618 13.9372 23.0192 14 22.35C15.5933 23.2847 17.3808 23.839 19.2235 23.9697C21.0661 24.1004 22.914 23.8039 24.6232 23.1034C26.3325 22.4028 27.8569 21.3171 29.0778 19.9308C30.2987 18.5446 31.183 16.8952 31.662 15.1111C32.1409 13.327 32.2015 11.4565 31.839 9.64514C31.4766 7.83382 30.7008 6.13062 29.5722 4.66824C28.4436 3.20585 26.9927 2.02376 25.3324 1.21405C23.672 0.404338 21.8472 -0.011135 20 -3.3313e-06ZM10 24C9.6705 24.0014 9.34575 23.9213 9.05464 23.767C8.76353 23.6126 8.51507 23.3887 8.33135 23.1152C8.14762 22.8416 8.03433 22.5269 8.00153 22.1991C7.96874 21.8712 8.01746 21.5403 8.14337 21.2358C8.26928 20.9313 8.46848 20.6626 8.72325 20.4536C8.97802 20.2447 9.28047 20.1019 9.60372 20.038C9.92698 19.9741 10.261 19.991 10.5761 20.0873C10.8913 20.1836 11.1777 20.3563 11.41 20.59C11.688 20.8697 11.8772 21.2253 11.9536 21.6121C12.0301 21.999 11.9905 22.3998 11.8398 22.7642C11.6892 23.1287 11.4341 23.4404 11.1067 23.6603C10.7794 23.8801 10.3943 23.9983 10 24Z" fill="#08221D"/>
</g>
<defs>
<clipPath id="clip0_1_376">
<rect width="32" height="32" fill="white"/>
</clipPath>
</defs>
</svg>
