<svg width="32" height="32" viewBox="0 0 32 32" fill="none" xmlns="http://www.w3.org/2000/svg">
<g clip-path="url(#clip0_1_385)">
<path d="M20 16C19.8395 15.9999 19.6813 15.9612 19.5389 15.8871C19.3965 15.813 19.274 15.7057 19.1818 15.5743C19.0896 15.4429 19.0304 15.2912 19.0092 15.132C18.988 14.9729 19.0054 14.811 19.06 14.66L23.58 2C23.7869 1.41484 24.1702 0.908257 24.677 0.550056C25.1839 0.191856 25.7894 -0.00032496 26.41 4.12473e-07H31C31.2652 4.12473e-07 31.5196 0.105357 31.7071 0.292894C31.8946 0.48043 32 0.734784 32 1C32 1.26522 31.8946 1.51957 31.7071 1.70711C31.5196 1.89464 31.2652 2 31 2H26.41C26.2045 2.00009 26.004 2.06349 25.8358 2.18159C25.6676 2.29968 25.5399 2.46673 25.47 2.66L20.94 15.34C20.8701 15.5333 20.7424 15.7003 20.5742 15.8184C20.406 15.9365 20.2055 15.9999 20 16Z" fill="#22BB9B"/>
<path d="M30 6H14.92C14.7197 4.60908 14.1053 3.31065 13.1569 2.27368C12.2085 1.2367 10.9699 0.509188 9.60238 0.185796C8.23482 -0.137596 6.80159 -0.0418924 5.48917 0.460455C4.17676 0.962803 3.04592 1.84854 2.2438 3.0024C1.44169 4.15627 1.00544 5.52484 0.991815 6.93005C0.97819 8.33526 1.38782 9.71203 2.16741 10.8812C2.947 12.0504 4.06045 12.9579 5.36288 13.4856C6.66531 14.0133 8.09642 14.1368 9.46999 13.84C10.0125 15.4692 11.0096 16.9091 12.3439 17.99C13.6781 19.0709 15.2937 19.7475 17 19.94V26.52L12.38 30.22C12.2188 30.3493 12.1017 30.5253 12.0446 30.7239C11.9876 30.9225 11.9934 31.1338 12.0614 31.3289C12.1294 31.5241 12.2561 31.6933 12.4241 31.8135C12.5922 31.9337 12.7934 31.9988 13 32H23C23.2066 31.9988 23.4078 31.9337 23.5758 31.8135C23.7439 31.6933 23.8706 31.5241 23.9386 31.3289C24.0065 31.1338 24.0124 30.9225 23.9554 30.7239C23.8983 30.5253 23.7811 30.3493 23.62 30.22L19 26.52V19.94C20.8532 19.7452 22.6002 18.98 24 17.75C24.1051 17.6653 24.192 17.5602 24.2554 17.4411C24.3189 17.3219 24.3575 17.1911 24.3691 17.0566C24.3806 16.9221 24.3648 16.7867 24.3226 16.6585C24.2803 16.5303 24.2126 16.4119 24.1234 16.3106C24.0342 16.2092 23.9255 16.127 23.8037 16.0688C23.6818 16.0106 23.5495 15.9777 23.4146 15.9721C23.2798 15.9664 23.1451 15.9881 23.0189 16.0359C22.8926 16.0837 22.7773 16.1565 22.68 16.25C21.7343 17.096 20.5764 17.6691 19.3301 17.9079C18.0839 18.1466 16.7962 18.0422 15.6047 17.6057C14.4133 17.1691 13.3629 16.417 12.5659 15.4296C11.7689 14.4422 11.2553 13.2567 11.08 12H15.59C16.2279 12.0044 16.8385 12.2594 17.29 12.71C18.1202 13.5331 19.2409 13.9965 20.41 14C25.85 14 26.2 14.16 26.59 13.51C26.7972 13.0001 26.9189 12.4595 26.95 11.91C28.0902 11.6893 29.1181 11.0786 29.8571 10.1826C30.5962 9.28669 31.0002 8.16141 31 7C31 6.73478 30.8946 6.48043 30.7071 6.29289C30.5196 6.10535 30.2652 6 30 6ZM20.15 30H15.85L18 28.28L20.15 30ZM2.99999 7C2.99874 5.76005 3.45827 4.56386 4.28936 3.64366C5.12045 2.72346 6.26382 2.1449 7.49749 2.02029C8.73117 1.89567 9.96714 2.2339 10.9655 2.96931C11.9638 3.70472 12.6532 4.78484 12.9 6H5.99999C5.73477 6 5.48042 6.10535 5.29288 6.29289C5.10535 6.48043 4.99999 6.73478 4.99999 7C5.00206 8.15093 5.40112 9.26592 6.12984 10.1568C6.85856 11.0476 7.8723 11.6598 8.99999 11.89C8.27428 12.0381 7.52472 12.0232 6.80549 11.8462C6.08626 11.6693 5.41533 11.3348 4.84118 10.8668C4.26704 10.3989 3.80402 9.80927 3.48561 9.14054C3.16719 8.4718 3.00132 7.74067 2.99999 7ZM26 10C25.7348 10 25.4804 10.1054 25.2929 10.2929C25.1053 10.4804 25 10.7348 25 11C24.9986 11.3349 24.9719 11.6692 24.92 12H20.41C19.7721 11.9956 19.1615 11.7406 18.71 11.29C17.8798 10.4669 16.7591 10.0035 15.59 10H9.99999C9.37934 10.0003 8.77386 9.80814 8.26701 9.44994C7.76015 9.09174 7.37687 8.58515 7.16999 8H28.83C28.6231 8.58515 28.2398 9.09174 27.733 9.44994C27.2261 9.80814 26.6206 10.0003 26 10Z" fill="#08221D"/>
</g>
<defs>
<clipPath id="clip0_1_385">
<rect width="32" height="32" fill="white"/>
</clipPath>
</defs>
</svg>
