<svg width="32" height="32" viewBox="0 0 32 32" fill="none" xmlns="http://www.w3.org/2000/svg">
<g clip-path="url(#clip0_1_383)">
<path d="M18.05 5.82C17.8958 5.82452 17.7426 5.79331 17.6025 5.72881C17.4624 5.66431 17.3391 5.56826 17.2422 5.44818C17.1454 5.3281 17.0776 5.18725 17.0443 5.03663C17.0109 4.88602 17.0129 4.72973 17.05 4.58L17.62 2.28C17.782 1.62457 18.1603 1.04296 18.6938 0.629211C19.2274 0.215463 19.8848 -0.00622478 20.56 -2.18795e-06H24C24.2652 -2.18795e-06 24.5195 0.105355 24.7071 0.292891C24.8946 0.480427 25 0.734781 25 0.999998C25 1.26521 24.8946 1.51957 24.7071 1.7071C24.5195 1.89464 24.2652 2 24 2H20.56C20.3315 1.99334 20.1077 2.06513 19.9258 2.20341C19.7438 2.34169 19.6147 2.53812 19.56 2.76L19 5.06C18.9472 5.27352 18.8256 5.46369 18.6538 5.60108C18.4821 5.73847 18.2698 5.81542 18.05 5.82Z" fill="#08221D"/>
<path d="M22 10H10C9.73479 10 9.48043 9.89465 9.2929 9.70711C9.10536 9.51957 9 9.26522 9 9V7C8.99892 6.30247 9.24094 5.62636 9.68444 5.08796C10.1279 4.54956 10.7452 4.18253 11.43 4.05L13.17 1.45C13.2615 1.31388 13.385 1.20234 13.5298 1.12522C13.6745 1.0481 13.836 1.00777 14 1.00777C14.164 1.00777 14.3255 1.0481 14.4702 1.12522C14.615 1.20234 14.7385 1.31388 14.83 1.45C15.3559 2.23509 16.0671 2.87847 16.9009 3.32324C17.7346 3.76801 18.6651 4.00045 19.61 4H20C20.7957 4 21.5587 4.31607 22.1213 4.87868C22.6839 5.44129 23 6.20435 23 7V9C23 9.26522 22.8946 9.51957 22.7071 9.70711C22.5196 9.89465 22.2652 10 22 10ZM11 8H21V7C21 6.73479 20.8946 6.48043 20.7071 6.2929C20.5196 6.10536 20.2652 6 20 6H19.61C18.5802 6.00116 17.5605 5.79653 16.6109 5.39813C15.6612 4.99972 14.8007 4.41558 14.08 3.68L12.83 5.55C12.7394 5.68756 12.6163 5.80062 12.4715 5.87912C12.3267 5.95763 12.1647 5.99915 12 6C11.7348 6 11.4804 6.10536 11.2929 6.2929C11.1054 6.48043 11 6.73479 11 7V8Z" fill="#22BB9B"/>
<path d="M24 8H7.99999C7.73477 8.00796 7.48358 8.12094 7.30167 8.31411C7.11976 8.50727 7.02203 8.76478 7.02999 9.03C7.03795 9.29522 7.15093 9.54641 7.3441 9.72832C7.53726 9.91023 7.79478 10.008 8.05999 10C8.26999 13.28 8.22999 13.23 8.40999 13.52C8.5292 13.71 8.70882 13.8544 8.91999 13.93C9.17999 14.03 9.17999 14 13 14C13.2652 14 13.5196 14.1054 13.7071 14.2929C13.8946 14.4804 14 14.7348 14 15C14 15.7956 14.3161 16.5587 14.8787 17.1213C15.4413 17.6839 16.2043 18 17 18C17.7956 18 18.5587 17.6839 19.1213 17.1213C19.6839 16.5587 20 15.7956 20 15C20 14.7348 20.1053 14.4804 20.2929 14.2929C20.4804 14.1054 20.7348 14 21 14H21.68L21.37 19C21.3093 20.0735 20.9253 21.1035 20.2686 21.9548C19.6118 22.8061 18.7129 23.4389 17.69 23.77C17.4811 23.8378 17.3004 23.9725 17.1757 24.1532C17.051 24.3339 16.9893 24.5507 17 24.77C17.0187 26.6524 17.6273 28.4815 18.74 30H13.26C14.3927 28.4539 15.0023 26.5866 15 24.67C15.0107 24.4507 14.949 24.2339 14.8243 24.0532C14.6996 23.8725 14.5188 23.7378 14.31 23.67C13.3021 23.3452 12.4137 22.7276 11.7583 21.8958C11.1029 21.0641 10.7101 20.0559 10.63 19L10.5 17C10.5002 16.8635 10.4725 16.7283 10.4186 16.6029C10.3646 16.4775 10.2855 16.3645 10.1862 16.2708C10.0869 16.1771 9.96946 16.1048 9.84113 16.0582C9.71279 16.0116 9.57627 15.9918 9.43999 16C9.17638 16.018 8.93061 16.1396 8.75635 16.3382C8.58209 16.5368 8.49353 16.7963 8.50999 17.06L8.62999 19.06C8.70833 20.408 9.15798 21.708 9.92922 22.8164C10.7005 23.9247 11.7632 24.7981 13 25.34C12.8562 26.9659 12.1488 28.4905 11 29.65L10.35 30.29C10.2121 30.4262 10.1168 30.5995 10.0756 30.7889C10.0344 30.9783 10.0492 31.1756 10.118 31.3567C10.1869 31.5379 10.3069 31.6951 10.4635 31.8093C10.6201 31.9235 10.8065 31.9898 11 32H21C21.1986 32.0012 21.3931 31.9431 21.5586 31.8333C21.7241 31.7235 21.8532 31.5669 21.9294 31.3835C22.0055 31.2 22.0253 30.9981 21.9863 30.8033C21.9472 30.6086 21.851 30.4299 21.71 30.29L21.06 29.65C19.9112 28.4905 19.2038 26.9659 19.06 25.34C20.2897 24.7946 21.3453 23.9209 22.1109 22.8148C22.8765 21.7087 23.3226 20.413 23.4 19.07C24 9.3 23.9 10 24 10C24.2652 10 24.5196 9.89464 24.7071 9.70711C24.8946 9.51957 25 9.26522 25 9C25 8.73478 24.8946 8.48043 24.7071 8.29289C24.5196 8.10536 24.2652 8 24 8ZM21.81 12H21C20.2043 12 19.4413 12.3161 18.8787 12.8787C18.3161 13.4413 18 14.2044 18 15C18 15.2652 17.8946 15.5196 17.7071 15.7071C17.5196 15.8946 17.2652 16 17 16C16.7348 16 16.4804 15.8946 16.2929 15.7071C16.1053 15.5196 16 15.2652 16 15C16 14.2044 15.6839 13.4413 15.1213 12.8787C14.5587 12.3161 13.7956 12 13 12H10.19L10.07 10H21.94L21.81 12Z" fill="#08221D"/>
<path d="M22 32H10C9.73478 32 9.48043 31.8946 9.29289 31.7071C9.10536 31.5196 9 31.2652 9 31C9 30.7348 9.10536 30.4804 9.29289 30.2929C9.48043 30.1054 9.73478 30 10 30H22C22.2652 30 22.5196 30.1054 22.7071 30.2929C22.8946 30.4804 23 30.7348 23 31C23 31.2652 22.8946 31.5196 22.7071 31.7071C22.5196 31.8946 22.2652 32 22 32Z" fill="#08221D"/>
</g>
<defs>
<clipPath id="clip0_1_383">
<rect width="32" height="32" fill="white"/>
</clipPath>
</defs>
</svg>
