<svg width="32" height="32" viewBox="0 0 32 32" fill="none" xmlns="http://www.w3.org/2000/svg">
<g clip-path="url(#clip0_2_336)">
<path d="M6.99997 15.75C6.89997 15.75 5.69997 15.6 0.859974 14.99C0.680843 14.968 0.511015 14.8979 0.368498 14.7871C0.225982 14.6764 0.116091 14.5292 0.0504784 14.361C-0.015134 14.1929 -0.0340213 14.0102 -0.00418066 13.8322C0.02566 13.6542 0.103116 13.4876 0.219974 13.35L6.21997 6.35002C6.33627 6.19571 6.49478 6.07841 6.67634 6.01228C6.8579 5.94616 7.05472 5.93405 7.24302 5.97742C7.43131 6.02079 7.603 6.11778 7.73734 6.25667C7.87168 6.39556 7.9629 6.57039 7.99997 6.76002L9.74997 13.76C9.84011 13.988 9.84339 14.2411 9.75919 14.4713C9.67499 14.7015 9.50918 14.8927 9.29324 15.0087C9.07731 15.1247 8.82629 15.1573 8.58787 15.1004C8.34946 15.0435 8.14024 14.901 7.99997 14.7C8.00675 14.8355 7.98591 14.9709 7.9387 15.0981C7.89149 15.2252 7.81891 15.3415 7.72536 15.4397C7.63182 15.5379 7.51927 15.6161 7.39457 15.6694C7.26987 15.7228 7.13561 15.7502 6.99997 15.75ZM2.99997 13.24C7.36997 13.78 7.41997 13.71 7.74997 14.04L6.49997 9.12002L2.99997 13.24Z" fill="white"/>
<path d="M24 9.00001C23.8425 9.00589 23.6859 8.97447 23.5429 8.90832C23.3998 8.84217 23.2745 8.74315 23.177 8.61934C23.0795 8.49553 23.0126 8.35044 22.9819 8.19589C22.9511 8.04134 22.9573 7.8817 23 7.73001L25 0.730005C25.0426 0.553655 25.1324 0.392218 25.2597 0.262987C25.387 0.133756 25.5471 0.0415993 25.7228 -0.00361013C25.8985 -0.0488196 26.0832 -0.0453789 26.2571 0.00634349C26.431 0.0580658 26.5875 0.156121 26.71 0.290005L31.71 5.29001C31.8439 5.41244 31.9419 5.56898 31.9936 5.74288C32.0454 5.91677 32.0488 6.10146 32.0036 6.27716C31.9584 6.45286 31.8662 6.61296 31.737 6.74029C31.6078 6.86762 31.4463 6.9574 31.27 7.00001C23.74 9.11001 24.21 9.00001 24 9.00001ZM26.49 2.91001L25.49 6.54001L29.12 5.54001L26.49 2.91001Z" fill="white"/>
<path d="M29.2 28H2.79999C2.53477 28 2.28042 27.8946 2.09288 27.7071C1.90534 27.5196 1.79999 27.2652 1.79999 27C1.79999 26.7348 1.90534 26.4804 2.09288 26.2929C2.28042 26.1054 2.53477 26 2.79999 26H29.2C29.4652 26 29.7196 26.1054 29.9071 26.2929C30.0946 26.4804 30.2 26.7348 30.2 27C30.2 27.2652 30.0946 27.5196 29.9071 27.7071C29.7196 27.8946 29.4652 28 29.2 28Z" fill="white"/>
<path d="M31.8 20.4C31.44 19.91 31.03 20 30 20C30.0006 19.0951 29.6943 18.2168 29.1313 17.5085C28.5682 16.8001 27.7817 16.3036 26.9 16.1C26.7316 15.3689 26.361 14.7 25.8305 14.1695C25.3 13.639 24.6311 13.2684 23.9 13.1C23.6835 12.1246 23.1098 11.2656 22.2918 10.6919C21.4739 10.1182 20.4708 9.87136 19.48 10C19.1341 9.3748 18.627 8.85366 18.0115 8.49077C17.396 8.12789 16.6945 7.93649 15.98 7.93649C15.2655 7.93649 14.564 8.12789 13.9485 8.49077C13.333 8.85366 12.8259 9.3748 12.48 10C11.4955 9.88199 10.5024 10.1338 9.69305 10.7066C8.88375 11.2794 8.31602 12.1323 8.09999 13.1C7.36892 13.2684 6.69995 13.639 6.16948 14.1695C5.639 14.7 5.26839 15.3689 5.09999 16.1C4.21832 16.3036 3.43174 16.8001 2.86869 17.5085C2.30565 18.2168 1.99941 19.0951 1.99999 20C0.899987 20 0.549987 19.92 0.199987 20.4C0.10528 20.5254 0.0414402 20.6713 0.013642 20.8259C-0.0141563 20.9805 -0.00513072 21.1395 0.039987 21.29L2.60999 29.86C2.79533 30.4794 3.17583 31.0224 3.6948 31.408C4.21377 31.7936 4.84343 32.0013 5.48999 32H7.99999C8.2652 32 8.51956 31.8946 8.70709 31.7071C8.89463 31.5196 8.99999 31.2652 8.99999 31C8.99999 30.7348 8.89463 30.4804 8.70709 30.2929C8.51956 30.1054 8.2652 30 7.99999 30H5.48999C5.26813 30.0095 5.04943 29.9449 4.86837 29.8163C4.6873 29.6877 4.55418 29.5026 4.48999 29.29L2.33999 22H29.66L27.47 29.29C27.4058 29.5026 27.2727 29.6877 27.0916 29.8163C26.9105 29.9449 26.6918 30.0095 26.47 30H12C11.7348 30 11.4804 30.1054 11.2929 30.2929C11.1053 30.4804 11 30.7348 11 31C11 31.2652 11.1053 31.5196 11.2929 31.7071C11.4804 31.8946 11.7348 32 12 32H26.51C27.1565 32.0013 27.7862 31.7936 28.3052 31.408C28.8241 31.0224 29.2046 30.4794 29.39 29.86L32 21.29C32.0396 21.1364 32.0422 20.9756 32.0074 20.8209C31.9726 20.6661 31.9015 20.5219 31.8 20.4ZM3.99999 20C3.99999 19.4696 4.2107 18.9609 4.58577 18.5858C4.96085 18.2107 5.46955 18 5.99999 18C6.2652 18 6.51956 17.8946 6.70709 17.7071C6.89463 17.5196 6.99999 17.2652 6.99999 17C6.99999 16.4696 7.2107 15.9609 7.58577 15.5858C7.96085 15.2107 8.46955 15 8.99999 15C9.2652 15 9.51956 14.8946 9.70709 14.7071C9.89463 14.5196 9.99999 14.2652 9.99999 14C10.0019 13.6753 10.0829 13.356 10.2359 13.0697C10.3888 12.7833 10.6092 12.5385 10.878 12.3563C11.1468 12.1742 11.4558 12.0603 11.7785 12.0243C12.1012 11.9884 12.4277 12.0315 12.73 12.15C12.8619 12.2047 13.004 12.2304 13.1467 12.2256C13.2894 12.2207 13.4294 12.1854 13.5573 12.1219C13.6852 12.0584 13.798 11.9683 13.8882 11.8576C13.9783 11.7469 14.0437 11.6181 14.08 11.48C14.2012 11.0646 14.4538 10.6996 14.8 10.44C15.1462 10.1804 15.5672 10.04 16 10.04C16.4327 10.04 16.8538 10.1804 17.2 10.44C17.5462 10.6996 17.7988 11.0646 17.92 11.48C17.9562 11.6181 18.0216 11.7469 18.1118 11.8576C18.202 11.9683 18.3148 12.0584 18.4427 12.1219C18.5706 12.1854 18.7106 12.2207 18.8533 12.2256C18.996 12.2304 19.1381 12.2047 19.27 12.15C19.5723 12.0315 19.8988 11.9884 20.2215 12.0243C20.5442 12.0603 20.8532 12.1742 21.122 12.3563C21.3908 12.5385 21.6111 12.7833 21.7641 13.0697C21.9171 13.356 21.998 13.6753 22 14C22 14.2652 22.1053 14.5196 22.2929 14.7071C22.4804 14.8946 22.7348 15 23 15C23.5304 15 24.0391 15.2107 24.4142 15.5858C24.7893 15.9609 25 16.4696 25 17C25 17.2652 25.1053 17.5196 25.2929 17.7071C25.4804 17.8946 25.7348 18 26 18C26.5304 18 27.0391 18.2107 27.4142 18.5858C27.7893 18.9609 28 19.4696 28 20H3.99999Z" fill="white"/>
</g>
<defs>
<clipPath id="clip0_2_336">
<rect width="32" height="32" fill="white"/>
</clipPath>
</defs>
</svg>
