<svg width="32" height="32" viewBox="0 0 32 32" fill="none" xmlns="http://www.w3.org/2000/svg">
<g clip-path="url(#clip0_8_1163)">
<path d="M28.65 22H3.34998C3.08476 22 2.83041 21.8946 2.64287 21.7071C2.45533 21.5196 2.34998 21.2652 2.34998 21C2.34998 20.7348 2.45533 20.4804 2.64287 20.2929C2.83041 20.1054 3.08476 20 3.34998 20H28.65C28.9152 20 29.1695 20.1054 29.3571 20.2929C29.5446 20.4804 29.65 20.7348 29.65 21C29.65 21.2652 29.5446 21.5196 29.3571 21.7071C29.1695 21.8946 28.9152 22 28.65 22Z" fill="#22BB9B"/>
<path d="M8.31999 11.21C8.17555 11.21 8.03282 11.1787 7.90162 11.1183C7.77043 11.0579 7.65388 10.9698 7.55999 10.86L2.23999 4.65C2.15463 4.5502 2.08976 4.43456 2.0491 4.30968C2.00843 4.18481 1.99275 4.05315 2.00297 3.92222C2.0236 3.65779 2.14842 3.41239 2.34999 3.24C2.55155 3.06761 2.81334 2.98235 3.07777 3.00298C3.3422 3.02361 3.5876 3.14844 3.75999 3.35L9.07999 9.56C9.20425 9.70528 9.28426 9.88312 9.31055 10.0725C9.33684 10.2618 9.30831 10.4547 9.22834 10.6284C9.14836 10.802 9.02029 10.9491 8.8593 11.0521C8.69832 11.1552 8.51115 11.21 8.31999 11.21Z" fill="#22BB9B"/>
<path d="M9.62002 8.12C9.42373 8.11984 9.23183 8.06192 9.06823 7.95344C8.90463 7.84497 8.77657 7.69075 8.70002 7.51L6.08002 1.39C5.98842 1.14826 5.99399 0.880446 6.09557 0.642727C6.19715 0.405009 6.38684 0.215864 6.62484 0.114969C6.86285 0.0140741 7.13069 0.00926992 7.37216 0.101564C7.61363 0.193859 7.80998 0.376079 7.92002 0.610002L10.54 6.73C10.6044 6.88198 10.6301 7.04754 10.615 7.21189C10.5998 7.37625 10.5442 7.53429 10.4531 7.67193C10.362 7.80957 10.2383 7.92251 10.0929 8.0007C9.94753 8.07888 9.78507 8.11987 9.62002 8.12Z" fill="#22BB9B"/>
<path d="M31 16H30C29.9978 14.1297 29.3404 12.3192 28.1419 10.8832C26.9435 9.44731 25.2798 8.47666 23.44 8.14C22.8178 6.55404 21.7055 5.20814 20.2651 4.2983C18.8247 3.38846 17.1315 2.9622 15.432 3.0816C13.7326 3.201 12.1156 3.85982 10.8166 4.96211C9.51757 6.06441 8.60438 7.55262 8.21 9.21C6.6148 9.57762 5.17077 10.4258 4.0728 11.64C2.97484 12.8542 2.27579 14.376 2.07 16H1C0.734784 16 0.48043 16.1054 0.292893 16.2929C0.105357 16.4804 0 16.7348 0 17L0 18C0 23.72 3.85 28.39 9 30.59V31C9 31.2652 9.10536 31.5196 9.29289 31.7071C9.48043 31.8946 9.73478 32 10 32H22C22.2652 32 22.5196 31.8946 22.7071 31.7071C22.8946 31.5196 23 31.2652 23 31V30.59C24.1206 30.1185 25.1841 29.5213 26.17 28.81C26.2824 28.7356 26.3786 28.6393 26.4528 28.5268C26.527 28.4144 26.5778 28.288 26.602 28.1554C26.6261 28.0229 26.6233 27.8868 26.5935 27.7553C26.5638 27.6239 26.5078 27.4998 26.4289 27.3905C26.35 27.2813 26.2498 27.1891 26.1344 27.1196C26.0189 27.05 25.8906 27.0045 25.7572 26.9857C25.6237 26.967 25.4878 26.9755 25.3577 27.0106C25.2276 27.0457 25.1059 27.1067 25 27.19C23.9727 27.9458 22.8452 28.555 21.65 29C21.4586 29.0715 21.2937 29.1999 21.1775 29.368C21.0613 29.5361 20.9993 29.7357 21 29.94C21 30.07 21.8 30.03 11 30.03C11.0141 29.8168 10.9596 29.6047 10.8445 29.4247C10.7293 29.2448 10.5595 29.1065 10.36 29.03C5.62 27.18 2 23.07 2 18H30C29.9856 20.3146 29.2245 22.5627 27.83 24.41C27.6761 24.6239 27.6129 24.89 27.6541 25.1503C27.6953 25.4105 27.8376 25.644 28.05 25.8C28.2627 25.9549 28.5279 26.0198 28.7881 25.9805C29.0483 25.9412 29.2825 25.8009 29.44 25.59C31.0917 23.4034 31.9899 20.7403 32 18V17C32 16.7348 31.8946 16.4804 31.7071 16.2929C31.5196 16.1054 31.2652 16 31 16ZM21.2 8.05C20.4943 8.11931 19.8013 8.28415 19.14 8.54C18.7148 8.00406 18.1592 7.58614 17.5264 7.32619C16.8936 7.06623 16.2047 6.97292 15.5255 7.05518C14.8463 7.13745 14.1996 7.39253 13.6472 7.79605C13.0947 8.19957 12.655 8.73804 12.37 9.36C11.72 9.16564 11.048 9.05475 10.37 9.03C10.7576 7.95598 11.4437 7.01486 12.3476 6.31719C13.2515 5.61951 14.3357 5.19425 15.4729 5.09135C16.6101 4.98845 17.7531 5.21217 18.7675 5.73625C19.782 6.26033 20.6259 7.06301 21.2 8.05ZM15.57 11.27C15.1592 10.8456 14.6873 10.485 14.17 10.2C14.2983 9.91376 14.4922 9.66172 14.7359 9.46423C14.9796 9.26675 15.2664 9.12936 15.573 9.06317C15.8796 8.99698 16.1975 9.00384 16.501 9.08319C16.8045 9.16255 17.085 9.31219 17.32 9.52C16.6502 10.0099 16.0599 10.6002 15.57 11.27ZM10 11C11.4169 11.0014 12.7875 11.5042 13.8692 12.4194C14.9509 13.3345 15.6739 14.6029 15.91 16H13.91C13.6829 15.1484 13.181 14.3955 12.482 13.8585C11.7831 13.3215 10.9264 13.0304 10.045 13.0304C9.1636 13.0304 8.30688 13.3215 7.60796 13.8585C6.90904 14.3955 6.40705 15.1484 6.18 16H4.18C4.41341 14.6181 5.12323 13.3614 6.18631 12.4481C7.2494 11.5348 8.59866 11.0225 10 11ZM11.73 16H8.28C8.45646 15.6993 8.70849 15.4499 9.01108 15.2766C9.31367 15.1033 9.6563 15.0121 10.005 15.0121C10.3537 15.0121 10.6963 15.1033 10.9989 15.2766C11.3015 15.4499 11.5535 15.6993 11.73 16ZM20 16C20 15.4696 20.2107 14.9609 20.5858 14.5858C20.9609 14.2107 21.4696 14 22 14C22.5304 14 23.0391 14.2107 23.4142 14.5858C23.7893 14.9609 24 15.4696 24 16H20ZM22 12C20.9391 12 19.9217 12.4214 19.1716 13.1716C18.4214 13.9217 18 14.9391 18 16H17.94C17.8009 14.9133 17.4365 13.8677 16.87 12.93C17.5474 11.8132 18.5707 10.9479 19.7845 10.4656C20.9983 9.98328 22.3364 9.91022 23.5956 10.2575C24.8547 10.6048 25.9661 11.3535 26.761 12.39C27.556 13.4264 27.991 14.6939 28 16H26C26 14.9391 25.5786 13.9217 24.8284 13.1716C24.0783 12.4214 23.0609 12 22 12Z" fill="#08221D"/>
</g>
<defs>
<clipPath id="clip0_8_1163">
<rect width="32" height="32" fill="white"/>
</clipPath>
</defs>
</svg>
