<svg width="32" height="32" viewBox="0 0 32 32" fill="none" xmlns="http://www.w3.org/2000/svg">
<g clip-path="url(#clip0_2_335)">
<path d="M16 26C14.1435 26 12.363 25.2625 11.0503 23.9498C9.7375 22.637 9 20.8565 9 19C9 17.12 10.43 14.8 13.25 12.09C13.9929 11.3867 14.977 10.9948 16 10.9948C17.023 10.9948 18.0071 11.3867 18.75 12.09C21.57 14.8 23 17.12 23 19C23 20.8565 22.2625 22.637 20.9497 23.9498C19.637 25.2625 17.8565 26 16 26ZM14.63 13.53C12.32 15.75 11 17.74 11 19C11 20.3261 11.5268 21.5979 12.4645 22.5355C13.4021 23.4732 14.6739 24 16 24C17.3261 24 18.5979 23.4732 19.5355 22.5355C20.4732 21.5979 21 20.3261 21 19C21 17.74 19.68 15.75 17.37 13.53C16.9991 13.1813 16.5091 12.9871 16 12.9871C15.4909 12.9871 15.0009 13.1813 14.63 13.53Z" fill="white"/>
<path d="M16 22C15.4067 22 14.8266 21.8241 14.3333 21.4944C13.8399 21.1648 13.4554 20.6962 13.2284 20.1481C13.0013 19.5999 12.9419 18.9967 13.0576 18.4147C13.1734 17.8328 13.4591 17.2982 13.8787 16.8787C14.2982 16.4591 14.8328 16.1734 15.4147 16.0576C15.9967 15.9419 16.5999 16.0013 17.148 16.2284C17.6962 16.4554 18.1648 16.8399 18.4944 17.3333C18.8241 17.8266 19 18.4067 19 19C19 19.7957 18.6839 20.5587 18.1213 21.1213C17.5587 21.6839 16.7956 22 16 22ZM16 18C15.8022 18 15.6089 18.0586 15.4444 18.1685C15.28 18.2784 15.1518 18.4346 15.0761 18.6173C15.0004 18.8 14.9806 19.0011 15.0192 19.1951C15.0578 19.3891 15.153 19.5673 15.2929 19.7071C15.4327 19.847 15.6109 19.9422 15.8049 19.9808C15.9989 20.0194 16.2 19.9996 16.3827 19.9239C16.5654 19.8482 16.7216 19.72 16.8315 19.5556C16.9414 19.3911 17 19.1978 17 19C17 18.7348 16.8946 18.4804 16.7071 18.2929C16.5196 18.1054 16.2652 18 16 18Z" fill="white"/>
<path d="M23 30H22.24C21.8719 30.0013 21.5077 29.9244 21.1716 29.7744C20.8354 29.6244 20.5349 29.4048 20.29 29.13C21.9828 28.4126 23.4687 27.2825 24.6121 25.8427C25.7554 24.403 26.5196 22.6997 26.8349 20.8884C27.1502 19.0772 27.0065 17.2158 26.417 15.4744C25.8274 13.733 24.8108 12.1672 23.46 10.92C21.4728 9.14993 20.0445 6.83903 19.35 4.27C19.2095 3.71605 18.9136 3.21377 18.4973 2.82225C18.081 2.43073 17.5615 2.16628 17 2.06V1C17 0.734784 16.8946 0.48043 16.7071 0.292893C16.5196 0.105357 16.2652 0 16 0C15.7348 0 15.4804 0.105357 15.2929 0.292893C15.1054 0.48043 15 0.734784 15 1V2.06C14.4328 2.16681 13.9085 2.43495 13.4899 2.83226C13.0713 3.22957 12.7762 3.73918 12.64 4.3C11.9889 6.82169 10.5953 9.08967 8.64 10.81C7.05781 12.216 5.91791 14.0512 5.35873 16.0926C4.79956 18.1341 4.84516 20.294 5.49 22.31C5.5269 22.4393 5.58951 22.5598 5.67407 22.6644C5.75863 22.769 5.86341 22.8554 5.98214 22.9185C6.10087 22.9816 6.23111 23.0202 6.36508 23.0318C6.49905 23.0435 6.63399 23.028 6.76182 22.9862C6.88966 22.9445 7.00777 22.8775 7.10909 22.789C7.21041 22.7006 7.29286 22.5927 7.3515 22.4717C7.41015 22.3507 7.44378 22.2191 7.4504 22.0848C7.45701 21.9504 7.43647 21.8162 7.39 21.69C6.87754 20.0395 6.85116 18.2763 7.31399 16.6111C7.77682 14.946 8.7093 13.4493 10 12.3C12.2516 10.3039 13.8509 7.67682 14.59 4.76C14.6448 4.53812 14.7738 4.34169 14.9558 4.20341C15.1377 4.06513 15.3616 3.99334 15.59 4H16.47C16.7012 3.99435 16.9271 4.06898 17.1095 4.2112C17.2918 4.35341 17.4192 4.55442 17.47 4.78C18.2564 7.72033 19.8869 10.3659 22.16 12.39C23.0293 13.2082 23.7272 14.1912 24.2129 15.2817C24.6987 16.3723 24.9626 17.5485 24.9894 18.7421C25.0161 19.9356 24.8052 21.1225 24.3688 22.2337C23.9323 23.3449 23.2792 24.3582 22.4474 25.2145C21.6156 26.0708 20.6218 26.7531 19.5237 27.2217C18.4257 27.6902 17.2454 27.9356 16.0516 27.9435C14.8578 27.9515 13.6744 27.7218 12.5702 27.268C11.466 26.8142 10.4631 26.1452 9.62 25.3C9.53108 25.1947 9.42137 25.109 9.29774 25.0481C9.17411 24.9873 9.03924 24.9526 8.90159 24.9463C8.76394 24.9401 8.62648 24.9623 8.49783 25.0117C8.36918 25.061 8.25212 25.1365 8.154 25.2332C8.05587 25.3299 7.9788 25.4459 7.92762 25.5739C7.87644 25.7018 7.85224 25.8389 7.85656 25.9766C7.86088 26.1144 7.89362 26.2497 7.95272 26.3742C8.01182 26.4987 8.09601 26.6096 8.2 26.7C9.20483 27.7253 10.4006 28.5441 11.72 29.11C11.4718 29.3954 11.1642 29.6229 10.8187 29.7767C10.4731 29.9304 10.0981 30.0067 9.72 30H9C8.73478 30 8.48043 30.1054 8.29289 30.2929C8.10536 30.4804 8 30.7348 8 31C8 31.2652 8.10536 31.5196 8.29289 31.7071C8.48043 31.8946 8.73478 32 9 32H9.76C10.5657 32.01 11.3598 31.8072 12.0622 31.4122C12.7645 31.0171 13.3501 30.4438 13.76 29.75C14.186 29.8377 14.6167 29.9012 15.05 29.94V31C15.05 31.2652 15.1554 31.5196 15.3429 31.7071C15.5304 31.8946 15.7848 32 16.05 32C16.3152 32 16.5696 31.8946 16.7571 31.7071C16.9446 31.5196 17.05 31.2652 17.05 31V30C17.4833 29.9619 17.9141 29.8985 18.34 29.81C18.7501 30.4767 19.3234 31.0277 20.0059 31.4109C20.6884 31.7942 21.4573 31.9969 22.24 32H23C23.2652 32 23.5196 31.8946 23.7071 31.7071C23.8946 31.5196 24 31.2652 24 31C24 30.7348 23.8946 30.4804 23.7071 30.2929C23.5196 30.1054 23.2652 30 23 30Z" fill="white"/>
</g>
<defs>
<clipPath id="clip0_2_335">
<rect width="32" height="32" fill="white"/>
</clipPath>
</defs>
</svg>
