<svg width="32" height="32" viewBox="0 0 32 32" fill="none" xmlns="http://www.w3.org/2000/svg">
<g clip-path="url(#clip0_2_334)">
<path d="M18 22H12C11.7348 22 11.4804 21.8946 11.2929 21.7071C11.1054 21.5196 11 21.2652 11 21C11 20.7348 11.1054 20.4804 11.2929 20.2929C11.4804 20.1054 11.7348 20 12 20H18C18.2652 20 18.5196 20.1054 18.7071 20.2929C18.8946 20.4804 19 20.7348 19 21C19 21.2652 18.8946 21.5196 18.7071 21.7071C18.5196 21.8946 18.2652 22 18 22Z" fill="white"/>
<path d="M31 26H29.42C29.9075 25.2089 30.0949 24.2691 29.9481 23.3515C29.8012 22.4339 29.33 21.5995 28.62 21C29.2277 20.4641 29.6584 19.7562 29.8549 18.97C30.0514 18.1839 30.0046 17.3567 29.7205 16.5978C29.4365 15.8389 28.9287 15.1841 28.2643 14.7203C27.5999 14.2564 26.8103 14.0052 26 14H24C23.7348 14 23.4804 14.1054 23.2929 14.2929C23.1054 14.4804 23 14.7348 23 15C23 15.2652 23.1054 15.5196 23.2929 15.7071C23.4804 15.8946 23.7348 16 24 16H26C26.5304 16 27.0391 16.2107 27.4142 16.5858C27.7893 16.9609 28 17.4696 28 18C28 18.5304 27.7893 19.0391 27.4142 19.4142C27.0391 19.7893 26.5304 20 26 20H24C23.7348 20 23.4804 20.1054 23.2929 20.2929C23.1054 20.4804 23 20.7348 23 21C23 21.2652 23.1054 21.5196 23.2929 21.7071C23.4804 21.8946 23.7348 22 24 22H26C26.5296 22.0022 27.0366 22.2144 27.41 22.59C27.7007 22.8795 27.8954 23.2515 27.9675 23.6554C28.0397 24.0593 27.9859 24.4757 27.8134 24.8479C27.6409 25.2202 27.3581 25.5305 27.0033 25.7365C26.6484 25.9426 26.2388 26.0346 25.83 26H6C5.63012 25.9852 5.2716 25.868 4.96437 25.6615C4.65713 25.4551 4.41323 25.1674 4.25981 24.8305C4.1064 24.4936 4.04949 24.1207 4.09543 23.7534C4.14136 23.3861 4.28834 23.0387 4.52 22.75C4.73865 22.5148 5.0032 22.3269 5.29731 22.1979C5.59142 22.0689 5.90885 22.0015 6.23 22H8C8.26522 22 8.51957 21.8946 8.70711 21.7071C8.89464 21.5196 9 21.2652 9 21C9 20.7348 8.89464 20.4804 8.70711 20.2929C8.51957 20.1054 8.26522 20 8 20H6C5.46957 20 4.96086 19.7893 4.58579 19.4142C4.21071 19.0391 4 18.5304 4 18C4 17.4696 4.21071 16.9609 4.58579 16.5858C4.96086 16.2107 5.46957 16 6 16H8C8.26522 16 8.51957 15.8946 8.70711 15.7071C8.89464 15.5196 9 15.2652 9 15C9 14.7348 8.89464 14.4804 8.70711 14.2929C8.51957 14.1054 8.26522 14 8 14H6C5.18338 14.0057 4.38806 14.2612 3.72092 14.7322C3.05378 15.2031 2.54677 15.867 2.26804 16.6346C1.98931 17.4022 1.9522 18.2368 2.16171 19.0261C2.37121 19.8154 2.81729 20.5217 3.44 21.05C2.71374 21.625 2.22321 22.4461 2.06107 23.3581C1.89893 24.2701 2.07642 25.2099 2.56 26H1C0.734784 26 0.48043 26.1054 0.292893 26.2929C0.105357 26.4804 0 26.7348 0 27C0 27.2652 0.105357 27.5196 0.292893 27.7071C0.48043 27.8946 0.734784 28 1 28H1.25L1.79 29.84C1.97175 30.4631 2.35071 31.0105 2.87 31.4C3.38929 31.7895 4.02089 32 4.67 32H8C8.26522 32 8.51957 31.8946 8.70711 31.7071C8.89464 31.5196 9 31.2652 9 31C9 30.7348 8.89464 30.4804 8.70711 30.2929C8.51957 30.1054 8.26522 30 8 30H4.67C4.44686 30.0089 4.22716 29.9428 4.04593 29.8123C3.86469 29.6818 3.73235 29.4944 3.67 29.28L3.33 28H28.67L28.29 29.28C28.2276 29.4944 28.0953 29.6818 27.9141 29.8123C27.7328 29.9428 27.5131 30.0089 27.29 30H12C11.7348 30 11.4804 30.1054 11.2929 30.2929C11.1054 30.4804 11 30.7348 11 31C11 31.2652 11.1054 31.5196 11.2929 31.7071C11.4804 31.8946 11.7348 32 12 32H27.33C27.9791 32 28.6107 31.7895 29.13 31.4C29.6493 31.0105 30.0282 30.4631 30.21 29.84L30.75 28H31C31.2652 28 31.5196 27.8946 31.7071 27.7071C31.8946 27.5196 32 27.2652 32 27C32 26.7348 31.8946 26.4804 31.7071 26.2929C31.5196 26.1054 31.2652 26 31 26Z" fill="white"/>
<path d="M16 14C16.959 13.9803 17.879 13.6167 18.5922 12.9754C19.3055 12.3341 19.7646 11.4578 19.8858 10.5063C20.007 9.55484 19.7823 8.59148 19.2526 7.79183C18.7228 6.99219 17.9234 6.40952 17 6.15003C17.0662 5.2863 17.3273 4.44883 17.7638 3.70058C18.2003 2.95233 18.8007 2.31278 19.52 1.83003C19.631 1.75978 19.727 1.66836 19.8027 1.56099C19.8783 1.45361 19.9321 1.33239 19.9609 1.20424C19.9896 1.07609 19.9929 0.943526 19.9705 0.814116C19.948 0.684707 19.9003 0.560988 19.83 0.450026C19.6834 0.230813 19.4561 0.0783959 19.1976 0.0259547C18.9392 -0.0264865 18.6705 0.0252948 18.45 0.170026C17.4522 0.834802 16.6233 1.72342 16.0296 2.76509C15.4358 3.80676 15.0936 4.9727 15.03 6.17003C14.1232 6.44003 13.3414 7.02277 12.8236 7.81469C12.3058 8.60662 12.0855 9.55646 12.2018 10.4955C12.3181 11.4345 12.7636 12.3019 13.459 12.9435C14.1543 13.5851 15.0547 13.9595 16 14ZM16 8.00003C16.3956 8.00003 16.7822 8.11732 17.1111 8.33709C17.44 8.55685 17.6964 8.86921 17.8478 9.23466C17.9991 9.60011 18.0387 10.0022 17.9616 10.3902C17.8844 10.7782 17.6939 11.1345 17.4142 11.4142C17.1345 11.6939 16.7781 11.8844 16.3902 11.9616C16.0022 12.0388 15.6001 11.9992 15.2346 11.8478C14.8692 11.6964 14.5568 11.4401 14.3371 11.1112C14.1173 10.7823 14 10.3956 14 10C14 9.46959 14.2107 8.96089 14.5858 8.58581C14.9609 8.21074 15.4696 8.00003 16 8.00003Z" fill="white"/>
<path d="M21 24C19.9391 24 18.9217 23.5786 18.1716 22.8284C17.4214 22.0783 17 21.0609 17 20C17 19.4696 16.7893 18.9609 16.4142 18.5858C16.0391 18.2107 15.5304 18 15 18C14.4696 18 13.9609 18.2107 13.5858 18.5858C13.2107 18.9609 13 19.4696 13 20V21C13 21.7956 12.6839 22.5587 12.1213 23.1213C11.5587 23.6839 10.7956 24 10 24C9.20435 24 8.44129 23.6839 7.87868 23.1213C7.31607 22.5587 7 21.7956 7 21V15C7 14.2044 7.31607 13.4413 7.87868 12.8787C8.44129 12.3161 9.20435 12 10 12H22C22.7956 12 23.5587 12.3161 24.1213 12.8787C24.6839 13.4413 25 14.2044 25 15V20C25 21.0609 24.5786 22.0783 23.8284 22.8284C23.0783 23.5786 22.0609 24 21 24ZM15 16C16.0609 16 17.0783 16.4214 17.8284 17.1716C18.5786 17.9217 19 18.9391 19 20C19 20.5304 19.2107 21.0391 19.5858 21.4142C19.9609 21.7893 20.4696 22 21 22C21.5304 22 22.0391 21.7893 22.4142 21.4142C22.7893 21.0391 23 20.5304 23 20V15C23 14.7348 22.8946 14.4804 22.7071 14.2929C22.5196 14.1054 22.2652 14 22 14H10C9.73478 14 9.48043 14.1054 9.29289 14.2929C9.10536 14.4804 9 14.7348 9 15V21C9 21.2652 9.10536 21.5196 9.29289 21.7071C9.48043 21.8946 9.73478 22 10 22C10.2652 22 10.5196 21.8946 10.7071 21.7071C10.8946 21.5196 11 21.2652 11 21V20C11 18.9391 11.4214 17.9217 12.1716 17.1716C12.9217 16.4214 13.9391 16 15 16Z" fill="white"/>
</g>
<defs>
<clipPath id="clip0_2_334">
<rect width="32" height="32" fill="white"/>
</clipPath>
</defs>
</svg>
