<svg width="32" height="32" viewBox="0 0 32 32" fill="none" xmlns="http://www.w3.org/2000/svg">
<g clip-path="url(#clip0_2_331)">
<path d="M14.81 7.72001C14.7199 7.48193 14.724 7.21846 14.8215 6.98332C14.919 6.74817 15.1024 6.55904 15.3345 6.45448C15.5666 6.34991 15.8298 6.33779 16.0705 6.42057C16.3112 6.50336 16.5113 6.67482 16.63 6.90001C17.394 8.57944 18.7902 9.8893 20.5149 10.5447C22.2397 11.2002 24.1534 11.1481 25.84 10.4C26.0781 10.31 26.3415 10.3141 26.5767 10.4115C26.8118 10.509 27.0009 10.6925 27.1055 10.9245C27.2101 11.1566 27.2222 11.4198 27.1394 11.6606C27.0566 11.9013 26.8852 12.1013 26.66 12.22C24.4906 13.1846 22.0279 13.2529 19.8084 12.41C17.5889 11.5672 15.7923 9.88143 14.81 7.72001Z" fill="white"/>
<path d="M21.92 27.56C21.7731 27.5602 21.6279 27.5281 21.4948 27.4659C21.3617 27.4036 21.244 27.3129 21.15 27.2C20.4466 26.351 20.0435 25.2933 20.0035 24.1915C19.9635 23.0897 20.2888 22.0056 20.9288 21.1078C21.5687 20.21 22.4875 19.5489 23.5421 19.2274C24.5967 18.9059 25.728 18.9419 26.76 19.33C26.8821 19.3799 26.9932 19.4533 27.087 19.5462C27.1807 19.639 27.2552 19.7494 27.3063 19.8711C27.3574 19.9927 27.384 20.1232 27.3846 20.2552C27.3852 20.3871 27.3599 20.5178 27.31 20.64C27.2601 20.7621 27.1866 20.8732 27.0938 20.9669C27.0009 21.0607 26.8905 21.1352 26.7689 21.1863C26.6472 21.2374 26.5167 21.264 26.3848 21.2646C26.2529 21.2652 26.1221 21.2399 26 21.19C25.549 21.0305 25.0663 20.9812 24.5924 21.0462C24.1184 21.1112 23.6669 21.2886 23.2754 21.5636C22.884 21.8386 22.564 22.2032 22.3421 22.627C22.1202 23.0508 22.0029 23.5216 22 24C22.0028 24.7002 22.2464 25.3782 22.69 25.92C22.8117 26.0661 22.8892 26.2439 22.9135 26.4326C22.9377 26.6212 22.9076 26.8128 22.8268 26.985C22.746 27.1571 22.6177 27.3027 22.4571 27.4045C22.2965 27.5063 22.1102 27.5603 21.92 27.56Z" fill="white"/>
<path d="M26.64 2.39C26.2813 2.00054 25.8259 1.71296 25.3201 1.55646C24.8142 1.39996 24.276 1.38012 23.76 1.49896C23.2441 1.6178 22.7687 1.87107 22.3823 2.23307C21.9959 2.59506 21.7122 3.05287 21.56 3.56L9.58999 9C9.46231 9.0483 9.34587 9.12223 9.24784 9.21723C9.14981 9.31224 9.07227 9.42631 9.02 9.55242C8.96773 9.67853 8.94183 9.81401 8.94391 9.95051C8.94598 10.087 8.97598 10.2216 9.03206 10.3461C9.08813 10.4706 9.1691 10.5822 9.26997 10.6742C9.37084 10.7662 9.48948 10.8366 9.61857 10.881C9.74766 10.9254 9.88448 10.9429 10.0206 10.9324C10.1567 10.9219 10.2892 10.8836 10.41 10.82L21.7 5.69C21.8366 5.94712 22.0009 6.18855 22.19 6.41C24.6312 9.00643 25.9904 12.4361 25.9904 16C25.9904 19.5639 24.6312 22.9936 22.19 25.59L16.38 23.2C16.2277 23.1374 16.0623 23.1134 15.8986 23.1301C15.7348 23.1468 15.5777 23.2037 15.4411 23.2957C15.3046 23.3877 15.1929 23.512 15.116 23.6575C15.039 23.8031 14.9992 23.9654 15 24.13V28C15 28.2652 14.8946 28.5196 14.7071 28.7071C14.5196 28.8946 14.2652 29 14 29C13.7348 29 13.4804 28.8946 13.2929 28.7071C13.1054 28.5196 13 28.2652 13 28V23.84C12.9895 23.446 12.9015 23.058 12.741 22.698C12.5805 22.3381 12.3507 22.0133 12.0647 21.7421C11.7787 21.471 11.4421 21.2588 11.0741 21.1177C10.7061 20.9767 10.314 20.9095 9.91999 20.92C9.52603 20.9305 9.13799 21.0185 8.77803 21.179C8.41808 21.3394 8.09325 21.5692 7.8221 21.8552C7.55096 22.1413 7.3388 22.4779 7.19774 22.8459C7.05668 23.2139 6.98949 23.606 6.99999 24C6.99999 24.2652 6.89464 24.5196 6.7071 24.7071C6.51956 24.8946 6.26521 25 5.99999 25C5.73478 25 5.48042 24.8946 5.29289 24.7071C5.10535 24.5196 4.99999 24.2652 4.99999 24V19.23C4.99901 19.0326 4.93961 18.8399 4.82927 18.6761C4.71894 18.5124 4.56261 18.385 4.37999 18.31L3.26999 17.85C2.88444 17.7152 2.54939 17.4656 2.30989 17.1348C2.0704 16.8039 1.93793 16.4077 1.93031 15.9994C1.92269 15.591 2.04027 15.1901 2.26726 14.8505C2.49424 14.511 2.81974 14.2491 3.19999 14.1L6.40999 12.64C6.53768 12.5917 6.65412 12.5178 6.75215 12.4228C6.85018 12.3278 6.92772 12.2137 6.97999 12.0876C7.03226 11.9615 7.05815 11.826 7.05608 11.6895C7.05401 11.553 7.02401 11.4184 6.96793 11.2939C6.91185 11.1694 6.83088 11.0578 6.73002 10.9658C6.62915 10.8738 6.51051 10.8034 6.38142 10.759C6.25232 10.7146 6.11551 10.6971 5.9794 10.7076C5.84329 10.7181 5.71076 10.7564 5.58999 10.82L2.36999 12.28C1.63552 12.5919 1.0111 13.1163 0.577024 13.7858C0.142944 14.4554 -0.0809607 15.2395 -0.0659078 16.0373C-0.0508548 16.8351 0.202468 17.6102 0.661496 18.2629C1.12052 18.9156 1.76427 19.4161 2.50999 19.7L2.99999 19.9V24C3.02121 24.7956 3.35763 25.5503 3.93524 26.0979C4.51285 26.6455 5.28434 26.9412 6.07999 26.92C6.87564 26.8988 7.63028 26.5624 8.17788 25.9848C8.72549 25.4071 9.02121 24.6356 8.99999 23.84C9.00081 23.6762 9.04184 23.5151 9.11948 23.3709C9.19713 23.2267 9.309 23.1038 9.44528 23.0129C9.58156 22.9221 9.73806 22.8661 9.90105 22.8499C10.064 22.8337 10.2285 22.8578 10.38 22.92C10.5626 22.995 10.7189 23.1224 10.8293 23.2861C10.9396 23.4499 10.999 23.6426 11 23.84V28C11 28.7956 11.3161 29.5587 11.8787 30.1213C12.4413 30.6839 13.2043 31 14 31C14.7956 31 15.5587 30.6839 16.1213 30.1213C16.6839 29.5587 17 28.7956 17 28V25.62L21.44 27.44C21.4126 28.0542 21.5746 28.6619 21.904 29.181C22.2334 29.7001 22.7143 30.1054 23.2817 30.3422C23.849 30.579 24.4754 30.6357 25.0761 30.5047C25.6768 30.3738 26.2227 30.0614 26.64 29.61C30.0756 25.9106 31.985 21.0487 31.985 16C31.985 10.9513 30.0756 6.08942 26.64 2.39ZM25.18 28.25C25.0899 28.3532 24.9796 28.4368 24.8559 28.4956C24.7322 28.5544 24.5977 28.5871 24.4608 28.5918C24.324 28.5965 24.1876 28.573 24.0601 28.5228C23.9327 28.4726 23.8169 28.3968 23.72 28.3C23.555 28.1274 23.4573 27.9014 23.4445 27.6629C23.4316 27.4245 23.5045 27.1894 23.65 27C26.4646 24.0297 28.0342 20.094 28.036 16.002C28.0379 11.91 26.4719 7.97281 23.66 5C23.5022 4.80891 23.4209 4.56603 23.432 4.31845C23.4431 4.07086 23.5457 3.83621 23.72 3.66C23.8135 3.56009 23.9266 3.48044 24.0522 3.42599C24.1777 3.37154 24.3131 3.34345 24.45 3.34345C24.5869 3.34345 24.7223 3.37154 24.8478 3.42599C24.9734 3.48044 25.0865 3.56009 25.18 3.66C28.2985 6.99451 30.0334 11.3895 30.0334 15.955C30.0334 20.5205 28.2985 24.9155 25.18 28.25Z" fill="white"/>
<path d="M14 20C13.2089 20 12.4355 19.7654 11.7777 19.3259C11.1199 18.8864 10.6072 18.2616 10.3045 17.5307C10.0017 16.7998 9.92252 15.9956 10.0769 15.2196C10.2312 14.4437 10.6122 13.731 11.1716 13.1716C11.731 12.6122 12.4437 12.2312 13.2196 12.0769C13.9956 11.9225 14.7998 12.0017 15.5307 12.3045C16.2616 12.6072 16.8864 13.1199 17.3259 13.7777C17.7654 14.4355 18 15.2089 18 16C18 17.0609 17.5786 18.0783 16.8284 18.8284C16.0783 19.5786 15.0609 20 14 20ZM14 14C13.6044 14 13.2178 14.1173 12.8889 14.3371C12.56 14.5568 12.3036 14.8692 12.1522 15.2346C12.0009 15.6001 11.9613 16.0022 12.0384 16.3902C12.1156 16.7781 12.3061 17.1345 12.5858 17.4142C12.8655 17.6939 13.2219 17.8844 13.6098 17.9616C13.9978 18.0387 14.3999 17.9991 14.7654 17.8478C15.1308 17.6964 15.4432 17.44 15.6629 17.1111C15.8827 16.7822 16 16.3956 16 16C16 15.4696 15.7893 14.9609 15.4142 14.5858C15.0391 14.2107 14.5304 14 14 14Z" fill="white"/>
<path d="M5.99999 17C5.80136 17.0012 5.60689 16.9431 5.44137 16.8333C5.27585 16.7235 5.14678 16.5669 5.07062 16.3835C4.99445 16.2 4.97464 15.9981 5.01371 15.8033C5.05278 15.6086 5.14896 15.4299 5.28999 15.29L6.28999 14.29C6.38323 14.1968 6.49392 14.1228 6.61574 14.0723C6.73756 14.0219 6.86813 13.9959 6.99999 13.9959C7.13185 13.9959 7.26241 14.0219 7.38424 14.0723C7.50606 14.1228 7.61675 14.1968 7.70999 14.29C7.80323 14.3832 7.87719 14.4939 7.92765 14.6158C7.97811 14.7376 8.00408 14.8681 8.00408 15C8.00408 15.1319 7.97811 15.2624 7.92765 15.3843C7.87719 15.5061 7.80323 15.6168 7.70999 15.71C6.64999 16.77 6.51999 17 5.99999 17Z" fill="white"/>
<path d="M23 17H21C20.7348 17 20.4804 16.8946 20.2929 16.7071C20.1054 16.5196 20 16.2652 20 16C20 15.7348 20.1054 15.4804 20.2929 15.2929C20.4804 15.1054 20.7348 15 21 15H23C23.2652 15 23.5196 15.1054 23.7071 15.2929C23.8946 15.4804 24 15.7348 24 16C24 16.2652 23.8946 16.5196 23.7071 16.7071C23.5196 16.8946 23.2652 17 23 17Z" fill="white"/>
</g>
<defs>
<clipPath id="clip0_2_331">
<rect width="32" height="32" fill="white"/>
</clipPath>
</defs>
</svg>
