<svg width="32" height="32" viewBox="0 0 32 32" fill="none" xmlns="http://www.w3.org/2000/svg">
<g clip-path="url(#clip0_2_333)">
<path d="M25.87 11.86C25.711 11.8604 25.5542 11.8229 25.4126 11.7506C25.271 11.6782 25.1486 11.5732 25.0558 11.4441C24.9629 11.3151 24.9021 11.1657 24.8785 11.0085C24.8549 10.8512 24.8691 10.6906 24.92 10.54C25.0032 10.2432 25.0167 9.93116 24.9594 9.62828C24.9021 9.3254 24.7756 9.03986 24.5897 8.79396C24.4039 8.54806 24.1637 8.34845 23.8879 8.21072C23.6121 8.07299 23.3082 8.00087 23 7.99999C22.7348 7.99999 22.4804 7.89463 22.2929 7.7071C22.1054 7.51956 22 7.26521 22 6.99999C21.9998 6.68164 21.9236 6.36795 21.7777 6.08499C21.6318 5.80202 21.4205 5.55797 21.1613 5.37312C20.9021 5.18827 20.6026 5.06796 20.2875 5.02219C19.9725 4.97643 19.6511 5.00653 19.35 5.10999C19.1841 5.17527 19.0039 5.19503 18.8278 5.16723C18.6518 5.13944 18.4863 5.06509 18.3487 4.95189C18.211 4.8387 18.1061 4.69076 18.0448 4.5234C17.9835 4.35604 17.968 4.17533 18 3.99999C18 3.46956 17.7893 2.96085 17.4142 2.58578C17.0391 2.2107 16.5304 1.99999 16 1.99999C15.4696 1.99999 14.9609 2.2107 14.5858 2.58578C14.2107 2.96085 14 3.46956 14 3.99999C14.032 4.17533 14.0165 4.35604 13.9552 4.5234C13.8939 4.69076 13.789 4.8387 13.6513 4.95189C13.5137 5.06509 13.3482 5.13944 13.1722 5.16723C12.9961 5.19503 12.8158 5.17527 12.65 5.10999C12.3489 5.00653 12.0275 4.97643 11.7125 5.02219C11.3974 5.06796 11.0979 5.18827 10.8387 5.37312C10.5795 5.55797 10.3682 5.80202 10.2223 6.08499C10.0764 6.36795 10.0002 6.68164 10 6.99999C10 7.26521 9.89464 7.51956 9.7071 7.7071C9.51957 7.89463 9.26521 7.99999 9 7.99999C8.69175 8.00087 8.38787 8.07299 8.1121 8.21072C7.83633 8.34845 7.59613 8.54806 7.41025 8.79396C7.22437 9.03986 7.09785 9.3254 7.04056 9.62828C6.98327 9.93116 6.99677 10.2432 7.08 10.54C7.12236 10.6647 7.13965 10.7966 7.13089 10.9281C7.12212 11.0595 7.08748 11.1879 7.02894 11.3059C6.97039 11.4239 6.88911 11.5292 6.78976 11.6157C6.69041 11.7022 6.57494 11.7682 6.45 11.81C4.38 12.5 4.16 6.99999 8.1 6.09999C8.30719 5.20137 8.81853 4.40194 9.54745 3.83702C10.2764 3.27211 11.1781 2.97641 12.1 2.99999C12.3237 2.14399 12.8249 1.38633 13.5252 0.845567C14.2255 0.304808 15.0852 0.0114746 15.97 0.0114746C16.8547 0.0114746 17.7145 0.304808 18.4148 0.845567C19.1151 1.38633 19.6163 2.14399 19.84 2.99999C20.7619 2.97641 21.6636 3.27211 22.3925 3.83702C23.1215 4.40194 23.6328 5.20137 23.84 6.09999C27.51 6.92999 27.74 11.86 25.87 11.86Z" fill="white"/>
<path d="M13 32C12.7497 32.001 12.5081 31.9081 12.3229 31.7396C12.1378 31.5711 12.0225 31.3393 12 31.09L11.35 24.27C11.3249 24.0061 11.4057 23.7431 11.5744 23.5387C11.7432 23.3343 11.9862 23.2053 12.25 23.18C12.3814 23.1676 12.514 23.1814 12.6401 23.2205C12.7661 23.2597 12.8832 23.3234 12.9846 23.408C13.0859 23.4926 13.1695 23.5964 13.2305 23.7134C13.2915 23.8305 13.3287 23.9585 13.34 24.09L14 30.91C14.0125 31.0487 13.996 31.1885 13.9514 31.3204C13.9067 31.4523 13.8351 31.5734 13.7409 31.676C13.6468 31.7786 13.5323 31.8605 13.4047 31.9162C13.2771 31.972 13.1393 32.0006 13 32Z" fill="white"/>
<path d="M16 9C12.73 9 2.23 9.16 3 12.31L5.75 29.47C5.86284 30.1817 6.22808 30.829 6.77894 31.2936C7.3298 31.7581 8.02947 32.0089 8.75 32H23.29C24.0105 32.0089 24.7102 31.7581 25.2611 31.2936C25.8119 30.829 26.1772 30.1817 26.29 29.47L26.5 28.16C26.5424 27.8948 26.4778 27.6236 26.3202 27.406C26.1627 27.1885 25.9252 27.0424 25.66 27C25.3948 26.9576 25.1236 27.0222 24.906 27.1798C24.6885 27.3373 24.5424 27.5748 24.5 27.84L24.3 29.16C24.2617 29.3966 24.1396 29.6116 23.9561 29.7658C23.7725 29.92 23.5397 30.0031 23.3 30H8.71C8.47031 30.0031 8.23749 29.92 8.05394 29.7658C7.8704 29.6116 7.74834 29.3966 7.71 29.16L5.06 12.26C6.68599 11.6712 8.39229 11.334 10.12 11.26L10.79 18.26C10.8139 18.5252 10.9421 18.7701 11.1465 18.9407C11.351 19.1114 11.6148 19.1939 11.88 19.17C12.1452 19.1461 12.3901 19.0179 12.5608 18.8135C12.7314 18.6091 12.8139 18.3452 12.79 18.08L12.12 11.08C14.7113 10.935 17.3087 10.935 19.9 11.08L19.23 18.08C19.2182 18.2113 19.2323 18.3437 19.2717 18.4695C19.311 18.5954 19.3748 18.7123 19.4593 18.8135C19.5438 18.9147 19.6474 18.9983 19.7642 19.0594C19.881 19.1206 20.0087 19.1582 20.14 19.17C20.2713 19.1818 20.4037 19.1677 20.5295 19.1283C20.6554 19.089 20.7723 19.0252 20.8735 18.9407C20.9747 18.8562 21.0583 18.7526 21.1194 18.6358C21.1806 18.519 21.2182 18.3913 21.23 18.26L21.9 11.26C23.6277 11.334 25.334 11.6712 26.96 12.26L25.12 23.84C25.099 23.9713 25.1041 24.1055 25.1349 24.2349C25.1657 24.3642 25.2218 24.4863 25.2998 24.594C25.3778 24.7017 25.4762 24.793 25.5895 24.8626C25.7028 24.9323 25.8287 24.979 25.96 25C26.0913 25.021 26.2255 25.016 26.3549 24.9851C26.4842 24.9543 26.6063 24.8982 26.714 24.8202C26.8217 24.7422 26.913 24.6438 26.9827 24.5305C27.0523 24.4172 27.099 24.2913 27.12 24.16L29 12.29C29.58 9.12 19.26 9 16 9Z" fill="white"/>
<path d="M19 32C18.8607 32.0006 18.7229 31.972 18.5953 31.9163C18.4677 31.8605 18.3532 31.7787 18.2591 31.676C18.1649 31.5734 18.0933 31.4523 18.0486 31.3204C18.004 31.1885 17.9875 31.0487 18 30.91L18.66 24.09C18.6825 23.8407 18.7978 23.6089 18.9829 23.4404C19.1681 23.2719 19.4097 23.179 19.66 23.18C19.9165 23.1928 20.1581 23.3038 20.335 23.49C20.5119 23.6762 20.6103 23.9232 20.61 24.18C20.61 24.3 20.61 24.18 19.96 31.1C19.936 31.3408 19.8254 31.5647 19.6489 31.7302C19.4724 31.8956 19.2418 31.9915 19 32Z" fill="white"/>
<path d="M16 26C12.08 26 9 23.8 9 21C9 18.2 12.08 16 16 16C19.92 16 23 18.2 23 21C23 23.8 19.92 26 16 26ZM16 18C13.29 18 11 19.37 11 21C11 22.63 13.29 24 16 24C18.71 24 21 22.63 21 21C21 19.37 18.71 18 16 18Z" fill="white"/>
</g>
<defs>
<clipPath id="clip0_2_333">
<rect width="32" height="32" fill="white"/>
</clipPath>
</defs>
</svg>
