<svg width="32" height="32" viewBox="0 0 32 32" fill="none" xmlns="http://www.w3.org/2000/svg">
<g clip-path="url(#clip0_2_332)">
<path d="M28.65 22H3.35001C3.08479 22 2.83044 21.8946 2.6429 21.7071C2.45536 21.5196 2.35001 21.2652 2.35001 21C2.35001 20.7348 2.45536 20.4804 2.6429 20.2929C2.83044 20.1054 3.08479 20 3.35001 20H28.65C28.9152 20 29.1696 20.1054 29.3571 20.2929C29.5446 20.4804 29.65 20.7348 29.65 21C29.65 21.2652 29.5446 21.5196 29.3571 21.7071C29.1696 21.8946 28.9152 22 28.65 22Z" fill="white"/>
<path d="M8.32 11.21C8.17556 11.21 8.03284 11.1787 7.90164 11.1183C7.77044 11.0579 7.65389 10.9698 7.56 10.86L2.24 4.64999C2.15465 4.55019 2.08978 4.43455 2.04911 4.30967C2.00844 4.1848 1.99277 4.05314 2.00298 3.92221C2.02361 3.65778 2.14844 3.41238 2.35 3.23999C2.55157 3.0676 2.81336 2.98234 3.07779 3.00297C3.34221 3.0236 3.58761 3.14843 3.76 3.34999L9.08 9.55999C9.20426 9.70526 9.28428 9.88311 9.31057 10.0725C9.33686 10.2618 9.30833 10.4547 9.22835 10.6284C9.14838 10.802 9.02031 10.9491 8.85932 11.0521C8.69833 11.1552 8.51117 11.21 8.32 11.21Z" fill="white"/>
<path d="M9.62001 8.11999C9.42371 8.11983 9.23181 8.0619 9.06821 7.95343C8.90461 7.84496 8.77656 7.69073 8.70001 7.50999L6.08001 1.38999C5.9884 1.14825 5.99398 0.88043 6.09555 0.642712C6.19713 0.404994 6.38682 0.215849 6.62483 0.114954C6.86284 0.0140589 7.13067 0.00925466 7.37214 0.101549C7.61362 0.193843 7.80997 0.376064 7.92001 0.609986L10.54 6.72999C10.6044 6.88197 10.6301 7.04752 10.615 7.21188C10.5998 7.37623 10.5442 7.53428 10.4531 7.67191C10.362 7.80955 10.2382 7.9225 10.0929 8.00068C9.94751 8.07887 9.78506 8.11985 9.62001 8.11999Z" fill="white"/>
<path d="M31 16H30C29.9978 14.1296 29.3404 12.3192 28.1419 10.8832C26.9435 9.44727 25.2798 8.47663 23.44 8.13997C22.8178 6.55401 21.7055 5.2081 20.2651 4.29826C18.8247 3.38843 17.1315 2.96217 15.432 3.08157C13.7326 3.20096 12.1156 3.85978 10.8166 4.96208C9.51757 6.06438 8.60438 7.55258 8.21 9.20997C6.6148 9.57759 5.17077 10.4257 4.0728 11.6399C2.97484 12.8541 2.27579 14.3759 2.07 16H1C0.734784 16 0.48043 16.1053 0.292893 16.2929C0.105357 16.4804 0 16.7347 0 17L0 18C0 23.72 3.85 28.39 9 30.59V31C9 31.2652 9.10536 31.5195 9.29289 31.7071C9.48043 31.8946 9.73478 32 10 32H22C22.2652 32 22.5196 31.8946 22.7071 31.7071C22.8946 31.5195 23 31.2652 23 31V30.59C24.1206 30.1185 25.1841 29.5213 26.17 28.81C26.2824 28.7356 26.3786 28.6393 26.4528 28.5268C26.527 28.4143 26.5778 28.288 26.602 28.1554C26.6261 28.0228 26.6233 27.8867 26.5935 27.7553C26.5638 27.6238 26.5078 27.4998 26.4289 27.3905C26.35 27.2813 26.2498 27.1891 26.1344 27.1195C26.0189 27.05 25.8906 27.0044 25.7572 26.9857C25.6237 26.967 25.4878 26.9754 25.3577 27.0105C25.2276 27.0456 25.1059 27.1067 25 27.19C23.9727 27.9457 22.8452 28.5549 21.65 29C21.4586 29.0715 21.2937 29.1999 21.1775 29.368C21.0613 29.536 20.9993 29.7356 21 29.94C21 30.07 21.8 30.03 11 30.03C11.0141 29.8168 10.9596 29.6047 10.8445 29.4247C10.7293 29.2448 10.5595 29.1064 10.36 29.03C5.62 27.18 2 23.07 2 18H30C29.9856 20.3145 29.2245 22.5626 27.83 24.41C27.6761 24.6239 27.6129 24.8899 27.6541 25.1502C27.6953 25.4105 27.8376 25.644 28.05 25.8C28.2627 25.9549 28.5279 26.0197 28.7881 25.9804C29.0483 25.9411 29.2825 25.8008 29.44 25.59C31.0917 23.4034 31.9899 20.7402 32 18V17C32 16.7347 31.8946 16.4804 31.7071 16.2929C31.5196 16.1053 31.2652 16 31 16ZM21.2 8.04997C20.4943 8.11927 19.8013 8.28411 19.14 8.53997C18.7148 8.00403 18.1592 7.58611 17.5264 7.32615C16.8936 7.06619 16.2047 6.97289 15.5255 7.05515C14.8463 7.13741 14.1996 7.39249 13.6472 7.79602C13.0947 8.19954 12.655 8.73801 12.37 9.35997C11.72 9.16561 11.048 9.05472 10.37 9.02997C10.7576 7.95594 11.4437 7.01483 12.3476 6.31715C13.2515 5.61948 14.3357 5.19422 15.4729 5.09132C16.6101 4.98841 17.7531 5.21214 18.7675 5.73622C19.782 6.2603 20.6259 7.06297 21.2 8.04997ZM15.57 11.27C15.1592 10.8456 14.6873 10.4849 14.17 10.2C14.2983 9.91373 14.4922 9.66168 14.7359 9.4642C14.9796 9.26671 15.2664 9.12932 15.573 9.06313C15.8796 8.99694 16.1975 9.0038 16.501 9.08316C16.8045 9.16252 17.085 9.31215 17.32 9.51997C16.6502 10.0099 16.0599 10.6001 15.57 11.27ZM10 11C11.4169 11.0014 12.7875 11.5042 13.8692 12.4194C14.9509 13.3345 15.6739 14.6029 15.91 16H13.91C13.6829 15.1483 13.181 14.3955 12.482 13.8585C11.7831 13.3215 10.9264 13.0304 10.045 13.0304C9.1636 13.0304 8.30688 13.3215 7.60796 13.8585C6.90904 14.3955 6.40705 15.1483 6.18 16H4.18C4.41341 14.618 5.12323 13.3614 6.18631 12.4481C7.2494 11.5348 8.59866 11.0224 10 11ZM11.73 16H8.28C8.45646 15.6992 8.70849 15.4498 9.01108 15.2765C9.31367 15.1032 9.6563 15.0121 10.005 15.0121C10.3537 15.0121 10.6963 15.1032 10.9989 15.2765C11.3015 15.4498 11.5535 15.6992 11.73 16ZM20 16C20 15.4695 20.2107 14.9608 20.5858 14.5858C20.9609 14.2107 21.4696 14 22 14C22.5304 14 23.0391 14.2107 23.4142 14.5858C23.7893 14.9608 24 15.4695 24 16H20ZM22 12C20.9391 12 19.9217 12.4214 19.1716 13.1715C18.4214 13.9217 18 14.9391 18 16H17.94C17.8009 14.9133 17.4365 13.8677 16.87 12.93C17.5474 11.8132 18.5707 10.9479 19.7845 10.4656C20.9983 9.98324 22.3364 9.91019 23.5956 10.2575C24.8547 10.6048 25.9661 11.3535 26.761 12.3899C27.556 13.4263 27.991 14.6938 28 16H26C26 14.9391 25.5786 13.9217 24.8284 13.1715C24.0783 12.4214 23.0609 12 22 12Z" fill="white"/>
</g>
<defs>
<clipPath id="clip0_2_332">
<rect width="32" height="32" fill="white"/>
</clipPath>
</defs>
</svg>
