<svg width="32" height="32" viewBox="0 0 32 32" fill="none" xmlns="http://www.w3.org/2000/svg">
<g clip-path="url(#clip0_2_330)">
<path d="M28 6H24C23.7348 6 23.4804 5.89464 23.2929 5.70711C23.1054 5.51957 23 5.26522 23 5V3C23 2.20435 23.3161 1.44129 23.8787 0.87868C24.4413 0.31607 25.2044 0 26 0C26.7956 0 27.5587 0.31607 28.1213 0.87868C28.6839 1.44129 29 2.20435 29 3V5C29 5.26522 28.8946 5.51957 28.7071 5.70711C28.5196 5.89464 28.2652 6 28 6ZM25 4H27V3C27 2.73478 26.8946 2.48043 26.7071 2.29289C26.5196 2.10536 26.2652 2 26 2C25.7348 2 25.4804 2.10536 25.2929 2.29289C25.1054 2.48043 25 2.73478 25 3V4Z" fill="white"/>
<path d="M26 32C25.2044 32 24.4413 31.6839 23.8787 31.1213C23.3161 30.5587 23 29.7956 23 29V27C23 26.7348 23.1054 26.4804 23.2929 26.2929C23.4804 26.1054 23.7348 26 24 26H28C28.2652 26 28.5196 26.1054 28.7071 26.2929C28.8946 26.4804 29 26.7348 29 27V29C29 29.7956 28.6839 30.5587 28.1213 31.1213C27.5587 31.6839 26.7956 32 26 32ZM25 28V29C25 29.2652 25.1054 29.5196 25.2929 29.7071C25.4804 29.8946 25.7348 30 26 30C26.2652 30 26.5196 29.8946 26.7071 29.7071C26.8946 29.5196 27 29.2652 27 29V28H25Z" fill="white"/>
<path d="M18 6H14C13.7348 6 13.4804 5.89464 13.2929 5.70711C13.1054 5.51957 13 5.26522 13 5V3C13 2.20435 13.3161 1.44129 13.8787 0.87868C14.4413 0.31607 15.2044 0 16 0C16.7956 0 17.5587 0.31607 18.1213 0.87868C18.6839 1.44129 19 2.20435 19 3V5C19 5.26522 18.8946 5.51957 18.7071 5.70711C18.5196 5.89464 18.2652 6 18 6ZM15 4H17V3C17 2.73478 16.8946 2.48043 16.7071 2.29289C16.5196 2.10536 16.2652 2 16 2C15.7348 2 15.4804 2.10536 15.2929 2.29289C15.1054 2.48043 15 2.73478 15 3V4Z" fill="white"/>
<path d="M16 32C15.2044 32 14.4413 31.6839 13.8787 31.1213C13.3161 30.5587 13 29.7956 13 29V27C13 26.7348 13.1054 26.4804 13.2929 26.2929C13.4804 26.1054 13.7348 26 14 26H18C18.2652 26 18.5196 26.1054 18.7071 26.2929C18.8946 26.4804 19 26.7348 19 27V29C19 29.7956 18.6839 30.5587 18.1213 31.1213C17.5587 31.6839 16.7956 32 16 32ZM15 28V29C15 29.2652 15.1054 29.5196 15.2929 29.7071C15.4804 29.8946 15.7348 30 16 30C16.2652 30 16.5196 29.8946 16.7071 29.7071C16.8946 29.5196 17 29.2652 17 29V28H15Z" fill="white"/>
<path d="M8 6H4C3.73478 6 3.48043 5.89464 3.29289 5.70711C3.10536 5.51957 3 5.26522 3 5V3C3 2.20435 3.31607 1.44129 3.87868 0.87868C4.44129 0.31607 5.20435 0 6 0C6.79565 0 7.55871 0.31607 8.12132 0.87868C8.68393 1.44129 9 2.20435 9 3V5C9 5.26522 8.89464 5.51957 8.70711 5.70711C8.51957 5.89464 8.26522 6 8 6ZM5 4H7V3C7 2.73478 6.89464 2.48043 6.70711 2.29289C6.51957 2.10536 6.26522 2 6 2C5.73478 2 5.48043 2.10536 5.29289 2.29289C5.10536 2.48043 5 2.73478 5 3V4Z" fill="white"/>
<path d="M6 32C5.20435 32 4.44129 31.6839 3.87868 31.1213C3.31607 30.5587 3 29.7956 3 29V27C3 26.7348 3.10536 26.4804 3.29289 26.2929C3.48043 26.1054 3.73478 26 4 26H8C8.26522 26 8.51957 26.1054 8.70711 26.2929C8.89464 26.4804 9 26.7348 9 27V29C9 29.7956 8.68393 30.5587 8.12132 31.1213C7.55871 31.6839 6.79565 32 6 32ZM5 28V29C5 29.2652 5.10536 29.5196 5.29289 29.7071C5.48043 29.8946 5.73478 30 6 30C6.26522 30 6.51957 29.8946 6.70711 29.7071C6.89464 29.5196 7 29.2652 7 29V28H5Z" fill="white"/>
<path d="M29 4H23C22.2599 4.00441 21.5476 4.28221 21 4.78C20.4524 4.28221 19.7401 4.00441 19 4H13C12.2599 4.00441 11.5476 4.28221 11 4.78C10.4524 4.28221 9.74006 4.00441 9 4H3C2.20435 4 1.44129 4.31607 0.87868 4.87868C0.31607 5.44129 0 6.20435 0 7L0 17C0 17.2652 0.105357 17.5196 0.292893 17.7071C0.48043 17.8946 0.734784 18 1 18C1.26522 18 1.51957 17.8946 1.70711 17.7071C1.89464 17.5196 2 17.2652 2 17V7C2 6.73478 2.10536 6.48043 2.29289 6.29289C2.48043 6.10536 2.73478 6 3 6H9C9.26522 6 9.51957 6.10536 9.70711 6.29289C9.89464 6.48043 10 6.73478 10 7V25C10 25.2652 9.89464 25.5196 9.70711 25.7071C9.51957 25.8946 9.26522 26 9 26H3C2.73478 26 2.48043 25.8946 2.29289 25.7071C2.10536 25.5196 2 25.2652 2 25V21C2 20.7348 1.89464 20.4804 1.70711 20.2929C1.51957 20.1054 1.26522 20 1 20C0.734784 20 0.48043 20.1054 0.292893 20.2929C0.105357 20.4804 0 20.7348 0 21L0 25C0 25.7956 0.31607 26.5587 0.87868 27.1213C1.44129 27.6839 2.20435 28 3 28H9C9.74006 27.9956 10.4524 27.7178 11 27.22C11.5476 27.7178 12.2599 27.9956 13 28H19C19.7401 27.9956 20.4524 27.7178 21 27.22C21.5476 27.7178 22.2599 27.9956 23 28H29C29.7956 28 30.5587 27.6839 31.1213 27.1213C31.6839 26.5587 32 25.7956 32 25V7C32 6.20435 31.6839 5.44129 31.1213 4.87868C30.5587 4.31607 29.7956 4 29 4ZM19 26H13C12.7348 26 12.4804 25.8946 12.2929 25.7071C12.1054 25.5196 12 25.2652 12 25V7C12 6.73478 12.1054 6.48043 12.2929 6.29289C12.4804 6.10536 12.7348 6 13 6H19C19.2652 6 19.5196 6.10536 19.7071 6.29289C19.8946 6.48043 20 6.73478 20 7V25C20 25.2652 19.8946 25.5196 19.7071 25.7071C19.5196 25.8946 19.2652 26 19 26ZM30 25C30 25.2652 29.8946 25.5196 29.7071 25.7071C29.5196 25.8946 29.2652 26 29 26H23C22.7348 26 22.4804 25.8946 22.2929 25.7071C22.1054 25.5196 22 25.2652 22 25V7C22 6.73478 22.1054 6.48043 22.2929 6.29289C22.4804 6.10536 22.7348 6 23 6H29C29.2652 6 29.5196 6.10536 29.7071 6.29289C29.8946 6.48043 30 6.73478 30 7V25Z" fill="white"/>
</g>
<defs>
<clipPath id="clip0_2_330">
<rect width="32" height="32" fill="white"/>
</clipPath>
</defs>
</svg>
