<svg width="32" height="32" viewBox="0 0 32 32" fill="none" xmlns="http://www.w3.org/2000/svg">
<g clip-path="url(#clip0_8_1160)">
<path d="M8.99999 9C8.74999 9 9.37999 9.21 0.649994 5.94C0.526551 5.89403 0.41337 5.82421 0.316913 5.7345C0.220456 5.6448 0.142612 5.53698 0.0878259 5.41719C0.0330393 5.2974 0.00238314 5.168 -0.00239232 5.03636C-0.00716779 4.90473 0.014031 4.77344 0.0599936 4.65C0.105956 4.52655 0.175783 4.41337 0.265486 4.31692C0.355189 4.22046 0.463013 4.14262 0.582801 4.08783C0.702588 4.03304 0.831994 4.00239 0.963629 3.99761C1.09526 3.99284 1.22655 4.01403 1.34999 4.06L9.34999 7.06C9.5718 7.14047 9.75801 7.29679 9.87569 7.50131C9.99337 7.70583 10.0349 7.94537 9.99304 8.17758C9.95115 8.40979 9.82849 8.61971 9.64676 8.77021C9.46504 8.92071 9.23594 9.00211 8.99999 9Z" fill="#08221D"/>
<path d="M9.89 6.87C9.7584 6.87076 9.62793 6.84553 9.5061 6.79577C9.38426 6.74601 9.27344 6.67268 9.18 6.58L4.29 1.71C4.1017 1.52169 3.99591 1.2663 3.99591 0.999998C3.99591 0.733697 4.1017 0.478302 4.29 0.289998C4.47831 0.101695 4.7337 -0.00409317 5 -0.00409317C5.2663 -0.00409317 5.5217 0.101695 5.71 0.289998L10.6 5.16C10.741 5.29987 10.8372 5.47857 10.8763 5.67332C10.9154 5.86807 10.8955 6.07004 10.8194 6.25348C10.7432 6.43692 10.6141 6.59353 10.4486 6.70333C10.2831 6.81313 10.0886 6.87115 9.89 6.87Z" fill="#08221D"/>
<path d="M28.82 16H3.18001C1.32001 16 1.39001 11 5.10001 10.1C5.26842 9.36893 5.63902 8.69996 6.1695 8.16949C6.69998 7.63901 7.36895 7.2684 8.10001 7.1C8.3165 6.12462 8.89017 5.26557 9.70815 4.69186C10.5261 4.11816 11.5292 3.87135 12.52 4C12.8659 3.37479 13.373 2.85366 13.9885 2.49077C14.604 2.12788 15.3055 1.93649 16.02 1.93649C16.7345 1.93649 17.436 2.12788 18.0515 2.49077C18.667 2.85366 19.1741 3.37479 19.52 4C20.5045 3.88198 21.4976 4.13379 22.3069 4.70658C23.1162 5.27938 23.684 6.13233 23.9 7.1C24.6311 7.2684 25.3 7.63901 25.8305 8.16949C26.361 8.69996 26.7316 9.36893 26.9 10.1C30.61 11 30.68 16 28.82 16ZM4.00001 14H28C28 13.4696 27.7893 12.9609 27.4142 12.5858C27.0392 12.2107 26.5304 12 26 12C25.7348 12 25.4804 11.8946 25.2929 11.7071C25.1054 11.5196 25 11.2652 25 11C25 10.4696 24.7893 9.96086 24.4142 9.58578C24.0392 9.21071 23.5304 9 23 9C22.7348 9 22.4804 8.89464 22.2929 8.7071C22.1054 8.51957 22 8.26521 22 8C22 7.46956 21.7893 6.96086 21.4142 6.58578C21.0392 6.21071 20.5304 6 20 6C19.28 6 19.05 6.42 18.44 6.12C18.3153 6.05302 18.2051 5.96196 18.1159 5.8521C18.0266 5.74224 17.96 5.61577 17.92 5.48C17.7988 5.06457 17.5462 4.69964 17.2 4.44C16.8538 4.18035 16.4328 4.04 16 4.04C15.5673 4.04 15.1462 4.18035 14.8 4.44C14.4538 4.69964 14.2012 5.06457 14.08 5.48C14.0399 5.61712 13.9721 5.74461 13.881 5.85466C13.7899 5.9647 13.6773 6.05499 13.55 6.12C12.94 6.42 12.74 6 12 6C11.4696 6 10.9609 6.21071 10.5858 6.58578C10.2107 6.96086 10 7.46956 10 8C10 8.26521 9.89466 8.51957 9.70712 8.7071C9.51958 8.89464 9.26523 9 9.00001 9C8.46958 9 7.96087 9.21071 7.5858 9.58578C7.21073 9.96086 7.00001 10.4696 7.00001 11C7.00001 11.2652 6.89466 11.5196 6.70712 11.7071C6.51958 11.8946 6.26523 12 6.00001 12C5.46958 12 4.96087 12.2107 4.5858 12.5858C4.21073 12.9609 4.00001 13.4696 4.00001 14Z" fill="#22BB9B"/>
<path d="M31 14H1C0.734784 14 0.48043 14.1054 0.292894 14.2929C0.105358 14.4804 7.82358e-07 14.7348 7.82358e-07 15V19C-0.000168876 19.1356 0.0272566 19.2699 0.0806088 19.3946C0.133961 19.5193 0.212125 19.6318 0.310345 19.7254C0.408565 19.8189 0.524788 19.8915 0.651945 19.9387C0.779102 19.9859 0.914533 20.0068 1.05 20C1.30175 23.263 2.77497 26.3111 5.17551 28.5355C7.57605 30.7599 10.7273 31.9971 14 32H18C20.7212 32.0091 23.3751 31.1548 25.58 29.56C25.6874 29.4835 25.7785 29.3864 25.8483 29.2745C25.918 29.1626 25.9649 29.038 25.9863 28.9079C26.0077 28.7777 26.0031 28.6447 25.9728 28.5163C25.9426 28.388 25.8872 28.2669 25.81 28.16C25.654 27.9476 25.4205 27.8053 25.1602 27.7641C24.9 27.7229 24.6339 27.7861 24.42 27.94C21 30.37 18.17 30 14 30C11.2479 30.0114 8.59148 28.9907 6.55506 27.1394C4.51864 25.2881 3.25017 22.7407 3 20H29C28.8335 21.8155 28.2184 23.5612 27.21 25.08C27.1283 25.1887 27.0695 25.3129 27.0374 25.445C27.0053 25.5772 27.0005 25.7145 27.0233 25.8486C27.0461 25.9826 27.096 26.1107 27.1699 26.2248C27.2438 26.3389 27.3403 26.4368 27.4533 26.5124C27.5664 26.588 27.6936 26.6397 27.8274 26.6644C27.9611 26.6892 28.0985 26.6863 28.2311 26.6562C28.3637 26.626 28.4887 26.5691 28.5986 26.4889C28.7084 26.4088 28.8008 26.3071 28.87 26.19C30.1004 24.3441 30.834 22.2122 31 20C31.2652 20 31.5196 19.8946 31.7071 19.7071C31.8946 19.5196 32 19.2652 32 19V15C32 14.7348 31.8946 14.4804 31.7071 14.2929C31.5196 14.1054 31.2652 14 31 14ZM2 18V16H30V18H2Z" fill="#08221D"/>
</g>
<defs>
<clipPath id="clip0_8_1160">
<rect width="32" height="32" fill="white"/>
</clipPath>
</defs>
</svg>
