<svg width="32" height="32" viewBox="0 0 32 32" fill="none" xmlns="http://www.w3.org/2000/svg">
<g clip-path="url(#clip0_2_329)">
<path d="M8.99999 8.99999C8.74999 8.99999 9.37999 9.20999 0.649994 5.93999C0.526551 5.89403 0.41337 5.8242 0.316913 5.7345C0.220456 5.6448 0.142612 5.53697 0.0878259 5.41719C0.0330393 5.2974 0.00238314 5.16799 -0.00239232 5.03636C-0.00716779 4.90472 0.014031 4.77344 0.0599936 4.64999C0.105956 4.52655 0.175783 4.41337 0.265486 4.31691C0.355189 4.22046 0.463013 4.14261 0.582801 4.08783C0.702588 4.03304 0.831994 4.00238 0.963629 3.99761C1.09526 3.99283 1.22655 4.01403 1.34999 4.05999L9.34999 7.05999C9.5718 7.14047 9.75801 7.29679 9.87569 7.50131C9.99337 7.70583 10.0349 7.94537 9.99304 8.17758C9.95115 8.40979 9.82849 8.6197 9.64676 8.77021C9.46504 8.92071 9.23594 9.0021 8.99999 8.99999Z" fill="white"/>
<path d="M9.89 6.87C9.7584 6.87076 9.62793 6.84554 9.5061 6.79577C9.38426 6.74601 9.27344 6.67268 9.18 6.58L4.29 1.71C4.1017 1.5217 3.99591 1.2663 3.99591 1C3.99591 0.733701 4.1017 0.478306 4.29 0.290002C4.47831 0.101699 4.7337 -0.00408936 5 -0.00408936C5.2663 -0.00408936 5.5217 0.101699 5.71 0.290002L10.6 5.16C10.741 5.29987 10.8372 5.47857 10.8763 5.67332C10.9154 5.86807 10.8955 6.07004 10.8194 6.25348C10.7432 6.43693 10.6141 6.59353 10.4486 6.70333C10.2831 6.81314 10.0886 6.87116 9.89 6.87Z" fill="white"/>
<path d="M28.82 16H3.17998C1.31998 16 1.38998 11 5.09998 10.1C5.26839 9.36897 5.63899 8.7 6.16947 8.16952C6.69995 7.63904 7.36892 7.26844 8.09998 7.10003C8.31647 6.12465 8.89014 5.2656 9.70812 4.6919C10.5261 4.1182 11.5292 3.87139 12.52 4.00003C12.8659 3.37483 13.373 2.85369 13.9885 2.4908C14.604 2.12792 15.3055 1.93652 16.02 1.93652C16.7345 1.93652 17.436 2.12792 18.0515 2.4908C18.667 2.85369 19.1741 3.37483 19.52 4.00003C20.5044 3.88202 21.4976 4.13383 22.3069 4.70662C23.1162 5.27941 23.6839 6.13236 23.9 7.10003C24.631 7.26844 25.3 7.63904 25.8305 8.16952C26.361 8.7 26.7316 9.36897 26.9 10.1C30.61 11 30.68 16 28.82 16ZM3.99998 14H28C28 13.4696 27.7893 12.9609 27.4142 12.5858C27.0391 12.2107 26.5304 12 26 12C25.7348 12 25.4804 11.8947 25.2929 11.7071C25.1053 11.5196 25 11.2652 25 11C25 10.4696 24.7893 9.96089 24.4142 9.58582C24.0391 9.21075 23.5304 9.00003 23 9.00003C22.7348 9.00003 22.4804 8.89467 22.2929 8.70714C22.1053 8.5196 22 8.26525 22 8.00003C22 7.4696 21.7893 6.96089 21.4142 6.58582C21.0391 6.21075 20.5304 6.00003 20 6.00003C19.28 6.00003 19.05 6.42003 18.44 6.12003C18.3153 6.05305 18.2051 5.962 18.1159 5.85214C18.0266 5.74228 17.96 5.6158 17.92 5.48003C17.7988 5.0646 17.5462 4.69968 17.2 4.44003C16.8538 4.18039 16.4327 4.04003 16 4.04003C15.5672 4.04003 15.1462 4.18039 14.8 4.44003C14.4538 4.69968 14.2011 5.0646 14.08 5.48003C14.0398 5.61716 13.9721 5.74465 13.881 5.85469C13.7899 5.96474 13.6772 6.05503 13.55 6.12003C12.94 6.42003 12.74 6.00003 12 6.00003C11.4695 6.00003 10.9608 6.21075 10.5858 6.58582C10.2107 6.96089 9.99998 7.4696 9.99998 8.00003C9.99998 8.26525 9.89462 8.5196 9.70709 8.70714C9.51955 8.89467 9.2652 9.00003 8.99998 9.00003C8.46955 9.00003 7.96084 9.21075 7.58577 9.58582C7.2107 9.96089 6.99998 10.4696 6.99998 11C6.99998 11.2652 6.89462 11.5196 6.70709 11.7071C6.51955 11.8947 6.2652 12 5.99998 12C5.46955 12 4.96084 12.2107 4.58577 12.5858C4.2107 12.9609 3.99998 13.4696 3.99998 14Z" fill="white"/>
<path d="M31 14H1C0.734784 14 0.48043 14.1054 0.292894 14.2929C0.105358 14.4804 7.82358e-07 14.7348 7.82358e-07 15V19C-0.000168876 19.1356 0.0272566 19.2699 0.0806088 19.3946C0.133961 19.5193 0.212125 19.6318 0.310345 19.7254C0.408565 19.8189 0.524788 19.8915 0.651945 19.9387C0.779102 19.9859 0.914533 20.0068 1.05 20C1.30175 23.263 2.77497 26.3111 5.17551 28.5355C7.57605 30.7599 10.7273 31.9971 14 32H18C20.7212 32.0091 23.3751 31.1548 25.58 29.56C25.6874 29.4835 25.7785 29.3864 25.8483 29.2745C25.918 29.1626 25.9649 29.038 25.9863 28.9079C26.0077 28.7777 26.0031 28.6447 25.9728 28.5163C25.9426 28.388 25.8872 28.2669 25.81 28.16C25.654 27.9476 25.4205 27.8053 25.1602 27.7641C24.9 27.7229 24.6339 27.7861 24.42 27.94C21 30.37 18.17 30 14 30C11.2479 30.0114 8.59148 28.9907 6.55506 27.1394C4.51864 25.2881 3.25017 22.7407 3 20H29C28.8335 21.8155 28.2184 23.5612 27.21 25.08C27.1283 25.1887 27.0695 25.3129 27.0374 25.445C27.0053 25.5772 27.0005 25.7145 27.0233 25.8486C27.0461 25.9826 27.096 26.1107 27.1699 26.2248C27.2438 26.3389 27.3403 26.4368 27.4533 26.5124C27.5664 26.588 27.6936 26.6397 27.8274 26.6644C27.9611 26.6892 28.0985 26.6863 28.2311 26.6562C28.3637 26.626 28.4887 26.5691 28.5986 26.4889C28.7084 26.4088 28.8008 26.3071 28.87 26.19C30.1004 24.3441 30.834 22.2122 31 20C31.2652 20 31.5196 19.8946 31.7071 19.7071C31.8946 19.5196 32 19.2652 32 19V15C32 14.7348 31.8946 14.4804 31.7071 14.2929C31.5196 14.1054 31.2652 14 31 14ZM2 18V16H30V18H2Z" fill="white"/>
</g>
<defs>
<clipPath id="clip0_2_329">
<rect width="32" height="32" fill="white"/>
</clipPath>
</defs>
</svg>
