<svg width="32" height="32" viewBox="0 0 32 32" fill="none" xmlns="http://www.w3.org/2000/svg">
<g clip-path="url(#clip0_8_1157)">
<path d="M16 14C15.7348 14 15.4804 13.8946 15.2929 13.7071C15.1054 13.5196 15 13.2652 15 13V8C15 7.73478 15.1054 7.48043 15.2929 7.29289C15.4804 7.10536 15.7348 7 16 7C16.2652 7 16.5196 7.10536 16.7071 7.29289C16.8946 7.48043 17 7.73478 17 8V13C17 13.2652 16.8946 13.5196 16.7071 13.7071C16.5196 13.8946 16.2652 14 16 14Z" fill="#22BB9B"/>
<path d="M30 18H2C1.73479 18 1.48043 17.8946 1.2929 17.7071C1.10536 17.5196 1 17.2652 1 17V12C0.99875 10.8326 1.40602 9.70157 2.15121 8.80295C2.8964 7.90434 3.93254 7.2948 5.08 7.08C5.22457 6.30808 5.54894 5.58106 6.02684 4.95786C6.50473 4.33465 7.12271 3.83278 7.8307 3.49291C8.53869 3.15303 9.31678 2.98471 10.1019 3.00158C10.8871 3.01845 11.6573 3.22003 12.35 3.59C12.8177 3.09044 13.383 2.69221 14.0108 2.41996C14.6386 2.14771 15.3157 2.00724 16 2.00724C16.6843 2.00724 17.3614 2.14771 17.9892 2.41996C18.617 2.69221 19.1823 3.09044 19.65 3.59C20.3427 3.22003 21.1129 3.01845 21.8981 3.00158C22.6832 2.98471 23.4613 3.15303 24.1693 3.49291C24.8773 3.83278 25.4953 4.33465 25.9732 4.95786C26.4511 5.58106 26.7754 6.30808 26.92 7.08C28.0675 7.2948 29.1036 7.90434 29.8488 8.80295C30.594 9.70157 31.0013 10.8326 31 12V17C31 17.2652 30.8946 17.5196 30.7071 17.7071C30.5196 17.8946 30.2652 18 30 18ZM3 16H29V12C29 11.2044 28.6839 10.4413 28.1213 9.87868C27.5587 9.31607 26.7957 9 26 9C25.7348 9 25.4804 8.89464 25.2929 8.70711C25.1054 8.51957 25 8.26522 25 8C25.0003 7.4275 24.8368 6.86686 24.5288 6.38427C24.2208 5.90169 23.7811 5.51732 23.2617 5.27654C22.7423 5.03576 22.1649 4.94863 21.5975 5.02544C21.0302 5.10225 20.4967 5.33978 20.06 5.71C19.9487 5.80253 19.8186 5.86979 19.6788 5.90714C19.5389 5.94448 19.3926 5.95102 19.25 5.9263C19.1074 5.90158 18.9718 5.84619 18.8527 5.76395C18.7335 5.68172 18.6337 5.5746 18.56 5.45C18.292 5.01141 17.9159 4.64902 17.4676 4.39758C17.0193 4.14615 16.514 4.0141 16 4.0141C15.486 4.0141 14.9807 4.14615 14.5324 4.39758C14.0841 4.64902 13.708 5.01141 13.44 5.45C13.3663 5.5746 13.2665 5.68172 13.1473 5.76395C13.0282 5.84619 12.8927 5.90158 12.75 5.9263C12.6074 5.95102 12.4611 5.94448 12.3213 5.90714C12.1814 5.86979 12.0513 5.80253 11.94 5.71C11.5033 5.33978 10.9698 5.10225 10.4025 5.02544C9.83515 4.94863 9.2577 5.03576 8.73829 5.27654C8.21888 5.51732 7.77921 5.90169 7.4712 6.38427C7.16318 6.86686 6.99968 7.4275 7 8C7 8.26522 6.89465 8.51957 6.70711 8.70711C6.51957 8.89464 6.26522 9 6 9C5.20435 9 4.44129 9.31607 3.87868 9.87868C3.31607 10.4413 3 11.2044 3 12V16Z" fill="#22BB9B"/>
<path d="M29 26H3C2.73478 26 2.48043 25.8946 2.29289 25.7071C2.10536 25.5196 2 25.2652 2 25C2 24.7348 2.10536 24.4804 2.29289 24.2929C2.48043 24.1054 2.73478 24 3 24H29C29.2652 24 29.5196 24.1054 29.7071 24.2929C29.8946 24.4804 30 24.7348 30 25C30 25.2652 29.8946 25.5196 29.7071 25.7071C29.5196 25.8946 29.2652 26 29 26Z" fill="#22BB9B"/>
<path d="M30.91 16C30.7219 14.906 30.234 13.8857 29.5006 13.0525C28.7672 12.2193 27.817 11.6058 26.7558 11.2804C25.6946 10.955 24.5638 10.9304 23.4894 11.2092C22.415 11.4881 21.439 12.0595 20.67 12.86C20.328 11.7977 19.7345 10.8337 18.94 10.05C18.7526 9.86375 18.4992 9.75921 18.235 9.75921C17.9708 9.75921 17.7174 9.86375 17.53 10.05L12.63 15C12.1771 13.762 11.329 12.7077 10.2169 11.9999C9.10486 11.2921 7.79064 10.9703 6.47734 11.0841C5.16405 11.1979 3.92478 11.741 2.95104 12.6295C1.97729 13.5181 1.32326 14.7026 1.09001 16C0.951322 15.9875 0.811546 16.004 0.679634 16.0486C0.547721 16.0933 0.42658 16.1649 0.323969 16.2591C0.221358 16.3532 0.13954 16.4677 0.0837533 16.5953C0.027967 16.7229 -0.000556982 16.8607 8.23859e-06 17V19C8.23859e-06 21.9174 1.15893 24.7153 3.22183 26.7782C5.28473 28.8411 8.08263 30 11 30H21C23.1401 29.9997 25.2336 29.3751 27.024 28.2028C28.8144 27.0305 30.224 25.3614 31.08 23.4C31.1409 23.2786 31.1764 23.1462 31.1844 23.0107C31.1924 22.8751 31.1727 22.7394 31.1265 22.6117C31.0804 22.4841 31.0087 22.3671 30.9159 22.268C30.8231 22.169 30.7111 22.0898 30.5867 22.0355C30.4623 21.9811 30.3281 21.9526 30.1924 21.9518C30.0566 21.9509 29.9221 21.9777 29.797 22.0305C29.672 22.0833 29.559 22.1611 29.4649 22.259C29.3709 22.3569 29.2978 22.4729 29.25 22.6C28.5494 24.2052 27.3957 25.5711 25.9303 26.5303C24.4649 27.4895 22.7514 28.0003 21 28H11C8.61306 28 6.32387 27.0518 4.63605 25.364C2.94822 23.6761 2.00001 21.3869 2.00001 19V18H30V19C30 19.2652 30.1054 19.5196 30.2929 19.7071C30.4804 19.8946 30.7348 20 31 20C31.2652 20 31.5196 19.8946 31.7071 19.7071C31.8947 19.5196 32 19.2652 32 19V17C32.0006 16.8607 31.972 16.7229 31.9163 16.5953C31.8605 16.4677 31.7787 16.3532 31.676 16.2591C31.5734 16.1649 31.4523 16.0933 31.3204 16.0486C31.1885 16.004 31.0487 15.9875 30.91 16ZM25 13C25.8846 13.0029 26.7432 13.2989 27.4416 13.8417C28.1401 14.3845 28.6389 15.1435 28.86 16H21.14C21.3611 15.1435 21.8599 14.3845 22.5584 13.8417C23.2568 13.2989 24.1154 13.0029 25 13ZM18.17 12.24C18.5362 12.7863 18.7887 13.4008 18.9124 14.0468C19.0361 14.6928 19.0285 15.357 18.89 16H14.41L18.17 12.24ZM7.00001 13C7.88457 13.0029 8.74322 13.2989 9.44165 13.8417C10.1401 14.3845 10.6389 15.1435 10.86 16H3.14001C3.36114 15.1435 3.85994 14.3845 4.55837 13.8417C5.25679 13.2989 6.11545 13.0029 7.00001 13Z" fill="#08221D"/>
</g>
<defs>
<clipPath id="clip0_8_1157">
<rect width="32" height="32" fill="white"/>
</clipPath>
</defs>
</svg>
