<svg width="32" height="32" viewBox="0 0 32 32" fill="none" xmlns="http://www.w3.org/2000/svg">
<g clip-path="url(#clip0_2_326)">
<path d="M16 14C15.7348 14 15.4804 13.8946 15.2929 13.7071C15.1054 13.5196 15 13.2652 15 13V7C15 6.73478 15.1054 6.48043 15.2929 6.29289C15.4804 6.10536 15.7348 6 16 6C16.2652 6 16.5196 6.10536 16.7071 6.29289C16.8946 6.48043 17 6.73478 17 7V13C17 13.2652 16.8946 13.5196 16.7071 13.7071C16.5196 13.8946 16.2652 14 16 14Z" fill="white"/>
<path d="M16 8C15.2089 8 14.4355 7.76541 13.7777 7.32588C13.1199 6.88635 12.6072 6.26164 12.3045 5.53074C12.0017 4.79983 11.9225 3.99556 12.0769 3.21964C12.2312 2.44372 12.6122 1.73098 13.1716 1.17157C13.731 0.612165 14.4437 0.231202 15.2196 0.0768607C15.9956 -0.0774802 16.7998 0.00173312 17.5307 0.304484C18.2616 0.607234 18.8864 1.11992 19.3259 1.77772C19.7654 2.43552 20 3.20888 20 4C20 5.06087 19.5786 6.07828 18.8284 6.82843C18.0783 7.57857 17.0609 8 16 8ZM16 2C15.6044 2 15.2178 2.1173 14.8889 2.33706C14.56 2.55683 14.3036 2.86918 14.1522 3.23464C14.0009 3.60009 13.9613 4.00222 14.0384 4.39018C14.1156 4.77814 14.3061 5.13451 14.5858 5.41422C14.8655 5.69392 15.2219 5.8844 15.6098 5.96157C15.9978 6.03874 16.3999 5.99914 16.7654 5.84776C17.1308 5.69639 17.4432 5.44004 17.6629 5.11114C17.8827 4.78224 18 4.39556 18 4C18 3.46957 17.7893 2.96086 17.4142 2.58579C17.0391 2.21072 16.5304 2 16 2Z" fill="white"/>
<path d="M30 17.72C30.3023 17.5455 30.5536 17.2949 30.7291 16.9932C30.9045 16.6914 30.9979 16.349 31 16V14C31 13.4696 30.7893 12.9609 30.4142 12.5858C30.0391 12.2107 29.5304 12 29 12H3C2.46957 12 1.96086 12.2107 1.58579 12.5858C1.21071 12.9609 1 13.4696 1 14V16C1.00211 16.349 1.09552 16.6914 1.27095 16.9932C1.44638 17.2949 1.69772 17.5455 2 17.72C2 19.82 1.85 20.77 2.55 21.99C2.17937 22.6023 1.98343 23.3043 1.98343 24.02C1.98343 24.7357 2.17937 25.4377 2.55 26.05C2.10917 26.1518 1.71588 26.4001 1.43435 26.7542C1.15283 27.1084 0.99971 27.5476 1 28V30C1 30.5304 1.21071 31.0391 1.58579 31.4142C1.96086 31.7893 2.46957 32 3 32H8C8.26522 32 8.51957 31.8946 8.70711 31.7071C8.89464 31.5196 9 31.2652 9 31C9 30.7348 8.89464 30.4804 8.70711 30.2929C8.51957 30.1054 8.26522 30 8 30H3V28H29V30H12C11.7348 30 11.4804 30.1054 11.2929 30.2929C11.1054 30.4804 11 30.7348 11 31C11 31.2652 11.1054 31.5196 11.2929 31.7071C11.4804 31.8946 11.7348 32 12 32H29C29.5304 32 30.0391 31.7893 30.4142 31.4142C30.7893 31.0391 31 30.5304 31 30V28C30.9988 27.5434 30.8414 27.1011 30.5539 26.7463C30.2665 26.3916 29.8664 26.1459 29.42 26.05C29.7823 25.4348 29.9734 24.7339 29.9734 24.02C29.9734 23.3061 29.7823 22.6052 29.42 21.99C30.15 20.78 30 20 30 17.72ZM28 20C27.9993 20.3854 27.8872 20.7624 27.6773 21.0856C27.4675 21.4088 27.1686 21.6645 26.8169 21.8219C26.4651 21.9793 26.0753 22.0317 25.6944 21.9728C25.3136 21.914 24.9578 21.7463 24.67 21.49C24.4862 21.3242 24.2475 21.2324 24 21.2324C23.7525 21.2324 23.5138 21.3242 23.33 21.49C22.9637 21.8161 22.4904 21.9963 22 21.9963C21.5096 21.9963 21.0363 21.8161 20.67 21.49C20.4862 21.3242 20.2475 21.2324 20 21.2324C19.7525 21.2324 19.5138 21.3242 19.33 21.49C18.9637 21.8161 18.4904 21.9963 18 21.9963C17.5096 21.9963 17.0363 21.8161 16.67 21.49C16.4862 21.3242 16.2475 21.2324 16 21.2324C15.7525 21.2324 15.5138 21.3242 15.33 21.49C14.9637 21.8161 14.4904 21.9963 14 21.9963C13.5096 21.9963 13.0363 21.8161 12.67 21.49C12.4862 21.3242 12.2475 21.2324 12 21.2324C11.7525 21.2324 11.5138 21.3242 11.33 21.49C10.9637 21.8161 10.4904 21.9963 10 21.9963C9.50958 21.9963 9.03626 21.8161 8.67 21.49C8.48625 21.3242 8.24752 21.2324 8 21.2324C7.75248 21.2324 7.51375 21.3242 7.33 21.49C7.04217 21.7463 6.68643 21.914 6.30556 21.9728C5.9247 22.0317 5.53493 21.9793 5.18314 21.8219C4.83136 21.6645 4.53255 21.4088 4.32265 21.0856C4.11275 20.7624 4.00071 20.3854 4 20V18H28V20ZM3 14H29V16H3V14ZM6 26C5.69507 25.9979 5.39465 25.9261 5.12173 25.79C4.84881 25.654 4.61061 25.4574 4.42533 25.2152C4.24006 24.973 4.11263 24.6916 4.05277 24.3926C3.99292 24.0936 4.00223 23.7849 4.08 23.49C4.67592 23.8341 5.3519 24.0152 6.04 24.0152C6.7281 24.0152 7.40409 23.8341 8 23.49C8.61033 23.8344 9.29923 24.0153 10 24.0153C10.7008 24.0153 11.3897 23.8344 12 23.49C12.6103 23.8344 13.2992 24.0153 14 24.0153C14.7008 24.0153 15.3897 23.8344 16 23.49C16.6103 23.8344 17.2992 24.0153 18 24.0153C18.7008 24.0153 19.3897 23.8344 20 23.49C20.6103 23.8344 21.2992 24.0153 22 24.0153C22.7008 24.0153 23.3897 23.8344 24 23.49C24.5966 23.8321 25.2723 24.0121 25.96 24.0121C26.6477 24.0121 27.3234 23.8321 27.92 23.49C27.9978 23.7849 28.0071 24.0936 27.9472 24.3926C27.8874 24.6916 27.7599 24.973 27.5747 25.2152C27.3894 25.4574 27.1512 25.654 26.8783 25.79C26.6053 25.9261 26.3049 25.9979 26 26H6Z" fill="white"/>
</g>
<defs>
<clipPath id="clip0_2_326">
<rect width="32" height="32" fill="white"/>
</clipPath>
</defs>
</svg>
