<svg width="32" height="32" viewBox="0 0 32 32" fill="none" xmlns="http://www.w3.org/2000/svg">
<path d="M26 10C25.7348 10 25.4804 9.89464 25.2929 9.70711C25.1054 9.51957 25 9.26522 25 9C25 7.14348 24.2625 5.36301 22.9497 4.05025C21.637 2.7375 19.8565 2 18 2H13C12.7348 2 12.4804 1.89464 12.2929 1.70711C12.1054 1.51957 12 1.26522 12 1C12 0.734784 12.1054 0.48043 12.2929 0.292893C12.4804 0.105357 12.7348 0 13 0L18 0C20.3869 0 22.6761 0.948212 24.364 2.63604C26.0518 4.32387 27 6.61305 27 9C27 9.26522 26.8946 9.51957 26.7071 9.70711C26.5196 9.89464 26.2652 10 26 10Z" fill="#22BB9B"/>
<path d="M22 10C21.7348 10 21.4804 9.89464 21.2929 9.70711C21.1054 9.51957 21 9.26522 21 9C21 8.20435 20.6839 7.44129 20.1213 6.87868C19.5587 6.31607 18.7956 6 18 6H13C12.7348 6 12.4804 5.89464 12.2929 5.70711C12.1054 5.51957 12 5.26522 12 5C12 4.73478 12.1054 4.48043 12.2929 4.29289C12.4804 4.10536 12.7348 4 13 4H18C18.6566 4 19.3068 4.12933 19.9134 4.3806C20.52 4.63188 21.0712 5.00017 21.5355 5.46447C21.9998 5.92876 22.3681 6.47995 22.6194 7.08658C22.8707 7.69321 23 8.34339 23 9C23 9.26522 22.8946 9.51957 22.7071 9.70711C22.5196 9.89464 22.2652 10 22 10Z" fill="#22BB9B"/>
<path d="M29 24V23C29 22.7348 28.8946 22.4804 28.7071 22.2929C28.5196 22.1054 28.2652 22 28 22H25C24.3019 22.0042 23.6171 22.191 23.0137 22.5419C22.4102 22.8928 21.909 23.3954 21.56 24H13C12.2044 24 11.4413 23.6839 10.8787 23.1213C10.3161 22.5587 10 21.7956 10 21C10 20.2044 10.3161 19.4413 10.8787 18.8787C11.4413 18.3161 12.2044 18 13 18C12.9173 18.4896 12.6829 18.9408 12.33 19.29C12.1912 19.4274 12.0957 19.6025 12.0553 19.7936C12.0149 19.9847 12.0313 20.1835 12.1025 20.3654C12.1738 20.5472 12.2968 20.7043 12.4563 20.817C12.6157 20.9298 12.8048 20.9934 13 21C13.1316 21.0008 13.2621 20.9755 13.3839 20.9258C13.5057 20.876 13.6166 20.8027 13.71 20.71C14.4415 19.9838 14.8976 19.0257 15 18H18C17.9213 18.4909 17.6863 18.9433 17.33 19.29C17.1912 19.4274 17.0957 19.6025 17.0553 19.7936C17.0149 19.9847 17.0313 20.1835 17.1025 20.3654C17.1738 20.5472 17.2968 20.7043 17.4563 20.817C17.6158 20.9298 17.8048 20.9934 18 21C18.1316 21.0008 18.2621 20.9755 18.3839 20.9258C18.5057 20.876 18.6166 20.8027 18.71 20.71C19.4991 19.9303 19.9606 18.8786 20 17.77C21.9875 17.317 23.7624 16.2027 25.0341 14.6095C26.3057 13.0162 26.9989 11.0385 27 9C27 8.73478 26.8946 8.48043 26.7071 8.29289C26.5196 8.10536 26.2652 8 26 8H14C11.0826 8 8.28473 9.15893 6.22183 11.2218C4.15893 13.2847 3 16.0826 3 19C3 21.9174 4.15893 24.7153 6.22183 26.7782C8.28473 28.8411 11.0826 30 14 30H18C18.2652 30 18.5196 29.8946 18.7071 29.7071C18.8946 29.5196 19 29.2652 19 29C19 28.7348 18.8946 28.4804 18.7071 28.2929C18.5196 28.1054 18.2652 28 18 28H14C11.6131 28 9.32387 27.0518 7.63604 25.364C5.94821 23.6761 5 21.3869 5 19C5 16.6131 5.94821 14.3239 7.63604 12.636C9.32387 10.9482 11.6131 10 14 10H17V11C17 11.2652 17.1054 11.5196 17.2929 11.7071C17.4804 11.8946 17.7348 12 18 12C18.2652 12 18.5196 11.8946 18.7071 11.7071C18.8946 11.5196 19 11.2652 19 11V10H24.93C24.6895 11.6663 23.8565 13.1901 22.5837 14.2921C21.3109 15.3941 19.6836 16.0004 18 16H13C11.6739 16 10.4021 16.5268 9.46447 17.4645C8.52678 18.4021 8 19.6739 8 21C8 22.3261 8.52678 23.5979 9.46447 24.5355C10.4021 25.4732 11.6739 26 13 26H21V28C21 29.0609 21.4214 30.0783 22.1716 30.8284C22.9217 31.5786 23.9391 32 25 32H28C28.2652 32 28.5196 31.8946 28.7071 31.7071C28.8946 31.5196 29 31.2652 29 31V30C28.9968 29.4305 28.872 28.8683 28.634 28.3509C28.396 27.8336 28.0503 27.373 27.62 27C28.0503 26.627 28.396 26.1664 28.634 25.6491C28.872 25.1317 28.9968 24.5695 29 24ZM27 30H25C24.4696 30 23.9609 29.7893 23.5858 29.4142C23.2107 29.0391 23 28.5304 23 28H25C25.5304 28 26.0391 28.2107 26.4142 28.5858C26.7893 28.9609 27 29.4696 27 30ZM23 26C23 25.4696 23.2107 24.9609 23.5858 24.5858C23.9609 24.2107 24.4696 24 25 24H27C27 24.5304 26.7893 25.0391 26.4142 25.4142C26.0391 25.7893 25.5304 26 25 26H23Z" fill="#08221D"/>
</svg>
