<svg width="32" height="32" viewBox="0 0 32 32" fill="none" xmlns="http://www.w3.org/2000/svg">
<g clip-path="url(#clip0_1_370)">
<path d="M26 12H24.94C24.7498 10.3232 24.092 8.73366 23.0417 7.41281C21.9914 6.09196 20.5909 5.09301 19 4.53V2C19 1.46957 18.7893 0.960859 18.4142 0.585786C18.0391 0.210714 17.5304 0 17 0L15 0C14.4696 0 13.9609 0.210714 13.5858 0.585786C13.2107 0.960859 13 1.46957 13 2V4.53C11.4091 5.09301 10.0086 6.09196 8.95831 7.41281C7.90799 8.73366 7.25019 10.3232 7.06 12H6C5.73478 12 5.48043 12.1054 5.29289 12.2929C5.10536 12.4804 5 12.7348 5 13C5 13.2652 5.10536 13.5196 5.29289 13.7071C5.48043 13.8946 5.73478 14 6 14H7.11L8.81 29.33C8.89157 30.0672 9.2433 30.748 9.79732 31.241C10.3513 31.7341 11.0684 32.0045 11.81 32H20.23C20.9716 32.0045 21.6887 31.7341 22.2427 31.241C22.7967 30.748 23.1484 30.0672 23.23 29.33L24.59 17.11C24.6192 16.8448 24.5418 16.5788 24.3749 16.3707C24.208 16.1625 23.9652 16.0292 23.7 16C23.4348 15.9708 23.1688 16.0482 22.9607 16.2151C22.7525 16.382 22.6192 16.6248 22.59 16.89L21.2 29.11C21.1728 29.3557 21.0556 29.5827 20.8709 29.747C20.6862 29.9114 20.4472 30.0015 20.2 30H11.79C11.5428 30.0015 11.3038 29.9114 11.1191 29.747C10.9344 29.5827 10.8172 29.3557 10.79 29.11L9.12 14H26C26.2652 14 26.5196 13.8946 26.7071 13.7071C26.8946 13.5196 27 13.2652 27 13C27 12.7348 26.8946 12.4804 26.7071 12.2929C26.5196 12.1054 26.2652 12 26 12ZM15 2H17V4.06C16.3357 3.97997 15.6643 3.97997 15 4.06V2ZM9.07 12C9.30776 10.3314 10.1396 8.80464 11.4126 7.70011C12.6857 6.59558 14.3146 5.98747 16 5.98747C17.6854 5.98747 19.3143 6.59558 20.5874 7.70011C21.8604 8.80464 22.6922 10.3314 22.93 12H9.07Z" fill="#08221D"/>
<path d="M4 27C3.81533 26.9994 3.63443 26.9478 3.47733 26.8507C3.32024 26.7536 3.1931 26.6149 3.11 26.45L2.11 24.45C2.03967 24.3104 2.00303 24.1563 2.00303 24C2.00303 23.8437 2.03967 23.6896 2.11 23.55L2.88 22L2.11 20.45C2.03967 20.3104 2.00303 20.1563 2.00303 20C2.00303 19.8437 2.03967 19.6896 2.11 19.55L3.11 17.55C3.16286 17.423 3.24134 17.3084 3.34053 17.2131C3.43972 17.1179 3.55748 17.0441 3.68647 16.9964C3.81545 16.9488 3.95288 16.9282 4.09017 16.936C4.22746 16.9439 4.36166 16.98 4.48438 17.042C4.6071 17.1041 4.7157 17.1907 4.8034 17.2967C4.8911 17.4026 4.95601 17.5255 4.99408 17.6576C5.03215 17.7897 5.04255 17.9283 5.02464 18.0646C5.00673 18.201 4.9609 18.3322 4.89 18.45L4.12 20L4.89 21.55C4.96033 21.6896 4.99697 21.8437 4.99697 22C4.99697 22.1563 4.96033 22.3104 4.89 22.45L4.12 24L4.89 25.55C4.96671 25.7022 5.00323 25.8715 4.9961 26.0419C4.98896 26.2122 4.93841 26.3778 4.84924 26.5231C4.76006 26.6684 4.63523 26.7885 4.4866 26.8719C4.33797 26.9554 4.17046 26.9995 4 27Z" fill="#22BB9B"/>
<path d="M28 27C27.8295 26.9995 27.662 26.9554 27.5134 26.8719C27.3648 26.7885 27.2399 26.6684 27.1508 26.5231C27.0616 26.3778 27.011 26.2122 27.0039 26.0419C26.9968 25.8715 27.0333 25.7022 27.11 25.55L27.88 24L27.11 22.45C27.0397 22.3104 27.003 22.1563 27.003 22C27.003 21.8437 27.0397 21.6896 27.11 21.55L27.88 20L27.11 18.45C27.0129 18.2169 27.0076 17.9557 27.0952 17.7189C27.1827 17.4821 27.3566 17.2871 27.5819 17.1732C27.8073 17.0592 28.0674 17.0348 28.31 17.1047C28.5526 17.1746 28.7598 17.3337 28.89 17.55L29.89 19.55C29.9603 19.6896 29.997 19.8437 29.997 20C29.997 20.1563 29.9603 20.3104 29.89 20.45L29.12 22L29.89 23.55C29.9603 23.6896 29.997 23.8437 29.997 24C29.997 24.1563 29.9603 24.3104 29.89 24.45L28.89 26.45C28.8069 26.6149 28.6798 26.7536 28.5227 26.8507C28.3656 26.9478 28.1847 26.9994 28 27Z" fill="#22BB9B"/>
<path d="M16 27C13.79 27 12 24.76 12 22C12 19.24 13.79 17 16 17C18.21 17 20 19.24 20 22C20 24.76 18.21 27 16 27ZM16 19C14.92 19 14 20.37 14 22C14 23.63 14.92 25 16 25C17.08 25 18 23.63 18 22C18 20.37 17.08 19 16 19Z" fill="#22BB9B"/>
</g>
<defs>
<clipPath id="clip0_1_370">
<rect width="32" height="32" fill="white"/>
</clipPath>
</defs>
</svg>
