<svg width="32" height="32" viewBox="0 0 32 32" fill="none" xmlns="http://www.w3.org/2000/svg">
<g clip-path="url(#clip0_1_369)">
<path d="M9 24C8.69 24 8.75 24 6.55 22.89C6.38509 22.8069 6.2464 22.6798 6.14932 22.5227C6.05224 22.3656 6.00056 22.1847 6 22V18C6 17.7348 6.10536 17.4804 6.29289 17.2929C6.48043 17.1054 6.73478 17 7 17H11C11.2652 17 11.5196 17.1054 11.7071 17.2929C11.8946 17.4804 12 17.7348 12 18V22C11.9994 22.1847 11.9478 22.3656 11.8507 22.5227C11.7536 22.6798 11.6149 22.8069 11.45 22.89C9.25 24 9.31 24 9 24ZM8 21.38L9 21.88L10 21.38V19H8V21.38Z" fill="#22BB9B"/>
<path d="M10 28H8C7.73478 28 7.48043 27.8946 7.29289 27.7071C7.10536 27.5196 7 27.2652 7 27C7 26.7348 7.10536 26.4804 7.29289 26.2929C7.48043 26.1054 7.73478 26 8 26H10C10.2652 26 10.5196 26.1054 10.7071 26.2929C10.8946 26.4804 11 26.7348 11 27C11 27.2652 10.8946 27.5196 10.7071 27.7071C10.5196 27.8946 10.2652 28 10 28Z" fill="#22BB9B"/>
<path d="M13.6 10.47C13.2105 9.95071 13 9.31911 13 8.67V2C13 1.46957 12.7893 0.960859 12.4142 0.585786C12.0391 0.210714 11.5304 0 11 0L7 0C6.46957 0 5.96086 0.210714 5.58579 0.585786C5.21071 0.960859 5 1.46957 5 2V8.67C5 9.93 4.49 10.35 2.6 12.87C2.21053 13.3893 2 14.0209 2 14.67V23C2 23.2652 2.10536 23.5196 2.29289 23.7071C2.48043 23.8946 2.73478 24 3 24C3.26522 24 3.51957 23.8946 3.70711 23.7071C3.89464 23.5196 4 23.2652 4 23V15H14V29C14 29.2652 13.8946 29.5196 13.7071 29.7071C13.5196 29.8946 13.2652 30 13 30H5C4.73478 30 4.48043 29.8946 4.29289 29.7071C4.10536 29.5196 4 29.2652 4 29V27C4 26.7348 3.89464 26.4804 3.70711 26.2929C3.51957 26.1054 3.26522 26 3 26C2.73478 26 2.48043 26.1054 2.29289 26.2929C2.10536 26.4804 2 26.7348 2 27V29C2 29.7956 2.31607 30.5587 2.87868 31.1213C3.44129 31.6839 4.20435 32 5 32H13C13.7956 32 14.5587 31.6839 15.1213 31.1213C15.6839 30.5587 16 29.7956 16 29V14.67C16 13.38 15.43 12.91 13.6 10.47ZM7 2H11V4H7V2ZM7 6H11C11 10.28 10.78 10 13 13H5C7 10.3 7 10.68 7 6Z" fill="#08221D"/>
<path d="M29 18H19C18.8617 17.9996 18.7247 18.0278 18.5979 18.083C18.471 18.1382 18.357 18.2191 18.263 18.3206C18.169 18.4221 18.0971 18.542 18.0519 18.6727C18.0066 18.8034 17.9889 18.9421 18 19.08L19 31.08C19.0202 31.3311 19.1343 31.5654 19.3197 31.7359C19.5051 31.9065 19.7481 32.0008 20 32H28C28.2519 32.0008 28.4949 31.9065 28.6803 31.7359C28.8657 31.5654 28.9798 31.3311 29 31.08L30 19.08C30.0111 18.9421 29.9934 18.8034 29.9481 18.6727C29.9029 18.542 29.831 18.4221 29.737 18.3206C29.643 18.2191 29.529 18.1382 29.4021 18.083C29.2753 18.0278 29.1383 17.9996 29 18ZM27.08 30H20.92L20.09 20H27.91L27.08 30Z" fill="#08221D"/>
</g>
<defs>
<clipPath id="clip0_1_369">
<rect width="32" height="32" fill="white"/>
</clipPath>
</defs>
</svg>
