<svg width="32" height="32" viewBox="0 0 32 32" fill="none" xmlns="http://www.w3.org/2000/svg">
<g clip-path="url(#clip0_2_321)">
<path d="M7.53002 11C7.3556 10.9997 7.1843 10.9538 7.03311 10.8668C6.88193 10.7799 6.75611 10.6549 6.66817 10.5043C6.58022 10.3536 6.5332 10.1826 6.53177 10.0082C6.53034 9.83382 6.57455 9.66207 6.66002 9.51003C7.17422 8.60159 7.95986 7.87688 8.90675 7.4375C9.85365 6.99813 10.9143 6.86613 11.94 7.06002C12.4054 6.41982 13.0161 5.89925 13.722 5.54112C14.4278 5.18299 15.2085 4.99754 16 5.00002C16.2652 5.00002 16.5196 5.10538 16.7071 5.29292C16.8947 5.48045 17 5.73481 17 6.00002C17 6.26524 16.8947 6.51959 16.7071 6.70713C16.5196 6.89467 16.2652 7.00002 16 7.00002C15.4384 7.00169 14.8885 7.16097 14.413 7.45974C13.9374 7.75851 13.5553 8.18477 13.31 8.69002C13.2012 8.91637 13.0111 9.09346 12.7777 9.1861C12.5442 9.27874 12.2845 9.28014 12.05 9.19002C11.3827 8.9428 10.6493 8.94082 9.98067 9.18445C9.31206 9.42808 8.75182 9.90145 8.40002 10.52C8.30941 10.6689 8.18146 10.7915 8.02885 10.8757C7.87625 10.9599 7.70429 11.0028 7.53002 11Z" fill="white"/>
<path d="M3.75001 24.84C2.86683 24.6101 2.06344 24.1428 1.42688 23.4889C0.790328 22.8349 0.344896 22.0192 0.138859 21.1302C-0.0671785 20.2411 -0.0259612 19.3126 0.258044 18.4453C0.542049 17.578 1.05801 16.805 1.75001 16.21C1.84981 16.1247 1.96545 16.0598 2.09032 16.0191C2.2152 15.9785 2.34686 15.9628 2.47779 15.973C2.60872 15.9832 2.73636 16.0191 2.85341 16.0787C2.97047 16.1382 3.07465 16.2202 3.16001 16.32C3.24537 16.4198 3.31023 16.5355 3.3509 16.6603C3.39157 16.7852 3.40724 16.9169 3.39703 17.0478C3.38681 17.1787 3.35091 17.3064 3.29137 17.4234C3.23183 17.5405 3.14981 17.6447 3.05001 17.73C2.637 18.0874 2.32939 18.5507 2.16033 19.07C1.99127 19.5893 1.96718 20.145 2.09066 20.677C2.21415 21.209 2.48051 21.6972 2.86104 22.0889C3.24157 22.4807 3.72182 22.7611 4.25001 22.9C4.50727 22.9663 4.72765 23.1321 4.86268 23.3609C4.9977 23.5897 5.03631 23.8628 4.97001 24.12C4.9037 24.3773 4.73792 24.5977 4.50912 24.7327C4.28033 24.8677 4.00727 24.9063 3.75001 24.84Z" fill="white"/>
<path d="M24.47 11C24.2928 10.9997 24.1189 10.9523 23.966 10.8627C23.8131 10.7731 23.6868 10.6445 23.6 10.49C23.2453 9.88796 22.6915 9.42864 22.0343 9.1913C21.377 8.95397 20.6575 8.95351 20 9.19C19.7656 9.28012 19.5058 9.27872 19.2724 9.18608C19.0389 9.09344 18.8489 8.91634 18.74 8.69C18.4911 8.17705 18.1012 7.74566 17.6159 7.44635C17.1306 7.14704 16.5701 6.99221 16 7C15.7348 7 15.4804 6.89464 15.2929 6.70711C15.1054 6.51957 15 6.26522 15 6C15 5.73478 15.1054 5.48043 15.2929 5.29289C15.4804 5.10536 15.7348 5 16 5C16.7941 5.00094 17.5765 5.191 18.2825 5.55445C18.9885 5.91789 19.5978 6.44427 20.06 7.09C21.0857 6.89611 22.1464 7.0281 23.0933 7.46748C24.0402 7.90685 24.8258 8.63157 25.34 9.54C25.4183 9.69109 25.4568 9.85966 25.4517 10.0298C25.4467 10.1999 25.3983 10.3659 25.3112 10.5121C25.2241 10.6582 25.1011 10.7798 24.9539 10.8652C24.8067 10.9506 24.6401 10.997 24.47 11Z" fill="white"/>
<path d="M27.75 22.9C28.282 22.7676 28.7676 22.492 29.154 22.1031C29.5404 21.7141 29.8128 21.2267 29.9417 20.6938C30.0705 20.1609 30.0508 19.6029 29.8848 19.0804C29.7188 18.5579 29.4128 18.0908 29 17.73C28.7985 17.5576 28.6736 17.3122 28.653 17.0478C28.6324 16.7834 28.7176 16.5216 28.89 16.32C29.0624 16.1185 29.3078 15.9936 29.5722 15.973C29.8367 15.9524 30.0985 16.0376 30.3 16.21C30.992 16.805 31.508 17.578 31.792 18.4453C32.076 19.3126 32.1172 20.2411 31.9112 21.1302C31.7051 22.0192 31.2597 22.8349 30.6231 23.4889C29.9866 24.1428 29.1832 24.6101 28.3 24.84C28.0428 24.913 27.7671 24.8807 27.5336 24.7504C27.3001 24.62 27.128 24.4023 27.055 24.145C26.9821 23.8878 27.0143 23.6121 27.1447 23.3786C27.275 23.1451 27.4928 22.973 27.75 22.9Z" fill="white"/>
<path d="M25 9.00004C24.0129 8.99637 23.0401 9.2363 22.168 9.69856C21.2958 10.1608 20.5511 10.8311 20 11.65C17.3838 10.7799 14.5562 10.7799 11.94 11.65C11.4451 10.9129 10.7927 10.2949 10.03 9.84044C9.26723 9.38599 8.41316 9.10648 7.52933 9.02206C6.6455 8.93764 5.75396 9.05042 4.91899 9.35226C4.08403 9.65411 3.32646 10.1375 2.70092 10.7676C2.07539 11.3976 1.59747 12.1587 1.30166 12.9958C1.00584 13.8329 0.899495 14.7252 0.990286 15.6084C1.08108 16.4916 1.36674 17.3437 1.82668 18.1031C2.28662 18.8625 2.90937 19.5104 3.65 20C3.22395 21.2908 3.00458 22.6408 3 24C3 24.7957 3.31607 25.5587 3.87868 26.1214C4.44129 26.684 5.20435 27 6 27H7C7.26522 27 7.51957 26.8947 7.70711 26.7071C7.89465 26.5196 8 26.2653 8 26C8 25.7348 7.89465 25.4805 7.70711 25.2929C7.51957 25.1054 7.26522 25 7 25H6C5.73479 25 5.48043 24.8947 5.2929 24.7071C5.10536 24.5196 5 24.2653 5 24C5 21.0827 6.15893 18.2848 8.22183 16.2219C10.2847 14.159 13.0826 13 16 13C18.9174 13 21.7153 14.159 23.7782 16.2219C25.8411 18.2848 27 21.0827 27 24C27 24.2653 26.8946 24.5196 26.7071 24.7071C26.5196 24.8947 26.2652 25 26 25H11C10.7348 25 10.4804 25.1054 10.2929 25.2929C10.1054 25.4805 10 25.7348 10 26C10 26.2653 10.1054 26.5196 10.2929 26.7071C10.4804 26.8947 10.7348 27 11 27H26C26.7957 27 27.5587 26.684 28.1213 26.1214C28.6839 25.5587 29 24.7957 29 24C28.9954 22.6408 28.7761 21.2908 28.35 20C29.4265 19.286 30.2439 18.2436 30.6805 17.0278C31.1171 15.812 31.1496 14.4877 30.7732 13.2519C30.3969 12.0162 29.6318 10.9348 28.5916 10.1688C27.5514 9.40272 26.2918 8.99282 25 9.00004ZM4.45 18.06C4.00854 17.7094 3.64617 17.2695 3.38666 16.769C3.12715 16.2685 2.97636 15.7188 2.94419 15.156C2.91201 14.5932 2.99917 14.0299 3.19996 13.5031C3.40074 12.9763 3.71061 12.4979 4.10924 12.0993C4.50788 11.7006 4.98627 11.3908 5.51306 11.19C6.03985 10.9892 6.60313 10.902 7.16597 10.9342C7.7288 10.9664 8.27848 11.1172 8.77895 11.3767C9.27943 11.6362 9.71939 11.9986 10.07 12.44C7.65591 13.6807 5.6907 15.6459 4.45 18.06ZM27.55 18.06C26.3093 15.6459 24.3441 13.6807 21.93 12.44C22.2806 11.9986 22.7206 11.6362 23.2211 11.3767C23.7215 11.1172 24.2712 10.9664 24.834 10.9342C25.3969 10.902 25.9602 10.9892 26.4869 11.19C27.0137 11.3908 27.4921 11.7006 27.8908 12.0993C28.2894 12.4979 28.5993 12.9763 28.8001 13.5031C29.0008 14.0299 29.088 14.5932 29.0558 15.156C29.0236 15.7188 28.8729 16.2685 28.6133 16.769C28.3538 17.2695 27.9915 17.7094 27.55 18.06Z" fill="white"/>
<path d="M11 22C11 22.1978 11.0586 22.3911 11.1685 22.5556C11.2784 22.72 11.4346 22.8482 11.6173 22.9239C11.8 22.9996 12.0011 23.0194 12.1951 22.9808C12.3891 22.9422 12.5673 22.847 12.7071 22.7071C12.847 22.5673 12.9422 22.3891 12.9808 22.1951C13.0194 22.0011 12.9996 21.8 12.9239 21.6173C12.8482 21.4346 12.72 21.2784 12.5556 21.1685C12.3911 21.0586 12.1978 21 12 21C11.7348 21 11.4804 21.1054 11.2929 21.2929C11.1054 21.4804 11 21.7348 11 22Z" fill="white"/>
<path d="M16 19C16 18.8022 15.9414 18.6089 15.8315 18.4444C15.7216 18.28 15.5654 18.1518 15.3827 18.0761C15.2 18.0004 14.9989 17.9806 14.8049 18.0192C14.6109 18.0578 14.4327 18.153 14.2929 18.2929C14.153 18.4327 14.0578 18.6109 14.0192 18.8049C13.9806 18.9989 14.0004 19.2 14.0761 19.3827C14.1518 19.5654 14.28 19.7216 14.4444 19.8315C14.6089 19.9414 14.8022 20 15 20C15.2652 20 15.5196 19.8946 15.7071 19.7071C15.8946 19.5196 16 19.2652 16 19Z" fill="white"/>
<path d="M11 17C10.8022 17 10.6089 17.0586 10.4444 17.1685C10.28 17.2784 10.1518 17.4346 10.0761 17.6173C10.0004 17.8 9.98063 18.0011 10.0192 18.1951C10.0578 18.3891 10.153 18.5673 10.2929 18.7071C10.4327 18.847 10.6109 18.9422 10.8049 18.9808C10.9989 19.0194 11.2 18.9996 11.3827 18.9239C11.5654 18.8482 11.7216 18.72 11.8315 18.5556C11.9414 18.3911 12 18.1978 12 18C12 17.7348 11.8946 17.4804 11.7071 17.2929C11.5196 17.1054 11.2652 17 11 17Z" fill="white"/>
</g>
<defs>
<clipPath id="clip0_2_321">
<rect width="32" height="32" fill="white"/>
</clipPath>
</defs>
</svg>
