<svg width="32" height="32" viewBox="0 0 32 32" fill="none" xmlns="http://www.w3.org/2000/svg">
<path d="M13 10H9C7.67392 10 6.40215 9.47322 5.46447 8.53553C4.52678 7.59785 4 6.32608 4 5V3C4 2.73478 4.10536 2.48043 4.29289 2.29289C4.48043 2.10536 4.73478 2 5 2H9C9.65661 2 10.3068 2.12933 10.9134 2.3806C11.52 2.63188 12.0712 3.00017 12.5355 3.46447C12.9998 3.92876 13.3681 4.47995 13.6194 5.08658C13.8707 5.69321 14 6.34339 14 7V9C14 9.26522 13.8946 9.51957 13.7071 9.70711C13.5196 9.89464 13.2652 10 13 10ZM6 4V5C6 5.79565 6.31607 6.55871 6.87868 7.12132C7.44129 7.68393 8.20435 8 9 8H12V7C12 6.20435 11.6839 5.44129 11.1213 4.87868C10.5587 4.31607 9.79565 4 9 4H6Z" fill="#22BB9B"/>
<path d="M17 10H13C12.7348 10 12.4804 9.89464 12.2929 9.70711C12.1054 9.51957 12 9.26522 12 9V7C12 5.14348 12.7375 3.36301 14.0503 2.05025C15.363 0.737498 17.1435 0 19 0L23 0C23.2652 0 23.5196 0.105357 23.7071 0.292893C23.8946 0.48043 24 0.734784 24 1V3C24 4.85652 23.2625 6.63699 21.9497 7.94975C20.637 9.2625 18.8565 10 17 10ZM14 8H17C18.3261 8 19.5979 7.47322 20.5355 6.53553C21.4732 5.59785 22 4.32608 22 3V2H19C17.6739 2 16.4021 2.52678 15.4645 3.46447C14.5268 4.40215 14 5.67392 14 7V8Z" fill="#22BB9B"/>
<path d="M29 24H22.89C23.9761 22.9212 24.6786 21.5162 24.89 20H26C27.3261 20 28.5979 19.4732 29.5355 18.5355C30.4732 17.5979 31 16.3261 31 15C31 13.6739 30.4732 12.4021 29.5355 11.4645C28.5979 10.5268 27.3261 10 26 10H25V9C25 8.73478 24.8946 8.48043 24.7071 8.29289C24.5196 8.10536 24.2652 8 24 8H4C3.73478 8 3.48043 8.10536 3.29289 8.29289C3.10536 8.48043 3 8.73478 3 9V12C3 12.2652 3.10536 12.5196 3.29289 12.7071C3.48043 12.8946 3.73478 13 4 13C4.26522 13 4.51957 12.8946 4.70711 12.7071C4.89464 12.5196 5 12.2652 5 12V10H16V12C15.4696 12 14.9609 12.2107 14.5858 12.5858C14.2107 12.9609 14 13.4696 14 14V17C14 17.2652 14.1054 17.5196 14.2929 17.7071C14.4804 17.8946 14.7348 18 15 18H19C19.2652 18 19.5196 17.8946 19.7071 17.7071C19.8946 17.5196 20 17.2652 20 17V14C20 13.4696 19.7893 12.9609 19.4142 12.5858C19.0391 12.2107 18.5304 12 18 12V10H23V19C23 19.6566 22.8707 20.3068 22.6194 20.9134C22.3681 21.52 21.9998 22.0712 21.5355 22.5355C21.0712 22.9998 20.52 23.3681 19.9134 23.6194C19.3068 23.8707 18.6566 24 18 24H10C8.67392 24 7.40215 23.4732 6.46447 22.5355C5.52678 21.5979 5 20.3261 5 19V16C5 15.7348 4.89464 15.4804 4.70711 15.2929C4.51957 15.1054 4.26522 15 4 15C3.73478 15 3.48043 15.1054 3.29289 15.2929C3.10536 15.4804 3 15.7348 3 16V19C3.00117 19.9319 3.18841 20.8542 3.55073 21.7128C3.91306 22.5714 4.44318 23.349 5.11 24H3C2.46957 24 1.96086 24.2107 1.58579 24.5858C1.21071 24.9609 1 25.4696 1 26V28C1 28.5304 1.21071 29.0391 1.58579 29.4142C1.96086 29.7893 2.46957 30 3 30H4V31C4 31.2652 4.10536 31.5196 4.29289 31.7071C4.48043 31.8946 4.73478 32 5 32C5.26522 32 5.51957 31.8946 5.70711 31.7071C5.89464 31.5196 6 31.2652 6 31V30H26V31C26 31.2652 26.1054 31.5196 26.2929 31.7071C26.4804 31.8946 26.7348 32 27 32C27.2652 32 27.5196 31.8946 27.7071 31.7071C27.8946 31.5196 28 31.2652 28 31V30H29C29.5304 30 30.0391 29.7893 30.4142 29.4142C30.7893 29.0391 31 28.5304 31 28V26C31 25.4696 30.7893 24.9609 30.4142 24.5858C30.0391 24.2107 29.5304 24 29 24ZM18 16H16V14H18V16ZM26 12C26.7956 12 27.5587 12.3161 28.1213 12.8787C28.6839 13.4413 29 14.2044 29 15C29 15.7956 28.6839 16.5587 28.1213 17.1213C27.5587 17.6839 26.7956 18 26 18H25V12H26ZM3 28V26H29V28H3Z" fill="#08221D"/>
</svg>
