<svg width="32" height="32" viewBox="0 0 32 32" fill="none" xmlns="http://www.w3.org/2000/svg">
<g clip-path="url(#clip0_2_318)">
<path d="M30 26H29V19C28.9995 18.0276 28.7154 17.0764 28.1826 16.2629C27.6498 15.4494 26.8913 14.809 26 14.42V7.80001C27.64 6.80001 28 5.80001 28 5.00001C28 -1.63999 2 -1.65999 2 5.00001C2 5.76001 2.36 6.82001 4 7.80001V14.42C3.10874 14.809 2.35025 15.4494 1.8174 16.2629C1.28456 17.0764 1.0005 18.0276 1 19V31C1 31.2652 1.10536 31.5196 1.29289 31.7071C1.48043 31.8947 1.73478 32 2 32H7C7.26522 32 7.51957 31.8947 7.70711 31.7071C7.89464 31.5196 8 31.2652 8 31C8 30.7348 7.89464 30.4804 7.70711 30.2929C7.51957 30.1054 7.26522 30 7 30H3V19C3 18.2044 3.31607 17.4413 3.87868 16.8787C4.44129 16.3161 5.20435 16 6 16H24C24.7956 16 25.5587 16.3161 26.1213 16.8787C26.6839 17.4413 27 18.2044 27 19V30H11C10.7348 30 10.4804 30.1054 10.2929 30.2929C10.1054 30.4804 10 30.7348 10 31C10 31.2652 10.1054 31.5196 10.2929 31.7071C10.4804 31.8947 10.7348 32 11 32H28C28.2652 32 28.5196 31.8947 28.7071 31.7071C28.8946 31.5196 29 31.2652 29 31V28H30C30.2652 28 30.5196 27.8947 30.7071 27.7071C30.8946 27.5196 31 27.2652 31 27C31 26.7348 30.8946 26.4804 30.7071 26.2929C30.5196 26.1054 30.2652 26 30 26ZM20 14H10V8.00001H20V14ZM24.55 6.32001C24.3851 6.40311 24.2464 6.53026 24.1493 6.68735C24.0522 6.84444 24.0006 7.02535 24 7.21001V14H22V8.00001C22 7.46958 21.7893 6.96087 21.4142 6.5858C21.0391 6.21073 20.5304 6.00001 20 6.00001H10C9.46957 6.00001 8.96086 6.21073 8.58579 6.5858C8.21071 6.96087 8 7.46958 8 8.00001V14H6V7.21001C5.99944 7.02535 5.94776 6.84444 5.85068 6.68735C5.7536 6.53026 5.61491 6.40311 5.45 6.32001C4.38 5.78001 4 5.27001 4 5.00001C4 4.00001 7.88 2.00001 15 2.00001C22.12 2.00001 26 4.00001 26 5.00001C26 5.27001 25.62 5.78001 24.55 6.32001Z" fill="white"/>
<path d="M9 27C8.73478 27 8.48043 26.8946 8.29289 26.7071C8.10536 26.5196 8 26.2652 8 26V20C8 19.7348 8.10536 19.4804 8.29289 19.2929C8.48043 19.1054 8.73478 19 9 19C9.26522 19 9.51957 19.1054 9.70711 19.2929C9.89464 19.4804 10 19.7348 10 20V26C10 26.2652 9.89464 26.5196 9.70711 26.7071C9.51957 26.8946 9.26522 27 9 27Z" fill="white"/>
<path d="M15 27C14.7348 27 14.4804 26.8946 14.2929 26.7071C14.1054 26.5196 14 26.2652 14 26V20C14 19.7348 14.1054 19.4804 14.2929 19.2929C14.4804 19.1054 14.7348 19 15 19C15.2652 19 15.5196 19.1054 15.7071 19.2929C15.8946 19.4804 16 19.7348 16 20V26C16 26.2652 15.8946 26.5196 15.7071 26.7071C15.5196 26.8946 15.2652 27 15 27Z" fill="white"/>
<path d="M21 27C20.7348 27 20.4804 26.8946 20.2929 26.7071C20.1054 26.5196 20 26.2652 20 26V20C20 19.7348 20.1054 19.4804 20.2929 19.2929C20.4804 19.1054 20.7348 19 21 19C21.2652 19 21.5196 19.1054 21.7071 19.2929C21.8946 19.4804 22 19.7348 22 20V26C22 26.2652 21.8946 26.5196 21.7071 26.7071C21.5196 26.8946 21.2652 27 21 27Z" fill="white"/>
</g>
<defs>
<clipPath id="clip0_2_318">
<rect width="32" height="32" fill="white"/>
</clipPath>
</defs>
</svg>
