<svg width="32" height="32" viewBox="0 0 32 32" fill="none" xmlns="http://www.w3.org/2000/svg">
<g clip-path="url(#clip0_1_366)">
<path d="M5.09 25C4.89873 25.0005 4.71134 24.9461 4.55005 24.8433C4.38876 24.7405 4.26033 24.5936 4.18 24.42C3.12335 22.12 2.7611 19.5616 3.13769 17.0587C3.51428 14.5558 4.61334 12.2172 6.3 10.33C6.38757 10.2308 6.49393 10.15 6.61294 10.0923C6.73194 10.0345 6.86123 10.001 6.9933 9.99353C7.12537 9.98609 7.25761 10.0049 7.38235 10.0489C7.50709 10.093 7.62185 10.1613 7.72 10.25C7.81845 10.3382 7.89843 10.4451 7.9553 10.5645C8.01217 10.6839 8.0448 10.8133 8.05131 10.9454C8.05782 11.0774 8.03808 11.2095 7.99322 11.3339C7.94837 11.4582 7.8793 11.5725 7.79 11.67C6.36592 13.2662 5.43812 15.2429 5.1202 17.3583C4.80228 19.4736 5.10802 21.6357 6 23.58C6.07061 23.7326 6.10161 23.9005 6.09015 24.0682C6.07869 24.2359 6.02513 24.398 5.93443 24.5396C5.84372 24.6811 5.7188 24.7975 5.57121 24.878C5.42361 24.9584 5.25811 25.0004 5.09 25Z" fill="#08221D"/>
<path d="M16 32C12.8332 32.0003 9.77511 30.8447 7.39999 28.75C7.21416 28.5715 7.1044 28.3282 7.09359 28.0707C7.08279 27.8133 7.17178 27.5616 7.342 27.3682C7.51222 27.1747 7.75055 27.0545 8.00727 27.0325C8.264 27.0104 8.51932 27.0884 8.71999 27.25C10.8194 29.1295 13.56 30.1317 16.3766 30.0498C19.1932 29.9679 21.871 28.8083 23.8577 26.8101C25.8445 24.8118 26.9886 22.1273 27.0541 19.3103C27.1196 16.4933 26.1016 13.7585 24.21 11.67C24.122 11.5722 24.0541 11.458 24.0103 11.3339C23.9665 11.2098 23.9475 11.0784 23.9544 10.947C23.9614 10.8156 23.9942 10.6868 24.0509 10.5681C24.1076 10.4494 24.1872 10.343 24.285 10.255C24.3828 10.167 24.497 10.0992 24.6211 10.0553C24.7451 10.0115 24.8766 9.99249 25.008 9.99945C25.1394 10.0064 25.2682 10.0392 25.3869 10.0959C25.5056 10.1526 25.612 10.2322 25.7 10.33C27.3747 12.2011 28.4716 14.5171 28.8583 16.9982C29.245 19.4794 28.9048 22.0194 27.8789 24.3113C26.8529 26.6032 25.1852 28.549 23.0772 29.9134C20.9691 31.2779 18.5111 32.0026 16 32Z" fill="#08221D"/>
<path d="M21 16C20.52 16 20.84 16.15 16 12.28L11.62 15.78C11.458 15.9055 11.2612 15.9781 11.0565 15.9881C10.8518 15.998 10.649 15.9449 10.4755 15.8357C10.302 15.7266 10.1662 15.5668 10.0865 15.378C10.0069 15.1892 9.98713 14.9804 10.03 14.78L10.72 12H6.00002C5.78007 12.0022 5.56555 11.9317 5.38968 11.7996C5.2138 11.6675 5.08639 11.4811 5.02716 11.2693C4.96794 11.0575 4.98021 10.832 5.06208 10.6278C5.14395 10.4237 5.29085 10.2522 5.48002 10.14C9.33002 7.83 10.48 6.92 13 6.35V3C13 2.20435 13.3161 1.44129 13.8787 0.87868C14.4413 0.31607 15.2044 0 16 0C16.7957 0 17.5587 0.31607 18.1213 0.87868C18.684 1.44129 19 2.20435 19 3V6.35C21.42 6.92 22.53 7.75 26.51 10.14C26.6984 10.2518 26.8449 10.4224 26.927 10.6255C27.009 10.8287 27.0221 11.0531 26.9641 11.2644C26.9062 11.4757 26.7805 11.6621 26.6063 11.795C26.4321 11.9279 26.2191 11.9999 26 12H21.28L22 14.76C22.0371 14.9097 22.0391 15.066 22.0057 15.2166C21.9724 15.3672 21.9046 15.5081 21.8078 15.6282C21.7109 15.7483 21.5876 15.8443 21.4475 15.9088C21.3074 15.9733 21.1542 16.0045 21 16ZM16 10C16.49 10 16.45 10.08 19.31 12.37C19.02 11.22 18.84 10.86 19.21 10.37C19.3052 10.2527 19.4257 10.1584 19.5625 10.0943C19.6994 10.0302 19.8489 9.99799 20 10H22.38C21.0157 9.06911 19.4675 8.44166 17.84 8.16C17.6034 8.12167 17.3884 7.99961 17.2342 7.81606C17.0801 7.63251 16.9969 7.39969 17 7.16V3C17 2.73478 16.8947 2.48043 16.7071 2.29289C16.5196 2.10536 16.2652 2 16 2C15.7348 2 15.4805 2.10536 15.2929 2.29289C15.1054 2.48043 15 2.73478 15 3V7.17C15.0031 7.40969 14.92 7.64251 14.7658 7.82606C14.6116 8.00961 14.3966 8.13167 14.16 8.17C12.5276 8.45036 10.9734 9.07411 9.60002 10H12C12.1519 9.99918 12.302 10.033 12.4389 10.0988C12.5758 10.1647 12.6958 10.2608 12.79 10.38C13.16 10.86 12.97 11.23 12.69 12.38C15.6 10 15.53 10 16 10Z" fill="#22BB9B"/>
</g>
<defs>
<clipPath id="clip0_1_366">
<rect width="32" height="32" fill="white"/>
</clipPath>
</defs>
</svg>
