<svg width="31" height="29" viewBox="0 0 31 29" fill="none" xmlns="http://www.w3.org/2000/svg">
<path d="M29.6719 9.31594C29.4078 9.00035 29.0831 8.74766 28.7195 8.57466C28.3558 8.40165 27.9614 8.31229 27.5625 8.3125H19.125V5.34375C19.125 3.9265 18.5916 2.5673 17.6422 1.56515C16.6928 0.563001 15.4052 1.52224e-07 14.0625 1.52224e-07C13.958 -7.88206e-05 13.8555 0.0305717 13.7666 0.0885146C13.6777 0.146457 13.6058 0.229402 13.5591 0.328047L8.09016 11.875H1.6875C1.23995 11.875 0.810725 12.0627 0.494257 12.3967C0.17779 12.7308 0 13.1838 0 13.6562V26.7188C0 27.1912 0.17779 27.6442 0.494257 27.9783C0.810725 28.3123 1.23995 28.5 1.6875 28.5H25.875C26.5606 28.5002 27.2227 28.2359 27.7367 27.757C28.2508 27.2781 28.5814 26.6175 28.6664 25.8994L30.3539 11.6494C30.4035 11.2316 30.3683 10.8075 30.2507 10.4052C30.1331 10.0029 29.9358 9.6316 29.6719 9.31594ZM7.875 27.3125H1.6875C1.53832 27.3125 1.39524 27.2499 1.28975 27.1386C1.18426 27.0272 1.125 26.8762 1.125 26.7188V13.6562C1.125 13.4988 1.18426 13.3478 1.28975 13.2364C1.39524 13.1251 1.53832 13.0625 1.6875 13.0625H7.875V27.3125ZM29.2373 11.5024L27.5498 25.7524C27.4988 26.1832 27.3004 26.5795 26.992 26.8668C26.6835 27.1541 26.2863 27.3126 25.875 27.3125H9V12.6083L14.4028 1.20234C15.3846 1.29225 16.2988 1.76751 16.9648 2.53426C17.6308 3.30101 18.0002 4.30351 18 5.34375V8.90625C18 9.06372 18.0593 9.21475 18.1648 9.3261C18.2702 9.43745 18.4133 9.5 18.5625 9.5H27.5625C27.8018 9.49994 28.0384 9.55362 28.2566 9.65747C28.4748 9.76132 28.6695 9.91296 28.8279 10.1023C28.9863 10.2917 29.1047 10.5145 29.1753 10.7559C29.2459 10.9973 29.2671 11.2518 29.2373 11.5024Z" fill="#22BB9B"/>
</svg>
