<svg width="32" height="32" viewBox="0 0 32 32" fill="none" xmlns="http://www.w3.org/2000/svg">
<g clip-path="url(#clip0_1_365)">
<path d="M12 22C11.8034 22.0022 11.611 21.9428 11.45 21.83C10.7248 21.3454 9.87216 21.0868 8.99997 21.0868C8.12778 21.0868 7.27518 21.3454 6.54997 21.83C6.3304 21.9478 6.07477 21.9793 5.83315 21.9185C5.59153 21.8577 5.38131 21.7089 5.24368 21.5012C5.10605 21.2935 5.05091 21.0419 5.08907 20.7956C5.12723 20.5494 5.25593 20.3263 5.44997 20.17C6.4998 19.4654 7.73558 19.0891 8.99997 19.0891C10.2644 19.0891 11.5001 19.4654 12.55 20.17C12.7273 20.2892 12.8618 20.462 12.9338 20.6631C13.0058 20.8643 13.0114 21.0832 12.9499 21.2879C12.8884 21.4925 12.763 21.672 12.5921 21.8002C12.4211 21.9283 12.2136 21.9983 12 22Z" fill="#22BB9B"/>
<path d="M12 26H6C5.73478 26 5.48043 25.8946 5.29289 25.7071C5.10536 25.5196 5 25.2652 5 25C5 24.7348 5.10536 24.4804 5.29289 24.2929C5.48043 24.1054 5.73478 24 6 24H12C12.2652 24 12.5196 24.1054 12.7071 24.2929C12.8946 24.4804 13 24.7348 13 25C13 25.2652 12.8946 25.5196 12.7071 25.7071C12.5196 25.8946 12.2652 26 12 26Z" fill="#22BB9B"/>
<path d="M14.87 11.07C14.3203 10.8465 13.8492 10.465 13.5163 9.97367C13.1835 9.48239 13.0038 8.90342 13 8.31V2C13 1.46957 12.7893 0.960859 12.4142 0.585786C12.0391 0.210714 11.5304 0 11 0L7 0C6.46957 0 5.96086 0.210714 5.58579 0.585786C5.21071 0.960859 5 1.46957 5 2V8.31C4.99623 8.90342 4.81655 9.48239 4.48368 9.97367C4.15082 10.465 3.67973 10.8465 3.13 11.07C2.20815 11.4417 1.41802 12.0798 0.860511 12.9027C0.303 13.7256 0.00341042 14.696 0 15.69L0 23C0 23.2652 0.105357 23.5196 0.292893 23.7071C0.48043 23.8946 0.734784 24 1 24C1.26522 24 1.51957 23.8946 1.70711 23.7071C1.89464 23.5196 2 23.2652 2 23V17H16V29C16 29.2652 15.8946 29.5196 15.7071 29.7071C15.5196 29.8946 15.2652 30 15 30H3C2.73478 30 2.48043 29.8946 2.29289 29.7071C2.10536 29.5196 2 29.2652 2 29V27C2 26.7348 1.89464 26.4804 1.70711 26.2929C1.51957 26.1054 1.26522 26 1 26C0.734784 26 0.48043 26.1054 0.292893 26.2929C0.105357 26.4804 0 26.7348 0 27L0 29C0 29.7956 0.31607 30.5587 0.87868 31.1213C1.44129 31.6839 2.20435 32 3 32H15C15.7956 32 16.5587 31.6839 17.1213 31.1213C17.6839 30.5587 18 29.7956 18 29V15.69C17.9966 14.696 17.697 13.7256 17.1395 12.9027C16.582 12.0798 15.7918 11.4417 14.87 11.07ZM7 2H11V4H7V2ZM3.87 12.93C4.79185 12.5583 5.58198 11.9202 6.13949 11.0973C6.697 10.2744 6.99659 9.30397 7 8.31V6H11V8.31C11.0034 9.30397 11.303 10.2744 11.8605 11.0973C12.418 11.9202 13.2082 12.5583 14.13 12.93C14.572 13.1054 14.9648 13.3853 15.2748 13.7459C15.5849 14.1064 15.8028 14.5367 15.91 15H2.09C2.19719 14.5367 2.41514 14.1064 2.72516 13.7459C3.03518 13.3853 3.42803 13.1054 3.87 12.93Z" fill="#08221D"/>
<path d="M30 32H22C21.748 32.0008 21.5051 31.9065 21.3197 31.7359C21.1343 31.5654 21.0201 31.3311 21 31.08L20 19.08C19.9889 18.9421 20.0066 18.8034 20.0518 18.6727C20.0971 18.542 20.169 18.4221 20.263 18.3206C20.357 18.2191 20.471 18.1382 20.5979 18.083C20.7247 18.0278 20.8616 17.9996 21 18H31C31.1383 17.9996 31.2752 18.0278 31.4021 18.083C31.5289 18.1382 31.643 18.2191 31.7369 18.3206C31.8309 18.4221 31.9028 18.542 31.9481 18.6727C31.9934 18.8034 32.011 18.9421 32 19.08L31 31.08C30.9798 31.3311 30.8656 31.5654 30.6802 31.7359C30.4948 31.9065 30.2519 32.0008 30 32ZM22.92 30H29.08L29.91 20H22.09L22.92 30Z" fill="#08221D"/>
</g>
<defs>
<clipPath id="clip0_1_365">
<rect width="32" height="32" fill="white"/>
</clipPath>
</defs>
</svg>
