<svg width="20" height="20" viewBox="0 0 24 24" fill="none" xmlns="http://www.w3.org/2000/svg">
<path opacity="0.16" d="M5 10H19V19C19 19.5304 18.7893 20.0391 18.4142 20.4142C18.0391 20.7893 17.5304 21 17 21H7C6.46957 21 5.96086 20.7893 5.58579 20.4142C5.21071 20.0391 5 19.5304 5 19V10Z" fill="black"/>
<path d="M8 10.0001V7.00006C7.99904 6.02579 8.35369 5.08467 8.99738 4.35333C9.64107 3.62199 10.5295 3.15072 11.496 3.02798C12.4625 2.90523 13.4406 3.13945 14.2467 3.68667C15.0528 4.23388 15.6314 5.05648 15.874 6.00006" stroke="black" stroke-width="2" stroke-linecap="round"/>
<path d="M5 10H19V19C19 19.5304 18.7893 20.0391 18.4142 20.4142C18.0391 20.7893 17.5304 21 17 21H7C6.46957 21 5.96086 20.7893 5.58579 20.4142C5.21071 20.0391 5 19.5304 5 19V10Z" stroke="black" stroke-width="2" stroke-linejoin="round"/>
<path d="M14.5 15.5H14.51V15.51H14.5V15.5Z" stroke="black" stroke-width="3" stroke-linejoin="round"/>
</svg>
