<svg width="50" height="21" viewBox="0 0 50 21" fill="none" xmlns="http://www.w3.org/2000/svg">
<g clip-path="url(#clip0_1578_737)">
<path d="M50 10.75C50 7.19443 48.2777 4.38887 44.9861 4.38887C41.6805 4.38887 39.6805 7.19453 39.6805 10.7223C39.6805 14.9027 42.0417 17.0139 45.4305 17.0139C47.0833 17.0139 48.3333 16.6389 49.2777 16.1111V13.3333C48.3334 13.8056 47.25 14.0973 45.875 14.0973C44.5277 14.0973 43.3333 13.625 43.1806 11.9861H49.9723C49.9723 11.8055 50 11.0833 50 10.75ZM43.1389 9.43057C43.1389 7.86113 44.0973 7.2083 44.9723 7.2083C45.8194 7.2083 46.7223 7.86113 46.7223 9.43057H43.1389ZM34.3195 4.38887C32.9583 4.38887 32.0833 5.02773 31.5973 5.47227L31.4166 4.61113H28.3611V20.8055L31.8333 20.0694L31.8473 16.1389C32.3473 16.5 33.0833 17.0139 34.3056 17.0139C36.7917 17.0139 39.0556 15.0139 39.0556 10.6111C39.0417 6.5833 36.75 4.38887 34.3194 4.38887H34.3195ZM33.4861 13.9583C32.6667 13.9583 32.1805 13.6667 31.8473 13.3056L31.8333 8.15273C32.1944 7.75 32.6944 7.47227 33.4861 7.47227C34.75 7.47227 35.625 8.88887 35.625 10.7083C35.625 12.5694 34.7639 13.9583 33.4861 13.9583ZM23.5833 3.56943L27.0694 2.81943V0L23.5833 0.736133V3.56943ZM23.5833 4.625H27.0694V16.7777H23.5833V4.625ZM19.8473 5.65273L19.625 4.625H16.625V16.7777H20.0973V8.5417C20.9166 7.47227 22.3056 7.6667 22.7361 7.81943V4.625C22.2917 4.4583 20.6667 4.15273 19.8473 5.65273ZM12.9027 1.61113L9.51387 2.3333L9.5 13.4583C9.5 15.514 11.0417 17.0277 13.0973 17.0277C14.2361 17.0277 15.0694 16.8194 15.5277 16.5694V13.75C15.0834 13.9306 12.8889 14.5694 12.8889 12.5139V7.5833H15.5277V4.625H12.8889L12.9027 1.61113ZM3.51387 8.15273C3.51387 7.61113 3.9583 7.40273 4.69453 7.40273C5.75 7.40273 7.0833 7.72227 8.13887 8.2917V5.02773C6.98613 4.56943 5.84727 4.38887 4.69453 4.38887C1.875 4.38887 0 5.86113 0 8.31953C0 12.1527 5.27773 11.5417 5.27773 13.1945C5.27773 13.8333 4.72227 14.0417 3.94443 14.0417C2.7917 14.0417 1.31943 13.5694 0.152734 12.9306V16.2361C1.44443 16.7917 2.75 17.0277 3.94443 17.0277C6.8333 17.0277 8.81943 15.5973 8.81943 13.1111C8.80557 8.97227 3.51387 9.7083 3.51387 8.15273Z" fill="#635BFF"/>
</g>
<defs>
<clipPath id="clip0_1578_737">
<rect width="50" height="20.8984" fill="white"/>
</clipPath>
</defs>
</svg>
