<svg width="22" height="23" viewBox="0 0 26 27" fill="none" xmlns="http://www.w3.org/2000/svg">
<path d="M0.75 5.1875C0.75 4.93886 0.848772 4.7004 1.02459 4.52459C1.2004 4.34877 1.43886 4.25 1.6875 4.25C5.01625 4.25 8.26 3.07125 11.4375 0.6875C11.5998 0.565792 11.7972 0.5 12 0.5C12.2028 0.5 12.4002 0.565792 12.5625 0.6875C15.74 3.07125 18.9837 4.25 22.3125 4.25C22.5611 4.25 22.7996 4.34877 22.9754 4.52459C23.1512 4.7004 23.25 4.93886 23.25 5.1875V11.75C23.25 12.1725 23.2325 12.5875 23.2 12.995C22.6278 12.6345 22.0125 12.3473 21.3688 12.14C21.3725 12.0113 21.375 11.8812 21.375 11.75V6.0975C18.1538 5.9075 15.025 4.735 12 2.5975C8.975 4.735 5.84625 5.9075 2.625 6.0975V11.75C2.625 16.9363 5.54 20.7762 11.5312 23.3562C11.8588 24.0454 12.2817 24.685 12.7875 25.2563L12.3437 25.435C12.1229 25.5221 11.8771 25.5221 11.6563 25.435C4.4475 22.595 0.75 18 0.75 11.75V5.1875ZM25.75 19.875C25.75 21.6984 25.0257 23.447 23.7364 24.7364C22.447 26.0257 20.6984 26.75 18.875 26.75C17.0516 26.75 15.303 26.0257 14.0136 24.7364C12.7243 23.447 12 21.6984 12 19.875C12 18.0516 12.7243 16.303 14.0136 15.0136C15.303 13.7243 17.0516 13 18.875 13C20.6984 13 22.447 13.7243 23.7364 15.0136C25.0257 16.303 25.75 18.0516 25.75 19.875ZM23.0675 16.9325C23.0094 16.8743 22.9405 16.8281 22.8645 16.7966C22.7886 16.7651 22.7072 16.7489 22.625 16.7489C22.5428 16.7489 22.4614 16.7651 22.3855 16.7966C22.3095 16.8281 22.2406 16.8743 22.1825 16.9325L17.625 21.4912L15.5675 19.4325C15.4501 19.3151 15.291 19.2492 15.125 19.2492C14.959 19.2492 14.7999 19.3151 14.6825 19.4325C14.5651 19.5499 14.4992 19.709 14.4992 19.875C14.4992 20.041 14.5651 20.2001 14.6825 20.3175L17.1825 22.8175C17.2406 22.8757 17.3095 22.9219 17.3855 22.9534C17.4614 22.9849 17.5428 23.0011 17.625 23.0011C17.7072 23.0011 17.7886 22.9849 17.8645 22.9534C17.9405 22.9219 18.0094 22.8757 18.0675 22.8175L23.0675 17.8175C23.1257 17.7594 23.1719 17.6905 23.2034 17.6145C23.2349 17.5386 23.2511 17.4572 23.2511 17.375C23.2511 17.2928 23.2349 17.2114 23.2034 17.1355C23.1719 17.0595 23.1257 16.9906 23.0675 16.9325Z" fill="#22BB9B"/>
</svg>
