<svg width="380" height="380" viewBox="0 0 380 380" fill="none" xmlns="http://www.w3.org/2000/svg">
<rect width="380" height="380" fill="#F7F7F8"/>
<rect width="676" height="638" transform="translate(-173 -136)" fill="white"/>
<g filter="url(#filter0_f_18_594)">
<path fill-rule="evenodd" clip-rule="evenodd" d="M151.209 15C144.783 14.997 138.488 16.7496 133.057 20.054C127.625 23.3584 123.279 28.079 120.526 33.6667C107.259 33.7787 96.9407 34.3573 87.7084 37.8293C76.6874 41.9784 67.1026 49.0296 60.0505 58.176C52.9324 67.3787 49.577 79.2133 44.9997 95.472L44.0881 98.6453L34.1382 153.973C30.5501 156.363 27.4274 159.2 24.712 162.541C7.23673 184.064 15.5574 216.115 32.1987 280.16C42.7692 320.909 48.0641 341.275 63.852 353.147C79.6399 365 101.46 365 145.1 365H234.9C278.54 365 300.36 365 316.148 353.147C331.936 341.275 337.211 320.909 347.801 280.16C364.443 216.096 372.763 184.083 355.288 162.541C352.617 159.229 349.431 156.333 345.842 153.955L335.893 98.664L335 95.4907C330.404 79.2133 327.048 67.3787 319.95 58.1573C312.895 49.0178 303.31 41.9733 292.292 37.8293C283.059 34.3573 272.722 33.7787 259.475 33.6853C256.723 28.0941 252.379 23.3698 246.947 20.0619C241.515 16.754 235.219 14.9986 228.791 15H151.209ZM314.48 143.725L307.459 104.749C301.97 85.336 299.972 79.232 296.597 74.864C292.8 69.938 287.637 66.1407 281.702 63.9067C277.435 62.3013 272.275 61.8347 259.436 61.704C256.679 67.279 252.337 71.988 246.913 75.2851C241.49 78.5823 235.206 80.3327 228.791 80.3333H151.209C144.794 80.3327 138.51 78.5823 133.087 75.2851C127.663 71.988 123.321 67.279 120.564 61.704C107.705 61.8347 102.565 62.3013 98.2983 63.9067C92.3627 66.1407 87.2005 69.938 83.4027 74.864C80.0278 79.232 78.0301 85.3173 72.5412 104.731L65.52 143.725C84.8767 141 110.673 141 145.1 141H234.9C269.327 141 295.123 141 314.48 143.725ZM112.418 201.667C116.276 201.667 119.976 203.142 122.704 205.767C125.432 208.393 126.965 211.954 126.965 215.667V290.333C126.965 294.046 125.432 297.607 122.704 300.233C119.976 302.858 116.276 304.333 112.418 304.333C108.56 304.333 104.86 302.858 102.132 300.233C99.4042 297.607 97.8717 294.046 97.8717 290.333V215.667C97.8717 211.954 99.4042 208.393 102.132 205.767C104.86 203.142 108.56 201.667 112.418 201.667ZM282.128 215.667C282.128 211.954 280.596 208.393 277.868 205.767C275.14 203.142 271.44 201.667 267.582 201.667C263.724 201.667 260.024 203.142 257.296 205.767C254.568 208.393 253.035 211.954 253.035 215.667V290.333C253.035 294.046 254.568 297.607 257.296 300.233C260.024 302.858 263.724 304.333 267.582 304.333C271.44 304.333 275.14 302.858 277.868 300.233C280.596 297.607 282.128 294.046 282.128 290.333V215.667ZM190 201.667C193.858 201.667 197.558 203.142 200.286 205.767C203.014 208.393 204.547 211.954 204.547 215.667V290.333C204.547 294.046 203.014 297.607 200.286 300.233C197.558 302.858 193.858 304.333 190 304.333C186.142 304.333 182.442 302.858 179.714 300.233C176.986 297.607 175.453 294.046 175.453 290.333V215.667C175.453 211.954 176.986 208.393 179.714 205.767C182.442 203.142 186.142 201.667 190 201.667Z" fill="#22BB9B"/>
</g>
<defs>
<filter id="filter0_f_18_594" x="0" y="0" width="380" height="380" filterUnits="userSpaceOnUse" color-interpolation-filters="sRGB">
<feFlood flood-opacity="0" result="BackgroundImageFix"/>
<feBlend mode="normal" in="SourceGraphic" in2="BackgroundImageFix" result="shape"/>
<feGaussianBlur stdDeviation="7.5" result="effect1_foregroundBlur_18_594"/>
</filter>
</defs>
</svg>
