<svg width="50" height="36" viewBox="0 0 50 36" fill="none" xmlns="http://www.w3.org/2000/svg">
<path opacity="0.2" d="M29.5454 11.1082C29.5454 10.7593 29.6689 10.4003 29.9159 10.0311C30.1629 9.66203 30.4364 9.42009 30.7364 9.30532C31.8348 8.9176 32.9333 8.62681 34.0318 8.43295C35.1303 8.23909 36.2864 8.14216 37.5 8.14216C38.2576 8.14216 39.006 8.19101 39.7454 8.28872C40.4848 8.38642 41.2136 8.51204 41.9318 8.66558C42.2727 8.74313 42.5667 8.93699 42.8136 9.24717C43.0606 9.55734 43.1833 9.90629 43.1818 10.294C43.1818 10.9531 42.9735 11.4378 42.5568 11.748C42.1401 12.0581 41.6098 12.1357 40.9659 11.9806C40.4356 11.8643 39.8773 11.7767 39.2909 11.7177C38.7045 11.6588 38.1076 11.6301 37.5 11.6317C36.5151 11.6317 35.5492 11.7286 34.6023 11.9224C33.6553 12.1163 32.7462 12.3683 31.875 12.6785C31.1932 12.9499 30.6348 12.9305 30.2 12.6203C29.7651 12.3102 29.547 11.8061 29.5454 11.1082ZM29.5454 23.903C29.5454 23.5541 29.6689 23.1951 29.9159 22.826C30.1629 22.4568 30.4371 22.2149 30.7386 22.1001C31.8371 21.7124 32.9356 21.4216 34.0341 21.2278C35.1326 21.0339 36.2879 20.937 37.5 20.937C38.2576 20.937 39.006 20.9858 39.7454 21.0835C40.4848 21.1812 41.2136 21.3069 41.9318 21.4604C42.2727 21.5379 42.5667 21.7318 42.8136 22.042C43.0606 22.3522 43.1833 22.7011 43.1818 23.0888C43.1818 23.748 42.9735 24.2326 42.5568 24.5428C42.1401 24.853 41.6098 24.9305 40.9659 24.7754C40.4356 24.6591 39.8773 24.5715 39.2909 24.5125C38.7045 24.4536 38.1076 24.4249 37.5 24.4265C36.5151 24.4265 35.5492 24.5141 34.6023 24.6893C33.6553 24.8646 32.7462 25.1065 31.875 25.4152C31.1932 25.6866 30.6341 25.6765 30.1977 25.3849C29.7614 25.0934 29.5439 24.6002 29.5454 23.9054V23.903ZM29.5454 17.5056C29.5454 17.1567 29.6689 16.7977 29.9159 16.4285C30.1629 16.0594 30.4371 15.8175 30.7386 15.7027C31.8371 15.315 32.9356 15.0242 34.0341 14.8304C35.1326 14.6365 36.2879 14.5396 37.5 14.5396C38.2576 14.5396 39.006 14.5884 39.7454 14.6861C40.4848 14.7838 41.2136 14.9095 41.9318 15.063C42.2727 15.1405 42.5667 15.3344 42.8136 15.6446C43.0606 15.9548 43.1833 16.3037 43.1818 16.6914C43.1818 17.3506 42.9735 17.8352 42.5568 18.1454C42.1401 18.4556 41.6098 18.5331 40.9659 18.378C40.4356 18.2617 39.8773 18.1741 39.2909 18.1151C38.7045 18.0562 38.1076 18.0275 37.5 18.0291C36.5151 18.0291 35.5492 18.126 34.6023 18.3199C33.6553 18.5137 32.7462 18.7657 31.875 19.0759C31.1932 19.3473 30.6348 19.3279 30.2 19.0178C29.7651 18.7076 29.547 18.2035 29.5454 17.5056ZM12.5 27.916C14.2803 27.916 16.0136 28.1199 17.7 28.5278C19.3864 28.9357 21.0621 29.546 22.7273 30.3586V7.44426C21.1742 6.51373 19.5265 5.81583 17.7841 5.35056C16.0417 4.8853 14.2803 4.65266 12.5 4.65266C11.1364 4.65266 9.78181 4.78836 8.43636 5.05977C7.09091 5.33118 5.79394 5.73828 4.54545 6.28109V29.3118C5.87121 28.8465 7.18788 28.4976 8.49545 28.2649C9.80303 28.0323 11.1379 27.916 12.5 27.916ZM27.2727 30.3586C28.9394 29.5444 30.6151 28.9334 32.3 28.5255C33.9848 28.1176 35.7182 27.9144 37.5 27.916C38.8636 27.916 40.1992 28.0323 41.5068 28.2649C42.8144 28.4976 44.1303 28.8465 45.4545 29.3118V6.28109C44.2045 5.73828 42.9068 5.33118 41.5614 5.05977C40.2159 4.78836 38.8621 4.65266 37.5 4.65266C35.7197 4.65266 33.9583 4.8853 32.2159 5.35056C30.4735 5.81583 28.8257 6.51373 27.2727 7.44426V30.3586ZM25 36C24.4697 36 23.9674 35.9317 23.4932 35.7953C23.0189 35.6588 22.5742 35.475 22.1591 35.2439C20.6818 34.3522 19.1288 33.6837 17.5 33.2386C15.8712 32.7935 14.2045 32.5702 12.5 32.5686C10.9091 32.5686 9.34621 32.7819 7.81136 33.2084C6.27651 33.6349 4.80909 34.2358 3.40909 35.0113C2.61364 35.4378 1.84697 35.4184 1.10909 34.9531C0.371212 34.4879 0.00151515 33.8093 0 32.9176V4.88529C0 4.4588 0.104545 4.05169 0.313636 3.66397C0.522727 3.27625 0.834848 2.98546 1.25 2.7916C2.99242 1.86106 4.8106 1.16317 6.70454 0.6979C8.59848 0.232634 10.5303 0 12.5 0C14.697 0 16.847 0.290791 18.95 0.872374C21.053 1.45396 23.0697 2.32633 25 3.4895C26.9318 2.32633 28.9492 1.45396 31.0523 0.872374C33.1553 0.290791 35.3045 0 37.5 0C39.4697 0 41.4015 0.232634 43.2954 0.6979C45.1894 1.16317 47.0076 1.86106 48.75 2.7916C49.1667 2.98546 49.4795 3.27625 49.6886 3.66397C49.8977 4.05169 50.0015 4.4588 50 4.88529V32.9176C50 33.8093 49.631 34.4879 48.8932 34.9531C48.1553 35.4184 47.3879 35.4378 46.5909 35.0113C45.1894 34.2358 43.722 33.6349 42.1886 33.2084C40.6553 32.7819 39.0924 32.5686 37.5 32.5686C35.7954 32.5686 34.1288 32.792 32.5 33.2386C30.8712 33.6853 29.3182 34.3537 27.8409 35.2439C27.4242 35.4765 26.9788 35.6611 26.5045 35.7976C26.0303 35.9341 25.5288 36.0015 25 36Z" fill="#181818"/>
</svg>
