<svg width="23" height="23" viewBox="0 0 23 23" fill="none" xmlns="http://www.w3.org/2000/svg">
<path fill-rule="evenodd" clip-rule="evenodd" d="M0 8.37365V0.440719C0 0.197316 0.197316 0 0.440719 0H8.37365C8.61706 0 8.81437 0.197316 8.81437 0.440719V8.37365C8.81437 8.61706 8.61706 8.81437 8.37365 8.81437H0.440719C0.197316 8.81437 0 8.61706 0 8.37365ZM7.93285 0.881367H0.881348V7.93287H7.93285V0.881367Z" fill="#181818"/>
<path fill-rule="evenodd" clip-rule="evenodd" d="M2.22666 1.79041H6.58793C6.8288 1.79041 7.02406 1.98567 7.02406 2.22653V6.58781C7.02406 6.82868 6.8288 7.02394 6.58793 7.02394H2.22666C1.98579 7.02394 1.79053 6.82868 1.79053 6.58781V2.22653C1.79053 1.98567 1.98579 1.79041 2.22666 1.79041ZM2.6626 6.15165H6.15162V2.66263H2.6626V6.15165Z" fill="#181818"/>
<path fill-rule="evenodd" clip-rule="evenodd" d="M2.22666 15.9761H6.58793C6.8288 15.9761 7.02406 16.1713 7.02406 16.4122V20.7735C7.02406 21.0143 6.8288 21.2096 6.58793 21.2096H2.22666C1.98579 21.2096 1.79053 21.0143 1.79053 20.7735V16.4122C1.79053 16.1713 1.98579 15.9761 2.22666 15.9761ZM2.6626 20.3373H6.15162V16.8483H2.6626V20.3373Z" fill="#181818"/>
<path fill-rule="evenodd" clip-rule="evenodd" d="M16.4122 1.79041H20.7735C21.0143 1.79041 21.2096 1.98567 21.2096 2.22653V6.58781C21.2096 6.82868 21.0143 7.02394 20.7735 7.02394H16.4122C16.1713 7.02394 15.9761 6.82868 15.9761 6.58781V2.22653C15.9761 1.98567 16.1713 1.79041 16.4122 1.79041ZM16.8486 6.15165H20.3377V2.66263H16.8486V6.15165Z" fill="#181818"/>
<path fill-rule="evenodd" clip-rule="evenodd" d="M22.5592 8.81437H14.6263C14.3829 8.81437 14.1855 8.61644 14.1855 8.37227V0.4421C14.1855 0.197935 14.3829 0 14.6263 0H22.5592C22.8026 0 22.9999 0.197935 22.9999 0.4421V8.37227C22.9999 8.61644 22.8026 8.81437 22.5592 8.81437ZM22.1189 0.884175H15.0674V7.93015H22.1189V0.884175Z" fill="#181818"/>
<path fill-rule="evenodd" clip-rule="evenodd" d="M0.440719 22.9999C0.197316 22.9999 0 22.8026 0 22.5592V14.6263C0 14.3829 0.197316 14.1855 0.440719 14.1855H8.37365C8.61706 14.1855 8.81437 14.3829 8.81437 14.6263V22.5592C8.81437 22.8026 8.61706 22.9999 8.37365 22.9999H0.440719ZM7.93285 15.067H0.881348V22.1185H7.93285V15.067Z" fill="#181818"/>
<path d="M10.2264 3.71856C10.4736 3.71856 10.674 3.51046 10.674 3.25374V0.929641H11.1216C11.3688 0.929641 11.5692 0.721533 11.5692 0.46482C11.5692 0.208107 11.3688 0 11.1216 0H10.2264C9.97921 0 9.77881 0.208107 9.77881 0.46482V3.25374C9.77881 3.51046 9.97921 3.71856 10.2264 3.71856Z" fill="#181818"/>
<circle cx="12.8082" cy="0.413174" r="0.413174" fill="#181818"/>
<path d="M11.8788 3.71852H12.774C13.0212 3.71852 13.2216 3.51812 13.2216 3.27091V2.37571C13.2216 2.1285 13.0212 1.9281 12.774 1.9281C12.5268 1.9281 12.3264 2.1285 12.3264 2.37571V2.82331H11.8788C11.6316 2.82331 11.4312 3.02371 11.4312 3.27091C11.4312 3.51812 11.6316 3.71852 11.8788 3.71852Z" fill="#181818"/>
<path d="M12.774 4.95801H11.8788C11.6316 4.95801 11.4312 5.15327 11.4312 5.39414V7.13865C11.4312 7.37951 11.6316 7.57477 11.8788 7.57477C12.126 7.57477 12.3264 7.37951 12.3264 7.13865V5.83026H12.774C13.0212 5.83026 13.2216 5.635 13.2216 5.39414C13.2216 5.15327 13.0212 4.95801 12.774 4.95801Z" fill="#181818"/>
<path d="M10.2436 8.95214H13.0326C13.2893 8.95214 13.4974 8.74865 13.4974 8.49765C13.4974 8.24664 13.2893 8.04315 13.0326 8.04315H10.7084V4.86172C10.7084 4.61071 10.5003 4.40723 10.2436 4.40723C9.98692 4.40723 9.77881 4.61071 9.77881 4.86172V8.49765C9.77881 8.74865 9.98692 8.95214 10.2436 8.95214Z" fill="#181818"/>
<path d="M13.6118 19.2814C13.3709 19.2814 13.1757 19.4895 13.1757 19.7462V22.0703H11.8673C11.6264 22.0703 11.4312 22.2784 11.4312 22.5351C11.4312 22.7918 11.6264 22.9999 11.8673 22.9999H13.6118C13.8527 22.9999 14.0479 22.7918 14.0479 22.5351V19.7462C14.0479 19.4895 13.8527 19.2814 13.6118 19.2814Z" fill="#181818"/>
<circle cx="10.192" cy="22.5869" r="0.413174" fill="#181818"/>
<path d="M10.2149 21.3473C10.4558 21.3473 10.6511 21.1469 10.6511 20.8997V20.4521H11.9594C12.2003 20.4521 12.3956 20.2517 12.3956 20.0045C12.3956 19.7573 12.2003 19.5569 11.9594 19.5569H10.2149C9.97407 19.5569 9.77881 19.7573 9.77881 20.0045V20.8997C9.77881 21.1469 9.97407 21.3473 10.2149 21.3473Z" fill="#181818"/>
<path d="M10.2195 15.1497C10.4629 15.1497 10.6602 14.9416 10.6602 14.6849V12.3608H11.5417C11.7851 12.3608 11.9824 12.1527 11.9824 11.896C11.9824 11.6393 11.7851 11.4312 11.5417 11.4312H10.2195C9.97613 11.4312 9.77881 11.6393 9.77881 11.896V14.6849C9.77881 14.9416 9.97613 15.1497 10.2195 15.1497Z" fill="#181818"/>
<path d="M10.2226 10.7081H12.8853V13.0322C12.8853 13.2889 13.0839 13.497 13.329 13.497C13.5741 13.497 13.7728 13.2889 13.7728 13.0322V10.2433C13.7728 9.98655 13.5741 9.77844 13.329 9.77844H10.2226C9.9775 9.77844 9.77881 9.98655 9.77881 10.2433C9.77881 10.5 9.9775 10.7081 10.2226 10.7081Z" fill="#181818"/>
<path d="M0 12.774C0 13.0212 0.208107 13.2216 0.46482 13.2216H3.25374C3.51046 13.2216 3.71856 13.0212 3.71856 12.774C3.71856 12.5268 3.51046 12.3264 3.25374 12.3264H0.929641V11.8788C0.929641 11.6316 0.721533 11.4312 0.46482 11.4312C0.208107 11.4312 0 11.6316 0 11.8788V12.774Z" fill="#181818"/>
<path d="M2.31833 11.5689C2.5592 11.5689 2.75446 11.3685 2.75446 11.1213V10.226C2.75446 9.97884 2.5592 9.77844 2.31833 9.77844H0.573823C0.332956 9.77844 0.137695 9.97884 0.137695 10.226C0.137695 10.4733 0.332956 10.6737 0.573823 10.6737H1.88221V11.1213C1.88221 11.3685 2.07747 11.5689 2.31833 11.5689Z" fill="#181818"/>
<path d="M3.90818 9.77844C3.65147 9.77844 3.44336 9.97884 3.44336 10.226V11.1213C3.44336 11.3685 3.65147 11.5689 3.90818 11.5689H6.6971C6.95381 11.5689 7.16192 11.3685 7.16192 11.1213C7.16192 10.8741 6.95381 10.6737 6.6971 10.6737H4.373V10.226C4.373 9.97884 4.16489 9.77844 3.90818 9.77844Z" fill="#181818"/>
<path d="M8.95214 10.2433C8.95214 9.98655 8.74865 9.77844 8.49765 9.77844C8.24664 9.77844 8.04315 9.98655 8.04315 10.2433V12.5674H4.86172C4.61071 12.5674 4.40723 12.7755 4.40723 13.0322C4.40723 13.2889 4.61071 13.497 4.86172 13.497H8.49765C8.74865 13.497 8.95214 13.2889 8.95214 13.0322V10.2433Z" fill="#181818"/>
<path d="M22.9998 10.226C22.9998 9.97884 22.7917 9.77844 22.535 9.77844H19.7461C19.4894 9.77844 19.2812 9.97884 19.2812 10.226C19.2812 10.4733 19.4894 10.6737 19.7461 10.6737H22.0702V11.1213C22.0702 11.3685 22.2783 11.5689 22.535 11.5689C22.7917 11.5689 22.9998 11.3685 22.9998 11.1213V10.226Z" fill="#181818"/>
<circle cx="15.15" cy="14.4611" r="0.413174" fill="#181818"/>
<path d="M21.0714 12.774V11.8788C21.0714 11.6316 20.8777 11.4312 20.6386 11.4312C20.3995 11.4312 20.2057 11.6316 20.2057 11.8788V12.3264H18.4744C18.2353 12.3264 18.0415 12.5268 18.0415 12.774C18.0415 13.0212 18.2353 13.2216 18.4744 13.2216H20.6386C20.8777 13.2216 21.0714 13.0212 21.0714 12.774Z" fill="#181818"/>
<path d="M20.7734 17.7664H19.0289C18.788 17.7664 18.5928 17.9668 18.5928 18.214C18.5928 18.4612 18.788 18.6616 19.0289 18.6616H20.3373V19.1092C20.3373 19.3564 20.5325 19.5568 20.7734 19.5568C21.0143 19.5568 21.2095 19.3564 21.2095 19.1092V18.214C21.2095 17.9668 21.0143 17.7664 20.7734 17.7664Z" fill="#181818"/>
<circle cx="20.6588" cy="20.6587" r="0.413174" fill="#181818"/>
<circle cx="17.3531" cy="18.1795" r="0.413174" fill="#181818"/>
<path d="M19.1206 20.4521H17.8122V20.0045C17.8122 19.7573 17.6169 19.5569 17.3761 19.5569C17.1352 19.5569 16.9399 19.7573 16.9399 20.0045V20.8997C16.9399 21.1469 17.1352 21.3473 17.3761 21.3473H19.1206C19.3614 21.3473 19.5567 21.1469 19.5567 20.8997C19.5567 20.6525 19.3614 20.4521 19.1206 20.4521Z" fill="#181818"/>
<path d="M16.6922 11.4312C16.4488 11.4312 16.2515 11.6393 16.2515 11.896V14.6849C16.2515 14.9416 16.4488 15.1497 16.6922 15.1497H18.8407C19.0841 15.1497 19.2814 14.9416 19.2814 14.6849C19.2814 14.4282 19.0841 14.2201 18.8407 14.2201H17.1329V11.896C17.1329 11.6393 16.9356 11.4312 16.6922 11.4312Z" fill="#181818"/>
<path d="M18.1489 9.77844H15.0424C14.7973 9.77844 14.5986 9.98655 14.5986 10.2433V13.0322C14.5986 13.2889 14.7973 13.497 15.0424 13.497C15.2875 13.497 15.4862 13.2889 15.4862 13.0322V10.7081H18.1489C18.394 10.7081 18.5926 10.5 18.5926 10.2433C18.5926 9.98655 18.394 9.77844 18.1489 9.77844Z" fill="#181818"/>
<path fill-rule="evenodd" clip-rule="evenodd" d="M13.5938 18.5928H9.95791C9.7069 18.5928 9.50342 18.3976 9.50342 18.1567V16.4122C9.50342 16.1713 9.7069 15.9761 9.95791 15.9761H13.5938C13.8448 15.9761 14.0483 16.1713 14.0483 16.4122V18.1567C14.0483 18.3976 13.8448 18.5928 13.5938 18.5928ZM13.1391 16.8483H10.4121V17.7205H13.1391V16.8483Z" fill="#181818"/>
<path fill-rule="evenodd" clip-rule="evenodd" d="M22.556 23H15.4555C15.2104 23 15.0117 22.8035 15.0117 22.561V16.4151C15.0117 16.1726 15.2104 15.9761 15.4555 15.9761H22.556C22.8011 15.9761 22.9997 16.1726 22.9997 16.4151V22.561C22.9997 22.8035 22.8011 23 22.556 23ZM22.1123 16.854H15.8994V22.122H22.1123V16.854Z" fill="#181818"/>
<path d="M13.3463 14.048H12.5466C12.3111 14.048 12.1201 14.233 12.1201 14.4611C12.1201 14.6893 12.3111 14.8743 12.5466 14.8743H13.3463C13.5819 14.8743 13.7728 14.6893 13.7728 14.4611C13.7728 14.233 13.5819 14.048 13.3463 14.048Z" fill="#181818"/>
<path d="M22.8624 12.6936C22.8624 12.4527 22.6671 12.2574 22.4262 12.2574C22.1854 12.2574 21.9901 12.4527 21.9901 12.6936V14.002H20.6817C20.4409 14.002 20.2456 14.1972 20.2456 14.4381C20.2456 14.679 20.4409 14.8742 20.6817 14.8742H22.4262C22.6671 14.8742 22.8624 14.679 22.8624 14.4381V12.6936Z" fill="#181818"/>
</svg>
