<svg width="22" height="22" viewBox="0 0 22 22" fill="none" xmlns="http://www.w3.org/2000/svg">
<path fill-rule="evenodd" clip-rule="evenodd" d="M0 8.00958V0.421557C0 0.188737 0.188737 0 0.421557 0H8.00958C8.2424 0 8.43114 0.188737 8.43114 0.421557V8.00958C8.43114 8.2424 8.2424 8.43114 8.00958 8.43114H0.421557C0.188737 8.43114 0 8.2424 0 8.00958ZM7.58817 0.843028H0.843262V7.58794H7.58817V0.843028Z" fill="#181818"/>
<path fill-rule="evenodd" clip-rule="evenodd" d="M2.13006 1.71252H6.30171C6.53211 1.71252 6.71888 1.8993 6.71888 2.12969V6.30135C6.71888 6.53174 6.53211 6.71851 6.30171 6.71851H2.13006C1.89966 6.71851 1.71289 6.53174 1.71289 6.30135V2.12969C1.71289 1.8993 1.89966 1.71252 2.13006 1.71252ZM2.54688 5.88416H5.8842V2.54683H2.54688V5.88416Z" fill="#181818"/>
<path fill-rule="evenodd" clip-rule="evenodd" d="M2.13006 15.2815H6.30171C6.53211 15.2815 6.71888 15.4683 6.71888 15.6987V19.8703C6.71888 20.1007 6.53211 20.2875 6.30171 20.2875H2.13006C1.89966 20.2875 1.71289 20.1007 1.71289 19.8703V15.6987C1.71289 15.4683 1.89966 15.2815 2.13006 15.2815ZM2.54688 19.4531H5.8842V16.1157H2.54688V19.4531Z" fill="#181818"/>
<path fill-rule="evenodd" clip-rule="evenodd" d="M15.6984 1.71252H19.8701C20.1005 1.71252 20.2872 1.8993 20.2872 2.12969V6.30135C20.2872 6.53174 20.1005 6.71851 19.8701 6.71851H15.6984C15.468 6.71851 15.2812 6.53174 15.2812 6.30135V2.12969C15.2812 1.8993 15.468 1.71252 15.6984 1.71252ZM16.1162 5.88416H19.4535V2.54683H16.1162V5.88416Z" fill="#181818"/>
<path fill-rule="evenodd" clip-rule="evenodd" d="M21.5784 8.43114H13.9904C13.7576 8.43114 13.5688 8.24181 13.5688 8.00826V0.422878C13.5688 0.189329 13.7576 0 13.9904 0H21.5784C21.8112 0 22 0.189329 22 0.422878V8.00826C22 8.24181 21.8112 8.43114 21.5784 8.43114ZM21.157 0.845714H14.4121V7.58534H21.157V0.845714Z" fill="#181818"/>
<path fill-rule="evenodd" clip-rule="evenodd" d="M0.421557 21.9999C0.188737 21.9999 0 21.8111 0 21.5783V13.9903C0 13.7575 0.188737 13.5687 0.421557 13.5687H8.00958C8.2424 13.5687 8.43114 13.7575 8.43114 13.9903V21.5783C8.43114 21.8111 8.2424 21.9999 8.00958 21.9999H0.421557ZM7.58817 14.4119H0.843262V21.1568H7.58817V14.4119Z" fill="#181818"/>
<path d="M9.78166 3.55689C10.0181 3.55689 10.2098 3.35783 10.2098 3.11228V0.889221H10.6379C10.8744 0.889221 11.0661 0.690162 11.0661 0.444611C11.0661 0.199059 10.8744 0 10.6379 0H9.78166C9.5452 0 9.35352 0.199059 9.35352 0.444611V3.11228C9.35352 3.35783 9.5452 3.55689 9.78166 3.55689Z" fill="#181818"/>
<circle cx="12.2512" cy="0.39521" r="0.39521" fill="#181818"/>
<path d="M11.3622 3.55681H12.2185C12.455 3.55681 12.6467 3.36513 12.6467 3.12867V2.27238C12.6467 2.03592 12.455 1.84424 12.2185 1.84424C11.9821 1.84424 11.7904 2.03592 11.7904 2.27238V2.70053H11.3622C11.1258 2.70053 10.9341 2.89221 10.9341 3.12867C10.9341 3.36513 11.1258 3.55681 11.3622 3.55681Z" fill="#181818"/>
<path d="M12.2185 4.74243H11.3622C11.1258 4.74243 10.9341 4.9292 10.9341 5.1596V6.82826C10.9341 7.05865 11.1258 7.24543 11.3622 7.24543C11.5987 7.24543 11.7904 7.05865 11.7904 6.82826V5.57676H12.2185C12.455 5.57676 12.6467 5.38999 12.6467 5.1596C12.6467 4.9292 12.455 4.74243 12.2185 4.74243Z" fill="#181818"/>
<path d="M9.79813 8.56288H12.4658C12.7113 8.56288 12.9104 8.36825 12.9104 8.12815C12.9104 7.88806 12.7113 7.69342 12.4658 7.69342H10.2427V4.65031C10.2427 4.41021 10.0437 4.21558 9.79813 4.21558C9.55257 4.21558 9.35352 4.41021 9.35352 4.65031V8.12815C9.35352 8.36825 9.55257 8.56288 9.79813 8.56288Z" fill="#181818"/>
<path d="M13.0199 18.443C12.7895 18.443 12.6027 18.6421 12.6027 18.8876V21.1107H11.3512C11.1209 21.1107 10.9341 21.3097 10.9341 21.5553C10.9341 21.8008 11.1209 21.9999 11.3512 21.9999H13.0199C13.2503 21.9999 13.4371 21.8008 13.4371 21.5553V18.8876C13.4371 18.6421 13.2503 18.443 13.0199 18.443Z" fill="#181818"/>
<circle cx="9.74872" cy="21.6048" r="0.39521" fill="#181818"/>
<path d="M9.77068 20.4191C10.0011 20.4191 10.1878 20.2274 10.1878 19.991V19.5628H11.4393C11.6697 19.5628 11.8565 19.3711 11.8565 19.1347C11.8565 18.8982 11.6697 18.7065 11.4393 18.7065H9.77068C9.54029 18.7065 9.35352 18.8982 9.35352 19.1347V19.991C9.35352 20.2274 9.54029 20.4191 9.77068 20.4191Z" fill="#181818"/>
<path d="M9.77507 14.4911C10.0079 14.4911 10.1966 14.292 10.1966 14.0465V11.8234H11.0397C11.2726 11.8234 11.4613 11.6244 11.4613 11.3788C11.4613 11.1333 11.2726 10.9342 11.0397 10.9342H9.77507C9.54225 10.9342 9.35352 11.1333 9.35352 11.3788V14.0465C9.35352 14.292 9.54225 14.4911 9.77507 14.4911Z" fill="#181818"/>
<path d="M9.778 10.2425H12.3249V12.4655C12.3249 12.7111 12.515 12.9102 12.7494 12.9102C12.9838 12.9102 13.1739 12.7111 13.1739 12.4655V9.79788C13.1739 9.55233 12.9838 9.35327 12.7494 9.35327H9.778C9.54356 9.35327 9.35352 9.55233 9.35352 9.79788C9.35352 10.0434 9.54356 10.2425 9.778 10.2425Z" fill="#181818"/>
<path d="M0 12.2186C0 12.4551 0.199059 12.6468 0.444611 12.6468H3.11228C3.35783 12.6468 3.55689 12.4551 3.55689 12.2186C3.55689 11.9822 3.35783 11.7905 3.11228 11.7905H0.889221V11.3623C0.889221 11.1259 0.690162 10.9342 0.444611 10.9342C0.199059 10.9342 0 11.1259 0 11.3623V12.2186Z" fill="#181818"/>
<path d="M2.21766 11.0658C2.44806 11.0658 2.63483 10.8742 2.63483 10.6377V9.78142C2.63483 9.54496 2.44806 9.35327 2.21766 9.35327H0.549002C0.318607 9.35327 0.131836 9.54496 0.131836 9.78142C0.131836 10.0179 0.318607 10.2096 0.549002 10.2096H1.8005V10.6377C1.8005 10.8742 1.98727 11.0658 2.21766 11.0658Z" fill="#181818"/>
<path d="M3.73807 9.35327C3.49252 9.35327 3.29346 9.54496 3.29346 9.78142V10.6377C3.29346 10.8742 3.49252 11.0658 3.73807 11.0658H6.40573C6.65128 11.0658 6.85034 10.8742 6.85034 10.6377C6.85034 10.4012 6.65128 10.2096 6.40573 10.2096H4.18268V9.78142C4.18268 9.54496 3.98362 9.35327 3.73807 9.35327Z" fill="#181818"/>
<path d="M8.56313 9.79788C8.56313 9.55233 8.36849 9.35327 8.12839 9.35327C7.8883 9.35327 7.69366 9.55233 7.69366 9.79788V12.0209H4.65055C4.41046 12.0209 4.21582 12.22 4.21582 12.4655C4.21582 12.7111 4.41046 12.9102 4.65055 12.9102H8.12839C8.36849 12.9102 8.56313 12.7111 8.56313 12.4655V9.79788Z" fill="#181818"/>
<path d="M21.9998 9.78142C21.9998 9.54496 21.8007 9.35327 21.5551 9.35327H18.8875C18.6419 9.35327 18.4429 9.54496 18.4429 9.78142C18.4429 10.0179 18.6419 10.2096 18.8875 10.2096H21.1105V10.6377C21.1105 10.8742 21.3096 11.0658 21.5551 11.0658C21.8007 11.0658 21.9998 10.8742 21.9998 10.6377V9.78142Z" fill="#181818"/>
<circle cx="14.4914" cy="13.8323" r="0.39521" fill="#181818"/>
<path d="M20.1555 12.2186V11.3623C20.1555 11.1259 19.9702 10.9342 19.7415 10.9342C19.5128 10.9342 19.3275 11.1259 19.3275 11.3623V11.7905H17.6714C17.4427 11.7905 17.2573 11.9822 17.2573 12.2186C17.2573 12.4551 17.4427 12.6468 17.6714 12.6468H19.7415C19.9702 12.6468 20.1555 12.4551 20.1555 12.2186Z" fill="#181818"/>
<path d="M19.87 16.9939H18.2013C17.971 16.9939 17.7842 17.1856 17.7842 17.422C17.7842 17.6585 17.971 17.8502 18.2013 17.8502H19.4528V18.2783C19.4528 18.5148 19.6396 18.7065 19.87 18.7065C20.1004 18.7065 20.2872 18.5148 20.2872 18.2783V17.422C20.2872 17.1856 20.1004 16.9939 19.87 16.9939Z" fill="#181818"/>
<circle cx="19.7604" cy="19.7604" r="0.39521" fill="#181818"/>
<circle cx="16.5988" cy="17.3891" r="0.39521" fill="#181818"/>
<path d="M18.2894 19.5628H17.0379V19.1347C17.0379 18.8982 16.8512 18.7065 16.6208 18.7065C16.3904 18.7065 16.2036 18.8982 16.2036 19.1347V19.991C16.2036 20.2274 16.3904 20.4191 16.6208 20.4191H18.2894C18.5198 20.4191 18.7066 20.2274 18.7066 19.991C18.7066 19.7545 18.5198 19.5628 18.2894 19.5628Z" fill="#181818"/>
<path d="M15.9665 10.9342C15.7337 10.9342 15.5449 11.1333 15.5449 11.3788V14.0465C15.5449 14.292 15.7337 14.4911 15.9665 14.4911H18.0216C18.2544 14.4911 18.4431 14.292 18.4431 14.0465C18.4431 13.8009 18.2544 13.6019 18.0216 13.6019H16.388V11.3788C16.388 11.1333 16.1993 10.9342 15.9665 10.9342Z" fill="#181818"/>
<path d="M17.3597 9.35327H14.3884C14.1539 9.35327 13.9639 9.55233 13.9639 9.79788V12.4655C13.9639 12.7111 14.1539 12.9102 14.3884 12.9102C14.6228 12.9102 14.8128 12.7111 14.8128 12.4655V10.2425H17.3597C17.5942 10.2425 17.7842 10.0434 17.7842 9.79788C17.7842 9.55233 17.5942 9.35327 17.3597 9.35327Z" fill="#181818"/>
<path fill-rule="evenodd" clip-rule="evenodd" d="M13.0029 17.7845H9.52506C9.28497 17.7845 9.09033 17.5977 9.09033 17.3673V15.6987C9.09033 15.4683 9.28497 15.2815 9.52506 15.2815H13.0029C13.243 15.2815 13.4376 15.4683 13.4376 15.6987V17.3673C13.4376 17.5977 13.243 17.7845 13.0029 17.7845ZM12.5679 16.1157H9.95947V16.9501H12.5679V16.1157Z" fill="#181818"/>
<path fill-rule="evenodd" clip-rule="evenodd" d="M21.5751 22.0001H14.7834C14.5489 22.0001 14.3589 21.8121 14.3589 21.5801V15.7014C14.3589 15.4695 14.5489 15.2815 14.7834 15.2815H21.5751C21.8096 15.2815 21.9996 15.4695 21.9996 15.7014V21.5801C21.9996 21.8121 21.8096 22.0001 21.5751 22.0001ZM21.1508 16.1212H15.208V21.1601H21.1508V16.1212Z" fill="#181818"/>
<path d="M12.7661 13.4371H12.0012C11.7759 13.4371 11.5933 13.6141 11.5933 13.8323C11.5933 14.0506 11.7759 14.2276 12.0012 14.2276H12.7661C12.9915 14.2276 13.1741 14.0506 13.1741 13.8323C13.1741 13.6141 12.9915 13.4371 12.7661 13.4371Z" fill="#181818"/>
<path d="M21.8682 12.1417C21.8682 11.9113 21.6815 11.7245 21.4511 11.7245C21.2207 11.7245 21.0339 11.9113 21.0339 12.1417V13.3932H19.7824C19.552 13.3932 19.3652 13.5799 19.3652 13.8103C19.3652 14.0407 19.552 14.2275 19.7824 14.2275H21.4511C21.6815 14.2275 21.8682 14.0407 21.8682 13.8103V12.1417Z" fill="#181818"/>
</svg>
