<svg width="20" height="44" viewBox="0 0 20 44" fill="none" xmlns="http://www.w3.org/2000/svg">
<path fill-rule="evenodd" clip-rule="evenodd" d="M3.988 36C6.19051 36 7.976 37.7909 7.976 40C7.976 42.2091 6.19051 44 3.988 44C1.78549 44 0 42.2091 0 40C0 37.7909 1.78549 36 3.988 36ZM3.988 24C6.19051 24 7.976 25.7909 7.976 28C7.976 30.2091 6.19051 32 3.988 32C1.78549 32 0 30.2091 0 28C0 25.7909 1.78549 24 3.988 24ZM3.988 12C6.19051 12 7.976 13.7909 7.976 16C7.976 18.2091 6.19051 20 3.988 20C1.78549 20 0 18.2091 0 16C0 13.7909 1.78549 12 3.988 12ZM3.988 0C6.19051 0 7.976 1.79086 7.976 4C7.976 6.20914 6.19051 8 3.988 8C1.78549 8 0 6.20914 0 4C0 1.79086 1.78549 0 3.988 0ZM15.9528 36C18.1554 36 19.9408 37.7909 19.9408 40C19.9408 42.2091 18.1554 44 15.9528 44C13.7503 44 11.9648 42.2091 11.9648 40C11.9648 37.7909 13.7503 36 15.9528 36ZM15.9528 24C18.1554 24 19.9408 25.7909 19.9408 28C19.9408 30.2091 18.1554 32 15.9528 32C13.7503 32 11.9648 30.2091 11.9648 28C11.9648 25.7909 13.7503 24 15.9528 24ZM15.9528 12C18.1554 12 19.9408 13.7909 19.9408 16C19.9408 18.2091 18.1554 20 15.9528 20C13.7503 20 11.9648 18.2091 11.9648 16C11.9648 13.7909 13.7503 12 15.9528 12ZM15.9528 0C18.1554 0 19.9408 1.79086 19.9408 4C19.9408 6.20914 18.1554 8 15.9528 8C13.7503 8 11.9648 6.20914 11.9648 4C11.9648 1.79086 13.7503 0 15.9528 0Z" fill="#7F85A2"/>
</svg>
