<svg width="31" height="30" viewBox="0 0 31 30" fill="none" xmlns="http://www.w3.org/2000/svg">
<path fill-rule="evenodd" clip-rule="evenodd" d="M4.01497 0C2.16497 0 0.681641 1.48333 0.681641 3.33333V26.6667C0.681641 28.5076 2.17402 30 4.01497 30H27.3483C29.1893 30 30.6816 28.5076 30.6816 26.6667V15H27.3483V26.6667H4.01497V3.33333H15.6816V0H4.01497ZM25.315 1.66667C25.0316 1.66667 24.7316 1.78333 24.515 2L22.4816 4.01667L26.6483 8.18333L28.6816 6.16667C29.115 5.73333 29.115 5 28.6816 4.58333L26.0983 2C25.8816 1.78333 25.5983 1.66667 25.315 1.66667ZM21.2983 5.2L9.01497 17.5V21.6667H13.1816L25.465 9.36667L21.2983 5.2Z" fill="#181818"/>
<mask id="mask0_880_4349" style="mask-type:luminance" maskUnits="userSpaceOnUse" x="0" y="0" width="31" height="30">
<path fill-rule="evenodd" clip-rule="evenodd" d="M4.01497 0C2.16497 0 0.681641 1.48333 0.681641 3.33333V26.6667C0.681641 28.5076 2.17402 30 4.01497 30H27.3483C29.1893 30 30.6816 28.5076 30.6816 26.6667V15H27.3483V26.6667H4.01497V3.33333H15.6816V0H4.01497ZM25.315 1.66667C25.0316 1.66667 24.7316 1.78333 24.515 2L22.4816 4.01667L26.6483 8.18333L28.6816 6.16667C29.115 5.73333 29.115 5 28.6816 4.58333L26.0983 2C25.8816 1.78333 25.5983 1.66667 25.315 1.66667ZM21.2983 5.2L9.01497 17.5V21.6667H13.1816L25.465 9.36667L21.2983 5.2Z" fill="white"/>
</mask>
<g mask="url(#mask0_880_4349)">
</g>
</svg>
