<svg width="22" height="22" viewBox="0 0 22 22" fill="none" xmlns="http://www.w3.org/2000/svg">
<path fill-rule="evenodd" clip-rule="evenodd" d="M2.44444 0C1.08778 0 0 1.08778 0 2.44444V19.5556C0 20.9056 1.09441 22 2.44444 22H19.5556C20.9056 22 22 20.9056 22 19.5556V11H19.5556V19.5556H2.44444V2.44444H11V0H2.44444V0ZM18.0644 1.22222C17.8567 1.22222 17.6367 1.30778 17.4778 1.46667L15.9867 2.94556L19.0422 6.00111L20.5333 4.52222C20.8511 4.20444 20.8511 3.66667 20.5333 3.36111L18.6389 1.46667C18.48 1.30778 18.2722 1.22222 18.0644 1.22222V1.22222ZM15.1189 3.81333L6.11111 12.8333V15.8889H9.16667L18.1744 6.86889L15.1189 3.81333Z" fill="#181818"/>
<mask id="mask0_986_23324" style="mask-type:luminance" maskUnits="userSpaceOnUse" x="0" y="0" width="22" height="22">
<path fill-rule="evenodd" clip-rule="evenodd" d="M2.44444 0C1.08778 0 0 1.08778 0 2.44444V19.5556C0 20.9056 1.09441 22 2.44444 22H19.5556C20.9056 22 22 20.9056 22 19.5556V11H19.5556V19.5556H2.44444V2.44444H11V0H2.44444V0ZM18.0644 1.22222C17.8567 1.22222 17.6367 1.30778 17.4778 1.46667L15.9867 2.94556L19.0422 6.00111L20.5333 4.52222C20.8511 4.20444 20.8511 3.66667 20.5333 3.36111L18.6389 1.46667C18.48 1.30778 18.2722 1.22222 18.0644 1.22222V1.22222ZM15.1189 3.81333L6.11111 12.8333V15.8889H9.16667L18.1744 6.86889L15.1189 3.81333Z" fill="white"/>
</mask>
<g mask="url(#mask0_986_23324)">
</g>
</svg>
