<svg width="20" height="20" viewBox="0 0 20 20" fill="none" xmlns="http://www.w3.org/2000/svg">
<path fill-rule="evenodd" clip-rule="evenodd" d="M10.7143 9.83867L11.3429 9.252L17.8571 3.172V2H2.14286V3.172L8.65714 9.252L9.28571 9.83867V15.172L10.7143 13.8387V9.83867ZM12.8571 14.6667L9.28571 18L7.14286 20V10.6667L0.418571 4.39067C0.150644 4.14068 8.09106e-05 3.80159 0 3.448V1.33333C0 0.979711 0.15051 0.640573 0.418419 0.390524C0.686328 0.140476 1.04969 0 1.42857 0H18.5714C18.9503 0 19.3137 0.140476 19.5816 0.390524C19.8495 0.640573 20 0.979711 20 1.33333V3.448C19.9999 3.80159 19.8494 4.14068 19.5814 4.39067L12.8571 10.6667V14.6667Z" fill="black"/>
</svg>
