<svg width="31" height="24" viewBox="0 0 31 24" fill="none" xmlns="http://www.w3.org/2000/svg">
<path d="M15.3229 1C19.3147 1 22.8611 2.72838 25.3862 4.86788C26.6538 5.94175 27.6979 7.14762 28.4341 8.348C29.1574 9.52637 29.6458 10.8037 29.6458 12C29.6458 13.1963 29.1589 14.4736 28.4341 15.652C27.6979 16.8524 26.6538 18.0583 25.3862 19.1321C22.8611 21.2716 19.3133 23 15.3229 23C11.3311 23 7.78477 21.2716 5.25964 19.1321C3.99206 18.0583 2.94792 16.8524 2.21172 15.652C1.48698 14.4736 1 13.1963 1 12C1 10.8037 1.48698 9.52637 2.21172 8.348C2.94792 7.14762 3.99206 5.94175 5.25964 4.86788C7.78477 2.72838 11.3326 1 15.3229 1ZM15.3229 3.75C12.1948 3.75 9.29583 5.11538 7.15599 6.929C6.09036 7.831 5.24818 8.81688 4.67956 9.74363C4.09805 10.6924 3.86458 11.4775 3.86458 12C3.86458 12.5225 4.09805 13.3076 4.67956 14.2564C5.24818 15.1831 6.09036 16.1676 7.15599 17.071C9.29583 18.8846 12.1948 20.25 15.3229 20.25C18.451 20.25 21.35 18.8846 23.4898 17.071C24.5555 16.1676 25.3977 15.1831 25.9663 14.2564C26.5478 13.3076 26.7813 12.5225 26.7813 12C26.7813 11.4775 26.5478 10.6924 25.9663 9.74363C25.3977 8.81688 24.5555 7.83238 23.4898 6.929C21.35 5.11538 18.451 3.75 15.3229 3.75ZM15.3229 7.875C15.449 7.875 15.5736 7.8805 15.6967 7.89012C15.3858 8.4138 15.2627 9.02106 15.3463 9.61847C15.43 10.2159 15.7158 10.7704 16.1598 11.1966C16.6038 11.6228 17.1814 11.8972 17.8037 11.9775C18.426 12.0579 19.0585 11.9397 19.604 11.6411C19.6794 12.4691 19.4924 13.2996 19.0676 14.0238C18.6428 14.7481 18.0001 15.3322 17.2236 15.6998C16.4471 16.0673 15.573 16.2011 14.7159 16.0836C13.8589 15.9661 13.0588 15.6027 12.4205 15.0412C11.7822 14.4797 11.3355 13.7462 11.1388 12.9368C10.9422 12.1273 11.0049 11.2798 11.3186 10.5052C11.6324 9.73051 12.1826 9.06493 12.8971 8.5956C13.6116 8.12627 14.4572 7.8751 15.3229 7.875Z" fill="#1E1F20" fill-opacity="0.8"/>
<path d="M1.33301 22L29.7068 1.50783" stroke="#1E1F20" stroke-opacity="0.8" stroke-width="2.5" stroke-linecap="round"/>
</svg>
