<svg width="30" height="30" viewBox="0 0 30 30" fill="none" xmlns="http://www.w3.org/2000/svg">
<path fill-rule="evenodd" clip-rule="evenodd" d="M0 10.9222V0.57485C0 0.257369 0.257369 0 0.57485 0H10.9222C11.2396 0 11.497 0.257369 11.497 0.57485V10.9222C11.497 11.2396 11.2396 11.497 10.9222 11.497H0.57485C0.257369 11.497 0 11.2396 0 10.9222ZM10.3473 1.1497H1.1497V10.3473H10.3473V1.1497Z" fill="#181818"/>
<path fill-rule="evenodd" clip-rule="evenodd" d="M2.90431 2.33533H8.59293C8.90711 2.33533 9.1618 2.59002 9.1618 2.90419V8.59281C9.1618 8.90699 8.90711 9.16167 8.59293 9.16167H2.90431C2.59014 9.16167 2.33545 8.90699 2.33545 8.59281V2.90419C2.33545 2.59002 2.59014 2.33533 2.90431 2.33533ZM3.47287 8.02396H8.02377V3.47307H3.47287V8.02396Z" fill="#181818"/>
<path fill-rule="evenodd" clip-rule="evenodd" d="M2.90431 20.8383H8.59293C8.90711 20.8383 9.1618 21.0929 9.1618 21.4071V27.0957C9.1618 27.4099 8.90711 27.6646 8.59293 27.6646H2.90431C2.59014 27.6646 2.33545 27.4099 2.33545 27.0957V21.4071C2.33545 21.0929 2.59014 20.8383 2.90431 20.8383ZM3.47287 26.5269H8.02377V21.976H3.47287V26.5269Z" fill="#181818"/>
<path fill-rule="evenodd" clip-rule="evenodd" d="M21.4072 2.33533H27.0959C27.41 2.33533 27.6647 2.59002 27.6647 2.90419V8.59281C27.6647 8.90699 27.41 9.16167 27.0959 9.16167H21.4072C21.0931 9.16167 20.8384 8.90699 20.8384 8.59281V2.90419C20.8384 2.59002 21.0931 2.33533 21.4072 2.33533ZM21.9762 8.02396H26.5271V3.47307H21.9762V8.02396Z" fill="#181818"/>
<path fill-rule="evenodd" clip-rule="evenodd" d="M29.4251 11.497H19.0778C18.7603 11.497 18.5029 11.2388 18.5029 10.9204V0.576652C18.5029 0.258176 18.7603 0 19.0778 0H29.4251C29.7426 0 29.9999 0.258176 29.9999 0.576652V10.9204C29.9999 11.2388 29.7426 11.497 29.4251 11.497ZM28.8503 1.15327H19.6527V10.3437H28.8503V1.15327Z" fill="#181818"/>
<path fill-rule="evenodd" clip-rule="evenodd" d="M0.57485 29.9999C0.257369 29.9999 0 29.7426 0 29.4251V19.0778C0 18.7603 0.257369 18.5029 0.57485 18.5029H10.9222C11.2396 18.5029 11.497 18.7603 11.497 19.0778V29.4251C11.497 29.7426 11.2396 29.9999 10.9222 29.9999H0.57485ZM10.3473 19.6527H1.1497V28.8503H10.3473V19.6527Z" fill="#181818"/>
<path d="M13.3382 4.8503C13.6607 4.8503 13.9221 4.57886 13.9221 4.24401V1.21257H14.5059C14.8283 1.21257 15.0897 0.941131 15.0897 0.606287C15.0897 0.271444 14.8283 0 14.5059 0H13.3382C13.0158 0 12.7544 0.271444 12.7544 0.606287V4.24401C12.7544 4.57886 13.0158 4.8503 13.3382 4.8503Z" fill="#181818"/>
<circle cx="16.7064" cy="0.538922" r="0.538922" fill="#181818"/>
<path d="M15.494 4.85034H16.6617C16.9841 4.85034 17.2455 4.58895 17.2455 4.26651V3.09885C17.2455 2.77641 16.9841 2.51501 16.6617 2.51501C16.3392 2.51501 16.0778 2.77641 16.0778 3.09885V3.68268H15.494C15.1715 3.68268 14.9102 3.94407 14.9102 4.26651C14.9102 4.58895 15.1715 4.85034 15.494 4.85034Z" fill="#181818"/>
<path d="M16.6617 6.46704H15.494C15.1715 6.46704 14.9102 6.72173 14.9102 7.0359V9.31135C14.9102 9.62553 15.1715 9.88021 15.494 9.88021C15.8164 9.88021 16.0778 9.62553 16.0778 9.31135V7.60477H16.6617C16.9841 7.60477 17.2455 7.35008 17.2455 7.0359C17.2455 6.72173 16.9841 6.46704 16.6617 6.46704Z" fill="#181818"/>
<path d="M13.3607 11.6767H16.9984C17.3332 11.6767 17.6047 11.4113 17.6047 11.0839C17.6047 10.7565 17.3332 10.491 16.9984 10.491H13.967V6.34135C13.967 6.01395 13.6955 5.74854 13.3607 5.74854C13.0258 5.74854 12.7544 6.01395 12.7544 6.34135V11.0839C12.7544 11.4113 13.0258 11.6767 13.3607 11.6767Z" fill="#181818"/>
<path d="M17.7545 25.1497C17.4403 25.1497 17.1856 25.4211 17.1856 25.7559V28.7874H15.479C15.1648 28.7874 14.9102 29.0588 14.9102 29.3937C14.9102 29.7285 15.1648 30 15.479 30H17.7545C18.0686 30 18.3233 29.7285 18.3233 29.3937V25.7559C18.3233 25.4211 18.0686 25.1497 17.7545 25.1497Z" fill="#181818"/>
<circle cx="13.2933" cy="29.461" r="0.538922" fill="#181818"/>
<path d="M13.3233 27.8442C13.6374 27.8442 13.8921 27.5828 13.8921 27.2604V26.6766H15.5987C15.9129 26.6766 16.1676 26.4152 16.1676 26.0927C16.1676 25.7703 15.9129 25.5089 15.5987 25.5089H13.3233C13.0091 25.5089 12.7544 25.7703 12.7544 26.0927V27.2604C12.7544 27.5828 13.0091 27.8442 13.3233 27.8442Z" fill="#181818"/>
<path d="M13.3292 19.7605C13.6467 19.7605 13.9041 19.489 13.9041 19.1542V16.1227H15.0538C15.3713 16.1227 15.6286 15.8513 15.6286 15.5164C15.6286 15.1816 15.3713 14.9102 15.0538 14.9102H13.3292C13.0118 14.9102 12.7544 15.1816 12.7544 15.5164V19.1542C12.7544 19.489 13.0118 19.7605 13.3292 19.7605Z" fill="#181818"/>
<path d="M13.3332 13.9671H16.8063V16.9985C16.8063 17.3334 17.0654 17.6048 17.3851 17.6048C17.7048 17.6048 17.964 17.3334 17.964 16.9985V13.3608C17.964 13.026 17.7048 12.7545 17.3851 12.7545H13.3332C13.0136 12.7545 12.7544 13.026 12.7544 13.3608C12.7544 13.6956 13.0136 13.9671 13.3332 13.9671Z" fill="#181818"/>
<path d="M0 16.6617C0 16.9841 0.271444 17.2455 0.606287 17.2455H4.24401C4.57886 17.2455 4.8503 16.9841 4.8503 16.6617C4.8503 16.3392 4.57886 16.0778 4.24401 16.0778H1.21257V15.494C1.21257 15.1715 0.941131 14.9102 0.606287 14.9102C0.271444 14.9102 0 15.1715 0 15.494V16.6617Z" fill="#181818"/>
<path d="M3.024 15.0898C3.33817 15.0898 3.59286 14.8285 3.59286 14.506V13.3383C3.59286 13.0159 3.33817 12.7545 3.024 12.7545H0.74855C0.434376 12.7545 0.179688 13.0159 0.179688 13.3383C0.179688 13.6608 0.434376 13.9222 0.74855 13.9222H2.45514V14.506C2.45514 14.8285 2.70983 15.0898 3.024 15.0898Z" fill="#181818"/>
<path d="M5.0975 12.7545C4.76266 12.7545 4.49121 13.0159 4.49121 13.3383V14.506C4.49121 14.8285 4.76266 15.0898 5.0975 15.0898H8.73522C9.07007 15.0898 9.34151 14.8285 9.34151 14.506C9.34151 14.1836 9.07007 13.9222 8.73522 13.9222H5.70379V13.3383C5.70379 13.0159 5.43234 12.7545 5.0975 12.7545Z" fill="#181818"/>
<path d="M11.6767 13.3608C11.6767 13.026 11.4113 12.7545 11.0839 12.7545C10.7565 12.7545 10.491 13.026 10.491 13.3608V16.3922H6.34135C6.01395 16.3922 5.74854 16.6637 5.74854 16.9985C5.74854 17.3334 6.01395 17.6048 6.34135 17.6048H11.0839C11.4113 17.6048 11.6767 17.3334 11.6767 16.9985V13.3608Z" fill="#181818"/>
<path d="M30.0002 13.3383C30.0002 13.0159 29.7288 12.7545 29.3939 12.7545H25.7562C25.4213 12.7545 25.1499 13.0159 25.1499 13.3383C25.1499 13.6608 25.4213 13.9222 25.7562 13.9222H28.7876V14.506C28.7876 14.8285 29.0591 15.0898 29.3939 15.0898C29.7288 15.0898 30.0002 14.8285 30.0002 14.506V13.3383Z" fill="#181818"/>
<circle cx="19.7606" cy="18.8623" r="0.538922" fill="#181818"/>
<path d="M27.4848 16.6617V15.494C27.4848 15.1715 27.232 14.9102 26.9202 14.9102C26.6084 14.9102 26.3556 15.1715 26.3556 15.494V16.0778H24.0973C23.7855 16.0778 23.5327 16.3392 23.5327 16.6617C23.5327 16.9841 23.7855 17.2455 24.0973 17.2455H26.9202C27.232 17.2455 27.4848 16.9841 27.4848 16.6617Z" fill="#181818"/>
<path d="M27.0958 23.1736H24.8203C24.5062 23.1736 24.2515 23.435 24.2515 23.7574C24.2515 24.0799 24.5062 24.3412 24.8203 24.3412H26.5269V24.9251C26.5269 25.2475 26.7816 25.5089 27.0958 25.5089C27.41 25.5089 27.6646 25.2475 27.6646 24.9251V23.7574C27.6646 23.435 27.41 23.1736 27.0958 23.1736Z" fill="#181818"/>
<circle cx="26.9461" cy="26.9461" r="0.538922" fill="#181818"/>
<circle cx="22.6346" cy="23.7125" r="0.538922" fill="#181818"/>
<path d="M24.94 26.6766H23.2334V26.0927C23.2334 25.7703 22.9787 25.5089 22.6646 25.5089C22.3504 25.5089 22.0957 25.7703 22.0957 26.0927V27.2604C22.0957 27.5828 22.3504 27.8442 22.6646 27.8442H24.94C25.2542 27.8442 25.5089 27.5828 25.5089 27.2604C25.5089 26.938 25.2542 26.6766 24.94 26.6766Z" fill="#181818"/>
<path d="M21.7721 14.9102C21.4546 14.9102 21.1973 15.1816 21.1973 15.5164V19.1542C21.1973 19.489 21.4546 19.7605 21.7721 19.7605H24.5745C24.892 19.7605 25.1494 19.489 25.1494 19.1542C25.1494 18.8193 24.892 18.5479 24.5745 18.5479H22.347V15.5164C22.347 15.1816 22.0896 14.9102 21.7721 14.9102Z" fill="#181818"/>
<path d="M23.6727 12.7545H19.6208C19.3011 12.7545 19.042 13.026 19.042 13.3608V16.9985C19.042 17.3334 19.3011 17.6048 19.6208 17.6048C19.9405 17.6048 20.1997 17.3334 20.1997 16.9985V13.9671H23.6727C23.9924 13.9671 24.2516 13.6956 24.2516 13.3608C24.2516 13.026 23.9924 12.7545 23.6727 12.7545Z" fill="#181818"/>
<path fill-rule="evenodd" clip-rule="evenodd" d="M17.7308 24.2514H12.9883C12.6609 24.2514 12.3955 23.9967 12.3955 23.6826V21.4071C12.3955 21.0929 12.6609 20.8383 12.9883 20.8383H17.7308C18.0582 20.8383 18.3237 21.0929 18.3237 21.4071V23.6826C18.3237 23.9967 18.0582 24.2514 17.7308 24.2514ZM17.1376 21.976H13.5807V23.1137H17.1376V21.976Z" fill="#181818"/>
<path fill-rule="evenodd" clip-rule="evenodd" d="M29.4209 29.9999H20.1594C19.8397 29.9999 19.5806 29.7436 19.5806 29.4273V21.4109C19.5806 21.0946 19.8397 20.8383 20.1594 20.8383H29.4209C29.7406 20.8383 29.9997 21.0946 29.9997 21.4109V29.4273C29.9997 29.7436 29.7406 29.9999 29.4209 29.9999ZM28.8424 21.9835H20.7386V28.8548H28.8424V21.9835Z" fill="#181818"/>
<path d="M17.408 18.3234H16.3649C16.0577 18.3234 15.8086 18.5646 15.8086 18.8623C15.8086 19.1599 16.0577 19.4012 16.3649 19.4012H17.408C17.7152 19.4012 17.9643 19.1599 17.9643 18.8623C17.9643 18.5646 17.7152 18.3234 17.408 18.3234Z" fill="#181818"/>
<path d="M29.8204 16.5569C29.8204 16.2427 29.5657 15.988 29.2515 15.988C28.9374 15.988 28.6827 16.2427 28.6827 16.5569V18.2635H26.9761C26.6619 18.2635 26.4072 18.5182 26.4072 18.8323C26.4072 19.1465 26.6619 19.4012 26.9761 19.4012H29.2515C29.5657 19.4012 29.8204 19.1465 29.8204 18.8323V16.5569Z" fill="#181818"/>
</svg>
