<svg width="22" height="22" viewBox="0 0 22 22" fill="none" xmlns="http://www.w3.org/2000/svg">
<path d="M20.0002 20.0002L15.6572 15.6572M15.6572 15.6572C16.4001 14.9143 16.9894 14.0324 17.3914 13.0618C17.7935 12.0911 18.0004 11.0508 18.0004 10.0002C18.0004 8.9496 17.7935 7.90929 17.3914 6.93866C16.9894 5.96803 16.4001 5.08609 15.6572 4.34321C14.9143 3.60032 14.0324 3.01103 13.0618 2.60898C12.0911 2.20693 11.0508 2 10.0002 2C8.9496 2 7.90929 2.20693 6.93866 2.60898C5.96803 3.01103 5.08609 3.60032 4.34321 4.34321C2.84288 5.84354 2 7.87842 2 10.0002C2 12.122 2.84288 14.1569 4.34321 15.6572C5.84354 17.1575 7.87842 18.0004 10.0002 18.0004C12.122 18.0004 14.1569 17.1575 15.6572 15.6572Z" stroke="black" stroke-width="2.2" stroke-linecap="round" stroke-linejoin="round"/>
</svg>
