<svg width="18" height="18" viewBox="0 0 18 18" fill="none" xmlns="http://www.w3.org/2000/svg">
<path fill-rule="evenodd" clip-rule="evenodd" d="M18 16.7462L14.2049 12.952C15.3366 11.5402 15.9522 9.78419 15.9496 7.9748C15.9496 3.57271 12.3769 0 7.9748 0C3.57271 0 0 3.57271 0 7.9748C0 12.3769 3.57271 15.9496 7.9748 15.9496C9.78419 15.9522 11.5402 15.3366 12.952 14.2049L16.7462 18L18 16.7462ZM14.1774 7.9748C14.18 9.58786 13.5519 11.138 12.4274 12.2945L12.2945 12.4274C11.138 13.5519 9.58786 14.18 7.9748 14.1774C4.54741 14.1774 1.77218 11.4013 1.77218 7.9748C1.77218 4.54741 4.54741 1.77218 7.9748 1.77218C11.4013 1.77218 14.1774 4.54741 14.1774 7.9748Z" fill="#3B3B3B"/>
</svg>
