<svg width="29" height="22" viewBox="0 0 29 22" fill="none" xmlns="http://www.w3.org/2000/svg">
<path d="M14.3 0C18.2854 0 21.8261 1.72838 24.3472 3.86788C25.6127 4.94175 26.6552 6.14762 27.3902 7.348C28.1124 8.52637 28.6 9.80375 28.6 11C28.6 12.1963 28.1138 13.4736 27.3902 14.652C26.6552 15.8524 25.6127 17.0583 24.3472 18.1321C21.8261 20.2716 18.284 22 14.3 22C10.3146 22 6.77391 20.2716 4.25282 18.1321C2.98727 17.0583 1.9448 15.8524 1.20978 14.652C0.4862 13.4736 0 12.1963 0 11C0 9.80375 0.4862 8.52637 1.20978 7.348C1.9448 6.14762 2.98727 4.94175 4.25282 3.86788C6.77391 1.72838 10.316 0 14.3 0ZM14.3 2.75C11.1769 2.75 8.28256 4.11538 6.14614 5.929C5.08222 6.831 4.24138 7.81688 3.67367 8.74363C3.09309 9.69238 2.86 10.4775 2.86 11C2.86 11.5225 3.09309 12.3076 3.67367 13.2564C4.24138 14.1831 5.08222 15.1676 6.14614 16.071C8.28256 17.8846 11.1769 19.25 14.3 19.25C17.4231 19.25 20.3174 17.8846 22.4539 16.071C23.5178 15.1676 24.3586 14.1831 24.9263 13.2564C25.5069 12.3076 25.74 11.5225 25.74 11C25.74 10.4775 25.5069 9.69238 24.9263 8.74363C24.3586 7.81688 23.5178 6.83238 22.4539 5.929C20.3174 4.11538 17.4231 2.75 14.3 2.75ZM14.3 6.875C14.4258 6.875 14.5503 6.8805 14.6732 6.89012C14.3628 7.4138 14.2398 8.02106 14.3234 8.61847C14.4069 9.21589 14.6922 9.77037 15.1355 10.1966C15.5788 10.6228 16.1555 10.8972 16.7768 10.9775C17.3981 11.0579 18.0296 10.9397 18.5743 10.6411C18.6495 11.4691 18.4628 12.2996 18.0387 13.0238C17.6146 13.7481 16.9729 14.3322 16.1976 14.6998C15.4224 15.0673 14.5497 15.2011 13.694 15.0836C12.8383 14.9661 12.0395 14.6027 11.4022 14.0412C10.7649 13.4797 10.3189 12.7462 10.1226 11.9368C9.92633 11.1273 9.9889 10.2798 10.3021 9.50515C10.6154 8.73051 11.1647 8.06493 11.8781 7.5956C12.5914 7.12627 13.4356 6.8751 14.3 6.875Z" fill="#1E1F20" fill-opacity="0.8"/>
</svg>
