<svg width="50" height="50" viewBox="0 0 50 50" fill="none" xmlns="http://www.w3.org/2000/svg">
<path d="M25 6C31.9675 6 38.1575 9.02164 42.565 12.762C44.7775 14.6394 46.6 16.7476 47.885 18.8462C49.1475 20.9062 50 23.1394 50 25.2308C50 27.3221 49.15 29.5553 47.885 31.6154C46.6 33.7139 44.7775 35.8221 42.565 37.6995C38.1575 41.4399 31.965 44.4615 25 44.4615C18.0325 44.4615 11.8425 41.4399 7.435 37.6995C5.2225 35.8221 3.4 33.7139 2.115 31.6154C0.85 29.5553 0 27.3221 0 25.2308C0 23.1394 0.85 20.9062 2.115 18.8462C3.4 16.7476 5.2225 14.6394 7.435 12.762C11.8425 9.02164 18.035 6 25 6ZM25 10.8077C19.54 10.8077 14.48 13.1947 10.745 16.3654C8.885 17.9423 7.415 19.6659 6.4225 21.2861C5.4075 22.9447 5 24.3173 5 25.2308C5 26.1442 5.4075 27.5168 6.4225 29.1755C7.415 30.7957 8.885 32.5168 10.745 34.0962C14.48 37.2668 19.54 39.6538 25 39.6538C30.46 39.6538 35.52 37.2668 39.255 34.0962C41.115 32.5168 42.585 30.7957 43.5775 29.1755C44.5925 27.5168 45 26.1442 45 25.2308C45 24.3173 44.5925 22.9447 43.5775 21.2861C42.585 19.6659 41.115 17.9447 39.255 16.3654C35.52 13.1947 30.46 10.8077 25 10.8077ZM25 18.0192C25.22 18.0192 25.4375 18.0288 25.6525 18.0457C25.1097 18.9612 24.8948 20.0228 25.0408 21.0673C25.1869 22.1117 25.6857 23.0811 26.4607 23.8262C27.2357 24.5714 28.2438 25.0511 29.3301 25.1915C30.4163 25.3319 31.5204 25.1253 32.4725 24.6034C32.604 26.0509 32.2776 27.5028 31.5362 28.769C30.7948 30.0351 29.6729 31.0563 28.3175 31.6989C26.9622 32.3414 25.4365 32.5753 23.9406 32.3699C22.4446 32.1644 21.048 31.5293 19.9339 30.5476C18.8198 29.5659 18.0401 28.2835 17.6969 26.8685C17.3537 25.4534 17.4631 23.9717 18.0107 22.6174C18.5584 21.2631 19.5187 20.0995 20.7658 19.279C22.013 18.4585 23.4888 18.0194 25 18.0192Z" fill="#1E1F20" fill-opacity="0.8"/>
</svg>
