<svg width="13" height="12" viewBox="0 0 13 12" fill="none" xmlns="http://www.w3.org/2000/svg">
<path d="M12.084 3.12329C11.5666 3.64145 10.7276 3.64393 10.2072 3.12884L9.28247 2.21372C8.77246 1.709 8.77003 0.885816 9.27704 0.378082C9.52873 0.126027 9.83799 0 10.2048 0C10.5716 0 10.8807 0.126027 11.1319 0.378082L12.0512 1.29863C12.3029 1.55068 12.4342 1.8549 12.4451 2.21129C12.4561 2.56767 12.3357 2.87167 12.084 3.12329ZM1.1024 12C0.916364 12 0.760313 11.9369 0.634246 11.8106C0.50818 11.6844 0.445365 11.5283 0.445803 11.3425V9.48493C0.445803 9.39726 0.462218 9.31222 0.495048 9.22981C0.527878 9.1474 0.577122 9.07353 0.642782 9.00822L6.00847 3.63487C6.77984 2.86241 8.03163 2.86241 8.80299 3.63487C9.5728 4.40578 9.5728 5.6545 8.80299 6.4254L3.43332 11.8027C3.36766 11.8685 3.2939 11.9178 3.21205 11.9507C3.13019 11.9836 3.04527 12 2.95729 12H1.1024Z" fill="#22BB9B"/>
</svg>
