<svg width="25" height="25" viewBox="0 0 25 25" fill="none" xmlns="http://www.w3.org/2000/svg">
<g clip-path="url(#clip0_1599_757)">
<path d="M25 13.5301V0H0V25H25V17.7061C24.9443 17.7061 25 13.5301 25 13.5301Z" fill="#006FCF"/>
<path d="M21.9376 12.1381H23.8308V7.7395H21.7705V8.3519L21.3808 7.7395H19.599V8.51899L19.2649 7.7395H15.9798C15.8685 7.7395 15.7571 7.79517 15.6458 7.79517C15.5345 7.79517 15.4788 7.85083 15.3674 7.90649C15.2561 7.96216 15.2004 7.96216 15.0891 8.01782V7.7395H5.6792L5.40088 8.46333L5.12236 7.7395H2.89531V8.51899L2.56133 7.7395H0.779395L0 9.63257V12.1381H1.28066L1.50332 11.5256H1.94873L2.17148 12.1381H11.9711V11.5813L12.3607 12.1381H15.0891V11.8042C15.1447 11.8598 15.2561 11.8598 15.3117 11.9155C15.3675 11.9711 15.4788 11.9711 15.5345 12.0268C15.6458 12.0825 15.7572 12.0825 15.8686 12.0825H17.873L18.0957 11.47H18.5412L18.7639 12.0825H21.4922V11.5256L21.9376 12.1381ZM25 17.7061V13.5858H9.68818L9.29844 14.1426L8.90869 13.5858H4.4543V17.9844H8.90869L9.29844 17.4277L9.68818 17.9844H12.4722V17.0379H12.3608C12.7505 17.0379 13.0847 16.9823 13.363 16.8709V18.0402H15.3675V17.4834L15.7572 18.0402H24.0534C24.3875 17.9289 24.7216 17.8731 25 17.7061Z" fill="white"/>
<path d="M24.0534 16.6482H22.5501V17.2606H23.9978C24.6103 17.2606 25 16.871 25 16.3142C25 15.7573 24.666 15.4789 24.1092 15.4789H23.441C23.274 15.4789 23.1626 15.3676 23.1626 15.2006C23.1626 15.0336 23.2739 14.9222 23.4409 14.9222H24.7216L25 14.3097H23.4967C22.8842 14.3097 22.4944 14.6994 22.4944 15.2006C22.4944 15.7573 22.8284 16.0357 23.3853 16.0357H24.0534C24.2204 16.0357 24.3318 16.1471 24.3318 16.3141C24.3875 16.5368 24.2761 16.6482 24.0534 16.6482ZM21.3252 16.6482H19.8219V17.2606H21.2695C21.8819 17.2606 22.2717 16.871 22.2717 16.3142C22.2717 15.7573 21.9377 15.4789 21.3809 15.4789H20.7127C20.5457 15.4789 20.4344 15.3676 20.4344 15.2006C20.4344 15.0336 20.5457 14.9222 20.7127 14.9222H21.9934L22.2717 14.3097H20.7684C20.1559 14.3097 19.7661 14.6994 19.7661 15.2006C19.7661 15.7573 20.1002 16.0357 20.657 16.0357H21.3252C21.4922 16.0357 21.6035 16.1471 21.6035 16.3141C21.6592 16.5368 21.4922 16.6482 21.3252 16.6482ZM19.3764 14.8665V14.254H17.0379V17.205H19.3764V16.5925H17.7061V15.9801H19.3207V15.3676H17.7061V14.8107H19.3764V14.8665ZM15.5902 14.8665C15.8686 14.8665 15.9799 15.0335 15.9799 15.2005C15.9799 15.3676 15.8686 15.5346 15.5902 15.5346H14.755V14.8107L15.5902 14.8665ZM14.755 16.1471H15.0891L15.98 17.205H16.8151L15.8129 16.0914C16.3141 15.9801 16.5924 15.646 16.5924 15.2006C16.5924 14.6438 16.2027 14.254 15.5902 14.254H14.0312V17.205H14.6993L14.755 16.1471ZM12.9732 15.2563C12.9732 15.4789 12.8619 15.6459 12.5836 15.6459H11.6927V14.8665H12.5278C12.8062 14.8665 12.9732 15.0335 12.9732 15.2562V15.2563ZM11.0245 14.254V17.205H11.6927V16.2027H12.5835C13.196 16.2027 13.6414 15.8131 13.6414 15.2006C13.6414 14.6438 13.2518 14.1983 12.6392 14.1983L11.0245 14.254ZM10.0223 17.205H10.8574L9.68818 15.7017L10.8574 14.254H10.0223L9.29844 15.2006L8.57461 14.254H7.73945L8.90869 15.7017L7.73945 17.1493H8.57461L9.29844 16.2027L10.0223 17.205ZM7.5167 14.8665V14.254H5.17812V17.205H7.5167V16.5925H5.84629V15.9801H7.46104V15.3676H5.84629V14.8107H7.5167V14.8665ZM21.0468 9.63262L22.216 11.4144H23.0513V8.46338H22.3831V10.4121L22.2161 10.1338L21.1581 8.46338H20.2673V11.4144H20.9354V9.40986L21.0468 9.63262ZM18.1515 9.57695L18.3741 8.96445L18.5969 9.57695L18.8752 10.2451H17.873L18.1514 9.57695H18.1515ZM19.3207 11.4144H20.0445L18.764 8.46338H17.873L16.5924 11.4144H17.3162L17.5946 10.8019H19.0423L19.3207 11.4144ZM16.2026 11.4144L16.4811 10.8019H16.3141C15.8129 10.8019 15.5345 10.4679 15.5345 9.9667V9.91104C15.5345 9.40986 15.8129 9.07578 16.3141 9.07578H17.0379V8.46338H16.2584C15.3675 8.46338 14.8664 9.07578 14.8664 9.91104V9.9667C14.8664 10.8575 15.3675 11.4144 16.2026 11.4144ZM13.6971 11.4144H14.3652V8.51904H13.6971V11.4144ZM12.2494 9.07578C12.5278 9.07578 12.6392 9.24277 12.6392 9.40986C12.6392 9.57686 12.5278 9.74395 12.2495 9.74395H11.4143V9.02012L12.2494 9.07578ZM11.4143 10.3564H11.7482L12.6392 11.4144H13.4744L12.4722 10.3008C12.9732 10.1895 13.2517 9.85537 13.2517 9.40986C13.2517 8.85313 12.8619 8.46338 12.2494 8.46338H10.6904V11.4144H11.3586L11.4143 10.3564ZM10.1894 9.07578V8.46338H7.85078V11.4144H10.1894V10.8019H8.51895V10.1895H10.1336V9.57695H8.51895V9.02012H10.1894V9.07578ZM5.12246 11.4144H5.73496L6.57012 9.02012V11.4144H7.23828V8.46338H6.12471L5.45654 10.4678L4.78838 8.46338H3.6748V11.4144H4.34297V9.02012L5.12246 11.4144ZM1.50332 9.57695L1.72598 8.96445L1.94873 9.57695L2.22715 10.2451H1.2249L1.50332 9.57695ZM2.67256 11.4144H3.39648L2.11582 8.46338H1.28066L0 11.4144H0.723828L1.00215 10.8019H2.4499L2.67256 11.4144Z" fill="#006FCF"/>
</g>
<defs>
<clipPath id="clip0_1599_757">
<rect width="25" height="25" fill="white"/>
</clipPath>
</defs>
</svg>
