<svg width="25" height="20" viewBox="0 0 25 20" fill="none" xmlns="http://www.w3.org/2000/svg">
<g clip-path="url(#clip0_1599_752)">
<path d="M4.54491 19.337V18.0508C4.54491 17.5576 4.24471 17.2361 3.73016 17.2361C3.47294 17.2361 3.19423 17.3219 3.00126 17.6006C2.85126 17.3647 2.6369 17.2361 2.31532 17.2361C2.10087 17.2361 1.88661 17.3004 1.71503 17.5362V17.279H1.26483V19.337H1.71503V18.2008C1.71503 17.8364 1.908 17.6648 2.20819 17.6648C2.50819 17.6648 2.65839 17.8578 2.65839 18.2008V19.337H3.10858V18.2008C3.10858 17.8364 3.32284 17.6648 3.60155 17.6648C3.90175 17.6648 4.05175 17.8578 4.05175 18.2008V19.337H4.54491ZM11.212 17.279H10.4832V16.6573H10.033V17.279H9.62567V17.6862H10.0329V18.6296C10.0329 19.1013 10.2259 19.3799 10.7404 19.3799C10.9334 19.3799 11.1476 19.3156 11.2978 19.2299L11.1691 18.8439C11.0405 18.9297 10.8905 18.9512 10.7833 18.9512C10.5689 18.9512 10.4832 18.8226 10.4832 18.6081V17.6862H11.212V17.279ZM15.028 17.236C14.7708 17.236 14.5993 17.3647 14.4921 17.5362V17.279H14.0419V19.337H14.4921V18.1794C14.4921 17.8364 14.6421 17.6435 14.9208 17.6435C15.0065 17.6435 15.1138 17.6649 15.1995 17.6863L15.3281 17.2576C15.2424 17.2361 15.1138 17.2361 15.028 17.2361V17.236ZM9.26122 17.4505C9.04676 17.3004 8.74667 17.2361 8.42509 17.2361C7.91063 17.2361 7.56766 17.4934 7.56766 17.9007C7.56766 18.2437 7.82489 18.4366 8.27509 18.501L8.48944 18.5225C8.72528 18.5652 8.85389 18.6296 8.85389 18.7368C8.85389 18.8868 8.68241 18.994 8.38221 18.994C8.08212 18.994 7.84628 18.8868 7.69618 18.7797L7.48182 19.1227C7.71766 19.2941 8.03925 19.3799 8.36073 19.3799C8.96102 19.3799 9.30409 19.1013 9.30409 18.7153C9.30409 18.3509 9.02538 18.1579 8.59657 18.0937L8.38221 18.0722C8.18925 18.0507 8.03925 18.0079 8.03925 17.8793C8.03925 17.7292 8.18925 17.6435 8.42509 17.6435C8.68241 17.6435 8.93964 17.7506 9.06825 17.8149L9.26122 17.4505ZM21.2236 17.2361C20.9663 17.2361 20.7948 17.3647 20.6876 17.5362V17.279H20.2374V19.337H20.6876V18.1794C20.6876 17.8364 20.8377 17.6435 21.1163 17.6435C21.2021 17.6435 21.3094 17.6649 21.3951 17.6863L21.5237 17.2576C21.438 17.2361 21.3094 17.2361 21.2236 17.2361ZM15.4782 18.308C15.4782 18.9297 15.9069 19.3799 16.5716 19.3799C16.8717 19.3799 17.086 19.3156 17.3004 19.1441L17.086 18.7797C16.9145 18.9083 16.7431 18.9726 16.5501 18.9726C16.1856 18.9726 15.9284 18.7153 15.9284 18.308C15.9284 17.9222 16.1856 17.6648 16.5501 17.6435C16.7431 17.6435 16.9145 17.7077 17.086 17.8364L17.3004 17.472C17.086 17.3004 16.8717 17.2361 16.5716 17.2361C15.9069 17.2361 15.4782 17.6863 15.4782 18.308ZM19.6372 18.308V17.279H19.187V17.5362C19.0369 17.3434 18.8225 17.2361 18.5438 17.2361C17.965 17.2361 17.5148 17.6863 17.5148 18.308C17.5148 18.9297 17.965 19.3799 18.5438 19.3799C18.8439 19.3799 19.0584 19.2728 19.187 19.0798V19.337H19.6372V18.308ZM17.9864 18.308C17.9864 17.9436 18.2223 17.6435 18.6081 17.6435C18.9725 17.6435 19.2299 17.9222 19.2299 18.308C19.2299 18.6725 18.9725 18.9726 18.6081 18.9726C18.2223 18.9511 17.9864 18.6725 17.9864 18.308ZM12.6056 17.2361C12.0053 17.2361 11.5765 17.6648 11.5765 18.308C11.5765 18.9512 12.0052 19.3799 12.6269 19.3799C12.927 19.3799 13.2272 19.2941 13.4631 19.1013L13.2486 18.7797C13.0771 18.9083 12.8628 18.994 12.6484 18.994C12.3697 18.994 12.091 18.8654 12.0266 18.5009H13.5488V18.3295C13.5703 17.6648 13.1845 17.2361 12.6056 17.2361ZM12.6056 17.622C12.8842 17.622 13.0772 17.7936 13.12 18.1151H12.0481C12.091 17.8364 12.284 17.622 12.6056 17.622ZM23.7747 18.308V16.4644H23.3245V17.5362C23.1744 17.3434 22.96 17.2361 22.6813 17.2361C22.1025 17.2361 21.6523 17.6863 21.6523 18.308C21.6523 18.9297 22.1025 19.3799 22.6813 19.3799C22.9815 19.3799 23.1959 19.2728 23.3245 19.0798V19.337H23.7747V18.308ZM22.124 18.308C22.124 17.9436 22.3598 17.6435 22.7457 17.6435C23.1101 17.6435 23.3674 17.9222 23.3674 18.308C23.3674 18.6725 23.1101 18.9726 22.7457 18.9726C22.3598 18.9511 22.124 18.6725 22.124 18.308ZM7.0745 18.308V17.279H6.6243V17.5362C6.47421 17.3434 6.25985 17.2361 5.98114 17.2361C5.40233 17.2361 4.95214 17.6863 4.95214 18.308C4.95214 18.9297 5.40233 19.3799 5.98114 19.3799C6.28134 19.3799 6.49569 19.2728 6.6243 19.0798V19.337H7.0745V18.308ZM5.40233 18.308C5.40233 17.9436 5.63817 17.6435 6.02401 17.6435C6.38846 17.6435 6.64579 17.9222 6.64579 18.308C6.64579 18.6725 6.38846 18.9726 6.02401 18.9726C5.63817 18.9511 5.40233 18.6725 5.40233 18.308Z" fill="black"/>
<path d="M9.11115 1.65063H15.8641V13.7845H9.11115V1.65063Z" fill="#FF5F00"/>
<path d="M9.53994 7.71768C9.53994 5.25234 10.6976 3.06563 12.4769 1.65068C11.1692 0.62168 9.51855 0 7.71777 0C3.45146 0 0 3.45146 0 7.71768C0 11.9838 3.45146 15.4354 7.71768 15.4354C9.51846 15.4354 11.1691 14.8137 12.4769 13.7846C10.6976 12.3911 9.53994 10.183 9.53994 7.71768Z" fill="#EB001B"/>
<path d="M24.9752 7.71768C24.9752 11.9838 21.5237 15.4354 17.2575 15.4354C15.4567 15.4354 13.8061 14.8137 12.4984 13.7846C14.2991 12.3697 15.4354 10.183 15.4354 7.71768C15.4354 5.25234 14.2776 3.06563 12.4984 1.65068C13.806 0.62168 15.4567 0 17.2575 0C21.5237 0 24.9752 3.47295 24.9752 7.71768Z" fill="#F79E1B"/>
</g>
<defs>
<clipPath id="clip0_1599_752">
<rect width="25" height="19.4336" fill="white"/>
</clipPath>
</defs>
</svg>
