<svg width="25" height="16" viewBox="0 0 25 16" fill="none" xmlns="http://www.w3.org/2000/svg">
<g clip-path="url(#clip0_1599_761)">
<path d="M4.88689 0H11.1152C11.9846 0 12.5254 0.708691 12.3226 1.58105L9.42282 14.0308C9.21823 14.9001 8.34763 15.6094 7.47771 15.6094H1.24987C0.381709 15.6094 -0.160283 14.9001 0.0425493 14.0308L2.94353 1.58105C3.14636 0.708691 4.01638 0 4.88689 0Z" fill="#E21836"/>
<path d="M10.597 0H17.7595C18.6287 0 18.2368 0.708691 18.0323 1.58105L15.1329 14.0308C14.9296 14.9001 14.993 15.6094 14.1219 15.6094H6.95949C6.0884 15.6094 5.54933 14.9001 5.75392 14.0308L8.65304 1.58105C8.8589 0.708691 9.72717 0 10.597 0Z" fill="#00447C"/>
<path d="M17.4754 0H23.7037C24.5744 0 25.1151 0.708691 24.9108 1.58105L22.0113 14.0308C21.8067 14.9001 20.9357 15.6094 20.065 15.6094H13.8397C12.9686 15.6094 12.4282 14.9001 12.6323 14.0308L15.532 1.58105C15.7349 0.708691 16.6043 0 17.4754 0Z" fill="#007B84"/>
<path d="M6.51348 3.98975C5.87305 3.99629 5.68389 3.98975 5.62344 3.97549C5.6002 4.08584 5.16797 6.07959 5.1668 6.08125C5.07373 6.48457 5.00605 6.77217 4.77598 6.95781C4.64551 7.06572 4.49307 7.11787 4.31631 7.11787C4.03232 7.11787 3.8668 6.97676 3.83906 6.70928L3.83369 6.61748C3.83369 6.61748 3.92022 6.07715 3.92022 6.07412C3.92022 6.07412 4.37383 4.25723 4.45508 4.01709C4.45937 4.00342 4.46055 3.99629 4.46162 3.98975C3.57871 3.99756 3.42217 3.98975 3.41143 3.97549C3.40547 3.99502 3.38359 4.10771 3.38359 4.10771L2.92041 6.15557L2.88066 6.3292L2.80371 6.89727C2.80371 7.06572 2.83682 7.20332 2.90264 7.31963C3.11367 7.68838 3.71563 7.74365 4.05615 7.74365C4.49482 7.74365 4.90645 7.65039 5.18457 7.48018C5.66729 7.19502 5.79365 6.74912 5.90625 6.35283L5.9585 6.14961C5.9585 6.14961 6.42578 4.2626 6.50518 4.01709C6.50811 4.00342 6.50937 3.99629 6.51348 3.98975ZM8.10332 5.51201C7.99072 5.51201 7.78496 5.53936 7.6 5.62998C7.53291 5.66445 7.46943 5.7042 7.40244 5.74385L7.46289 5.52568L7.42979 5.48896C7.0377 5.56836 6.9499 5.579 6.5877 5.62998L6.55742 5.6502C6.51533 5.99883 6.47793 6.26104 6.32207 6.94648C6.26235 7.20003 6.20141 7.45329 6.13926 7.70625L6.15586 7.73818C6.52715 7.71865 6.63975 7.71865 6.9624 7.72393L6.98848 7.69561C7.02949 7.48564 7.03477 7.43643 7.12559 7.01113C7.16826 6.80957 7.25723 6.3666 7.30107 6.20889C7.38164 6.17148 7.46123 6.13477 7.53711 6.13477C7.71797 6.13477 7.6959 6.29248 7.68896 6.35537C7.68115 6.46084 7.61533 6.80547 7.54775 7.10137L7.50264 7.29229C7.47129 7.4334 7.43682 7.57041 7.40537 7.71025L7.41904 7.73818C7.78486 7.71865 7.89648 7.71865 8.20889 7.72393L8.24561 7.69561C8.30215 7.36768 8.31865 7.27988 8.41885 6.80244L8.46924 6.58311C8.56719 6.15371 8.61641 5.93604 8.54229 5.75869C8.46396 5.55996 8.27588 5.51201 8.10332 5.51201ZM9.87949 5.96152C9.68496 5.99893 9.56094 6.02373 9.4377 6.03984C9.31553 6.05937 9.19629 6.07725 9.0084 6.10332L8.99346 6.1168L8.97979 6.12754C8.96025 6.26758 8.94658 6.38857 8.92061 6.53086C8.89863 6.67793 8.86475 6.84512 8.80967 7.08525C8.76699 7.26904 8.74502 7.3331 8.7207 7.39775C8.69697 7.4625 8.6709 7.52539 8.62295 7.70615L8.63418 7.72285L8.64355 7.73818C8.81924 7.72988 8.93418 7.72393 9.05225 7.72285C9.17021 7.71865 9.29248 7.72285 9.48154 7.72383L9.49814 7.71045L9.51592 7.69551C9.54326 7.53242 9.54727 7.48857 9.56396 7.40908C9.58057 7.32373 9.60908 7.20566 9.6791 6.89014C9.71221 6.74199 9.74902 6.59424 9.7834 6.44307C9.81904 6.29248 9.85635 6.14424 9.89189 5.996L9.88662 5.97812L9.87949 5.96152ZM9.88359 5.35547C9.70684 5.25117 9.39678 5.28428 9.18799 5.42832C8.97988 5.56953 8.95615 5.76992 9.13232 5.87559C9.30596 5.97695 9.61729 5.94678 9.82422 5.80146C10.0319 5.65723 10.0579 5.45869 9.88359 5.35547ZM10.9522 7.7709C11.3098 7.7709 11.6763 7.67227 11.9521 7.37998C12.1644 7.14287 12.2617 6.79004 12.2954 6.64473C12.4051 6.16318 12.3196 5.93838 12.2124 5.80146C12.0493 5.59268 11.7611 5.52568 11.4622 5.52568C11.2825 5.52568 10.8544 5.54346 10.5199 5.85186C10.2797 6.07422 10.1688 6.37607 10.1019 6.66533C10.0343 6.96025 9.95654 7.49092 10.4446 7.68848C10.5952 7.75312 10.8123 7.7709 10.9522 7.7709ZM10.9243 6.6874C11.0067 6.32275 11.1041 6.0167 11.3524 6.0167C11.5471 6.0167 11.5612 6.24443 11.4747 6.61025C11.4592 6.6915 11.3882 6.99346 11.2921 7.12197C11.2249 7.21689 11.1456 7.27441 11.0577 7.27441C11.0316 7.27441 10.8764 7.27441 10.8739 7.04385C10.8728 6.92998 10.896 6.81367 10.9243 6.6874ZM13.1891 7.72402L13.217 7.69561C13.2566 7.48564 13.2632 7.43633 13.3509 7.01123C13.3948 6.80957 13.4856 6.3667 13.5282 6.20889C13.609 6.17139 13.6872 6.13467 13.7655 6.13467C13.9451 6.13467 13.9232 6.29238 13.9161 6.35527C13.9096 6.46094 13.8437 6.80537 13.7749 7.10127L13.7322 7.29219C13.6996 7.4334 13.6641 7.57031 13.6326 7.71035L13.6463 7.73828C14.0135 7.71875 14.1207 7.71875 14.435 7.72402L14.4729 7.69561C14.528 7.36748 14.543 7.27978 14.6462 6.80244L14.6953 6.58301C14.7937 6.15361 14.8436 5.93613 14.7706 5.75879C14.69 5.56006 14.5009 5.51211 14.3307 5.51211C14.2179 5.51211 14.011 5.53926 13.8271 5.63008C13.7614 5.66445 13.6955 5.7041 13.6309 5.74395L13.6872 5.52578L13.6569 5.48887C13.2649 5.56836 13.1755 5.579 12.8137 5.63008L12.7858 5.6502C12.742 5.99893 12.7063 6.26094 12.5505 6.94658C12.4907 7.20008 12.4298 7.4533 12.3678 7.70625L12.3844 7.73828C12.7562 7.71875 12.8671 7.71875 13.1891 7.72402ZM15.8861 7.73818C15.9092 7.62549 16.0463 6.95791 16.0475 6.95791C16.0475 6.95791 16.1642 6.46797 16.1714 6.4502C16.1714 6.4502 16.2081 6.39922 16.2448 6.379H16.2988C16.8088 6.379 17.3847 6.379 17.8359 6.04697C18.1431 5.81924 18.353 5.48301 18.4467 5.07432C18.471 4.97412 18.4889 4.85498 18.4889 4.73584C18.4889 4.5793 18.4575 4.42441 18.3667 4.30342C18.1365 3.98145 17.6782 3.97549 17.1491 3.97305L16.8884 3.97549C16.2111 3.98389 15.9396 3.98145 15.8279 3.96777C15.8186 4.01709 15.8008 4.10488 15.8008 4.10488C15.8008 4.10488 15.5582 5.2292 15.5582 5.23096L14.9503 7.73408C15.5416 7.72695 15.7841 7.72695 15.8861 7.73818ZM16.3356 5.74092C16.3356 5.74092 16.5935 4.61885 16.5923 4.62314L16.6007 4.56553L16.6043 4.52178L16.7074 4.53232C16.7074 4.53232 17.2394 4.57803 17.2518 4.5792C17.4617 4.66045 17.5482 4.86982 17.4879 5.14307C17.4327 5.39287 17.2708 5.60283 17.0626 5.7042C16.8912 5.79014 16.6812 5.79727 16.4649 5.79727H16.325L16.3356 5.74092ZM17.9415 6.7082C17.8733 6.99873 17.795 7.52949 18.2807 7.71865C18.4355 7.78447 18.5743 7.8041 18.7152 7.79697C18.8643 7.78896 19.0022 7.71426 19.1301 7.60674L19.0954 7.73945L19.1175 7.76777C19.4668 7.75312 19.5752 7.75312 19.9536 7.75605L19.988 7.72988C20.0432 7.40498 20.0953 7.08955 20.239 6.46797C20.3089 6.17031 20.3787 5.87549 20.4505 5.579L20.4393 5.54639C20.0485 5.61875 19.9441 5.63428 19.5682 5.6875L19.5396 5.71074C19.5358 5.74102 19.5318 5.77002 19.5282 5.79902C19.4698 5.70459 19.3851 5.62393 19.2544 5.57373C19.0872 5.50791 18.6946 5.59268 18.3572 5.8999C18.12 6.11934 18.0062 6.41992 17.9415 6.7082ZM18.7622 6.72598C18.8459 6.36777 18.9419 6.06484 19.1909 6.06484C19.3483 6.06484 19.4312 6.21006 19.4144 6.45781C19.3999 6.52479 19.385 6.59166 19.3694 6.6584C19.3445 6.76484 19.3176 6.87031 19.2913 6.97598C19.2646 7.04824 19.2334 7.11641 19.1993 7.16182C19.1353 7.25264 18.9828 7.30889 18.895 7.30889C18.8701 7.30889 18.7165 7.30889 18.7112 7.08232C18.71 6.96963 18.7332 6.85352 18.7622 6.72598ZM23.0479 5.54346L23.0177 5.50898C22.6311 5.5873 22.561 5.5998 22.2059 5.64775L22.1797 5.67383C22.1785 5.67812 22.1774 5.68457 22.1756 5.69053L22.1744 5.68467C21.91 6.29482 21.9177 6.16318 21.7024 6.64346C21.7012 6.62158 21.7012 6.60801 21.7 6.58477L21.6461 5.54346L21.6123 5.50898C21.2072 5.5873 21.1977 5.5998 20.8236 5.64775L20.7944 5.67383C20.7903 5.68633 20.7903 5.7 20.7879 5.71484L20.7903 5.72021C20.8371 5.95908 20.8259 5.90576 20.8728 6.28291C20.8946 6.46797 20.9238 6.6541 20.9456 6.83691C20.9825 7.14277 21.0032 7.29336 21.0482 7.76025C20.7957 8.17705 20.7358 8.33486 20.4926 8.70068L20.4943 8.7043L20.323 8.97519C20.3035 9.00371 20.2857 9.02324 20.2608 9.03164C20.2335 9.04512 20.1979 9.04756 20.1486 9.04756H20.0537L19.9127 9.5167L20.3966 9.525C20.6806 9.52383 20.8591 9.39101 20.9552 9.2125L21.2595 8.69111H21.2546L21.2866 8.65439C21.4913 8.21387 23.0479 5.54346 23.0479 5.54346ZM17.9415 11.7044H17.7362L18.496 9.1917H18.748L18.828 8.93291L18.8356 9.2207C18.8263 9.39863 18.9662 9.55635 19.3339 9.53027H19.7592L19.9055 9.04648H19.7455C19.6535 9.04648 19.6107 9.02324 19.6161 8.97344L19.6084 8.68057H18.821V8.68213C18.5664 8.6874 17.8061 8.70654 17.6521 8.74756C17.4659 8.79541 17.2696 8.93672 17.2696 8.93672L17.3468 8.67754H16.6102L16.4566 9.1917L15.6868 11.7428H15.5374L15.3909 12.2231H16.858L16.8089 12.3833H17.5317L17.5798 12.2231H17.7825L17.9415 11.7044ZM17.3396 9.70225C17.2216 9.73486 17.0021 9.83389 17.0021 9.83389L17.1974 9.1917H17.7825L17.6414 9.65957C17.6414 9.65957 17.4605 9.67031 17.3396 9.70225ZM17.3508 10.6196C17.3508 10.6196 17.167 10.6428 17.046 10.67C16.9269 10.7062 16.7033 10.82 16.7033 10.82L16.905 10.1518H17.4932L17.3508 10.6196ZM17.0229 11.7103H16.4358L16.6061 11.1463H17.1912L17.0229 11.7103ZM18.4366 10.1518H19.2828L19.1612 10.5456H18.3038L18.1751 10.9761H18.9254L18.3572 11.776C18.3175 11.8348 18.2818 11.8556 18.2422 11.8721C18.2024 11.8923 18.1502 11.916 18.0898 11.916H17.8816L17.7387 12.3875H18.283C18.566 12.3875 18.7332 12.2588 18.8565 12.0898L19.2462 11.5566L19.3298 12.098C19.3476 12.1994 19.4204 12.2588 19.4697 12.2818C19.5242 12.3092 19.5806 12.3561 19.6602 12.3631C19.7454 12.3667 19.807 12.3696 19.848 12.3696H20.1156L20.2762 11.8419H20.1707C20.1102 11.8419 20.0058 11.8317 19.9881 11.8128C19.9702 11.7896 19.9702 11.7542 19.9607 11.7001L19.8758 11.1575H19.5283L19.6808 10.9761H20.5365L20.6682 10.5456H19.8759L19.9992 10.1518H20.7892L20.9356 9.66611H18.5808L18.4366 10.1518ZM11.2896 11.8199L11.4871 11.1629H12.2989L12.4472 10.6742H11.6347L11.7587 10.2698H12.5526L12.6998 9.79658H10.7132L10.5691 10.2698H11.0205L10.9001 10.6741H10.4476L10.2976 11.1712H10.7487L10.4854 12.0405C10.45 12.1556 10.5021 12.1994 10.5353 12.2529C10.5691 12.305 10.6034 12.3395 10.6806 12.359C10.7602 12.3768 10.8146 12.3874 10.8887 12.3874H11.8038L11.9669 11.846L11.5612 11.9018C11.4829 11.9018 11.2659 11.8924 11.2896 11.8199ZM11.3827 8.67461L11.1771 9.04639C11.1331 9.12754 11.0934 9.17803 11.0577 9.20117C11.0263 9.2207 10.964 9.229 10.8738 9.229H10.7665L10.623 9.70459H10.9795C11.151 9.70459 11.2825 9.6418 11.3454 9.61035C11.413 9.57422 11.4308 9.59482 11.4829 9.54443L11.6033 9.44014H12.7164L12.8642 8.94502H12.0493L12.1916 8.67451L11.3827 8.67461ZM13.026 11.8295C13.007 11.8021 13.0207 11.754 13.0497 11.6538L13.3539 10.6469H14.4362C14.5939 10.6446 14.7077 10.6428 14.7819 10.6375C14.8614 10.6291 14.9479 10.6007 15.0422 10.5497C15.1396 10.4963 15.1894 10.4399 15.2313 10.3753C15.2782 10.3108 15.3536 10.1695 15.4183 9.95185L15.8007 8.67754L14.6776 8.68408C14.6776 8.68408 14.3317 8.73506 14.1795 8.7915C14.0259 8.8543 13.8063 9.02979 13.8063 9.02979L13.9077 8.68047H13.214L12.2427 11.9018C12.2082 12.0268 12.1851 12.1176 12.1798 12.1722C12.178 12.2309 12.2539 12.2891 12.3031 12.3329C12.3612 12.3768 12.4472 12.3696 12.5296 12.3768C12.6163 12.3833 12.7396 12.3874 12.9098 12.3874H13.443L13.6065 11.8348L13.1293 11.8799C13.0782 11.8799 13.0414 11.8525 13.026 11.8295ZM13.5502 9.9668H14.6869L14.6146 10.1933C14.6046 10.1985 14.5803 10.182 14.4646 10.1957H13.4802L13.5502 9.9668ZM13.7779 9.20703H14.9243L14.8418 9.47988C14.8418 9.47988 14.3016 9.47461 14.215 9.49053C13.8342 9.55644 13.6118 9.75986 13.6118 9.75986L13.7779 9.20703ZM14.6402 10.9518C14.6308 10.9856 14.6158 11.0062 14.5951 11.0218C14.572 11.0366 14.5346 11.0419 14.4789 11.0419H14.317L14.3266 10.7661H13.6527L13.6254 12.1146C13.6244 12.2119 13.6338 12.2683 13.705 12.3134C13.7763 12.3696 13.9956 12.3769 14.2909 12.3769H14.7131L14.8654 11.872L14.4979 11.8922L14.3757 11.8993C14.3591 11.8922 14.3431 11.8856 14.3253 11.868C14.3099 11.8526 14.2837 11.862 14.288 11.7647L14.2909 11.419L14.6763 11.4031C14.8845 11.4031 14.9734 11.3354 15.0493 11.2709C15.1217 11.2091 15.1454 11.1381 15.1728 11.0419L15.2374 10.7358H14.7077L14.6401 10.9517L14.6402 10.9518Z" fill="#FEFEFE"/>
</g>
<defs>
<clipPath id="clip0_1599_761">
<rect width="25" height="15.625" fill="white"/>
</clipPath>
</defs>
</svg>
