<svg width="325" height="165" viewBox="0 0 325 165" fill="none" xmlns="http://www.w3.org/2000/svg">
<rect opacity="0.1" width="325" height="164.761" rx="16" fill="#22BB9B"/>
<mask id="mask0_1195_2539" style="mask-type:luminance" maskUnits="userSpaceOnUse" x="0" y="0" width="325" height="165">
<rect width="325" height="164.761" rx="16" fill="white"/>
</mask>
<g mask="url(#mask0_1195_2539)">
<ellipse cx="262.478" cy="-4.58877" rx="36.5" ry="36.5448" fill="#22BB9B"/>
<ellipse cx="79.4775" cy="161.411" rx="36.5" ry="36.5448" fill="#22BB9B"/>
</g>
<g clip-path="url(#clip0_1195_2539)">
<path d="M123.996 51.7473V44.7473H126.946C127.693 44.7473 128.35 44.894 128.916 45.1873C129.49 45.4806 129.933 45.8906 130.246 46.4173C130.566 46.944 130.726 47.554 130.726 48.2473C130.726 48.9406 130.566 49.5506 130.246 50.0773C129.933 50.604 129.49 51.014 128.916 51.3073C128.35 51.6006 127.693 51.7473 126.946 51.7473H123.996ZM124.996 50.8773H126.886C127.466 50.8773 127.966 50.7673 128.386 50.5473C128.813 50.3273 129.143 50.0206 129.376 49.6273C129.61 49.2273 129.726 48.7673 129.726 48.2473C129.726 47.7206 129.61 47.2606 129.376 46.8673C129.143 46.474 128.813 46.1673 128.386 45.9473C127.966 45.7273 127.466 45.6173 126.886 45.6173H124.996V50.8773ZM132.475 51.7473V46.4473H133.435V51.7473H132.475ZM132.955 45.4273C132.769 45.4273 132.612 45.3673 132.485 45.2473C132.365 45.1273 132.305 44.9806 132.305 44.8073C132.305 44.6273 132.365 44.4773 132.485 44.3573C132.612 44.2373 132.769 44.1773 132.955 44.1773C133.142 44.1773 133.295 44.2373 133.415 44.3573C133.542 44.4706 133.605 44.614 133.605 44.7873C133.605 44.9673 133.545 45.1206 133.425 45.2473C133.305 45.3673 133.149 45.4273 132.955 45.4273ZM137.145 51.8073C136.705 51.8073 136.285 51.7473 135.885 51.6273C135.492 51.5073 135.182 51.3606 134.955 51.1873L135.355 50.4273C135.582 50.5806 135.862 50.7106 136.195 50.8173C136.529 50.924 136.869 50.9773 137.215 50.9773C137.662 50.9773 137.982 50.914 138.175 50.7873C138.375 50.6606 138.475 50.484 138.475 50.2573C138.475 50.0906 138.415 49.9606 138.295 49.8673C138.175 49.774 138.015 49.704 137.815 49.6573C137.622 49.6106 137.405 49.5706 137.165 49.5373C136.925 49.4973 136.685 49.4506 136.445 49.3973C136.205 49.3373 135.985 49.2573 135.785 49.1573C135.585 49.0506 135.425 48.9073 135.305 48.7273C135.185 48.5406 135.125 48.294 135.125 47.9873C135.125 47.6673 135.215 47.3873 135.395 47.1473C135.575 46.9073 135.829 46.724 136.155 46.5973C136.489 46.464 136.882 46.3973 137.335 46.3973C137.682 46.3973 138.032 46.4406 138.385 46.5273C138.745 46.6073 139.039 46.724 139.265 46.8773L138.855 47.6373C138.615 47.4773 138.365 47.3673 138.105 47.3073C137.845 47.2473 137.585 47.2173 137.325 47.2173C136.905 47.2173 136.592 47.2873 136.385 47.4273C136.179 47.5606 136.075 47.734 136.075 47.9473C136.075 48.1273 136.135 48.2673 136.255 48.3673C136.382 48.4606 136.542 48.534 136.735 48.5873C136.935 48.6406 137.155 48.6873 137.395 48.7273C137.635 48.7606 137.875 48.8073 138.115 48.8673C138.355 48.9206 138.572 48.9973 138.765 49.0973C138.965 49.1973 139.125 49.3373 139.245 49.5173C139.372 49.6973 139.435 49.9373 139.435 50.2373C139.435 50.5573 139.342 50.834 139.155 51.0673C138.969 51.3006 138.705 51.484 138.365 51.6173C138.025 51.744 137.619 51.8073 137.145 51.8073ZM143.302 51.8073C142.762 51.8073 142.279 51.6906 141.852 51.4573C141.432 51.224 141.102 50.904 140.862 50.4973C140.622 50.0906 140.502 49.624 140.502 49.0973C140.502 48.5706 140.622 48.104 140.862 47.6973C141.102 47.2906 141.432 46.974 141.852 46.7473C142.279 46.514 142.762 46.3973 143.302 46.3973C143.782 46.3973 144.209 46.494 144.582 46.6873C144.962 46.874 145.256 47.154 145.462 47.5273L144.732 47.9973C144.559 47.7373 144.346 47.5473 144.092 47.4273C143.846 47.3006 143.579 47.2373 143.292 47.2373C142.946 47.2373 142.636 47.314 142.362 47.4673C142.089 47.6206 141.872 47.8373 141.712 48.1173C141.552 48.3906 141.472 48.7173 141.472 49.0973C141.472 49.4773 141.552 49.8073 141.712 50.0873C141.872 50.3673 142.089 50.584 142.362 50.7373C142.636 50.8906 142.946 50.9673 143.292 50.9673C143.579 50.9673 143.846 50.9073 144.092 50.7873C144.346 50.6606 144.559 50.4673 144.732 50.2073L145.462 50.6673C145.256 51.034 144.962 51.3173 144.582 51.5173C144.209 51.7106 143.782 51.8073 143.302 51.8073ZM149.254 51.8073C148.721 51.8073 148.247 51.6906 147.834 51.4573C147.421 51.224 147.094 50.904 146.854 50.4973C146.614 50.084 146.494 49.6173 146.494 49.0973C146.494 48.5706 146.614 48.104 146.854 47.6973C147.094 47.2906 147.421 46.974 147.834 46.7473C148.247 46.514 148.721 46.3973 149.254 46.3973C149.781 46.3973 150.251 46.514 150.664 46.7473C151.084 46.974 151.411 47.2906 151.644 47.6973C151.884 48.0973 152.004 48.564 152.004 49.0973C152.004 49.624 151.884 50.0906 151.644 50.4973C151.411 50.904 151.084 51.224 150.664 51.4573C150.251 51.6906 149.781 51.8073 149.254 51.8073ZM149.254 50.9673C149.594 50.9673 149.897 50.8906 150.164 50.7373C150.437 50.584 150.651 50.3673 150.804 50.0873C150.957 49.8006 151.034 49.4706 151.034 49.0973C151.034 48.7173 150.957 48.3906 150.804 48.1173C150.651 47.8373 150.437 47.6206 150.164 47.4673C149.897 47.314 149.594 47.2373 149.254 47.2373C148.914 47.2373 148.611 47.314 148.344 47.4673C148.077 47.6206 147.864 47.8373 147.704 48.1173C147.544 48.3906 147.464 48.7173 147.464 49.0973C147.464 49.4706 147.544 49.8006 147.704 50.0873C147.864 50.3673 148.077 50.584 148.344 50.7373C148.611 50.8906 148.914 50.9673 149.254 50.9673ZM155.919 51.8073C155.466 51.8073 155.066 51.724 154.719 51.5573C154.379 51.3906 154.112 51.1373 153.919 50.7973C153.732 50.4506 153.639 50.0173 153.639 49.4973V46.4473H154.599V49.3873C154.599 49.9073 154.722 50.2973 154.969 50.5573C155.222 50.8173 155.576 50.9473 156.029 50.9473C156.362 50.9473 156.652 50.8806 156.899 50.7473C157.146 50.6073 157.336 50.4073 157.469 50.1473C157.602 49.8806 157.669 49.5606 157.669 49.1873V46.4473H158.629V51.7473H157.719V50.3173L157.869 50.6973C157.696 51.0506 157.436 51.324 157.089 51.5173C156.742 51.7106 156.352 51.8073 155.919 51.8073ZM163.644 46.3973C164.077 46.3973 164.457 46.4806 164.784 46.6473C165.117 46.814 165.377 47.0673 165.564 47.4073C165.75 47.7473 165.844 48.1773 165.844 48.6973V51.7473H164.884V48.8073C164.884 48.294 164.757 47.9073 164.504 47.6473C164.257 47.3873 163.907 47.2573 163.454 47.2573C163.114 47.2573 162.817 47.324 162.564 47.4573C162.31 47.5906 162.114 47.7873 161.974 48.0473C161.84 48.3073 161.774 48.6306 161.774 49.0173V51.7473H160.814V46.4473H161.734V47.8773L161.584 47.4973C161.757 47.1506 162.024 46.8806 162.384 46.6873C162.744 46.494 163.164 46.3973 163.644 46.3973ZM169.797 51.8073C169.264 51.8073 168.851 51.664 168.557 51.3773C168.264 51.0906 168.117 50.6806 168.117 50.1473V45.2873H169.077V50.1073C169.077 50.394 169.147 50.614 169.287 50.7673C169.434 50.9206 169.641 50.9973 169.907 50.9973C170.207 50.9973 170.457 50.914 170.657 50.7473L170.957 51.4373C170.811 51.564 170.634 51.6573 170.427 51.7173C170.227 51.7773 170.017 51.8073 169.797 51.8073ZM167.217 47.2373V46.4473H170.597V47.2373H167.217ZM177.748 51.8073C177.295 51.8073 176.895 51.724 176.548 51.5573C176.208 51.3906 175.941 51.1373 175.748 50.7973C175.561 50.4506 175.468 50.0173 175.468 49.4973V46.4473H176.428V49.3873C176.428 49.9073 176.551 50.2973 176.798 50.5573C177.051 50.8173 177.405 50.9473 177.858 50.9473C178.191 50.9473 178.481 50.8806 178.728 50.7473C178.975 50.6073 179.165 50.4073 179.298 50.1473C179.431 49.8806 179.498 49.5606 179.498 49.1873V46.4473H180.458V51.7473H179.548V50.3173L179.698 50.6973C179.525 51.0506 179.265 51.324 178.918 51.5173C178.571 51.7106 178.181 51.8073 177.748 51.8073ZM185.453 51.8073C185.013 51.8073 184.609 51.7073 184.243 51.5073C183.883 51.3006 183.593 50.9973 183.373 50.5973C183.159 50.1973 183.053 49.6973 183.053 49.0973C183.053 48.4973 183.156 47.9973 183.363 47.5973C183.576 47.1973 183.863 46.8973 184.223 46.6973C184.589 46.4973 184.999 46.3973 185.453 46.3973C185.973 46.3973 186.433 46.5106 186.833 46.7373C187.233 46.964 187.549 47.2806 187.783 47.6873C188.016 48.0873 188.133 48.5573 188.133 49.0973C188.133 49.6373 188.016 50.1106 187.783 50.5173C187.549 50.924 187.233 51.2406 186.833 51.4673C186.433 51.694 185.973 51.8073 185.453 51.8073ZM182.643 53.6873V46.4473H183.563V47.8773L183.503 49.1073L183.603 50.3373V53.6873H182.643ZM185.373 50.9673C185.713 50.9673 186.016 50.8906 186.283 50.7373C186.556 50.584 186.769 50.3673 186.923 50.0873C187.083 49.8006 187.163 49.4706 187.163 49.0973C187.163 48.7173 187.083 48.3906 186.923 48.1173C186.769 47.8373 186.556 47.6206 186.283 47.4673C186.016 47.314 185.713 47.2373 185.373 47.2373C185.039 47.2373 184.736 47.314 184.463 47.4673C184.196 47.6206 183.983 47.8373 183.823 48.1173C183.669 48.3906 183.593 48.7173 183.593 49.0973C183.593 49.4706 183.669 49.8006 183.823 50.0873C183.983 50.3673 184.196 50.584 184.463 50.7373C184.736 50.8906 185.039 50.9673 185.373 50.9673ZM194.679 51.8073C194.146 51.8073 193.732 51.664 193.439 51.3773C193.146 51.0906 192.999 50.6806 192.999 50.1473V45.2873H193.959V50.1073C193.959 50.394 194.029 50.614 194.169 50.7673C194.316 50.9206 194.522 50.9973 194.789 50.9973C195.089 50.9973 195.339 50.914 195.539 50.7473L195.839 51.4373C195.692 51.564 195.516 51.6573 195.309 51.7173C195.109 51.7773 194.899 51.8073 194.679 51.8073ZM192.099 47.2373V46.4473H195.479V47.2373H192.099ZM199.451 51.8073C198.918 51.8073 198.444 51.6906 198.031 51.4573C197.618 51.224 197.291 50.904 197.051 50.4973C196.811 50.084 196.691 49.6173 196.691 49.0973C196.691 48.5706 196.811 48.104 197.051 47.6973C197.291 47.2906 197.618 46.974 198.031 46.7473C198.444 46.514 198.918 46.3973 199.451 46.3973C199.978 46.3973 200.448 46.514 200.861 46.7473C201.281 46.974 201.608 47.2906 201.841 47.6973C202.081 48.0973 202.201 48.564 202.201 49.0973C202.201 49.624 202.081 50.0906 201.841 50.4973C201.608 50.904 201.281 51.224 200.861 51.4573C200.448 51.6906 199.978 51.8073 199.451 51.8073ZM199.451 50.9673C199.791 50.9673 200.094 50.8906 200.361 50.7373C200.634 50.584 200.848 50.3673 201.001 50.0873C201.154 49.8006 201.231 49.4706 201.231 49.0973C201.231 48.7173 201.154 48.3906 201.001 48.1173C200.848 47.8373 200.634 47.6206 200.361 47.4673C200.094 47.314 199.791 47.2373 199.451 47.2373C199.111 47.2373 198.808 47.314 198.541 47.4673C198.274 47.6206 198.061 47.8373 197.901 48.1173C197.741 48.3906 197.661 48.7173 197.661 49.0973C197.661 49.4706 197.741 49.8006 197.901 50.0873C198.061 50.3673 198.274 50.584 198.541 50.7373C198.808 50.8906 199.111 50.9673 199.451 50.9673Z" fill="#22BB9B"/>
<path d="M121.605 108.539V101.615C121.605 100.991 121.785 100.495 122.145 100.127C122.513 99.7506 123.033 99.5626 123.705 99.5626C123.953 99.5626 124.189 99.5946 124.413 99.6586C124.645 99.7146 124.841 99.8066 125.001 99.9346L124.653 100.811C124.533 100.715 124.397 100.643 124.245 100.595C124.093 100.539 123.933 100.511 123.765 100.511C123.429 100.511 123.173 100.607 122.997 100.799C122.821 100.983 122.733 101.259 122.733 101.627V102.479L122.757 103.007V108.539H121.605ZM120.525 103.127V102.179H124.581V103.127H120.525ZM128.297 108.611C127.657 108.611 127.089 108.471 126.593 108.191C126.097 107.911 125.705 107.527 125.417 107.039C125.129 106.543 124.985 105.983 124.985 105.359C124.985 104.727 125.129 104.167 125.417 103.679C125.705 103.191 126.097 102.811 126.593 102.539C127.089 102.259 127.657 102.119 128.297 102.119C128.929 102.119 129.493 102.259 129.989 102.539C130.493 102.811 130.885 103.191 131.165 103.679C131.453 104.159 131.597 104.719 131.597 105.359C131.597 105.991 131.453 106.551 131.165 107.039C130.885 107.527 130.493 107.911 129.989 108.191C129.493 108.471 128.929 108.611 128.297 108.611ZM128.297 107.603C128.705 107.603 129.069 107.511 129.389 107.327C129.717 107.143 129.973 106.883 130.157 106.547C130.341 106.203 130.433 105.807 130.433 105.359C130.433 104.903 130.341 104.511 130.157 104.183C129.973 103.847 129.717 103.587 129.389 103.403C129.069 103.219 128.705 103.127 128.297 103.127C127.889 103.127 127.525 103.219 127.205 103.403C126.885 103.587 126.629 103.847 126.437 104.183C126.245 104.511 126.149 104.903 126.149 105.359C126.149 105.807 126.245 106.203 126.437 106.547C126.629 106.883 126.885 107.143 127.205 107.327C127.525 107.511 127.889 107.603 128.297 107.603ZM133.191 108.539V102.179H134.295V103.907L134.187 103.475C134.363 103.035 134.659 102.699 135.075 102.467C135.491 102.235 136.003 102.119 136.611 102.119V103.235C136.563 103.227 136.515 103.223 136.467 103.223C136.427 103.223 136.387 103.223 136.347 103.223C135.731 103.223 135.243 103.407 134.883 103.775C134.523 104.143 134.343 104.675 134.343 105.371V108.539H133.191ZM143.519 108.611C142.879 108.611 142.383 108.439 142.031 108.095C141.679 107.751 141.503 107.259 141.503 106.619V100.787H142.655V106.571C142.655 106.915 142.739 107.179 142.907 107.363C143.083 107.547 143.331 107.639 143.651 107.639C144.011 107.639 144.311 107.539 144.551 107.339L144.911 108.167C144.735 108.319 144.523 108.431 144.275 108.503C144.035 108.575 143.783 108.611 143.519 108.611ZM140.423 103.127V102.179H144.479V103.127H140.423ZM149.7 102.119C150.22 102.119 150.676 102.219 151.068 102.419C151.468 102.619 151.78 102.923 152.004 103.331C152.228 103.739 152.34 104.255 152.34 104.879V108.539H151.188V105.011C151.188 104.395 151.036 103.931 150.732 103.619C150.436 103.307 150.016 103.151 149.472 103.151C149.064 103.151 148.708 103.231 148.404 103.391C148.1 103.551 147.864 103.787 147.696 104.099C147.536 104.411 147.456 104.799 147.456 105.263V108.539H146.304V99.6346H147.456V103.895L147.228 103.439C147.436 103.023 147.756 102.699 148.188 102.467C148.62 102.235 149.124 102.119 149.7 102.119ZM157.304 108.611C156.624 108.611 156.024 108.471 155.504 108.191C154.992 107.911 154.592 107.527 154.304 107.039C154.024 106.551 153.884 105.991 153.884 105.359C153.884 104.727 154.02 104.167 154.292 103.679C154.572 103.191 154.952 102.811 155.432 102.539C155.92 102.259 156.468 102.119 157.076 102.119C157.692 102.119 158.236 102.255 158.708 102.527C159.18 102.799 159.548 103.183 159.812 103.679C160.084 104.167 160.22 104.739 160.22 105.395C160.22 105.443 160.216 105.499 160.208 105.563C160.208 105.627 160.204 105.687 160.196 105.743H154.784V104.915H159.596L159.128 105.203C159.136 104.795 159.052 104.431 158.876 104.111C158.7 103.791 158.456 103.543 158.144 103.367C157.84 103.183 157.484 103.091 157.076 103.091C156.676 103.091 156.32 103.183 156.008 103.367C155.696 103.543 155.452 103.795 155.276 104.123C155.1 104.443 155.012 104.811 155.012 105.227V105.419C155.012 105.843 155.108 106.223 155.3 106.559C155.5 106.887 155.776 107.143 156.128 107.327C156.48 107.511 156.884 107.603 157.34 107.603C157.716 107.603 158.056 107.539 158.36 107.411C158.672 107.283 158.944 107.091 159.176 106.835L159.812 107.579C159.524 107.915 159.164 108.171 158.732 108.347C158.308 108.523 157.832 108.611 157.304 108.611ZM167.814 108.611C167.166 108.611 166.586 108.471 166.074 108.191C165.57 107.911 165.174 107.527 164.886 107.039C164.598 106.551 164.454 105.991 164.454 105.359C164.454 104.727 164.598 104.167 164.886 103.679C165.174 103.191 165.57 102.811 166.074 102.539C166.586 102.259 167.166 102.119 167.814 102.119C168.39 102.119 168.902 102.235 169.35 102.467C169.806 102.691 170.158 103.027 170.406 103.475L169.53 104.039C169.322 103.727 169.066 103.499 168.762 103.355C168.466 103.203 168.146 103.127 167.802 103.127C167.386 103.127 167.014 103.219 166.686 103.403C166.358 103.587 166.098 103.847 165.906 104.183C165.714 104.511 165.618 104.903 165.618 105.359C165.618 105.815 165.714 106.211 165.906 106.547C166.098 106.883 166.358 107.143 166.686 107.327C167.014 107.511 167.386 107.603 167.802 107.603C168.146 107.603 168.466 107.531 168.762 107.387C169.066 107.235 169.322 107.003 169.53 106.691L170.406 107.243C170.158 107.683 169.806 108.023 169.35 108.263C168.902 108.495 168.39 108.611 167.814 108.611ZM174.528 108.611C173.888 108.611 173.32 108.471 172.824 108.191C172.328 107.911 171.936 107.527 171.648 107.039C171.36 106.543 171.216 105.983 171.216 105.359C171.216 104.727 171.36 104.167 171.648 103.679C171.936 103.191 172.328 102.811 172.824 102.539C173.32 102.259 173.888 102.119 174.528 102.119C175.16 102.119 175.724 102.259 176.22 102.539C176.724 102.811 177.116 103.191 177.396 103.679C177.684 104.159 177.828 104.719 177.828 105.359C177.828 105.991 177.684 106.551 177.396 107.039C177.116 107.527 176.724 107.911 176.22 108.191C175.724 108.471 175.16 108.611 174.528 108.611ZM174.528 107.603C174.936 107.603 175.3 107.511 175.62 107.327C175.948 107.143 176.204 106.883 176.388 106.547C176.572 106.203 176.664 105.807 176.664 105.359C176.664 104.903 176.572 104.511 176.388 104.183C176.204 103.847 175.948 103.587 175.62 103.403C175.3 103.219 174.936 103.127 174.528 103.127C174.12 103.127 173.756 103.219 173.436 103.403C173.116 103.587 172.86 103.847 172.668 104.183C172.476 104.511 172.38 104.903 172.38 105.359C172.38 105.807 172.476 106.203 172.668 106.547C172.86 106.883 173.116 107.143 173.436 107.327C173.756 107.511 174.12 107.603 174.528 107.603ZM187.377 102.119C187.889 102.119 188.341 102.219 188.733 102.419C189.125 102.619 189.429 102.923 189.645 103.331C189.869 103.739 189.981 104.255 189.981 104.879V108.539H188.829V105.011C188.829 104.395 188.685 103.931 188.397 103.619C188.109 103.307 187.705 103.151 187.185 103.151C186.801 103.151 186.465 103.231 186.177 103.391C185.889 103.551 185.665 103.787 185.505 104.099C185.353 104.411 185.277 104.799 185.277 105.263V108.539H184.125V105.011C184.125 104.395 183.981 103.931 183.693 103.619C183.413 103.307 183.009 103.151 182.481 103.151C182.105 103.151 181.773 103.231 181.485 103.391C181.197 103.551 180.973 103.787 180.813 104.099C180.653 104.411 180.573 104.799 180.573 105.263V108.539H179.421V102.179H180.525V103.871L180.345 103.439C180.545 103.023 180.853 102.699 181.269 102.467C181.685 102.235 182.169 102.119 182.721 102.119C183.329 102.119 183.853 102.271 184.293 102.575C184.733 102.871 185.021 103.323 185.157 103.931L184.689 103.739C184.881 103.251 185.217 102.859 185.697 102.563C186.177 102.267 186.737 102.119 187.377 102.119ZM195.473 108.611C194.929 108.611 194.437 108.491 193.997 108.251C193.565 108.003 193.221 107.639 192.965 107.159C192.717 106.679 192.593 106.079 192.593 105.359C192.593 104.639 192.721 104.039 192.977 103.559C193.241 103.079 193.589 102.719 194.021 102.479C194.461 102.239 194.945 102.119 195.473 102.119C196.097 102.119 196.649 102.255 197.129 102.527C197.609 102.799 197.989 103.179 198.269 103.667C198.549 104.147 198.689 104.711 198.689 105.359C198.689 106.007 198.549 106.575 198.269 107.063C197.989 107.551 197.609 107.931 197.129 108.203C196.649 108.475 196.097 108.611 195.473 108.611ZM192.101 108.539V99.6346H193.253V103.871L193.133 105.347L193.205 106.823V108.539H192.101ZM195.377 107.603C195.785 107.603 196.149 107.511 196.469 107.327C196.797 107.143 197.053 106.883 197.237 106.547C197.429 106.203 197.525 105.807 197.525 105.359C197.525 104.903 197.429 104.511 197.237 104.183C197.053 103.847 196.797 103.587 196.469 103.403C196.149 103.219 195.785 103.127 195.377 103.127C194.977 103.127 194.613 103.219 194.285 103.403C193.965 103.587 193.709 103.847 193.517 104.183C193.333 104.511 193.241 104.903 193.241 105.359C193.241 105.807 193.333 106.203 193.517 106.547C193.709 106.883 193.965 107.143 194.285 107.327C194.613 107.511 194.977 107.603 195.377 107.603ZM203.004 108.611C202.364 108.611 201.796 108.471 201.3 108.191C200.804 107.911 200.412 107.527 200.124 107.039C199.836 106.543 199.692 105.983 199.692 105.359C199.692 104.727 199.836 104.167 200.124 103.679C200.412 103.191 200.804 102.811 201.3 102.539C201.796 102.259 202.364 102.119 203.004 102.119C203.636 102.119 204.2 102.259 204.696 102.539C205.2 102.811 205.592 103.191 205.872 103.679C206.16 104.159 206.304 104.719 206.304 105.359C206.304 105.991 206.16 106.551 205.872 107.039C205.592 107.527 205.2 107.911 204.696 108.191C204.2 108.471 203.636 108.611 203.004 108.611ZM203.004 107.603C203.412 107.603 203.776 107.511 204.096 107.327C204.424 107.143 204.68 106.883 204.864 106.547C205.048 106.203 205.14 105.807 205.14 105.359C205.14 104.903 205.048 104.511 204.864 104.183C204.68 103.847 204.424 103.587 204.096 103.403C203.776 103.219 203.412 103.127 203.004 103.127C202.596 103.127 202.232 103.219 201.912 103.403C201.592 103.587 201.336 103.847 201.144 104.183C200.952 104.511 200.856 104.903 200.856 105.359C200.856 105.807 200.952 106.203 201.144 106.547C201.336 106.883 201.592 107.143 201.912 107.327C202.232 107.511 202.596 107.603 203.004 107.603ZM141.965 124.611C141.437 124.611 140.953 124.491 140.513 124.251C140.081 124.003 139.733 123.639 139.469 123.159C139.213 122.679 139.085 122.079 139.085 121.359C139.085 120.639 139.209 120.039 139.457 119.559C139.713 119.079 140.057 118.719 140.489 118.479C140.929 118.239 141.421 118.119 141.965 118.119C142.589 118.119 143.141 118.255 143.621 118.527C144.101 118.799 144.481 119.179 144.761 119.667C145.041 120.147 145.181 120.711 145.181 121.359C145.181 122.007 145.041 122.575 144.761 123.063C144.481 123.551 144.101 123.931 143.621 124.203C143.141 124.475 142.589 124.611 141.965 124.611ZM138.593 126.867V118.179H139.697V119.895L139.625 121.371L139.745 122.847V126.867H138.593ZM141.869 123.603C142.277 123.603 142.641 123.511 142.961 123.327C143.289 123.143 143.545 122.883 143.729 122.547C143.921 122.203 144.017 121.807 144.017 121.359C144.017 120.903 143.921 120.511 143.729 120.183C143.545 119.847 143.289 119.587 142.961 119.403C142.641 119.219 142.277 119.127 141.869 119.127C141.469 119.127 141.105 119.219 140.777 119.403C140.457 119.587 140.201 119.847 140.009 120.183C139.825 120.511 139.733 120.903 139.733 121.359C139.733 121.807 139.825 122.203 140.009 122.547C140.201 122.883 140.457 123.143 140.777 123.327C141.105 123.511 141.469 123.603 141.869 123.603ZM150.662 124.539V123.195L150.602 122.943V120.651C150.602 120.163 150.458 119.787 150.17 119.523C149.89 119.251 149.466 119.115 148.898 119.115C148.522 119.115 148.154 119.179 147.794 119.307C147.434 119.427 147.13 119.591 146.882 119.799L146.402 118.935C146.73 118.671 147.122 118.471 147.578 118.335C148.042 118.191 148.526 118.119 149.03 118.119C149.902 118.119 150.574 118.331 151.046 118.755C151.518 119.179 151.754 119.827 151.754 120.699V124.539H150.662ZM148.574 124.611C148.102 124.611 147.686 124.531 147.326 124.371C146.974 124.211 146.702 123.991 146.51 123.711C146.318 123.423 146.222 123.099 146.222 122.739C146.222 122.395 146.302 122.083 146.462 121.803C146.63 121.523 146.898 121.299 147.266 121.131C147.642 120.963 148.146 120.879 148.778 120.879H150.794V121.707H148.826C148.25 121.707 147.862 121.803 147.662 121.995C147.462 122.187 147.362 122.419 147.362 122.691C147.362 123.003 147.486 123.255 147.734 123.447C147.982 123.631 148.326 123.723 148.766 123.723C149.198 123.723 149.574 123.627 149.894 123.435C150.222 123.243 150.458 122.963 150.602 122.595L150.83 123.387C150.678 123.763 150.41 124.063 150.026 124.287C149.642 124.503 149.158 124.611 148.574 124.611ZM156.658 124.611C156.01 124.611 155.43 124.471 154.918 124.191C154.414 123.911 154.018 123.527 153.73 123.039C153.442 122.551 153.298 121.991 153.298 121.359C153.298 120.727 153.442 120.167 153.73 119.679C154.018 119.191 154.414 118.811 154.918 118.539C155.43 118.259 156.01 118.119 156.658 118.119C157.234 118.119 157.746 118.235 158.194 118.467C158.65 118.691 159.002 119.027 159.25 119.475L158.374 120.039C158.166 119.727 157.91 119.499 157.606 119.355C157.31 119.203 156.99 119.127 156.646 119.127C156.23 119.127 155.858 119.219 155.53 119.403C155.202 119.587 154.942 119.847 154.75 120.183C154.558 120.511 154.462 120.903 154.462 121.359C154.462 121.815 154.558 122.211 154.75 122.547C154.942 122.883 155.202 123.143 155.53 123.327C155.858 123.511 156.23 123.603 156.646 123.603C156.99 123.603 157.31 123.531 157.606 123.387C157.91 123.235 158.166 123.003 158.374 122.691L159.25 123.243C159.002 123.683 158.65 124.023 158.194 124.263C157.746 124.495 157.234 124.611 156.658 124.611ZM161.595 123.003L161.619 121.527L165.279 118.179H166.671L163.863 120.939L163.239 121.467L161.595 123.003ZM160.659 124.539V115.635H161.811V124.539H160.659ZM165.519 124.539L163.023 121.443L163.767 120.519L166.935 124.539H165.519ZM171.885 124.539V123.195L171.825 122.943V120.651C171.825 120.163 171.681 119.787 171.393 119.523C171.113 119.251 170.689 119.115 170.121 119.115C169.745 119.115 169.377 119.179 169.017 119.307C168.657 119.427 168.353 119.591 168.105 119.799L167.625 118.935C167.953 118.671 168.345 118.471 168.801 118.335C169.265 118.191 169.749 118.119 170.253 118.119C171.125 118.119 171.797 118.331 172.269 118.755C172.741 119.179 172.977 119.827 172.977 120.699V124.539H171.885ZM169.797 124.611C169.325 124.611 168.909 124.531 168.549 124.371C168.197 124.211 167.925 123.991 167.733 123.711C167.541 123.423 167.445 123.099 167.445 122.739C167.445 122.395 167.525 122.083 167.685 121.803C167.853 121.523 168.121 121.299 168.489 121.131C168.865 120.963 169.369 120.879 170.001 120.879H172.017V121.707H170.049C169.473 121.707 169.085 121.803 168.885 121.995C168.685 122.187 168.585 122.419 168.585 122.691C168.585 123.003 168.709 123.255 168.957 123.447C169.205 123.631 169.549 123.723 169.989 123.723C170.421 123.723 170.797 123.627 171.117 123.435C171.445 123.243 171.681 122.963 171.825 122.595L172.053 123.387C171.901 123.763 171.633 124.063 171.249 124.287C170.865 124.503 170.381 124.611 169.797 124.611ZM177.893 126.939C177.309 126.939 176.741 126.855 176.189 126.687C175.645 126.527 175.201 126.295 174.857 125.991L175.409 125.103C175.705 125.359 176.069 125.559 176.501 125.703C176.933 125.855 177.385 125.931 177.857 125.931C178.609 125.931 179.161 125.755 179.513 125.403C179.865 125.051 180.041 124.515 180.041 123.795V122.451L180.161 121.191L180.101 119.919V118.179H181.193V123.675C181.193 124.795 180.913 125.619 180.353 126.147C179.793 126.675 178.973 126.939 177.893 126.939ZM177.749 124.275C177.133 124.275 176.581 124.147 176.093 123.891C175.613 123.627 175.229 123.263 174.941 122.799C174.661 122.335 174.521 121.799 174.521 121.191C174.521 120.575 174.661 120.039 174.941 119.583C175.229 119.119 175.613 118.759 176.093 118.503C176.581 118.247 177.133 118.119 177.749 118.119C178.293 118.119 178.789 118.231 179.237 118.455C179.685 118.671 180.041 119.007 180.305 119.463C180.577 119.919 180.713 120.495 180.713 121.191C180.713 121.879 180.577 122.451 180.305 122.907C180.041 123.363 179.685 123.707 179.237 123.939C178.789 124.163 178.293 124.275 177.749 124.275ZM177.881 123.267C178.305 123.267 178.681 123.179 179.009 123.003C179.337 122.827 179.593 122.583 179.777 122.271C179.969 121.959 180.065 121.599 180.065 121.191C180.065 120.783 179.969 120.423 179.777 120.111C179.593 119.799 179.337 119.559 179.009 119.391C178.681 119.215 178.305 119.127 177.881 119.127C177.457 119.127 177.077 119.215 176.741 119.391C176.413 119.559 176.153 119.799 175.961 120.111C175.777 120.423 175.685 120.783 175.685 121.191C175.685 121.599 175.777 121.959 175.961 122.271C176.153 122.583 176.413 122.827 176.741 123.003C177.077 123.179 177.457 123.267 177.881 123.267ZM186.226 124.611C185.546 124.611 184.946 124.471 184.426 124.191C183.914 123.911 183.514 123.527 183.226 123.039C182.946 122.551 182.806 121.991 182.806 121.359C182.806 120.727 182.942 120.167 183.214 119.679C183.494 119.191 183.874 118.811 184.354 118.539C184.842 118.259 185.39 118.119 185.998 118.119C186.614 118.119 187.158 118.255 187.63 118.527C188.102 118.799 188.47 119.183 188.734 119.679C189.006 120.167 189.142 120.739 189.142 121.395C189.142 121.443 189.138 121.499 189.13 121.563C189.13 121.627 189.126 121.687 189.118 121.743H183.706V120.915H188.518L188.05 121.203C188.058 120.795 187.974 120.431 187.798 120.111C187.622 119.791 187.378 119.543 187.066 119.367C186.762 119.183 186.406 119.091 185.998 119.091C185.598 119.091 185.242 119.183 184.93 119.367C184.618 119.543 184.374 119.795 184.198 120.123C184.022 120.443 183.934 120.811 183.934 121.227V121.419C183.934 121.843 184.03 122.223 184.222 122.559C184.422 122.887 184.698 123.143 185.05 123.327C185.402 123.511 185.806 123.603 186.262 123.603C186.638 123.603 186.978 123.539 187.282 123.411C187.594 123.283 187.866 123.091 188.098 122.835L188.734 123.579C188.446 123.915 188.086 124.171 187.654 124.347C187.23 124.523 186.754 124.611 186.226 124.611Z" fill="#22BB9B"/>
<path d="M134.626 88.1433C132.37 88.1433 130.486 87.7953 128.974 87.0993C127.462 86.3793 126.31 85.4553 125.518 84.3273C124.75 83.1753 124.342 81.9393 124.294 80.6193C124.294 80.4033 124.366 80.2233 124.51 80.0793C124.654 79.9353 124.834 79.8633 125.05 79.8633H129.874C130.186 79.8633 130.426 79.9353 130.594 80.0793C130.786 80.1993 130.93 80.3553 131.026 80.5473C131.242 81.0993 131.518 81.5553 131.854 81.9153C132.214 82.2753 132.622 82.5393 133.078 82.7073C133.558 82.8753 134.086 82.9593 134.662 82.9593C135.334 82.9593 135.958 82.8153 136.534 82.5273C137.11 82.2393 137.566 81.8193 137.902 81.2673C138.262 80.6913 138.442 80.0073 138.442 79.2153C138.442 78.4953 138.274 77.8713 137.938 77.3433C137.626 76.8153 137.182 76.3953 136.606 76.0833C136.03 75.7713 135.382 75.6153 134.662 75.6153C134.086 75.6153 133.618 75.6873 133.258 75.8313C132.898 75.9513 132.598 76.1073 132.358 76.2993C132.118 76.4913 131.902 76.6593 131.71 76.8033C131.518 76.9233 131.302 76.9833 131.062 76.9833H126.346C126.13 76.9833 125.938 76.9113 125.77 76.7673C125.626 76.5993 125.554 76.4073 125.554 76.1913L126.85 63.6273C126.898 63.2673 127.03 63.0033 127.246 62.8353C127.462 62.6433 127.726 62.5473 128.038 62.5473H142.474C142.738 62.5473 142.954 62.6313 143.122 62.7993C143.29 62.9673 143.374 63.1833 143.374 63.4473V66.8313C143.374 67.0953 143.29 67.3113 143.122 67.4793C142.954 67.6473 142.738 67.7313 142.474 67.7313H132.034L131.566 72.4113C132.094 72.0513 132.706 71.7633 133.402 71.5473C134.122 71.3073 135.094 71.1873 136.318 71.1873C137.47 71.1873 138.562 71.3793 139.594 71.7633C140.65 72.1473 141.586 72.6993 142.402 73.4193C143.242 74.1393 143.89 75.0033 144.346 76.0113C144.826 76.9953 145.066 78.1113 145.066 79.3593C145.066 81.0633 144.646 82.5753 143.806 83.8953C142.99 85.2153 141.802 86.2593 140.242 87.0273C138.682 87.7713 136.81 88.1433 134.626 88.1433ZM159.869 88.1073C158.141 88.1073 156.641 87.8673 155.369 87.3873C154.097 86.8833 153.041 86.1993 152.201 85.3353C151.385 84.4713 150.761 83.4633 150.329 82.3113C149.897 81.1593 149.645 79.9233 149.573 78.6033C149.549 77.9553 149.525 77.2233 149.501 76.4073C149.501 75.5673 149.501 74.7273 149.501 73.8873C149.525 73.0233 149.549 72.2553 149.573 71.5833C149.645 70.2633 149.897 69.0393 150.329 67.9113C150.785 66.7593 151.433 65.7633 152.273 64.9233C153.137 64.0593 154.193 63.3873 155.441 62.9073C156.713 62.4273 158.189 62.1873 159.869 62.1873C161.573 62.1873 163.049 62.4273 164.297 62.9073C165.545 63.3873 166.589 64.0593 167.429 64.9233C168.293 65.7633 168.953 66.7593 169.409 67.9113C169.865 69.0393 170.117 70.2633 170.165 71.5833C170.213 72.2553 170.237 73.0233 170.237 73.8873C170.261 74.7273 170.261 75.5673 170.237 76.4073C170.237 77.2233 170.213 77.9553 170.165 78.6033C170.117 79.9233 169.865 81.1593 169.409 82.3113C168.977 83.4633 168.341 84.4713 167.501 85.3353C166.685 86.1993 165.641 86.8833 164.369 87.3873C163.121 87.8673 161.621 88.1073 159.869 88.1073ZM159.869 82.8873C161.117 82.8873 162.017 82.4913 162.569 81.6993C163.145 80.8833 163.445 79.7913 163.469 78.4233C163.517 77.7273 163.541 76.9953 163.541 76.2273C163.565 75.4593 163.565 74.6913 163.541 73.9233C163.541 73.1553 163.517 72.4473 163.469 71.7993C163.445 70.4793 163.145 69.4113 162.569 68.5953C162.017 67.7793 161.117 67.3593 159.869 67.3353C158.621 67.3593 157.721 67.7793 157.169 68.5953C156.617 69.4113 156.317 70.4793 156.269 71.7993C156.245 72.4473 156.221 73.1553 156.197 73.9233C156.197 74.6913 156.197 75.4593 156.197 76.2273C156.221 76.9953 156.245 77.7273 156.269 78.4233C156.317 79.7913 156.629 80.8833 157.205 81.6993C157.781 82.4913 158.669 82.8873 159.869 82.8873ZM177.452 87.7473C176.9 87.7473 176.624 87.5073 176.624 87.0273C176.624 86.8833 176.672 86.7513 176.768 86.6313L194.552 63.2313C194.72 63.0153 194.888 62.8473 195.056 62.7273C195.224 62.6073 195.476 62.5473 195.812 62.5473H198.368C198.92 62.5473 199.196 62.7873 199.196 63.2673C199.196 63.4113 199.148 63.5433 199.052 63.6633L181.268 87.0633C181.1 87.2793 180.932 87.4473 180.764 87.5673C180.596 87.6873 180.344 87.7473 180.008 87.7473H177.452ZM195.56 87.9273C193.928 87.9273 192.62 87.4953 191.636 86.6313C190.676 85.7673 190.136 84.6153 190.016 83.1753C189.992 82.5513 189.98 81.9993 189.98 81.5193C189.98 81.0393 189.992 80.4633 190.016 79.7913C190.112 78.3273 190.628 77.1633 191.564 76.2993C192.524 75.4113 193.856 74.9673 195.56 74.9673C197.288 74.9673 198.62 75.4113 199.556 76.2993C200.492 77.1633 201.008 78.3273 201.104 79.7913C201.152 80.4633 201.176 81.0393 201.176 81.5193C201.176 81.9993 201.152 82.5513 201.104 83.1753C201.008 84.6153 200.468 85.7673 199.484 86.6313C198.5 87.4953 197.192 87.9273 195.56 87.9273ZM195.56 84.7593C195.968 84.7593 196.28 84.6753 196.496 84.5073C196.736 84.3393 196.916 84.1233 197.036 83.8593C197.156 83.5713 197.216 83.2713 197.216 82.9593C197.264 82.4073 197.288 81.9033 197.288 81.4473C197.288 80.9913 197.264 80.4993 197.216 79.9713C197.192 79.5153 197.06 79.1073 196.82 78.7473C196.58 78.3633 196.16 78.1713 195.56 78.1713C194.96 78.1713 194.54 78.3633 194.3 78.7473C194.06 79.1073 193.928 79.5153 193.904 79.9713C193.88 80.4993 193.868 80.9913 193.868 81.4473C193.868 81.9033 193.88 82.4073 193.904 82.9593C193.928 83.2713 193.988 83.5713 194.084 83.8593C194.204 84.1233 194.384 84.3393 194.624 84.5073C194.864 84.6753 195.176 84.7593 195.56 84.7593ZM180.332 75.2553C178.676 75.2553 177.356 74.8353 176.372 73.9953C175.412 73.1313 174.884 71.9793 174.788 70.5393C174.74 69.9153 174.716 69.3753 174.716 68.9193C174.74 68.4393 174.764 67.8633 174.788 67.1913C174.86 65.7273 175.364 64.5633 176.3 63.6993C177.26 62.8113 178.604 62.3673 180.332 62.3673C182.06 62.3673 183.392 62.8113 184.328 63.6993C185.264 64.5633 185.768 65.7273 185.84 67.1913C185.888 67.8633 185.912 68.4393 185.912 68.9193C185.912 69.3753 185.888 69.9153 185.84 70.5393C185.768 71.9793 185.24 73.1313 184.256 73.9953C183.272 74.8353 181.964 75.2553 180.332 75.2553ZM180.332 72.1593C180.716 72.1593 181.028 72.0753 181.268 71.9073C181.508 71.7153 181.688 71.4873 181.808 71.2233C181.928 70.9353 181.988 70.6473 181.988 70.3593C182.036 69.8073 182.06 69.3033 182.06 68.8473C182.06 68.3913 182.036 67.8993 181.988 67.3713C181.964 66.9153 181.82 66.5073 181.556 66.1473C181.316 65.7633 180.908 65.5713 180.332 65.5713C179.732 65.5713 179.3 65.7633 179.036 66.1473C178.796 66.5073 178.664 66.9153 178.64 67.3713C178.616 67.8993 178.604 68.3913 178.604 68.8473C178.604 69.3033 178.616 69.8073 178.64 70.3593C178.664 70.6473 178.724 70.9353 178.82 71.2233C178.94 71.4873 179.12 71.7153 179.36 71.9073C179.6 72.0753 179.924 72.1593 180.332 72.1593Z" fill="#22BB9B"/>
</g>
<defs>
<clipPath id="clip0_1195_2539">
<rect width="98" height="108" fill="white" transform="translate(113.978 31.7473)"/>
</clipPath>
</defs>
</svg>
