<svg width="19" height="19" viewBox="0 0 19 19" fill="none" xmlns="http://www.w3.org/2000/svg">
<path d="M18.9963 10.2999C18.841 12.1058 18.1731 13.8297 17.0713 15.2689C15.9694 16.7081 14.4795 17.8026 12.7767 18.4238C11.0739 19.0449 9.22919 19.1668 7.45948 18.7752C5.68977 18.3835 4.06873 17.4946 2.78708 16.2129C1.50543 14.9313 0.616477 13.3102 0.224815 11.5405C-0.166846 9.77081 -0.044927 7.92606 0.57623 6.22329C1.19739 4.52051 2.29194 3.03057 3.73112 1.92873C5.17029 0.826898 6.89422 0.159017 8.70008 0.00366309C8.98016 -0.0196765 9.25803 0.0691993 9.47258 0.250739C9.68713 0.432279 9.82077 0.691612 9.84411 0.971687C9.86745 1.25176 9.77857 1.52964 9.59703 1.74419C9.41549 1.95873 9.15616 2.09238 8.87609 2.11572C7.47101 2.23621 6.12959 2.75554 5.00968 3.6126C3.88976 4.46965 3.03795 5.62876 2.55449 6.95353C2.07102 8.2783 1.97602 9.7136 2.28066 11.0905C2.5853 12.4675 3.2769 13.7287 4.27408 14.7259C5.27127 15.7231 6.53254 16.4147 7.90947 16.7193C9.2864 17.024 10.7217 16.929 12.0465 16.4455C13.3712 15.962 14.5304 15.1102 15.3874 13.9903C16.2445 12.8704 16.7638 11.529 16.8843 10.1239C16.8958 9.98524 16.9346 9.85019 16.9983 9.72649C17.0621 9.60279 17.1496 9.49286 17.2558 9.40297C17.3621 9.31308 17.4849 9.24499 17.6175 9.2026C17.75 9.16021 17.8896 9.14433 18.0283 9.15589C18.167 9.16745 18.302 9.20621 18.4257 9.26995C18.5494 9.3337 18.6594 9.42119 18.7493 9.52742C18.8392 9.63365 18.9072 9.75655 18.9496 9.8891C18.992 10.0216 19.0079 10.1612 18.9963 10.2999ZM8.43608 4.93179V9.5079C8.43608 9.78798 8.54733 10.0566 8.74538 10.2546C8.94342 10.4527 9.21203 10.5639 9.4921 10.5639H14.0682C14.3483 10.5639 14.6169 10.4527 14.8149 10.2546C15.013 10.0566 15.1242 9.78798 15.1242 9.5079C15.1242 9.22782 15.013 8.95922 14.8149 8.76118C14.6169 8.56313 14.3483 8.45187 14.0682 8.45187H10.5481V4.93179C10.5481 4.65171 10.4369 4.38311 10.2388 4.18506C10.0408 3.98702 9.77218 3.87576 9.4921 3.87576C9.21203 3.87576 8.94342 3.98702 8.74538 4.18506C8.54733 4.38311 8.43608 4.65171 8.43608 4.93179ZM16.5323 6.69183C16.8108 6.69183 17.083 6.60925 17.3145 6.45453C17.5461 6.29982 17.7266 6.07991 17.8331 5.82263C17.9397 5.56534 17.9676 5.28223 17.9133 5.0091C17.8589 4.73597 17.7248 4.48508 17.5279 4.28816C17.331 4.09125 17.0801 3.95714 16.807 3.90281C16.5338 3.84848 16.2507 3.87637 15.9934 3.98294C15.7362 4.08951 15.5163 4.26998 15.3615 4.50153C15.2068 4.73308 15.1242 5.00531 15.1242 5.28379C15.1242 5.65723 15.2726 6.01537 15.5366 6.27943C15.8007 6.54348 16.1588 6.69183 16.5323 6.69183ZM13.7162 3.87576C13.9947 3.87576 14.2669 3.79318 14.4985 3.63846C14.73 3.48375 14.9105 3.26384 15.0171 3.00656C15.1236 2.74927 15.1515 2.46616 15.0972 2.19303C15.0429 1.9199 14.9088 1.66901 14.7118 1.47209C14.5149 1.27518 14.264 1.14107 13.9909 1.08674C13.7178 1.03241 13.4347 1.0603 13.1774 1.16687C12.9201 1.27344 12.7002 1.45391 12.5455 1.68546C12.3908 1.91701 12.3082 2.18924 12.3082 2.46772C12.3082 2.84116 12.4565 3.1993 12.7206 3.46336C12.9846 3.72741 13.3428 3.87576 13.7162 3.87576Z" fill="white"/>
</svg>
